<svg width="20" height="20" viewBox="0 0 20 20" fill="none" xmlns="http://www.w3.org/2000/svg">
<path d="M19.522 7.94881C19.514 7.95502 19.5063 7.96155 19.4982 7.96752L18.9814 8.34893L19.5023 8.92768L20 8.47987L19.522 7.94881ZM16.9878 6.13385L17.4298 5.78026C17.4572 5.75851 17.4851 5.73751 17.5136 5.71729L16.9871 5.13221L16.4894 5.5801L16.9878 6.13385ZM17.6338 9.34374L18.1633 9.93206L18.6609 9.48417L18.175 8.9442L17.6338 9.34374ZM15.1504 6.5844L15.6838 7.17705L16.2074 6.75811L15.648 6.13651L15.1504 6.5844ZM17.4545 15.285L16.5122 14.9709C16.1477 15.2398 15.6976 15.3991 15.211 15.3991C15.0625 15.3991 14.9168 15.3843 14.7754 15.356C14.7451 15.4478 14.7296 15.5438 14.7296 15.6404V16.7382H14.3949C13.8411 16.7382 13.3906 17.1887 13.3906 17.7425C13.3906 18.2963 13.8411 18.7468 14.3949 18.7468C14.9486 18.7468 15.3992 18.2963 15.3992 17.7425V16.5517L17.4078 17.305V17.4077H17.073C16.5192 17.4077 16.0687 17.8582 16.0687 18.412C16.0687 18.9658 16.5192 19.4163 17.073 19.4163C17.6267 19.4163 18.0773 18.9658 18.0773 18.412V16.1491C18.0775 15.9579 18.0174 15.7715 17.9056 15.6164C17.7938 15.4613 17.636 15.3453 17.4545 15.285ZM6.69528 10.1355V11.7297C7.23637 11.0832 8.02969 10.7124 8.87305 10.7124C9.47868 10.7124 10.0789 10.9111 10.5652 11.2719L12.9945 9.32846C12.2087 8.50217 11.125 8.03428 9.97227 8.03428H9.9695L9.89614 8.32768C9.82178 8.62653 9.64949 8.89187 9.40675 9.0814C9.16401 9.27092 8.8648 9.3737 8.55684 9.37335C7.90102 9.37335 7.33176 8.90659 7.20313 8.26354L7.14856 7.99096C6.94102 7.949 6.74062 7.87731 6.55356 7.77811C5.44414 7.98319 4.38949 8.43764 3.47949 9.10295L4.98637 11.1121L6.69528 10.1355ZM9.47981 14.5299L8.67805 13.6391L8.40852 13.8547C8.59286 14.0768 8.70387 14.3617 8.70387 14.6722C8.70387 14.8478 8.67098 15.0158 8.61153 15.1708L9.47981 14.5299ZM10.8275 13.5352L9.98204 12.5958L9.20176 13.2201L10.021 14.1304L10.8275 13.5352ZM5.35621 5.35615V4.01709C4.98703 4.01709 4.68668 4.31744 4.68668 4.68662C4.68668 5.0558 4.98707 5.35615 5.35621 5.35615ZM14.8504 10.5658L13.8747 9.48178L13.0944 10.106L14.044 11.1611L14.8504 10.5658Z" fill="url(#paint0_linear_41_945)"/>
<path d="M7.2061 12.163C6.88292 12.5506 6.51711 12.9006 6.11559 13.2064L6.6784 13.6285C6.8941 13.4739 7.15203 13.3905 7.42285 13.3905C7.56625 13.3905 7.7041 13.4146 7.83293 13.4582L10.0191 11.7092C9.67688 11.4972 9.27684 11.3819 8.87364 11.3819C8.22754 11.3819 7.61973 11.6666 7.2061 12.163ZM15.5102 8.80611L15.1793 8.43845L14.399 9.06275L14.8158 9.52588C14.8777 9.36567 14.971 9.21947 15.0903 9.09586C15.2096 8.97225 15.3523 8.87374 15.5102 8.80611ZM8.89629 2.67798C8.82246 2.67798 8.74864 2.69544 8.68266 2.72841L6.82629 3.65657C6.57235 3.78318 6.30365 3.87768 6.02637 3.9379V5.80365C6.02637 6.61052 6.65535 7.29388 7.45832 7.35943L7.70977 7.37998L7.86035 8.13216C7.9266 8.46341 8.21977 8.70377 8.5575 8.70377C8.88442 8.70377 9.16805 8.48232 9.24727 8.16521L9.37395 7.65834V5.484L10.3262 5.00786C10.5648 4.88857 10.713 4.64876 10.713 4.38196C10.713 3.99614 10.3991 3.68228 10.0133 3.68228H9.37399V3.15571C9.37399 2.89231 9.15969 2.67798 8.89629 2.67798ZM7.60211 5.45415L7.12867 5.92755L6.64762 5.4465L7.04777 4.24595L7.68301 4.45771L7.41363 5.26575L7.60211 5.45415ZM9.89379 4.05239L10.1932 4.65126L9.52371 4.98603L9.22426 4.38716L9.89379 4.05239Z" fill="url(#paint1_linear_41_945)"/>
<path d="M4.86578 2.30274C4.80878 2.35945 4.76358 2.4269 4.73282 2.50119C4.70206 2.57548 4.68634 2.65514 4.68657 2.73555C4.68657 3.07305 4.96118 3.34762 5.29864 3.34762C5.72467 3.34709 6.1448 3.24792 6.5261 3.05789L8.38247 2.12973C8.54186 2.05026 8.71749 2.0088 8.89559 2.0086C9.47985 2.0086 9.96349 2.44758 10.034 3.01305C10.7792 3.02453 11.3819 3.63426 11.3819 4.38211C11.3819 4.90411 11.0918 5.37337 10.625 5.6068L10.0428 5.8979V6.53559L10.6728 6.28364C11.917 5.78598 12.721 4.59848 12.721 3.25836C12.721 1.46172 11.2592 0 9.46259 0C9.21235 0 8.96341 0.0348438 8.72274 0.103633L8.51669 0.162461C7.40055 0.481368 6.19766 0.442071 5.10528 0.0546485L4.91664 0.243242C4.84345 0.316041 4.78543 0.402632 4.74593 0.498006C4.70643 0.593379 4.68624 0.695639 4.68653 0.798868C4.68653 1.23 5.07825 1.47805 5.09493 1.48844L5.46313 1.70891L5.15746 2.01102L4.86578 2.30274ZM15.2109 14.7297C16.053 14.7297 16.7382 14.0445 16.7382 13.2023V10.1004C16.7382 9.6995 16.4121 9.37337 16.0112 9.37337C15.6737 9.37337 15.3991 9.64798 15.3991 9.98544C15.3991 10.1489 15.4628 10.3027 15.5784 10.4183L15.7625 10.6023L15.4148 12.3409C15.4043 12.3931 15.3991 12.4462 15.3991 12.4994V12.5823C15.3988 12.6885 15.4196 12.7937 15.4602 12.8918C15.5008 12.9899 15.5605 13.0789 15.6358 13.1538L15.1624 13.6272C14.8833 13.3481 14.7295 12.977 14.7295 12.5823V12.4994C14.7295 12.4024 14.7392 12.3049 14.7583 12.2097L14.9327 11.3372L13.2074 12.6106L13.8448 13.8852C14.1052 14.4061 14.6286 14.7297 15.2109 14.7297ZM12.5706 10.525L11.8097 11.1337L12.7163 12.1411L13.5026 11.5607L12.5706 10.525ZM10.5056 12.177L11.3686 13.1358L12.1751 12.5406L11.286 11.5527L10.5056 12.177ZM16.3573 8.74735C16.5642 8.80054 16.7561 8.90058 16.9181 9.03974L19.1005 7.42891C19.1983 7.35647 19.2778 7.26217 19.3326 7.15354C19.3874 7.04491 19.4161 6.92497 19.4163 6.80329C19.4163 6.37454 19.0675 6.02571 18.6388 6.02571C18.3514 6.02605 18.0726 6.12384 17.848 6.30309L15.7024 8.01958L16.3573 8.74735ZM5.30797 16.3351L5.97684 17.1154L7.3995 16.0654C7.36899 16.0674 7.33833 16.0688 7.30727 16.0688C6.8627 16.0683 6.42467 15.9617 6.02957 15.7578L5.30797 16.3351Z" fill="url(#paint2_linear_41_945)"/>
<path d="M6.41407 17.6252L6.61493 17.8595L6.10657 18.2952L4.09797 15.9519L4.60633 15.5161L4.87235 15.8265L5.38641 15.4152L3.68219 14.5063L3.47465 14.6021C2.58418 15.0132 2.00879 15.9124 2.00879 16.8932C2.00879 18.2845 3.14074 19.4165 4.53207 19.4165H4.98801C6.00768 19.4166 6.99271 19.0465 7.76001 18.3749L8.00493 18.1606C8.80048 17.4646 9.71228 16.9421 10.7152 16.6078C11.1046 16.4784 11.4433 16.2296 11.6833 15.8967C11.9232 15.5638 12.0521 15.1637 12.0518 14.7534C12.052 14.3776 11.9437 14.0099 11.7397 13.6943L6.41407 17.6252Z" fill="url(#paint3_linear_41_945)"/>
<path d="M8.03438 14.6721C8.03438 14.3346 7.75977 14.0601 7.42231 14.0601C7.3419 14.0598 7.26224 14.0756 7.18795 14.1063C7.11366 14.1371 7.0462 14.1823 6.9895 14.2393L6.72673 14.502L3.40879 12.0136L4.40067 11.4468L3.49309 10.2367L2.6475 10.8005C2.4508 10.9313 2.28953 11.1087 2.17806 11.317C2.06659 11.5253 2.00838 11.7579 2.00864 11.9941C2.00836 12.2542 2.0789 12.5094 2.21271 12.7324C2.34651 12.9554 2.53852 13.1378 2.76813 13.2599L6.31278 15.1504C6.61901 15.3134 6.96054 15.3988 7.30743 15.3991C7.70825 15.3991 8.03438 15.073 8.03438 14.6721ZM15.734 2.67803H16.0688V4.68663H16.7383V1.67373C16.7383 1.11994 16.2878 0.669434 15.734 0.669434C15.1803 0.669434 14.7297 1.11994 14.7297 1.67373C14.7297 2.22752 15.1803 2.67803 15.734 2.67803ZM1.58098 6.28721L1.32582 5.90444L2.94598 5.09436C3.19375 4.97049 3.3477 4.72139 3.3477 4.44436C3.3477 4.33213 3.32114 4.21975 3.27094 4.1194L3.0859 3.74928C2.962 3.50151 2.71293 3.34756 2.4359 3.34756C2.32367 3.34756 2.21133 3.37409 2.1109 3.42428L0.385977 4.2867C0.14793 4.4058 0 4.6451 0 4.91135C0 5.04971 0.0405469 5.18362 0.117305 5.29866L1.02395 6.65862C1.03203 6.67077 1.03996 6.68296 1.04777 6.69522H1.0043C0.450547 6.69522 0 7.14577 0 7.69952C0 8.25311 0.450391 8.70366 1.00395 8.70382H1.00434C1.27254 8.70382 1.52469 8.5994 1.71434 8.40975C1.9041 8.22007 2.0086 7.96784 2.0086 7.69952C2.00909 7.19679 1.86026 6.70524 1.58098 6.28721Z" fill="url(#paint4_linear_41_945)"/>
<defs>
<linearGradient id="paint0_linear_41_945" x1="17.8287" y1="0.33876" x2="2.96141" y2="20.1584" gradientUnits="userSpaceOnUse">
<stop stop-color="#45A3D9"/>
<stop offset="1" stop-color="#45D9D0"/>
</linearGradient>
<linearGradient id="paint1_linear_41_945" x1="14.2637" y1="0.0622883" x2="3.28114" y2="11.8817" gradientUnits="userSpaceOnUse">
<stop stop-color="#45A3D9"/>
<stop offset="1" stop-color="#45D9D0"/>
</linearGradient>
<linearGradient id="paint2_linear_41_945" x1="17.4804" y1="-4.08827" x2="0.307215" y2="14.2772" gradientUnits="userSpaceOnUse">
<stop stop-color="#45A3D9"/>
<stop offset="1" stop-color="#45D9D0"/>
</linearGradient>
<linearGradient id="paint3_linear_41_945" x1="10.7318" y1="12.3275" x2="6.37158" y2="21.837" gradientUnits="userSpaceOnUse">
<stop stop-color="#45A3D9"/>
<stop offset="1" stop-color="#45D9D0"/>
</linearGradient>
<linearGradient id="paint4_linear_41_945" x1="14.5384" y1="-2.84895" x2="0.565901" y2="16.8814" gradientUnits="userSpaceOnUse">
<stop stop-color="#45A3D9"/>
<stop offset="1" stop-color="#45D9D0"/>
</linearGradient>
</defs>
</svg>
