<svg width="28" height="21" viewBox="0 0 28 21" fill="none" xmlns="http://www.w3.org/2000/svg">
<path d="M11.4973 6.41483C12.9011 6.01102 14.5422 6.01102 15.946 6.41483V5.5208H17.9559V3.91284H9.4873V5.5208H11.4973V6.41483ZM13.7216 13.3462C13.1599 13.3462 12.7032 13.8029 12.7032 14.3646C12.7589 15.7157 14.6845 15.7153 14.74 14.3646C14.74 13.8029 14.2833 13.3462 13.7216 13.3462Z" fill="url(#paint0_linear_41_938)"/>
<path d="M18.2408 11.3019C18.2408 10.7574 18.3292 10.2332 18.4933 9.74274C17.2841 8.49496 15.5914 7.71831 13.7214 7.71831C8.02622 7.69666 4.97484 14.5517 8.73506 18.7532L7.37076 21L9.22667 20.9998L9.96242 19.8429C12.3057 21.5293 15.8299 21.3481 17.9862 19.4581C16.91 17.5016 17.1442 14.8257 18.5741 13.0846C18.3542 12.516 18.2412 11.9116 18.2408 11.3019ZM13.7214 16.9909C12.2731 16.9909 11.095 15.8128 11.095 14.3646C11.2392 10.8803 16.2041 10.8813 16.3477 14.3646C16.3477 15.8128 15.1696 16.9909 13.7214 16.9909ZM26.2608 13.7793L25.8615 13.3612L26.1305 12.8493C27.1548 10.9632 26.0224 8.5433 23.9845 8.06885V15.4644H22.3765V8.06885C20.3583 8.56378 19.2747 10.8241 20.1564 12.7003C20.2282 12.9769 20.2824 13.261 20.3178 13.5509C18.8047 14.9564 18.462 17.2281 19.5652 18.98C20.3359 20.2027 21.6611 20.9956 23.1805 20.9998C26.9033 21.0098 28.8444 16.4575 26.2608 13.7793Z" fill="url(#paint1_linear_41_938)"/>
<path d="M23.9844 8.06881V2.3375H25.0306V0.729533H21.3297V2.3375H22.3764V8.06881C22.8876 7.93846 23.4729 7.93851 23.9844 8.06881ZM4.48938 7.42938H6.84773V3.85917H4.48938V1.60796H6.84773V0H0.52307V1.60796H2.88142V3.85917H0.52307V7.42938H2.88142V15.9728L0 20.9999H1.85334L3.6854 17.8036L5.51746 20.9999L7.37069 20.9998L4.48938 15.9728V7.42938Z" fill="url(#paint2_linear_41_938)"/>
<defs>
<linearGradient id="paint0_linear_41_938" x1="16.8429" y1="1.17428" x2="5.35557" y2="11.7182" gradientUnits="userSpaceOnUse">
<stop stop-color="#45A3D9"/>
<stop offset="1" stop-color="#45D9D0"/>
</linearGradient>
<linearGradient id="paint1_linear_41_938" x1="24.7647" y1="4.54572" x2="13.772" y2="25.4892" gradientUnits="userSpaceOnUse">
<stop stop-color="#45A3D9"/>
<stop offset="1" stop-color="#45D9D0"/>
</linearGradient>
<linearGradient id="paint2_linear_41_938" x1="21.7408" y1="-5.01614" x2="2.15326" y2="23.9957" gradientUnits="userSpaceOnUse">
<stop stop-color="#45A3D9"/>
<stop offset="1" stop-color="#45D9D0"/>
</linearGradient>
</defs>
</svg>
