<svg width="22" height="28" viewBox="0 0 22 28" fill="none" xmlns="http://www.w3.org/2000/svg">
<path d="M21.4247 21.5662C20.2618 20.3322 18.8754 18.4735 18.8957 16.6301V12.207C18.458 1.61944 3.35842 1.6169 2.91967 12.207V16.6352C2.93998 18.4735 1.55362 20.3322 0.390712 21.5662C0.19842 21.77 0.0700992 22.0258 0.0216166 22.3018C-0.026866 22.5778 0.00661631 22.862 0.117923 23.1192C0.229229 23.3764 0.413479 23.5953 0.647887 23.7489C0.882294 23.9025 1.15658 23.984 1.43683 23.9834H20.3786C20.6573 23.9807 20.9293 23.8971 21.1615 23.7429C21.3938 23.5888 21.5763 23.3705 21.687 23.1147C21.7978 22.8589 21.8319 22.5764 21.7853 22.3016C21.7388 22.0267 21.6135 21.7713 21.4247 21.5662Z" fill="#788595"/>
<path d="M10.9083 3.20836C11.7221 3.20554 12.5323 3.31664 13.3154 3.53844V2.38061C13.2189 -0.790234 8.60429 -0.796836 8.5012 2.38061V3.53844C9.28422 3.31663 10.0944 3.20552 10.9083 3.20836ZM7.07422 24.999C7.38679 25.7827 7.92719 26.4546 8.62561 26.928C9.32402 27.4013 10.1484 27.6544 10.9921 27.6544C11.8358 27.6544 12.6601 27.4013 13.3585 26.928C14.0569 26.4546 14.5973 25.7827 14.9099 24.999H7.07422Z" fill="#788595"/>
</svg>
