<svg width="68" height="68" viewBox="0 0 68 68" fill="none" xmlns="http://www.w3.org/2000/svg">
<g opacity="0.5">
<path d="M6.7998 4.53345H9.06647V6.80011H6.7998V4.53345ZM11.3331 4.53345H13.5998V6.80011H11.3331V4.53345ZM15.8665 4.53345H18.1331V6.80011H15.8665V4.53345ZM7.93314 29.4668H26.0665C26.3671 29.4668 26.6553 29.3474 26.8679 29.1348C27.0804 28.9223 27.1998 28.634 27.1998 28.3334V17.0001C27.1998 16.6995 27.0804 16.4113 26.8679 16.1987C26.6553 15.9862 26.3671 15.8668 26.0665 15.8668H7.93314C7.63256 15.8668 7.34429 15.9862 7.13175 16.1987C6.91921 16.4113 6.7998 16.6995 6.7998 17.0001V28.3334C6.7998 28.634 6.91921 28.9223 7.13175 29.1348C7.34429 29.3474 7.63256 29.4668 7.93314 29.4668ZM9.06647 18.1334H24.9331V27.2001H9.06647V18.1334ZM36.2665 17.0001H54.3998V19.2668H36.2665V17.0001ZM31.7331 21.5334H52.1331V23.8001H31.7331V21.5334ZM31.7331 26.0668H47.5998V28.3334H31.7331V26.0668ZM11.3331 34.0001H40.7998V36.2668H11.3331V34.0001ZM6.7998 38.5334H36.2665V40.8001H6.7998V38.5334ZM6.7998 43.0668H31.7331V45.3334H6.7998V43.0668ZM6.7998 47.6001H31.7331V49.8668H6.7998V47.6001ZM6.7998 52.1334H31.7331V54.4001H6.7998V52.1334ZM6.7998 34.0001H9.06647V36.2668H6.7998V34.0001Z" fill="url(#paint0_linear_41_1511)"/>
<path d="M62.3333 6.8H61.2V5.66667C61.2 4.16377 60.603 2.72243 59.5403 1.65973C58.4776 0.597022 57.0362 0 55.5333 0H5.66667C4.16377 0 2.72243 0.597022 1.65973 1.65973C0.597022 2.72243 0 4.16377 0 5.66667V55.5333C0 57.0362 0.597022 58.4776 1.65973 59.5403C2.72243 60.603 4.16377 61.2 5.66667 61.2H6.8V62.3333C6.8 63.8362 7.39702 65.2776 8.45973 66.3403C9.52243 67.403 10.9638 68 12.4667 68H62.3333C63.8362 68 65.2776 67.403 66.3403 66.3403C67.403 65.2776 68 63.8362 68 62.3333V12.4667C68 10.9638 67.403 9.52243 66.3403 8.45973C65.2776 7.39702 63.8362 6.8 62.3333 6.8ZM60.3047 24.412L65.1213 29.2287L61.914 32.436L57.0973 27.6193L60.3047 24.412ZM39.814 47.2033L40.7093 44.88L44.6533 48.824L42.33 49.7193L39.814 47.2033ZM40.018 50.6033L38.2387 51.2947L38.93 49.5153L40.018 50.6033ZM43.4747 44.4493L41.8767 42.8513L55.4993 29.2287L57.0973 30.8267L43.4747 44.4493ZM58.7067 32.436L60.3047 34.034L46.682 47.6567L45.084 46.0587L58.7067 32.436ZM2.26667 5.66667C2.26936 4.76576 2.62843 3.90252 3.26548 3.26548C3.90252 2.62843 4.76576 2.26936 5.66667 2.26667H55.5333C56.4342 2.26936 57.2975 2.62843 57.9345 3.26548C58.5716 3.90252 58.9306 4.76576 58.9333 5.66667V9.06667H2.26667V5.66667ZM5.66667 58.9333C4.76576 58.9306 3.90252 58.5716 3.26548 57.9345C2.62843 57.2975 2.26936 56.4342 2.26667 55.5333V11.3333H58.9333V22.5873L39.474 42.0467C39.3605 42.1593 39.2717 42.2944 39.2133 42.4433L35.2127 52.8587C35.1304 53.0629 35.1101 53.2869 35.1545 53.5026C35.1988 53.7183 35.3058 53.9161 35.462 54.0713C35.6764 54.2827 35.9656 54.4009 36.2667 54.4C36.4066 54.4011 36.5454 54.3742 36.6747 54.3207L47.09 50.32C47.2389 50.2617 47.374 50.1729 47.4867 50.0593L58.9333 38.6127V55.5333C58.9306 56.4342 58.5716 57.2975 57.9345 57.9345C57.2975 58.5716 56.4342 58.9306 55.5333 58.9333H5.66667ZM65.7333 62.3333C65.7306 63.2342 65.3716 64.0975 64.7345 64.7345C64.0975 65.3716 63.2342 65.7306 62.3333 65.7333H12.4667C11.5658 65.7306 10.7025 65.3716 10.0655 64.7345C9.42843 64.0975 9.06936 63.2342 9.06667 62.3333V61.2H55.5333C57.0362 61.2 58.4776 60.603 59.5403 59.5403C60.603 58.4776 61.2 57.0362 61.2 55.5333V36.346L65.7333 31.8127V62.3333ZM65.7333 26.6333L61.2 22.1V18.1333H65.7333V26.6333ZM65.7333 15.8667H61.2V9.06667H62.3333C63.2342 9.06936 64.0975 9.42843 64.7345 10.0655C65.3716 10.7025 65.7306 11.5658 65.7333 12.4667V15.8667Z" fill="url(#paint1_linear_41_1511)"/>
<path d="M31.7334 17H34.0001V19.2667H31.7334V17Z" fill="url(#paint2_linear_41_1511)"/>
</g>
<defs>
<linearGradient id="paint0_linear_41_1511" x1="48.1437" y1="-7.37793" x2="-1.28202" y2="51.2481" gradientUnits="userSpaceOnUse">
<stop stop-color="#45A3D9"/>
<stop offset="1" stop-color="#45D9D0"/>
</linearGradient>
<linearGradient id="paint1_linear_41_1511" x1="59.0627" y1="-16.2428" x2="-7.73811" y2="66.7658" gradientUnits="userSpaceOnUse">
<stop stop-color="#45A3D9"/>
<stop offset="1" stop-color="#45D9D0"/>
</linearGradient>
<linearGradient id="paint2_linear_41_1511" x1="33.7022" y1="16.4586" x2="31.4755" y2="19.2255" gradientUnits="userSpaceOnUse">
<stop stop-color="#45A3D9"/>
<stop offset="1" stop-color="#45D9D0"/>
</linearGradient>
</defs>
</svg>
