<svg width="18" height="33" viewBox="0 0 18 33" fill="none" xmlns="http://www.w3.org/2000/svg">
<path d="M5.82599 25.4099L3.14453 30.0793H15.0203L12.3388 25.4097L5.82599 25.4099Z" fill="#00A6DF"/>
<path d="M15.5625 2.20093H2.60169C2.32194 2.20093 2.05364 2.31206 1.85582 2.50988C1.65801 2.70769 1.54688 2.97599 1.54688 3.25575V13.6576C1.54687 13.9374 1.65801 14.2057 1.85582 14.4035C2.05364 14.6013 2.32194 14.7125 2.60169 14.7125H15.5625C15.8423 14.7125 16.1106 14.6013 16.3084 14.4035C16.5062 14.2057 16.6174 13.9374 16.6174 13.6576V3.25575C16.6174 2.97599 16.5062 2.70769 16.3084 2.50988C16.1106 2.31206 15.8423 2.20093 15.5625 2.20093ZM15.1438 30.0779H3.02174C2.64661 30.0779 2.28686 30.227 2.0216 30.4923C1.75634 30.7575 1.60729 31.1173 1.60722 31.4924V32.4837H16.5583V31.4911C16.5579 31.1162 16.4087 30.7568 16.1435 30.4918C15.8783 30.2268 15.5187 30.0779 15.1438 30.0779ZM2.06279 19.1911C2.06279 21.0528 2.80232 22.8382 4.1187 24.1546C5.43508 25.4709 7.22048 26.2105 9.08212 26.2105C10.9438 26.2105 12.7291 25.4709 14.0455 24.1546C15.3619 22.8382 16.1014 21.0528 16.1014 19.1911V18.7802H2.06279V19.1911Z" fill="#ECEBFD"/>
<path d="M16.422 16.5269H1.74257C1.4467 16.5314 1.16447 16.6521 0.956836 16.8629C0.749198 17.0737 0.632812 17.3577 0.632812 17.6536C0.632812 17.9495 0.749198 18.2336 0.956836 18.4444C1.16447 18.6552 1.4467 18.7759 1.74257 18.7804H16.422C16.7179 18.7759 17.0001 18.6552 17.2077 18.4444C17.4154 18.2336 17.5318 17.9495 17.5318 17.6536C17.5318 17.3577 17.4154 17.0737 17.2077 16.8629C17.0001 16.6521 16.7179 16.5314 16.422 16.5269Z" fill="#00A6DF"/>
<path d="M9.08252 14.7138C12.1279 14.7138 14.5967 11.6745 14.5967 7.92537C14.5967 4.17623 12.1279 1.13696 9.08252 1.13696C6.03713 1.13696 3.56836 4.17623 3.56836 7.92537C3.56836 11.6745 6.03713 14.7138 9.08252 14.7138Z" fill="#00A6DF"/>
<path d="M9.0823 12.3027C10.7959 12.3027 12.1851 10.3429 12.1851 7.92541C12.1851 5.50789 10.7959 3.5481 9.0823 3.5481C7.36867 3.5481 5.97949 5.50789 5.97949 7.92541C5.97949 10.3429 7.36867 12.3027 9.0823 12.3027Z" fill="#ECEBFD"/>
<path d="M2.93555 14.7139H15.2284V16.5268H2.93555V14.7139Z" fill="#696EAF"/>
<path d="M1.743 16.0696C1.33561 16.0708 0.94435 16.2289 0.65056 16.5112C0.35677 16.7934 0.183055 17.178 0.16553 17.585C0.148005 17.992 0.288018 18.3901 0.556461 18.6966C0.824904 19.003 1.20112 19.1942 1.6069 19.2304C1.61422 20.5074 1.94828 21.7613 2.57727 22.8727C3.20626 23.9841 4.10926 24.916 5.20029 25.5797L2.8754 29.6287C2.40615 29.6654 1.96793 29.8775 1.64798 30.2227C1.32802 30.568 1.14977 31.021 1.14872 31.4917V32.4838C1.14868 32.5439 1.16048 32.6033 1.18345 32.6588C1.20641 32.7143 1.24008 32.7647 1.28253 32.8071C1.32499 32.8496 1.3754 32.8833 1.43088 32.9062C1.48636 32.9292 1.54582 32.941 1.60586 32.941H16.5583C16.6183 32.941 16.6778 32.9292 16.7332 32.9062C16.7887 32.8833 16.8391 32.8496 16.8816 32.8071C16.924 32.7647 16.9577 32.7143 16.9807 32.6588C17.0036 32.6033 17.0154 32.5439 17.0154 32.4838V31.4912C17.0144 31.0205 16.8361 30.5674 16.5161 30.2222C16.1962 29.877 15.758 29.6649 15.2887 29.6281L12.9659 25.5831C14.0915 24.8966 15.0166 23.9259 15.6482 22.7687C15.7034 22.6625 15.7148 22.5388 15.6799 22.4243C15.645 22.3098 15.5667 22.2135 15.4616 22.1562C15.3565 22.0988 15.2331 22.0849 15.1179 22.1175C15.0027 22.15 14.9049 22.2265 14.8454 22.3303C14.1499 23.608 13.0494 24.6184 11.7171 25.2025C10.3847 25.7867 8.89605 25.9115 7.48502 25.5575C6.074 25.2034 4.82065 24.3904 3.92198 23.2464C3.02331 22.1024 2.53029 20.6922 2.5204 19.2375H15.6437C15.6417 19.5648 15.6149 19.8914 15.5635 20.2147C15.5443 20.3344 15.5734 20.4569 15.6445 20.5551C15.7155 20.6534 15.8227 20.7194 15.9424 20.7386C16.0622 20.7578 16.1846 20.7287 16.2828 20.6576C16.3811 20.5866 16.4471 20.4794 16.4663 20.3597C16.5253 19.9862 16.5555 19.6088 16.5567 19.2307C16.9624 19.1945 17.3386 19.0033 17.6071 18.6969C17.8755 18.3906 18.0156 17.9925 17.9981 17.5855C17.9806 17.1786 17.807 16.794 17.5133 16.5117C17.2196 16.2294 16.8285 16.0712 16.4211 16.0699H15.6855V15.1647C16.064 15.1337 16.417 14.9616 16.6745 14.6824C16.932 14.4033 17.0751 14.0375 17.0755 13.6577V3.25584C17.0747 2.85509 16.9151 2.471 16.6317 2.18763C16.3484 1.90427 15.9643 1.7447 15.5635 1.74388H12.1938C11.302 1.05415 10.2065 0.679932 9.07919 0.679932C7.95183 0.679932 6.85637 1.05415 5.96463 1.74388H2.60164C2.20072 1.74443 1.81636 1.90387 1.53276 2.18727C1.24917 2.47066 1.08947 2.85491 1.08864 3.25584V13.6577C1.08901 14.0375 1.23213 14.4033 1.48961 14.6824C1.74709 14.9616 2.1001 15.1337 2.4786 15.1647V16.0709L1.743 16.0696ZM14.2295 29.6208H7.52517C7.40393 29.6208 7.28766 29.669 7.20193 29.7547C7.1162 29.8404 7.06803 29.9567 7.06803 30.078C7.06803 30.1992 7.1162 30.3155 7.20193 30.4012C7.28766 30.4869 7.40393 30.5351 7.52517 30.5351H15.1424C15.3963 30.535 15.6398 30.6357 15.8195 30.8149C15.9992 30.9941 16.1005 31.2373 16.1011 31.4912V32.0267H2.063V31.4912C2.06362 31.2373 2.16491 30.9941 2.34464 30.8149C2.52437 30.6357 2.76786 30.535 3.02169 30.5351H5.14543C5.26667 30.5351 5.38295 30.4869 5.46868 30.4012C5.55441 30.3155 5.60257 30.1992 5.60257 30.078C5.60257 29.9567 5.55441 29.8404 5.46868 29.7547C5.38295 29.669 5.26667 29.6208 5.14543 29.6208H3.93388L6.00825 26.0081C6.97461 26.4435 8.02238 26.6687 9.08229 26.669C10.1422 26.6693 11.1901 26.4445 12.1567 26.0097L14.2295 29.6208ZM17.0899 17.6537C17.0897 17.8308 17.0193 18.0007 16.8943 18.1261C16.7692 18.2516 16.5996 18.3224 16.4224 18.3232H1.743C1.56769 18.3197 1.40073 18.2476 1.27797 18.1224C1.15521 17.9972 1.08645 17.8289 1.08645 17.6535C1.08645 17.4782 1.15521 17.3098 1.27797 17.1846C1.40073 17.0594 1.56769 16.9874 1.743 16.9839H16.4224C16.5998 16.9844 16.7696 17.0552 16.8949 17.1808C17.0201 17.3063 17.0905 17.4763 17.0906 17.6537H17.0899ZM16.1612 3.25584V13.6577C16.161 13.8162 16.098 13.9681 15.9859 14.0801C15.8739 14.1922 15.722 14.2552 15.5635 14.2554H11.9816C13.8126 13.0164 15.0536 10.6456 15.0536 7.92624C15.0803 6.00176 14.4139 4.1319 13.176 2.65816H15.5625C15.7211 2.65809 15.8733 2.721 15.9856 2.83307C16.0978 2.94514 16.161 3.0972 16.1612 3.25584ZM2.00292 13.6577V3.25584C2.00312 3.09738 2.06616 2.94548 2.1782 2.83344C2.29024 2.7214 2.44215 2.65836 2.6006 2.65816H4.97773C4.82702 2.83082 4.68509 3.01094 4.55245 3.19784C4.48349 3.29682 4.45645 3.41903 4.47721 3.53786C4.49797 3.65669 4.56486 3.76249 4.66329 3.83222C4.76173 3.90194 4.88373 3.92994 5.00272 3.9101C5.1217 3.89026 5.22802 3.82419 5.29851 3.7263C6.18876 2.47086 7.54346 1.5942 9.08206 1.5942C12.1384 1.5942 14.1393 4.83336 14.1393 7.92624C14.1393 11.413 11.8751 14.2499 9.09016 14.2554H9.07736C6.7415 14.2525 4.67105 12.1868 4.15331 9.33946C4.13159 9.22016 4.06336 9.11437 3.96365 9.04537C3.86393 8.97637 3.74089 8.94981 3.62159 8.97153C3.50229 8.99325 3.3965 9.06147 3.3275 9.16118C3.2585 9.2609 3.23193 9.38394 3.25365 9.50325C3.62877 11.5653 4.73531 13.2716 6.19476 14.2575H2.60164C2.52292 14.2575 2.44496 14.242 2.37224 14.2119C2.29951 14.1818 2.23345 14.1376 2.17783 14.0819C2.12222 14.0261 2.07814 13.96 2.04812 13.8872C2.01811 13.8144 2.00275 13.7365 2.00292 13.6577ZM3.39184 15.1713H14.7712V16.0696H3.39289L3.39184 15.1713ZM3.1617 6.96625C3.21039 6.50815 3.29724 6.05492 3.42136 5.61128C3.45403 5.49451 3.53174 5.3955 3.63741 5.33602C3.74308 5.27655 3.86804 5.26149 3.98482 5.29416C4.10159 5.32682 4.2006 5.40454 4.26008 5.51021C4.31955 5.61588 4.33461 5.74084 4.30194 5.85762C4.19148 6.25225 4.11415 6.65541 4.07076 7.0629C4.05629 7.18209 3.99552 7.29081 3.90156 7.36556C3.8076 7.44031 3.68801 7.4751 3.56862 7.4624C3.44922 7.44971 3.33962 7.39055 3.26348 7.29772C3.18734 7.20488 3.15078 7.08582 3.1617 6.96625ZM9.08206 12.7599C11.0117 12.7599 12.642 10.5463 12.642 7.92546C12.642 5.30461 11.0117 3.091 9.08206 3.091C7.15241 3.091 5.52212 5.30487 5.52212 7.92546C5.52212 10.546 7.15241 12.7599 9.08206 12.7599ZM9.08206 4.00528C10.4927 4.00528 11.7277 5.83724 11.7277 7.92546C11.7277 10.0137 10.4927 11.8456 9.08206 11.8456C7.67146 11.8456 6.4364 10.0137 6.4364 7.92546C6.4364 5.83724 7.67146 4.00528 9.08206 4.00528Z" fill="#33353F"/>
</svg>
