<svg width="101" height="128" viewBox="0 0 101 128" fill="none" xmlns="http://www.w3.org/2000/svg">
<path d="M50.4565 22.5688C43.3352 22.6853 37.6924 23.3151 32.208 25.7782V127.999H68.7047V73.9947C68.5573 74.0512 64.3606 74.0367 64.0725 74.035C62.0029 74.035 60.325 72.3571 60.325 70.2874C60.325 68.2178 62.0029 66.5399 64.0725 66.5399C64.3698 66.5431 68.5486 66.5104 68.7047 66.5801V25.778C63.2233 23.3156 57.5746 22.6848 50.4565 22.5688Z" fill="#00A7DF"/>
<path d="M97.1655 17.3233H90.0849C80.4618 -5.7633 20.6502 -5.78553 11.0043 17.3233H3.74753C1.6779 17.3233 0 19.0011 0 21.0708C0 23.1404 1.6779 24.8183 3.74753 24.8183H9.74359V124.252C9.74359 126.322 11.4215 128 13.4911 128H24.713V23.8187C24.713 23.0335 24.9596 22.2681 25.418 21.6307C33.4237 12.8854 67.4653 12.8737 75.4945 21.6302C75.9529 22.2678 76.1996 23.0332 76.1996 23.8185V127.999H87.4217C89.4913 127.999 91.1692 126.321 91.1692 124.252V24.8183H97.1653C102.131 24.6347 102.13 17.5061 97.1655 17.3233Z" fill="#00A7DF"/>
</svg>
