<svg width="30" height="23" viewBox="0 0 30 23" fill="none" xmlns="http://www.w3.org/2000/svg">
<path d="M14.9956 8.23225C15.4851 8.23225 15.9515 8.33456 16.3756 8.5186C16.4073 7.82665 16.6459 7.18677 17.0285 6.65707C16.7549 6.59976 16.4762 6.57085 16.1967 6.5708H13.5009C13.217 6.5708 12.9391 6.60046 12.6719 6.65616C13.0943 7.23924 13.3234 7.93997 13.3272 8.65995C13.8383 8.37872 14.4123 8.23158 14.9956 8.23225Z" fill="url(#paint0_linear_2077_598)"/>
<path d="M14.8489 6.35402C16.6035 6.35402 18.0259 4.93162 18.0259 3.17701C18.0259 1.4224 16.6035 0 14.8489 0C13.0943 0 11.6719 1.4224 11.6719 3.17701C11.6719 4.93162 13.0943 6.35402 14.8489 6.35402Z" fill="url(#paint1_linear_2077_598)"/>
<path d="M19.8379 11.7752C20.6142 11.7752 21.3587 11.4668 21.9076 10.9179C22.4565 10.369 22.7649 9.6245 22.7649 8.84821C22.765 8.46381 22.6894 8.08316 22.5423 7.72801C22.3952 7.37285 22.1796 7.05015 21.9078 6.77834C21.636 6.50653 21.3133 6.29093 20.9581 6.14387C20.603 5.9968 20.2223 5.92114 19.8379 5.92122C18.2361 5.92122 16.9373 7.20795 16.9131 8.80402C17.836 9.38276 18.4831 10.3617 18.6012 11.4979C18.988 11.6803 19.4103 11.7749 19.8379 11.7752ZM9.85893 5.92092C8.24167 5.92092 6.93164 7.23126 6.93164 8.84791C6.93164 10.4646 8.24167 11.7746 9.85893 11.7746C10.4101 11.7744 10.9499 11.6178 11.4157 11.323C11.5575 10.407 12.0448 9.58011 12.7774 9.01227C12.7805 8.95748 12.7856 8.9033 12.7856 8.84791C12.7856 7.23126 11.475 5.92092 9.85893 5.92092ZM21.7391 5.85857C22.662 6.43731 23.3092 7.4162 23.4269 8.55279C23.8138 8.735 24.2361 8.82967 24.6637 8.83005C25.0481 8.83009 25.4287 8.75441 25.7838 8.60733C26.139 8.46025 26.4617 8.24465 26.7335 7.97285C27.0053 7.70104 27.2209 7.37836 27.368 7.02322C27.515 6.66808 27.5907 6.28745 27.5907 5.90306C27.5907 5.51867 27.515 5.13804 27.368 4.78291C27.2209 4.42777 27.0053 4.10508 26.7335 3.83328C26.4617 3.56148 26.139 3.34588 25.7838 3.1988C25.4287 3.05172 25.0481 2.97603 24.6637 2.97607C23.0622 2.97577 21.7633 4.2628 21.7391 5.85857Z" fill="url(#paint2_linear_2077_598)"/>
<path d="M14.9957 14.7972C16.6123 14.7972 17.9229 13.4866 17.9229 11.8699C17.9229 10.2532 16.6123 8.94263 14.9957 8.94263C13.379 8.94263 12.0684 10.2532 12.0684 11.8699C12.0684 13.4866 13.379 14.7972 14.9957 14.7972Z" fill="url(#paint3_linear_2077_598)"/>
<path d="M21.0806 11.9746H18.6155C18.5904 12.9263 18.1901 13.8294 17.502 14.4872C19.3387 15.0339 20.6829 16.7374 20.6829 18.7497V19.6856C23.1165 19.5957 24.5192 18.9068 24.6115 18.8595L24.807 18.7603H24.8273V15.7225C24.8279 13.6557 23.1468 11.9746 21.0806 11.9746Z" fill="url(#paint4_linear_2077_598)"/>
<path d="M25.9059 9.02954H23.4414C23.4164 9.98117 23.0163 10.8843 22.3282 11.5422C24.1649 12.0888 25.5088 13.792 25.5088 15.8043V16.7402C27.9421 16.6506 29.3451 15.9617 29.4374 15.9142L29.6329 15.8152H29.6538V12.7774C29.6538 10.711 27.9727 9.02954 25.9059 9.02954ZM12.4881 14.487C11.8038 13.8324 11.4041 12.9351 11.3751 11.9886C11.284 11.982 11.1935 11.9744 11.1003 11.9744H8.61732C6.55057 11.9744 4.86914 13.6558 4.86914 15.7226V18.7606L4.87671 18.8076L5.08587 18.8735C6.66801 19.3678 8.08035 19.5949 9.30654 19.6669V18.7494C9.30715 16.7375 10.6508 15.034 12.4881 14.487Z" fill="url(#paint5_linear_2077_598)"/>
<path d="M16.2371 14.9966H13.7532C11.6865 14.9966 10.005 16.6786 10.005 18.7444V21.7825L10.0129 21.83L10.2218 21.8954C12.1941 22.5114 13.9076 22.7172 15.3175 22.7172C18.0723 22.7172 19.6686 21.9317 19.7673 21.8818L19.9629 21.7825H19.9834V18.7444C19.9843 16.678 18.3032 14.9966 16.2371 14.9966ZM4.99011 8.92313C5.41773 8.92271 5.84001 8.82804 6.22689 8.64587C6.34494 7.50927 6.99178 6.53008 7.91468 5.95134C7.89046 4.35588 6.59163 3.06885 4.99011 3.06885C4.60568 3.06881 4.22501 3.1445 3.86983 3.29159C3.51466 3.43869 3.19194 3.65431 2.92011 3.92614C2.64828 4.19797 2.43266 4.52069 2.28556 4.87587C2.13847 5.23104 2.06278 5.61171 2.06282 5.99614C2.06282 6.38054 2.13853 6.76118 2.28565 7.11632C2.43276 7.47146 2.64839 7.79414 2.92022 8.06594C3.19205 8.33774 3.51475 8.55333 3.8699 8.70041C4.22506 8.84749 4.6057 8.92317 4.99011 8.92313ZM7.32564 11.6355C6.63767 10.9774 6.23763 10.074 6.21266 9.1223H3.74788C1.68113 9.1226 0 10.804 0 12.8705V15.9086H0.0208854L0.216422 16.0075C0.309044 16.0541 1.7114 16.744 4.145 16.8333V15.8974C4.145 13.8854 5.48863 12.1819 7.32564 11.6355Z" fill="url(#paint6_linear_2077_598)"/>
<path d="M8.41373 5.63161C8.76484 5.48934 9.3006 5.31469 9.81214 5.31469C10.4075 5.31469 10.9899 5.46785 11.5093 5.75934C11.6253 5.64524 11.7316 5.52172 11.8271 5.39006C11.3327 4.74065 11.0647 3.94704 11.0644 3.1308C11.0644 2.58052 11.1873 2.03447 11.4215 1.53836C10.8915 1.05707 10.2006 0.791363 9.48464 0.793448C8.84745 0.79406 8.22821 1.00453 7.72262 1.39232C7.21703 1.78012 6.85325 2.32365 6.6875 2.9389C7.67063 3.51098 8.31112 4.51106 8.41373 5.63161ZM17.8942 5.22449C17.9973 5.38782 18.1164 5.54043 18.2499 5.68004C18.7284 5.44054 19.256 5.31538 19.7911 5.31439C20.3145 5.31439 20.816 5.44818 21.1448 5.56017C21.1965 4.96152 21.4021 4.3864 21.7415 3.89056C22.0809 3.39471 22.5426 2.99495 23.082 2.73004C22.8835 2.16406 22.5142 1.67366 22.0251 1.32655C21.536 0.979436 20.9512 0.792739 20.3514 0.792237C19.9578 0.792 19.5683 0.872212 19.2068 1.02795C18.8453 1.18368 18.5195 1.41166 18.2493 1.69788C18.4412 2.15554 18.5383 2.63651 18.5383 3.12959C18.54 3.8769 18.3155 4.60722 17.8942 5.22449Z" fill="url(#paint7_linear_2077_598)"/>
<defs>
<linearGradient id="paint0_linear_2077_598" x1="16.4559" y1="6.07178" x2="15.0445" y2="9.72897" gradientUnits="userSpaceOnUse">
<stop stop-color="#45A3D9"/>
<stop offset="1" stop-color="#45D9D0"/>
</linearGradient>
<linearGradient id="paint1_linear_2077_598" x1="17.1908" y1="-1.51775" x2="10.9488" y2="6.23869" gradientUnits="userSpaceOnUse">
<stop stop-color="#45A3D9"/>
<stop offset="1" stop-color="#45D9D0"/>
</linearGradient>
<linearGradient id="paint2_linear_2077_598" x1="24.8754" y1="0.874275" x2="19.4472" y2="16.7111" gradientUnits="userSpaceOnUse">
<stop stop-color="#45A3D9"/>
<stop offset="1" stop-color="#45D9D0"/>
</linearGradient>
<linearGradient id="paint3_linear_2077_598" x1="17.1535" y1="7.54417" x2="11.4021" y2="14.6909" gradientUnits="userSpaceOnUse">
<stop stop-color="#45A3D9"/>
<stop offset="1" stop-color="#45D9D0"/>
</linearGradient>
<linearGradient id="paint4_linear_2077_598" x1="23.8645" y1="10.1327" x2="16.2156" y2="19.1621" gradientUnits="userSpaceOnUse">
<stop stop-color="#45A3D9"/>
<stop offset="1" stop-color="#45D9D0"/>
</linearGradient>
<linearGradient id="paint5_linear_2077_598" x1="26.3963" y1="6.48866" x2="19.7944" y2="25.603" gradientUnits="userSpaceOnUse">
<stop stop-color="#45A3D9"/>
<stop offset="1" stop-color="#45D9D0"/>
</linearGradient>
<linearGradient id="paint6_linear_2077_598" x1="17.357" y1="-1.62445" x2="-1.87257" y2="22.6782" gradientUnits="userSpaceOnUse">
<stop stop-color="#45A3D9"/>
<stop offset="1" stop-color="#45D9D0"/>
</linearGradient>
<linearGradient id="paint7_linear_2077_598" x1="20.9272" y1="-0.394228" x2="18.6281" y2="9.03539" gradientUnits="userSpaceOnUse">
<stop stop-color="#45A3D9"/>
<stop offset="1" stop-color="#45D9D0"/>
</linearGradient>
</defs>
</svg>
