<svg width="343" height="52" viewBox="0 0 343 52" fill="none" xmlns="http://www.w3.org/2000/svg">
<rect width="343" height="52" rx="26" fill="#DADCDD"/>
<path d="M138.867 27.588V30H130.533V17.526H133.341V27.588H138.867ZM149.532 25.248C149.532 25.992 149.424 26.676 149.208 27.3C148.992 27.912 148.68 28.44 148.272 28.884C147.864 29.316 147.372 29.652 146.796 29.892C146.232 30.132 145.596 30.252 144.888 30.252C144.192 30.252 143.556 30.132 142.98 29.892C142.416 29.652 141.93 29.316 141.522 28.884C141.114 28.44 140.796 27.912 140.568 27.3C140.34 26.676 140.226 25.992 140.226 25.248C140.226 24.504 140.34 23.826 140.568 23.214C140.808 22.602 141.132 22.08 141.54 21.648C141.96 21.216 142.452 20.88 143.016 20.64C143.592 20.4 144.216 20.28 144.888 20.28C145.572 20.28 146.196 20.4 146.76 20.64C147.336 20.88 147.828 21.216 148.236 21.648C148.644 22.08 148.962 22.602 149.19 23.214C149.418 23.826 149.532 24.504 149.532 25.248ZM146.796 25.248C146.796 24.42 146.628 23.772 146.292 23.304C145.968 22.824 145.5 22.584 144.888 22.584C144.276 22.584 143.802 22.824 143.466 23.304C143.13 23.772 142.962 24.42 142.962 25.248C142.962 26.076 143.13 26.736 143.466 27.228C143.802 27.708 144.276 27.948 144.888 27.948C145.5 27.948 145.968 27.708 146.292 27.228C146.628 26.736 146.796 26.076 146.796 25.248ZM154.076 24.96C154.076 26.46 154.682 27.21 155.894 27.21C156.17 27.21 156.428 27.174 156.668 27.102C156.908 27.03 157.112 26.946 157.28 26.85V22.566C157.148 22.542 156.992 22.524 156.812 22.512C156.632 22.488 156.422 22.476 156.182 22.476C155.474 22.476 154.946 22.71 154.598 23.178C154.25 23.646 154.076 24.24 154.076 24.96ZM159.962 28.812C159.962 30.36 159.566 31.506 158.774 32.25C157.994 33.006 156.782 33.384 155.138 33.384C154.562 33.384 153.986 33.33 153.41 33.222C152.834 33.126 152.3 32.994 151.808 32.826L152.276 30.576C152.696 30.744 153.134 30.876 153.59 30.972C154.058 31.068 154.586 31.116 155.174 31.116C155.942 31.116 156.482 30.948 156.794 30.612C157.118 30.276 157.28 29.844 157.28 29.316V28.974C156.992 29.106 156.692 29.208 156.38 29.28C156.08 29.34 155.75 29.37 155.39 29.37C154.082 29.37 153.08 28.986 152.384 28.218C151.688 27.438 151.34 26.352 151.34 24.96C151.34 24.264 151.448 23.634 151.664 23.07C151.88 22.494 152.192 22.002 152.6 21.594C153.02 21.186 153.53 20.874 154.13 20.658C154.73 20.43 155.408 20.316 156.164 20.316C156.488 20.316 156.818 20.334 157.154 20.37C157.502 20.394 157.844 20.43 158.18 20.478C158.516 20.526 158.834 20.586 159.134 20.658C159.446 20.718 159.722 20.784 159.962 20.856V28.812ZM170.653 17.526C170.869 17.922 171.115 18.414 171.391 19.002C171.679 19.578 171.973 20.208 172.273 20.892C172.585 21.564 172.891 22.254 173.191 22.962C173.491 23.67 173.773 24.336 174.037 24.96C174.301 24.336 174.583 23.67 174.883 22.962C175.183 22.254 175.483 21.564 175.783 20.892C176.095 20.208 176.389 19.578 176.665 19.002C176.953 18.414 177.205 17.922 177.421 17.526H179.977C180.097 18.354 180.205 19.284 180.301 20.316C180.409 21.336 180.499 22.404 180.571 23.52C180.655 24.624 180.727 25.734 180.787 26.85C180.859 27.966 180.919 29.016 180.967 30H178.231C178.195 28.788 178.147 27.468 178.087 26.04C178.027 24.612 177.937 23.172 177.817 21.72C177.601 22.224 177.361 22.782 177.097 23.394C176.833 24.006 176.569 24.618 176.305 25.23C176.053 25.842 175.807 26.43 175.567 26.994C175.327 27.546 175.123 28.02 174.955 28.416H172.993C172.825 28.02 172.621 27.546 172.381 26.994C172.141 26.43 171.889 25.842 171.625 25.23C171.373 24.618 171.115 24.006 170.851 23.394C170.587 22.782 170.347 22.224 170.131 21.72C170.011 23.172 169.921 24.612 169.861 26.04C169.801 27.468 169.753 28.788 169.717 30H166.981C167.029 29.016 167.083 27.966 167.143 26.85C167.215 25.734 167.287 24.624 167.359 23.52C167.443 22.404 167.533 21.336 167.629 20.316C167.737 19.284 167.851 18.354 167.971 17.526H170.653ZM183.046 25.338C183.046 24.498 183.172 23.766 183.424 23.142C183.688 22.506 184.03 21.978 184.45 21.558C184.87 21.138 185.35 20.82 185.89 20.604C186.442 20.388 187.006 20.28 187.582 20.28C188.926 20.28 189.988 20.694 190.768 21.522C191.548 22.338 191.938 23.544 191.938 25.14C191.938 25.296 191.932 25.47 191.92 25.662C191.908 25.842 191.896 26.004 191.884 26.148H185.8C185.86 26.7 186.118 27.138 186.574 27.462C187.03 27.786 187.642 27.948 188.41 27.948C188.902 27.948 189.382 27.906 189.85 27.822C190.33 27.726 190.72 27.612 191.02 27.48L191.38 29.658C191.236 29.73 191.044 29.802 190.804 29.874C190.564 29.946 190.294 30.006 189.994 30.054C189.706 30.114 189.394 30.162 189.058 30.198C188.722 30.234 188.386 30.252 188.05 30.252C187.198 30.252 186.454 30.126 185.818 29.874C185.194 29.622 184.672 29.28 184.252 28.848C183.844 28.404 183.538 27.882 183.334 27.282C183.142 26.682 183.046 26.034 183.046 25.338ZM189.346 24.312C189.334 24.084 189.292 23.862 189.22 23.646C189.16 23.43 189.058 23.238 188.914 23.07C188.782 22.902 188.608 22.764 188.392 22.656C188.188 22.548 187.93 22.494 187.618 22.494C187.318 22.494 187.06 22.548 186.844 22.656C186.628 22.752 186.448 22.884 186.304 23.052C186.16 23.22 186.046 23.418 185.962 23.646C185.89 23.862 185.836 24.084 185.8 24.312H189.346ZM198.872 17.526H201.68V30H198.872V17.526ZM204.567 20.856C205.023 20.724 205.611 20.604 206.331 20.496C207.051 20.376 207.807 20.316 208.599 20.316C209.403 20.316 210.069 20.424 210.597 20.64C211.137 20.844 211.563 21.138 211.875 21.522C212.187 21.906 212.409 22.362 212.541 22.89C212.673 23.418 212.739 24.006 212.739 24.654V30H210.057V24.978C210.057 24.114 209.943 23.502 209.715 23.142C209.487 22.782 209.061 22.602 208.437 22.602C208.245 22.602 208.041 22.614 207.825 22.638C207.609 22.65 207.417 22.668 207.249 22.692V30H204.567V20.856Z" fill="white"/>
</svg>
