<svg width="115" height="126" viewBox="0 0 115 126" fill="none" xmlns="http://www.w3.org/2000/svg">
<path d="M80.3037 124.979H8.49875C4.35719 124.979 1 121.622 1 117.48V18.4087H87.8027V117.48C87.8025 121.622 84.4453 124.979 80.3037 124.979Z" fill="#EEF5FF"/>
<path d="M80.304 120.48H8.49875C4.35719 120.48 1 117.123 1 112.982V117.481C1 121.622 4.35719 124.98 8.49875 124.98H80.304C84.4453 124.98 87.8027 121.622 87.8027 117.481V112.982C87.8027 117.123 84.4453 120.48 80.304 120.48Z" fill="#DFE9FB"/>
<path d="M87.8025 18.4088H1V8.49875C1 4.35719 4.35719 1 8.49875 1H80.304C84.4456 1 87.8027 4.35719 87.8027 8.49875V18.4088H87.8025Z" fill="#FF7E92"/>
<path d="M1 13.9109H87.8027V18.4101H1V13.9109Z" fill="#FF5F7A"/>
<path d="M24.8002 47.68H18.6927C16.6221 47.68 14.9434 46.0012 14.9434 43.9306V37.8231C14.9434 35.7524 16.6221 34.0737 18.6927 34.0737H24.8002C26.8709 34.0737 28.5496 35.7524 28.5496 37.8231V43.9306C28.5493 46.0012 26.8709 47.68 24.8002 47.68Z" fill="#BBF39B"/>
<path d="M24.8005 43.1808H18.6927C16.6221 43.1808 14.9434 41.5021 14.9434 39.4314V43.9306C14.9434 46.0013 16.6221 47.68 18.6927 47.68H24.8005C26.8711 47.68 28.5498 46.0013 28.5498 43.9306V39.4314C28.5498 41.5021 26.8711 43.1808 24.8005 43.1808Z" fill="#9AE59C"/>
<path d="M24.8002 68.8032H18.6927C16.6221 68.8032 14.9434 67.1245 14.9434 65.0539V58.9464C14.9434 56.8757 16.6221 55.197 18.6927 55.197H24.8002C26.8709 55.197 28.5496 56.8757 28.5496 58.9464V65.0539C28.5493 67.1248 26.8709 68.8032 24.8002 68.8032ZM24.8002 89.925H18.6927C16.6221 89.925 14.9434 88.2462 14.9434 86.1756V80.0681C14.9434 77.9975 16.6221 76.3187 18.6927 76.3187H24.8002C26.8709 76.3187 28.5496 77.9975 28.5496 80.0681V86.1756C28.5493 88.2462 26.8709 89.925 24.8002 89.925ZM24.8002 111.046H18.6927C16.6221 111.046 14.9434 109.368 14.9434 107.297V101.19C14.9434 99.1189 16.6221 97.4402 18.6927 97.4402H24.8002C26.8709 97.4402 28.5496 99.1189 28.5496 101.19V107.297C28.5493 109.368 26.8709 111.046 24.8002 111.046Z" fill="#BBF39B"/>
<path d="M24.8005 64.3041H18.6927C16.6221 64.3041 14.9434 62.6253 14.9434 60.5547V65.0539C14.9434 67.1246 16.6221 68.8033 18.6927 68.8033H24.8005C26.8711 68.8033 28.5498 67.1246 28.5498 65.0539V60.5547C28.5498 62.6256 26.8711 64.3041 24.8005 64.3041ZM24.8005 85.4258H18.6927C16.6221 85.4258 14.9434 83.7471 14.9434 81.6764V86.1757C14.9434 88.2463 16.6221 89.925 18.6927 89.925H24.8005C26.8711 89.925 28.5498 88.2463 28.5498 86.1757V81.6764C28.5498 83.7471 26.8711 85.4258 24.8005 85.4258ZM24.8005 106.547H18.6927C16.6221 106.547 14.9434 104.869 14.9434 102.798V107.297C14.9434 109.368 16.6221 111.046 18.6927 111.046H24.8005C26.8711 111.046 28.5498 109.368 28.5498 107.297V102.798C28.5498 104.869 26.8711 106.547 24.8005 106.547Z" fill="#9AE59C"/>
<path d="M97.8008 24.7002H113.742V108.964H97.8008V24.7002Z" fill="#FFE17D"/>
<path d="M97.8008 15.4417H113.742V24.7014H97.8008V15.4417Z" fill="#6C5E69"/>
<path d="M97.8008 20.2024H113.742V24.7016H97.8008V20.2024Z" fill="#574D56"/>
<path d="M113.742 15.4416H97.8008V4.74937C97.8008 2.67872 99.4795 1 101.55 1H109.992C112.063 1 113.742 2.67872 113.742 4.74937V15.4416Z" fill="#FF7E92"/>
<path d="M97.8008 10.9412H113.742V15.4404H97.8008V10.9412Z" fill="#FF5F7A"/>
<path d="M105.771 124.98L97.8008 108.966H113.741L105.771 124.98Z" fill="#FFDCD0"/>
<path d="M108.446 119.607H103.098L105.772 124.98L108.446 119.607Z" fill="#6C5E69"/>
<path d="M51.3721 124.979H8.49875C4.35719 124.979 1 121.622 1 117.481V18.4088M1 18.4088H18.0517M1 18.4088V8.49875C1 4.35719 4.35719 1 8.49875 1H63.0769M87.8025 18.4088V117.481C87.8025 121.622 84.4453 124.979 80.3037 124.979H58.8708M87.8025 18.4088V8.49875C87.8025 4.35719 84.4453 1 80.3037 1H70.5754M87.8025 18.4088H25.5501M24.8005 47.6807H18.693C16.6224 47.6807 14.9437 46.002 14.9437 43.9313V37.8238C14.9437 35.7532 16.6224 34.0745 18.693 34.0745H24.8005C26.8712 34.0745 28.5499 35.7532 28.5499 37.8238V43.9313C28.5496 46.002 26.8712 47.6807 24.8005 47.6807Z" stroke="black" stroke-miterlimit="10" stroke-linecap="round" stroke-linejoin="round"/>
<path d="M19.3974 39.8293L22.5026 42.8491L29.9251 35.2378M39.299 40.8776H73.8588M39.299 61.9991H73.8588M39.299 83.1208H73.8588M39.299 104.242H73.8588M97.8012 24.7014H113.742M97.8012 24.7014V108.965H113.742V24.7014M97.8012 24.7014V15.4417H113.742V24.7014M24.8002 68.8022H18.6927C16.6221 68.8022 14.9434 67.1235 14.9434 65.0529V58.9454C14.9434 56.8747 16.6221 55.196 18.6927 55.196H24.8002C26.8709 55.196 28.5496 56.8747 28.5496 58.9454V65.0529C28.5493 67.1238 26.8709 68.8022 24.8002 68.8022ZM24.8002 89.9239H18.6927C16.6221 89.9239 14.9434 88.2452 14.9434 86.1746V80.0671C14.9434 77.9964 16.6221 76.3177 18.6927 76.3177H24.8002C26.8709 76.3177 28.5496 77.9964 28.5496 80.0671V86.1746C28.5493 88.2452 26.8709 89.9239 24.8002 89.9239ZM24.8002 111.045H18.6927C16.6221 111.045 14.9434 109.367 14.9434 107.296V101.189C14.9434 99.1179 16.6221 97.4392 18.6927 97.4392H24.8002C26.8709 97.4392 28.5496 99.1179 28.5496 101.189V107.296C28.5493 109.367 26.8709 111.045 24.8002 111.045Z" stroke="black" stroke-miterlimit="10" stroke-linecap="round" stroke-linejoin="round"/>
<path d="M113.742 15.4416H97.8008V4.74937C97.8008 2.67872 99.4795 1 101.55 1H109.992C112.063 1 113.742 2.67872 113.742 4.74937V15.4416ZM105.771 124.979L97.801 108.965H113.742L105.771 124.979Z" stroke="black" stroke-miterlimit="10" stroke-linecap="round" stroke-linejoin="round"/>
<path d="M108.446 119.607H103.098L105.772 124.98L108.446 119.607Z" stroke="black" stroke-miterlimit="10" stroke-linecap="round" stroke-linejoin="round"/>
</svg>
