<svg width="4" height="4" viewBox="0 0 4 4" fill="none" xmlns="http://www.w3.org/2000/svg">
<path d="M3.93548 0.387097C3.95259 0.387097 3.969 0.3803 3.9811 0.3682C3.9932 0.356101 4 0.339691 4 0.322581V0.0645161C4 0.0474054 3.9932 0.0309955 3.9811 0.0188963C3.969 0.00679721 3.95259 0 3.93548 0H0.0645161C0.0474054 0 0.0309955 0.00679721 0.0188963 0.0188963C0.00679721 0.0309955 0 0.0474054 0 0.0645161V0.322581C0 0.339691 0.00679721 0.356101 0.0188963 0.3682C0.0309955 0.3803 0.0474054 0.387097 0.0645161 0.387097H0.129032V1.93548H0.0645161C0.0474054 1.93548 0.0309955 1.94228 0.0188963 1.95438C0.00679721 1.96648 0 1.98289 0 2V2.3871C0 2.40421 0.00679721 2.42062 0.0188963 2.43272C0.0309955 2.44482 0.0474054 2.45161 0.0645161 2.45161H3.93548C3.95259 2.45161 3.969 2.44482 3.9811 2.43272C3.9932 2.42062 4 2.40421 4 2.3871V2C4 1.98289 3.9932 1.96648 3.9811 1.95438C3.969 1.94228 3.95259 1.93548 3.93548 1.93548H3.87097V0.387097H3.93548ZM0.129032 0.129032H3.87097V0.258065H0.129032V0.129032ZM2.51613 1.93548V1.6129C2.51613 1.59579 2.50933 1.57938 2.49723 1.56728C2.48513 1.55518 2.46872 1.54839 2.45161 1.54839H1.54839C1.53128 1.54839 1.51487 1.55518 1.50277 1.56728C1.49067 1.57938 1.48387 1.59579 1.48387 1.6129V1.93548H0.645161V0.671871L0.741935 0.575097L0.857613 0.690774L0.948839 0.599548L0.833161 0.483871L0.929935 0.387097H3.07006L3.16684 0.483871L3.05116 0.599548L3.14239 0.690774L3.25806 0.575097L3.35484 0.671871V1.93548H2.51613ZM2.3871 1.93548H1.6129V1.67742H2.3871V1.93548ZM0.645161 0.489419V0.387097H0.747484L0.645161 0.489419ZM0.516129 0.941032L0.284774 0.709677L0.516129 0.478323V0.941032ZM0.258065 0.865419L0.489419 1.09677L0.258065 1.32813V0.865419ZM0.516129 1.25252V1.71523L0.284774 1.48387L0.516129 1.25252ZM3.35484 0.489419L3.25252 0.387097H3.35484V0.489419ZM3.48387 1.25252L3.71523 1.48387L3.48387 1.71523V1.25252ZM3.74194 1.32813L3.51058 1.09677L3.74194 0.865419V1.32813ZM3.48387 0.941032V0.478323L3.71523 0.709677L3.48387 0.941032ZM0.424903 0.387097L0.258065 0.553935V0.387097H0.424903ZM0.258065 1.63961L0.516129 1.89768V1.93548H0.258065V1.63961ZM3.87097 2.32258H0.129032V2.06452H3.87097V2.32258ZM3.48387 1.93548V1.89768L3.74194 1.63961V1.93548H3.48387ZM3.74194 0.553935L3.5751 0.387097H3.74194V0.553935Z" fill="url(#paint0_linear_4078_114)"/>
<path d="M2.52761 1.51316L3.044 0.738963L3.15135 0.810576L2.63496 1.58477L2.52761 1.51316ZM2.35142 0.977866L2.93206 0.590576L3.00367 0.697931L2.42303 1.08522L2.35142 0.977866ZM0.849609 0.809608L0.957029 0.737996L1.47342 1.51219L1.36606 1.5838L0.849609 0.809608ZM0.996771 0.699157L1.06838 0.591802L1.64903 0.979092L1.57742 1.08645L0.996771 0.699157Z" fill="url(#paint1_linear_4078_114)"/>
<path d="M2.00013 1.29029C2.07139 1.29029 2.12916 1.23252 2.12916 1.16126C2.12916 1.09 2.07139 1.03223 2.00013 1.03223C1.92886 1.03223 1.87109 1.09 1.87109 1.16126C1.87109 1.23252 1.92886 1.29029 2.00013 1.29029Z" fill="url(#paint2_linear_4078_114)"/>
<path d="M2.09652 1.35482H1.90297L1.72878 1.12256L1.62555 1.19998L1.8191 1.45804C1.83123 1.4743 1.85039 1.48385 1.87072 1.48385H2.12878C2.1388 1.48385 2.14867 1.48152 2.15763 1.47704C2.16659 1.47256 2.17438 1.46606 2.18039 1.45804L2.37394 1.19998L2.27072 1.12256L2.09652 1.35482ZM0.257812 3.22578C0.257812 3.33249 0.344651 3.41933 0.451361 3.41933C0.558071 3.41933 0.644909 3.33249 0.644909 3.22578C0.644909 3.11907 0.558071 3.03224 0.451361 3.03224C0.344651 3.03224 0.257812 3.11907 0.257812 3.22578ZM0.515877 3.22578C0.515134 3.2424 0.508012 3.25808 0.495994 3.26957C0.483977 3.28107 0.467989 3.28748 0.451361 3.28748C0.434733 3.28748 0.418745 3.28107 0.406727 3.26957C0.39471 3.25808 0.387588 3.2424 0.386845 3.22578C0.387588 3.20917 0.39471 3.19349 0.406727 3.182C0.418745 3.1705 0.434733 3.16409 0.451361 3.16409C0.467989 3.16409 0.483977 3.1705 0.495994 3.182C0.508012 3.19349 0.515134 3.20917 0.515877 3.22578Z" fill="url(#paint3_linear_4078_114)"/>
<path d="M0.788418 3.18545L0.549773 3.48384H0.353644L0.114934 3.18545L0.0141602 3.2661L0.25816 3.571V3.93545C0.25816 3.95256 0.264957 3.96897 0.277057 3.98107C0.289156 3.99317 0.305566 3.99997 0.322676 3.99997H0.580741C0.597851 3.99997 0.614261 3.99317 0.626361 3.98107C0.63846 3.96897 0.645257 3.95256 0.645257 3.93545V3.571L0.889192 3.2661L0.788418 3.18545ZM0.387192 3.87094V3.61287H0.516225V3.87094H0.387192ZM1.41945 3.41932C1.52616 3.41932 1.613 3.33248 1.613 3.22577C1.613 3.11907 1.52616 3.03223 1.41945 3.03223C1.31274 3.03223 1.2259 3.11907 1.2259 3.22577C1.2259 3.33248 1.31274 3.41932 1.41945 3.41932ZM1.41945 3.16126C1.43223 3.16125 1.44472 3.16502 1.45535 3.17212C1.46598 3.17921 1.47427 3.18929 1.47917 3.2011C1.48406 3.2129 1.48535 3.22589 1.48286 3.23842C1.48037 3.25096 1.47422 3.26247 1.46518 3.2715C1.45614 3.28054 1.44463 3.28669 1.4321 3.28918C1.41956 3.29167 1.40657 3.29039 1.39477 3.28549C1.38297 3.2806 1.37288 3.27231 1.36579 3.26168C1.3587 3.25105 1.35492 3.23855 1.35493 3.22577C1.35493 3.19016 1.3839 3.16126 1.41945 3.16126Z" fill="url(#paint4_linear_4078_114)"/>
<path d="M1.75619 3.18545L1.51755 3.48384H1.32142L1.08271 3.18545L0.981934 3.2661L1.22593 3.571V3.93545C1.22593 3.95256 1.23273 3.96897 1.24483 3.98107C1.25693 3.99317 1.27334 3.99997 1.29045 3.99997H1.54851C1.56562 3.99997 1.58203 3.99317 1.59413 3.98107C1.60623 3.96897 1.61303 3.95256 1.61303 3.93545V3.571L1.85697 3.2661L1.75619 3.18545ZM1.35497 3.87094V3.61287H1.484V3.87094H1.35497ZM2.38722 3.22577C2.38722 3.33248 2.47406 3.41932 2.58077 3.41932C2.68748 3.41932 2.77432 3.33248 2.77432 3.22577C2.77432 3.11907 2.68748 3.03223 2.58077 3.03223C2.47406 3.03223 2.38722 3.11907 2.38722 3.22577ZM2.64529 3.22577C2.64455 3.24239 2.63742 3.25807 2.62541 3.26956C2.61339 3.28106 2.5974 3.28747 2.58077 3.28747C2.56414 3.28747 2.54816 3.28106 2.53614 3.26956C2.52412 3.25807 2.517 3.24239 2.51626 3.22577C2.517 3.20916 2.52412 3.19348 2.53614 3.18199C2.54816 3.17049 2.56414 3.16408 2.58077 3.16408C2.5974 3.16408 2.61339 3.17049 2.62541 3.18199C2.63742 3.19348 2.64455 3.20916 2.64529 3.22577Z" fill="url(#paint5_linear_4078_114)"/>
<path d="M2.91732 3.18545L2.67868 3.48384H2.48255L2.24384 3.18545L2.14307 3.2661L2.38707 3.571V3.93545C2.38707 3.95256 2.39386 3.96897 2.40596 3.98107C2.41806 3.99317 2.43447 3.99997 2.45158 3.99997H2.70965C2.72676 3.99997 2.74317 3.99317 2.75527 3.98107C2.76737 3.96897 2.77416 3.95256 2.77416 3.93545V3.571L3.0181 3.2661L2.91732 3.18545ZM2.5161 3.87094V3.61287H2.64513V3.87094H2.5161ZM3.54836 3.41932C3.65507 3.41932 3.74191 3.33248 3.74191 3.22577C3.74191 3.11907 3.65507 3.03223 3.54836 3.03223C3.44165 3.03223 3.35481 3.11907 3.35481 3.22577C3.35481 3.33248 3.44165 3.41932 3.54836 3.41932ZM3.54836 3.16126C3.56114 3.16125 3.57363 3.16502 3.58426 3.17212C3.59489 3.17921 3.60318 3.18929 3.60807 3.2011C3.61297 3.2129 3.61425 3.22589 3.61176 3.23842C3.60927 3.25096 3.60312 3.26247 3.59409 3.2715C3.58505 3.28054 3.57354 3.28669 3.561 3.28918C3.54847 3.29167 3.53548 3.29039 3.52368 3.28549C3.51187 3.2806 3.50179 3.27231 3.4947 3.26168C3.48761 3.25105 3.48383 3.23855 3.48384 3.22577C3.48384 3.19016 3.51281 3.16126 3.54836 3.16126Z" fill="url(#paint6_linear_4078_114)"/>
<path d="M3.88525 3.18541L3.64661 3.48379H3.45048L3.21177 3.18541L3.111 3.26605L3.355 3.57095V3.9354C3.355 3.95252 3.36179 3.96893 3.37389 3.98102C3.38599 3.99312 3.4024 3.99992 3.41951 3.99992H3.67758C3.69469 3.99992 3.7111 3.99312 3.7232 3.98102C3.7353 3.96893 3.74209 3.95252 3.74209 3.9354V3.57095L3.98603 3.26605L3.88525 3.18541ZM3.48403 3.87089V3.61282H3.61306V3.87089H3.48403ZM3.22596 2.77411C3.22596 2.66741 3.13913 2.58057 3.03242 2.58057C2.92571 2.58057 2.83887 2.66741 2.83887 2.77411C2.83887 2.88082 2.92571 2.96766 3.03242 2.96766C3.13913 2.96766 3.22596 2.88082 3.22596 2.77411ZM2.9679 2.77411C2.96789 2.76134 2.97167 2.74884 2.97876 2.73821C2.98585 2.72758 2.99593 2.71929 3.00774 2.7144C3.01954 2.7095 3.03253 2.70822 3.04506 2.71071C3.0576 2.7132 3.06911 2.71935 3.07815 2.72838C3.08718 2.73742 3.09333 2.74893 3.09582 2.76147C3.09831 2.774 3.09703 2.78699 3.09213 2.79879C3.08724 2.8106 3.07895 2.82068 3.06832 2.82777C3.05769 2.83487 3.04519 2.83864 3.03242 2.83863C2.99687 2.83863 2.9679 2.80973 2.9679 2.77411Z" fill="url(#paint7_linear_4078_114)"/>
<path d="M2.59496 2.81444L2.85303 3.13702C2.85908 3.14457 2.86674 3.15067 2.87547 3.15485C2.88419 3.15904 2.89374 3.16122 2.90341 3.16121H3.16148C3.17115 3.16122 3.18071 3.15904 3.18943 3.15485C3.19815 3.15067 3.20582 3.14457 3.21187 3.13702L3.46993 2.81444L3.36916 2.73379L3.13051 3.03218H2.93438L2.69567 2.73379L2.59496 2.81444ZM2.19374 2.77411C2.19374 2.66741 2.1069 2.58057 2.00019 2.58057C1.89348 2.58057 1.80664 2.66741 1.80664 2.77411C1.80664 2.88082 1.89348 2.96766 2.00019 2.96766C2.1069 2.96766 2.19374 2.88082 2.19374 2.77411ZM1.93567 2.77411C1.93566 2.76134 1.93944 2.74884 1.94653 2.73821C1.95362 2.72758 1.96371 2.71929 1.97551 2.7144C1.98731 2.7095 2.0003 2.70822 2.01284 2.71071C2.02537 2.7132 2.03688 2.71935 2.04592 2.72838C2.05495 2.73742 2.06111 2.74893 2.0636 2.76147C2.06609 2.774 2.0648 2.78699 2.05991 2.79879C2.05501 2.8106 2.04672 2.82068 2.03609 2.82777C2.02546 2.83487 2.01297 2.83864 2.00019 2.83863C1.96464 2.83863 1.93567 2.80973 1.93567 2.77411Z" fill="url(#paint8_linear_4078_114)"/>
<path d="M2.4377 2.81444L2.33693 2.73379L2.09829 3.03218H1.90216L1.66345 2.73379L1.56267 2.81444L1.82074 3.13702C1.83306 3.15231 1.85158 3.16121 1.87119 3.16121H2.12925C2.13893 3.16122 2.14848 3.15904 2.1572 3.15485C2.16592 3.15067 2.17359 3.14457 2.17964 3.13702L2.4377 2.81444ZM1.16151 2.77411C1.16151 2.66741 1.07467 2.58057 0.967962 2.58057C0.861253 2.58057 0.774414 2.66741 0.774414 2.77411C0.774414 2.88082 0.861253 2.96766 0.967962 2.96766C1.07467 2.96766 1.16151 2.88082 1.16151 2.77411ZM0.903446 2.77411C0.903434 2.76134 0.907212 2.74884 0.914303 2.73821C0.921395 2.72758 0.93148 2.71929 0.943283 2.7144C0.955086 2.7095 0.968077 2.70822 0.98061 2.71071C0.993144 2.7132 1.00466 2.71935 1.01369 2.72838C1.02273 2.73742 1.02888 2.74893 1.03137 2.76147C1.03386 2.774 1.03258 2.78699 1.02768 2.79879C1.02278 2.8106 1.0145 2.82068 1.00387 2.82777C0.993236 2.83487 0.980741 2.83864 0.967962 2.83863C0.932414 2.83863 0.903446 2.80973 0.903446 2.77411Z" fill="url(#paint9_linear_4078_114)"/>
<path d="M0.530273 2.81453L0.788338 3.13711C0.794385 3.14467 0.802053 3.15076 0.810775 3.15495C0.819497 3.15914 0.82905 3.16131 0.838725 3.16131H1.09679C1.10646 3.16131 1.11602 3.15914 1.12474 3.15495C1.13346 3.15076 1.14113 3.14467 1.14718 3.13711L1.40524 2.81453L1.30447 2.73389L1.06582 3.03227H0.869693L0.630983 2.73389L0.530273 2.81453Z" fill="url(#paint10_linear_4078_114)"/>
<defs>
<linearGradient id="paint0_linear_4078_114" x1="3.47428" y1="-0.585603" x2="1.51811" y2="3.38041" gradientUnits="userSpaceOnUse">
<stop stop-color="#45A3D9"/>
<stop offset="1" stop-color="#45D9D0"/>
</linearGradient>
<linearGradient id="paint1_linear_4078_114" x1="2.84883" y1="0.353099" x2="2.22871" y2="2.13714" gradientUnits="userSpaceOnUse">
<stop stop-color="#45A3D9"/>
<stop offset="1" stop-color="#45D9D0"/>
</linearGradient>
<linearGradient id="paint2_linear_4078_114" x1="2.09524" y1="0.970584" x2="1.84173" y2="1.28561" gradientUnits="userSpaceOnUse">
<stop stop-color="#45A3D9"/>
<stop offset="1" stop-color="#45D9D0"/>
</linearGradient>
<linearGradient id="paint3_linear_4078_114" x1="2.09582" y1="0.573941" x2="-0.192914" y2="3.19429" gradientUnits="userSpaceOnUse">
<stop stop-color="#45A3D9"/>
<stop offset="1" stop-color="#45D9D0"/>
</linearGradient>
<linearGradient id="paint4_linear_4078_114" x1="1.40286" y1="2.80107" x2="0.636592" y2="4.37421" gradientUnits="userSpaceOnUse">
<stop stop-color="#45A3D9"/>
<stop offset="1" stop-color="#45D9D0"/>
</linearGradient>
<linearGradient id="paint5_linear_4078_114" x1="2.53875" y1="2.80107" x2="1.82735" y2="4.43836" gradientUnits="userSpaceOnUse">
<stop stop-color="#45A3D9"/>
<stop offset="1" stop-color="#45D9D0"/>
</linearGradient>
<linearGradient id="paint6_linear_4078_114" x1="3.53177" y1="2.80107" x2="2.7655" y2="4.37421" gradientUnits="userSpaceOnUse">
<stop stop-color="#45A3D9"/>
<stop offset="1" stop-color="#45D9D0"/>
</linearGradient>
<linearGradient id="paint7_linear_4078_114" x1="3.83526" y1="2.24153" x2="2.40792" y2="3.67505" gradientUnits="userSpaceOnUse">
<stop stop-color="#45A3D9"/>
<stop offset="1" stop-color="#45D9D0"/>
</linearGradient>
<linearGradient id="paint8_linear_4078_114" x1="3.25132" y1="2.44187" x2="2.94724" y2="3.52428" gradientUnits="userSpaceOnUse">
<stop stop-color="#45A3D9"/>
<stop offset="1" stop-color="#45D9D0"/>
</linearGradient>
<linearGradient id="paint9_linear_4078_114" x1="2.2191" y1="2.44187" x2="1.91501" y2="3.52428" gradientUnits="userSpaceOnUse">
<stop stop-color="#45A3D9"/>
<stop offset="1" stop-color="#45D9D0"/>
</linearGradient>
<linearGradient id="paint10_linear_4078_114" x1="1.29024" y1="2.63179" x2="0.997534" y2="3.37638" gradientUnits="userSpaceOnUse">
<stop stop-color="#45A3D9"/>
<stop offset="1" stop-color="#45D9D0"/>
</linearGradient>
</defs>
</svg>
