<svg width="60" height="60" viewBox="0 0 60 60" fill="none" xmlns="http://www.w3.org/2000/svg">
<path d="M11.1443 24.9456L6.59086 10.2356L6.5625 10.1994V5.67163H11.1548L37.7344 20.6291V37.0353H11.25V24.965" fill="#FEEC96"/>
<path d="M48.7278 5.67163H53.3201V10.1994L53.2918 10.2356L48.7383 24.6059L48.6727 27.6245L28.645 15.9057L48.7278 5.67163Z" fill="#8ADFF8"/>
<path d="M11.144 49.6913V36.6086H48.7383V49.6913" fill="#F0EEF0"/>
<path d="M45.0947 36.6086H48.739V49.6913H45.0947V36.6086Z" fill="#DFDDE0"/>
<path d="M6.59079 10.2355L2.74751 6.39206C1.48716 5.13171 1.48716 3.08843 2.74751 1.82808C4.00786 0.567725 6.05114 0.567725 7.31149 1.82808L11.1549 5.67147L6.59079 10.2355Z" fill="#5D5E69"/>
<path d="M4.94543 4.2528L8.7593 8.06667L11.1546 5.67136L7.31133 1.82808C6.05098 0.567725 4.0077 0.567725 2.74734 1.82808C2.31432 2.26005 2.0137 2.80673 1.88086 3.40378C2.94352 3.13917 4.11469 3.42206 4.94543 4.2528Z" fill="#484854"/>
<path d="M48.728 5.67147L52.5714 1.82808C53.8318 0.567725 55.8751 0.567725 57.1354 1.82808C58.3958 3.08843 58.3958 5.13171 57.1354 6.39206L53.292 10.2355L48.728 5.67147Z" fill="#5D5E69"/>
<path d="M54.7104 4.02636L50.8965 7.84022L53.2918 10.2355L57.1352 6.39214C58.3955 5.13179 58.3955 3.08851 57.1352 1.82815C56.7032 1.39513 56.1565 1.09451 55.5595 0.96167C55.824 2.02444 55.5412 3.1955 54.7104 4.02636Z" fill="#484854"/>
<path d="M22.5808 36.6089H11.144V17.6248C11.144 16.9775 11.6687 16.4529 12.3159 16.4529H21.409C22.0562 16.4529 22.5808 16.9775 22.5808 17.6248V36.6089Z" fill="#BDBFCE"/>
<path d="M21.4094 16.4529H17.7651C18.4124 16.4529 18.937 16.9775 18.937 17.6248V36.6089H22.5813V17.6248C22.5813 16.9776 22.0567 16.4529 21.4094 16.4529Z" fill="#ABACBA"/>
<path d="M16.8628 25.2849C18.2074 25.2849 19.2974 24.1949 19.2974 22.8503C19.2974 21.5058 18.2074 20.4158 16.8628 20.4158C15.5182 20.4158 14.4282 21.5058 14.4282 22.8503C14.4282 24.1949 15.5182 25.2849 16.8628 25.2849Z" fill="#5D5E69"/>
<path d="M16.8628 33.4382C18.2074 33.4382 19.2974 32.3482 19.2974 31.0037C19.2974 29.6591 18.2074 28.5691 16.8628 28.5691C15.5182 28.5691 14.4282 29.6591 14.4282 31.0037C14.4282 32.3482 15.5182 33.4382 16.8628 33.4382Z" fill="#5D5E69"/>
<path d="M37.3018 36.6089V17.6248C37.3018 16.9775 37.8264 16.4529 38.4736 16.4529H47.5667C48.2139 16.4529 48.7386 16.9775 48.7386 17.6248V36.6089H37.3018Z" fill="#BDBFCE"/>
<path d="M47.5669 16.4529H43.8979C44.5452 16.4529 45.0698 16.9775 45.0698 17.6248V36.6089H48.7387V17.6248C48.7387 16.9776 48.2141 16.4529 47.5669 16.4529Z" fill="#ABACBA"/>
<path d="M43.02 25.2849C44.3646 25.2849 45.4546 24.1949 45.4546 22.8503C45.4546 21.5058 44.3646 20.4158 43.02 20.4158C41.6754 20.4158 40.5854 21.5058 40.5854 22.8503C40.5854 24.1949 41.6754 25.2849 43.02 25.2849Z" fill="#5D5E69"/>
<path d="M43.02 33.4382C44.3646 33.4382 45.4546 32.3482 45.4546 31.0037C45.4546 29.6591 44.3646 28.5691 43.02 28.5691C41.6754 28.5691 40.5854 29.6591 40.5854 31.0037C40.5854 32.3482 41.6754 33.4382 43.02 33.4382Z" fill="#5D5E69"/>
<path d="M0.878906 49.2814C0.878906 51.9956 3.05191 54.1959 5.73246 54.1959C8.41301 54.1959 10.586 51.9956 10.586 49.2814V49.4509C10.586 46.7367 8.41301 44.5364 5.73246 44.5364C3.05191 44.5364 0.878906 46.7367 0.878906 49.4509" fill="#5D5E69"/>
<path d="M10.5859 49.2814C10.5859 51.9956 12.7589 54.1959 15.4395 54.1959C18.12 54.1959 20.293 51.9956 20.293 49.2814V49.4509C20.293 46.7367 18.12 44.5364 15.4395 44.5364C12.7589 44.5364 10.5859 46.7367 10.5859 49.4509" fill="#484854"/>
<path d="M20.2931 49.2814C20.2931 51.9956 22.4661 54.1959 25.1466 54.1959C27.8272 54.1959 30.0001 51.9956 30.0001 49.2814V49.4509C30.0001 46.7367 27.8271 44.5364 25.1465 44.5364C22.466 44.5364 20.293 46.7367 20.293 49.4509" fill="#F9B04D"/>
<path d="M30 49.2814C30 51.9956 32.173 54.1959 34.8536 54.1959C37.5341 54.1959 39.7071 51.9956 39.7071 49.2814V49.4509C39.7071 46.7367 37.5341 44.5364 34.8536 44.5364C32.173 44.5364 30 46.7367 30 49.4509" fill="#484854"/>
<path d="M39.707 49.2814C39.707 51.9956 41.88 54.1959 44.5606 54.1959C47.2411 54.1959 49.4141 51.9956 49.4141 49.2814V49.4509C49.4141 46.7367 47.2411 44.5364 44.5606 44.5364C41.88 44.5364 39.707 46.7367 39.707 49.4509" fill="#5D5E69"/>
<path d="M49.4141 49.2814C49.4141 51.9956 51.5871 54.1959 54.2676 54.1959C56.9482 54.1959 59.1212 51.9956 59.1212 49.2814V49.4509C59.1212 46.7367 56.9482 44.5364 54.2676 44.5364C51.5871 44.5364 49.4141 46.7367 49.4141 49.4509" fill="#BC6C59"/>
<path d="M5.78125 54.1535C5.78125 56.8677 7.95426 59.068 10.6348 59.068C13.3154 59.068 15.4884 56.8677 15.4884 54.1535V54.3229C15.4884 51.6088 13.3154 49.4084 10.6348 49.4084C7.95426 49.4084 5.78125 51.6088 5.78125 54.3229" fill="#F9B04D"/>
<path d="M15.4884 54.1535C15.4884 56.8677 17.6614 59.068 20.342 59.068C23.0225 59.068 25.1954 56.8677 25.1954 54.1535V54.3229C25.1954 51.6088 23.0224 49.4084 20.3418 49.4084C17.6613 49.4084 15.4883 51.6088 15.4883 54.3229" fill="#BC6C59"/>
<path d="M25.1953 54.1535C25.1953 56.8677 27.3683 59.068 30.0489 59.068C32.7294 59.068 34.9024 56.8677 34.9024 54.1535V54.3229C34.9024 51.6088 32.7294 49.4084 30.0489 49.4084C27.3683 49.4084 25.1953 51.6088 25.1953 54.3229" fill="#5D5E69"/>
<path d="M34.9023 54.1535C34.9023 56.8677 37.0754 59.068 39.7559 59.068C42.4364 59.068 44.6095 56.8677 44.6095 54.1535V54.3229C44.6095 51.6088 42.4364 49.4084 39.7559 49.4084C37.0754 49.4084 34.9023 51.6088 34.9023 54.3229" fill="#BC6C59"/>
<path d="M44.6094 54.1535C44.6094 56.8677 46.7824 59.068 49.4629 59.068C52.1435 59.068 54.3165 56.8677 54.3165 54.1535V54.3229C54.3165 51.6088 52.1435 49.4084 49.4629 49.4084C46.7824 49.4084 44.6094 51.6088 44.6094 54.3229" fill="#F9B04D"/>
<path d="M10.5801 59.1838C10.5822 59.137 10.5828 59.0899 10.5836 59.0429C10.5388 56.368 8.38473 54.2131 5.7323 54.2131C3.07988 54.2131 0.925742 56.368 0.880859 59.0429C0.88168 59.09 0.882266 59.137 0.884375 59.1838H10.5801Z" fill="#BC6C59"/>
<path d="M20.2878 59.1838C20.2899 59.137 20.2904 59.0899 20.2913 59.0429C20.2464 56.368 18.0924 54.2131 15.4398 54.2131C12.7873 54.2131 10.6333 56.368 10.5884 59.0429C10.5892 59.09 10.5898 59.137 10.5919 59.1838H20.2878Z" fill="#5D5E69"/>
<path d="M29.9947 59.1838C29.9968 59.137 29.9974 59.0899 29.9982 59.0429C29.9533 56.368 27.7993 54.2131 25.1467 54.2131C22.4943 54.2131 20.3402 56.368 20.2954 59.0429C20.2962 59.09 20.2968 59.137 20.2989 59.1838H29.9947ZM39.7017 59.1838C39.7038 59.137 39.7044 59.0899 39.7052 59.0429C39.6603 56.368 37.5063 54.2131 34.8538 54.2131C32.2013 54.2131 30.0473 56.368 30.0024 59.0429C30.0032 59.09 30.0038 59.137 30.0059 59.1838H39.7017Z" fill="#484854"/>
<path d="M49.4088 59.1838C49.411 59.137 49.4115 59.0899 49.4124 59.0429C49.3675 56.368 47.2135 54.2131 44.5609 54.2131C41.9084 54.2131 39.7544 56.368 39.7095 59.0429C39.7103 59.09 39.7109 59.137 39.713 59.1838H49.4088Z" fill="#5D5E69"/>
<path d="M59.1158 59.1838C59.1179 59.137 59.1185 59.0899 59.1193 59.0429C59.0744 56.368 56.9204 54.2131 54.2678 54.2131C51.6154 54.2131 49.4613 56.368 49.4165 59.0429C49.4173 59.09 49.4179 59.137 49.42 59.1838H59.1158Z" fill="#BC6C59"/>
<path d="M43.02 26.1642C43.0299 26.1642 43.0395 26.1635 43.0493 26.1635C43.0592 26.1636 43.0688 26.1642 43.0786 26.1642C44.9057 26.1642 46.392 24.6777 46.392 22.8507C46.392 21.0238 44.9056 19.5374 43.0786 19.5374C43.0688 19.5374 43.0592 19.5381 43.0493 19.5381C43.0395 19.5379 43.0299 19.5374 43.02 19.5374C41.193 19.5374 39.7065 21.0238 39.7065 22.8507C39.7065 24.6777 41.1931 26.1642 43.02 26.1642ZM44.5757 22.8507C44.5757 23.6987 43.8935 24.3892 43.0494 24.405C42.2052 24.3892 41.5231 23.6987 41.5231 22.8507C41.5231 22.0029 42.2052 21.3124 43.0494 21.2966C43.8935 21.3124 44.5757 22.0029 44.5757 22.8507ZM43.0493 34.3165C43.0592 34.3166 43.0688 34.3172 43.0786 34.3172C44.9057 34.3172 46.392 32.8306 46.392 31.0037C46.392 29.1767 44.9056 27.6902 43.0786 27.6902C43.0688 27.6902 43.0592 27.6909 43.0493 27.6909C43.0395 27.6908 43.0299 27.6902 43.02 27.6902C41.193 27.6902 39.7065 29.1767 39.7065 31.0037C39.7065 32.8306 41.1931 34.3172 43.02 34.3172C43.0299 34.3173 43.0396 34.3166 43.0493 34.3165ZM44.5757 31.0037C44.5757 31.8517 43.8935 32.5421 43.0494 32.5579C42.2052 32.5421 41.5231 31.8517 41.5231 31.0037C41.5231 30.1557 42.2052 29.4652 43.0494 29.4494C43.8935 29.4654 44.5757 30.1557 44.5757 31.0037Z" fill="black"/>
<path d="M59.9971 49.5079C59.9984 49.4882 60 49.4686 60 49.4486C60 49.4387 59.9993 49.4291 59.9993 49.4193C59.9993 49.4095 60 49.3998 60 49.39C60 49.37 59.9984 49.3504 59.9971 49.3307C59.9751 48.194 59.6138 47.0899 58.9595 46.1602V4.02754C58.9595 1.80883 57.1546 0.00390625 54.9359 0.00390625H4.9166C2.71477 0.00390625 0.923438 1.79523 0.923438 3.99707V46.3337C0.342372 47.227 0.0234983 48.2654 0.00304688 49.3308C0.00164063 49.3505 0 49.3701 0 49.3901C0 49.4 0.000703125 49.4096 0.000703125 49.4194C0.000703125 49.4293 0 49.4389 0 49.4487C0 49.4687 0.00164063 49.4883 0.00292969 49.508C0.0437109 51.5105 1.1148 53.2636 2.70762 54.2576C1.08352 55.2709 0 57.0734 0 59.125C0 60.2588 1.75781 60.2588 1.75781 59.125C1.75781 54.0091 9.70699 53.9895 9.70699 59.125C9.70699 60.2588 11.4648 60.2588 11.4648 59.125C11.4648 54.0091 19.4141 53.9895 19.4141 59.125C19.4141 60.2588 21.1719 60.2588 21.1719 59.125C21.1719 54.0091 29.1211 53.9895 29.1211 59.125C29.1211 60.2588 30.8789 60.2588 30.8789 59.125C30.8789 54.0091 38.8281 53.9895 38.8281 59.125C38.8281 60.2588 40.5859 60.2588 40.5859 59.125C40.5859 54.0091 48.5352 53.9895 48.5352 59.125C48.5352 60.2588 50.293 60.2588 50.293 59.125C50.293 54.0091 58.2422 53.9895 58.2422 59.125C58.2422 60.2588 60 60.2588 60 59.125C60 57.0734 58.9165 55.2709 57.2924 54.2575C58.8852 53.2636 59.9563 51.5104 59.9971 49.5079ZM50.3755 48.6415C50.7495 46.8348 52.3525 45.4727 54.2675 45.4727C55.4586 45.4727 56.5283 46.0002 57.2573 46.8332C57.319 46.999 57.4292 47.1424 57.5736 47.2446C58.0045 47.8885 58.2367 48.6447 58.2414 49.4194C58.2275 51.3093 56.8894 52.8891 55.1108 53.2751C54.6779 50.895 52.7726 49.0225 50.3755 48.6415ZM44.6191 51.2581C43.7564 49.8875 42.3307 48.9058 40.6684 48.6415C41.0423 46.8348 42.6454 45.4727 44.5605 45.4727C46.4829 45.4727 48.0906 46.845 48.4567 48.6618C46.843 48.9518 45.4622 49.9187 44.6191 51.2581ZM34.9121 51.2581C34.0493 49.8875 32.6237 48.9058 30.9614 48.6415C31.3354 46.8348 32.9384 45.4727 34.8536 45.4727C36.7759 45.4727 38.3835 46.845 38.7496 48.6618C37.136 48.9518 35.7552 49.9187 34.9121 51.2581ZM25.205 51.2581C24.3423 49.8875 22.9167 48.9058 21.2544 48.6415C21.6284 46.8348 23.2314 45.4727 25.1464 45.4727C27.0688 45.4727 28.6765 46.845 29.0426 48.6618C27.4289 48.9518 26.0481 49.9187 25.205 51.2581ZM15.498 51.2581C14.6353 49.8875 13.2096 48.9058 11.5473 48.6415C11.6186 48.2989 11.7351 47.9673 11.8938 47.6554C11.9526 47.5806 11.9987 47.4967 12.0305 47.4071C12.726 46.2493 13.9936 45.4727 15.4396 45.4727C17.3619 45.4727 18.9696 46.845 19.3357 48.6618C17.7219 48.9518 16.3411 49.9187 15.498 51.2581ZM5.00227 53.2976C3.1677 52.9553 1.77258 51.3491 1.75852 49.4194C1.77434 47.2405 3.55055 45.4727 5.73246 45.4727C7.6548 45.4727 9.26238 46.845 9.62848 48.6618C7.27746 49.0844 5.42051 50.9446 5.00227 53.2976ZM24.5357 1.76172L21.6183 4.79242H16.312L19.2294 1.76172H24.5357ZM33.0246 1.76172L35.942 4.79242H32.3761C31.2423 4.79242 31.2423 6.55023 32.3761 6.55023H45.1324L29.0875 14.7429L14.561 6.55023H27.9598C29.0936 6.55023 29.0936 4.79242 27.9598 4.79242H24.0581L26.9755 1.76172H33.0246ZM40.7706 1.76172L43.688 4.79242H38.3817L35.4643 1.76172H40.7706ZM54.2675 43.7148C54.2351 43.7148 54.2031 43.7167 54.1709 43.7173V38.5833L57.2016 41.614V44.5253C56.3152 43.9939 55.301 43.7138 54.2675 43.7148ZM39.707 46.4031C38.6916 44.7898 36.8962 43.7148 34.8536 43.7148C32.8109 43.7148 31.0155 44.7899 30 46.4032C28.9845 44.7899 27.1891 43.7148 25.1464 43.7148C23.1037 43.7148 21.3084 44.7899 20.293 46.4031C19.2775 44.7898 17.4821 43.7148 15.4395 43.7148C14.1861 43.7148 13.0262 44.1204 12.0818 44.8056V37.4876H39.5684C40.7021 37.4876 40.7021 35.7298 39.5684 35.7298H38.2392V17.3316H47.9182V35.7298H43.6448C42.5111 35.7298 42.5111 37.4876 43.6448 37.4876H47.8596V44.7639C46.9259 44.104 45.7881 43.7148 44.5605 43.7148C42.5179 43.7148 40.7225 44.7899 39.707 46.4031ZM54.1709 30.8372L57.2016 33.8679V39.1279L54.1709 36.0972V30.8372ZM54.1709 28.3512V23.0913L57.2016 26.122V31.3819L54.1709 28.3512ZM57.2016 23.6358L54.1709 20.6051V15.3452L57.2016 18.3759V23.6358ZM53.292 8.99242L49.9709 5.67133L53.1928 2.44961C55.3291 0.312695 58.6543 3.62992 56.5138 5.77047L53.292 8.99242ZM52.3372 10.5237L49.6761 18.9223V16.4528C49.6761 15.9673 49.2827 15.5739 48.7972 15.5739H37.3604C37.245 15.5739 37.1307 15.5966 37.0241 15.6408C36.9174 15.6849 36.8205 15.7497 36.7389 15.8313C36.6573 15.9129 36.5926 16.0098 36.5484 16.1165C36.5042 16.2231 36.4815 16.3374 36.4815 16.4528V18.913L30.9244 15.7789L48.5782 6.76469L52.3372 10.5237ZM36.4815 20.931V35.7298H23.5185V24.8888C23.5185 23.755 21.7607 23.755 21.7607 24.8888V35.7298H12.0817V17.3316H21.7607V20.2461C21.7607 21.3798 23.5185 21.3798 23.5185 20.2461V16.4527C23.5185 15.9672 23.1251 15.5738 22.6396 15.5738H11.2029C11.0875 15.5738 10.9732 15.5965 10.8665 15.6407C10.7599 15.6848 10.663 15.7496 10.5814 15.8312C10.4998 15.9128 10.435 16.0097 10.3909 16.1163C10.3467 16.223 10.324 16.3373 10.324 16.4527V19.1335L7.63207 10.4372L11.3257 6.74359L36.4815 20.931ZM2.68125 26.2285L5.71195 23.1978V28.4577L2.68125 31.4884V26.2285ZM6.59086 8.99242L3.36902 5.77059C1.24652 3.64785 4.54477 0.304258 6.69012 2.44961L9.91195 5.67133L6.59086 8.99242ZM5.71195 20.7118L2.68125 23.7425V18.4825L5.71195 15.4518V20.7118ZM2.68125 33.9746L5.71195 30.9439V36.2038L2.68125 39.2345V33.9746ZM7.46977 36.5686V15.858L10.3239 25.0785L10.2653 45.9449C9.56074 45.0351 8.58984 44.3419 7.46977 43.9847V36.5686ZM49.6174 46.1017L49.676 24.7415L52.4129 16.1037V44.0245C51.2796 44.4134 50.3058 45.1476 49.6174 46.1017ZM57.2016 15.8898L54.1709 12.8591V10.5995L57.2016 7.56871V15.8898ZM48.3639 4.79242H46.1277L43.2103 1.76172H51.3946L48.3639 4.79242ZM13.8723 4.79242H11.5189L8.48824 1.76172H16.7897L13.8723 4.79242ZM5.71195 10.5995V12.9657L2.68125 15.9964V7.56883L5.71195 10.5995ZM2.68125 41.7205L5.71195 38.6898V43.7153C4.63872 43.7181 3.58813 44.0242 2.68125 44.5981V41.7205ZM10.5859 56.0795C9.74402 54.7421 8.3659 53.776 6.75527 53.4844C7.13379 51.6837 8.73363 50.3276 10.6445 50.3276C12.5483 50.3276 14.143 51.6737 14.5293 53.4643C12.8701 53.7302 11.4475 54.7109 10.5859 56.0795ZM20.293 56.0795C19.4511 54.7421 18.073 53.776 16.4623 53.4844C16.8408 51.6837 18.4406 50.3276 20.3516 50.3276C22.2553 50.3276 23.85 51.6737 24.2362 53.4643C22.5771 53.7302 21.1545 54.7109 20.293 56.0795ZM30 56.0795C29.1581 54.7421 27.78 53.776 26.1693 53.4844C26.5478 51.6837 28.1476 50.3276 30.0586 50.3276C31.9624 50.3276 33.5571 51.6737 33.9434 53.4643C32.2842 53.7302 30.8614 54.7109 30 56.0795ZM39.707 56.0795C38.8651 54.7421 37.487 53.776 35.8764 53.4844C36.2549 51.6837 37.8547 50.3276 39.7656 50.3276C41.6694 50.3276 43.2641 51.6737 43.6504 53.4643C41.9912 53.7302 40.5686 54.7109 39.707 56.0795ZM49.4141 56.0795C48.5722 54.7421 47.1941 53.776 45.5834 53.4844C45.9619 51.6837 47.5617 50.3276 49.4727 50.3276C51.3764 50.3276 52.9711 51.6737 53.3573 53.4643C51.6982 53.7302 50.2755 54.7109 49.4141 56.0795Z" fill="black"/>
<path d="M16.9213 19.5374C16.9114 19.5374 16.9018 19.5381 16.892 19.5381C16.8821 19.5379 16.8725 19.5374 16.8627 19.5374C15.0356 19.5374 13.5493 21.0238 13.5493 22.8507C13.5493 24.6777 15.0357 26.1642 16.8627 26.1642C16.8725 26.1642 16.8821 26.1635 16.892 26.1635C16.9018 26.1636 16.9114 26.1642 16.9213 26.1642C18.7483 26.1642 20.2347 24.6777 20.2347 22.8507C20.2347 21.0238 18.7482 19.5374 16.9213 19.5374ZM15.3656 22.8507C15.3656 22.0029 16.0478 21.3124 16.8919 21.2966C17.7361 21.3124 18.4182 22.0029 18.4182 22.8507C18.4182 23.6987 17.7361 24.3892 16.8919 24.405C16.0478 24.3892 15.3656 23.6987 15.3656 22.8507ZM16.9213 27.6902C16.9114 27.6902 16.9018 27.6909 16.892 27.6909C16.8821 27.6908 16.8725 27.6902 16.8627 27.6902C15.0356 27.6902 13.5493 29.1767 13.5493 31.0037C13.5493 32.8306 15.0357 34.3172 16.8627 34.3172C16.8725 34.3172 16.8821 34.3165 16.892 34.3165C16.9018 34.3166 16.9114 34.3172 16.9213 34.3172C18.7483 34.3172 20.2347 32.8306 20.2347 31.0037C20.2347 29.1767 18.7482 27.6902 16.9213 27.6902ZM15.3656 31.0037C15.3656 30.1557 16.0478 29.4652 16.8919 29.4494C17.7361 29.4652 18.4182 30.1557 18.4182 31.0037C18.4182 31.8517 17.7361 32.5421 16.8919 32.5579C16.0478 32.5421 15.3656 31.8517 15.3656 31.0037Z" fill="black"/>
</svg>
