<svg width="125" height="127" viewBox="0 0 125 127" fill="none" xmlns="http://www.w3.org/2000/svg">
<path d="M115.191 0H8.60379C3.91194 0 0.0947266 3.81722 0.0947266 8.50931V105.881C0.0947266 106.915 0.933145 107.754 1.96762 107.754C3.0021 107.754 3.84052 106.915 3.84052 105.881V88.8955L10.2989 82.4374V95.1428C10.2989 96.1772 11.1373 97.0156 12.1717 97.0156C13.2062 97.0156 14.0446 96.1772 14.0446 95.1428V13.9499H109.815V95.1428C109.815 96.1772 110.654 97.0156 111.688 97.0156C112.723 97.0156 113.561 96.1772 113.561 95.1428V82.2101L120.02 88.6684V105.881C120.02 106.915 120.858 107.754 121.892 107.754C122.927 107.754 123.765 106.915 123.765 105.881V8.57409C123.765 3.84628 119.919 0 115.191 0ZM10.2986 77.1394L3.84027 83.5975V72.389L10.2986 65.9309V77.1394ZM10.2986 60.6331L3.84027 67.0912V55.8827L10.2986 49.4246V60.6331ZM10.2986 44.1268L3.84027 50.5849V39.3764L10.2986 32.9183V44.1268ZM12.1715 10.2041C11.9255 10.2041 11.682 10.2525 11.4547 10.3466C11.2275 10.4407 11.021 10.5787 10.8471 10.7526C10.6732 10.9265 10.5352 11.133 10.4411 11.3603C10.347 11.5875 10.2986 11.8311 10.2986 12.077V27.6208L3.84027 34.0788V8.50931C3.84027 5.88272 5.97695 3.74579 8.60379 3.74579H33.9044L27.6877 10.2041H12.1715ZM32.8866 10.2041L39.1034 3.74579H50.4107L44.194 10.2041H32.8866ZM49.3929 10.2041L55.6096 3.74579H68.5L74.7167 10.2041H49.3929ZM79.9154 10.2041L73.6987 3.74579H85.006L91.2227 10.2041H79.9154ZM120.019 83.3704L113.561 76.9121V65.7035L120.019 72.1619V83.3704ZM120.019 66.8641L113.561 60.4058V49.1972L120.019 55.6556V66.8641ZM120.019 50.3578L113.561 43.8995V32.6909L120.019 39.1493V50.3578ZM120.019 33.8518L113.561 27.3934V12.077C113.561 11.0425 112.723 10.2041 111.688 10.2041H96.4217L90.205 3.74579H115.191C117.853 3.74579 120.019 5.91179 120.019 8.57409V33.8518H120.019Z" fill="#0D0D0E"/>
<path d="M21.8746 53.1488L12.1717 21.8029L12.1113 21.7259V12.0774H21.8972L78.5363 43.9508V78.9112H22.0999V53.1902" fill="#FEEC96"/>
<path d="M101.963 12.0774H111.749V21.7259L111.688 21.8029L101.985 52.4249L101.845 58.8574L59.168 33.8856L101.963 12.0774Z" fill="#8ADFF8"/>
<path d="M21.8745 105.88V78.0017H101.985V105.88" fill="#F0EEF0"/>
<path d="M94.2202 78.0017H101.986V105.88H94.2202V78.0017Z" fill="#DFDDE0"/>
<path d="M12.1714 21.8022L3.98156 13.6124C1.29586 10.9267 1.29586 6.57253 3.98156 3.88683C6.66726 1.20113 11.0214 1.20113 13.7071 3.88683L21.897 12.0767L12.1714 21.8022Z" fill="#5D5E69"/>
<path d="M8.666 9.05379L16.793 17.1808L21.8972 12.0767L13.7074 3.88683C11.0217 1.20113 6.66749 1.20113 3.98179 3.88683C3.05906 4.80742 2.41842 5.97239 2.13525 7.24469C4.40002 6.68066 6.89557 7.28336 8.666 9.05379Z" fill="#484854"/>
<path d="M101.963 12.0767L110.153 3.88683C112.838 1.20113 117.193 1.20113 119.878 3.88683C122.564 6.57253 122.564 10.9267 119.878 13.6124L111.688 21.8022L101.963 12.0767Z" fill="#5D5E69"/>
<path d="M114.711 8.57152L106.584 16.6988L111.688 21.803L119.878 13.6131C122.564 10.9274 122.564 6.57325 119.878 3.88756C118.957 2.96482 117.792 2.32419 116.52 2.04102C117.084 4.30578 116.481 6.80108 114.711 8.57152Z" fill="#484854"/>
<path d="M46.2455 78.0017H21.8745V37.5481C21.8745 36.169 22.9925 35.0508 24.3718 35.0508H43.7485C45.1276 35.0508 46.2458 36.1688 46.2458 37.5481V78.0017H46.2455Z" fill="#BDBFCE"/>
<path d="M43.7491 35.0508H35.9834C37.3625 35.0508 38.4807 36.1688 38.4807 37.5481V78.0017H46.2464V37.5481C46.2461 36.1688 45.1282 35.0508 43.7491 35.0508Z" fill="#ABACBA"/>
<path d="M34.0605 53.8721C36.9257 53.8721 39.2484 51.5494 39.2484 48.6842C39.2484 45.819 36.9257 43.4963 34.0605 43.4963C31.1953 43.4963 28.8726 45.819 28.8726 48.6842C28.8726 51.5494 31.1953 53.8721 34.0605 53.8721Z" fill="#5D5E69"/>
<path d="M34.0605 71.2454C36.9257 71.2454 39.2484 68.9227 39.2484 66.0575C39.2484 63.1923 36.9257 60.8696 34.0605 60.8696C31.1953 60.8696 28.8726 63.1923 28.8726 66.0575C28.8726 68.9227 31.1953 71.2454 34.0605 71.2454Z" fill="#5D5E69"/>
<path d="M77.6147 78.0017V37.5481C77.6147 36.169 78.7327 35.0508 80.112 35.0508H99.4887C100.868 35.0508 101.986 36.1688 101.986 37.5481V78.0017H77.6147Z" fill="#BDBFCE"/>
<path d="M99.4881 35.0508H91.6699C93.049 35.0508 94.1672 36.1688 94.1672 37.5481V78.0017H101.985V37.5481C101.985 36.1688 100.867 35.0508 99.4881 35.0508Z" fill="#ABACBA"/>
<path d="M89.8002 53.8721C92.6654 53.8721 94.9881 51.5494 94.9881 48.6842C94.9881 45.819 92.6654 43.4963 89.8002 43.4963C86.935 43.4963 84.6123 45.819 84.6123 48.6842C84.6123 51.5494 86.935 53.8721 89.8002 53.8721Z" fill="#5D5E69"/>
<path d="M89.8002 71.2454C92.6654 71.2454 94.9881 68.9227 94.9881 66.0575C94.9881 63.1923 92.6654 60.8696 89.8002 60.8696C86.935 60.8696 84.6123 63.1923 84.6123 66.0575C84.6123 68.9227 86.935 71.2454 89.8002 71.2454Z" fill="#5D5E69"/>
<path d="M0 105.006C0 110.79 4.63051 115.479 10.3425 115.479C16.0546 115.479 20.6851 110.79 20.6851 105.006V105.367C20.6851 99.5837 16.0546 94.895 10.3425 94.895C4.63051 94.895 0 99.5837 0 105.367" fill="#5D5E69"/>
<path d="M20.6851 105.006C20.6851 110.79 25.3156 115.479 31.0276 115.479C36.7396 115.479 41.3702 110.79 41.3702 105.006V105.367C41.3702 99.5837 36.7396 94.895 31.0276 94.895C25.3156 94.895 20.6851 99.5837 20.6851 105.367" fill="#484854"/>
<path d="M41.3706 105.006C41.3706 110.79 46.0011 115.479 51.7132 115.479C57.4252 115.479 62.0557 110.79 62.0557 105.006V105.367C62.0557 99.5837 57.4252 94.895 51.7132 94.895C46.0011 94.895 41.3706 99.5837 41.3706 105.367" fill="#F9B04D"/>
<path d="M62.0552 105.006C62.0552 110.79 66.6857 115.479 72.3977 115.479C78.1098 115.479 82.7403 110.79 82.7403 105.006V105.367C82.7403 99.5837 78.1098 94.895 72.3977 94.895C66.6857 94.895 62.0552 99.5837 62.0552 105.367" fill="#484854"/>
<path d="M82.7402 105.006C82.7402 110.79 87.3707 115.479 93.0828 115.479C98.7948 115.479 103.425 110.79 103.425 105.006V105.367C103.425 99.5837 98.7948 94.895 93.0828 94.895C87.3707 94.895 82.7402 99.5837 82.7402 105.367" fill="#5D5E69"/>
<path d="M103.425 105.006C103.425 110.79 108.056 115.479 113.768 115.479C119.48 115.479 124.11 110.79 124.11 105.006V105.367C124.11 99.5837 119.48 94.895 113.768 94.895C108.056 94.895 103.425 99.5837 103.425 105.367" fill="#BC6C59"/>
<path d="M10.4468 115.39C10.4468 121.173 15.0773 125.862 20.7893 125.862C26.5014 125.862 31.1319 121.173 31.1319 115.39V115.751C31.1319 109.967 26.5014 105.278 20.7893 105.278C15.0773 105.278 10.4468 109.967 10.4468 115.751" fill="#F9B04D"/>
<path d="M31.1318 115.39C31.1318 121.173 35.7623 125.862 41.4744 125.862C47.1864 125.862 51.8169 121.173 51.8169 115.39V115.751C51.8169 109.967 47.1864 105.278 41.4744 105.278C35.7623 105.278 31.1318 109.967 31.1318 115.751" fill="#BC6C59"/>
<path d="M51.8164 115.39C51.8164 121.173 56.4469 125.862 62.159 125.862C67.871 125.862 72.5015 121.173 72.5015 115.39V115.751C72.5015 109.967 67.871 105.278 62.159 105.278C56.4469 105.278 51.8164 109.967 51.8164 115.751" fill="#5D5E69"/>
<path d="M72.5015 115.39C72.5015 121.173 77.132 125.862 82.844 125.862C88.556 125.862 93.1866 121.173 93.1866 115.39V115.751C93.1866 109.967 88.556 105.278 82.844 105.278C77.132 105.278 72.5015 109.967 72.5015 115.751" fill="#BC6C59"/>
<path d="M93.187 115.39C93.187 121.173 97.8175 125.862 103.53 125.862C109.242 125.862 113.872 121.173 113.872 115.39V115.751C113.872 109.967 109.242 105.278 103.53 105.278C97.8175 105.278 93.187 109.967 93.187 115.751" fill="#F9B04D"/>
<path d="M20.673 126.108C20.6774 126.008 20.6789 125.908 20.6804 125.807C20.5848 120.107 15.9947 115.516 10.3425 115.516C4.69033 115.516 0.0999604 120.107 0.00439453 125.807C0.00611866 125.908 0.00735023 126.008 0.0117837 126.108H20.673Z" fill="#BC6C59"/>
<path d="M41.3583 126.108C41.3627 126.008 41.3642 125.908 41.3657 125.807C41.2701 120.107 36.6797 115.516 31.0276 115.516C25.3754 115.516 20.785 120.107 20.6895 125.807C20.6912 125.908 20.6924 126.008 20.6968 126.108H41.3583Z" fill="#5D5E69"/>
<path d="M62.0426 126.108C62.047 126.008 62.0485 125.908 62.05 125.807C61.9544 120.107 57.3643 115.516 51.7119 115.516C46.0597 115.516 41.4696 120.107 41.374 125.807C41.3757 125.908 41.377 126.008 41.3814 126.108H62.0426ZM82.7277 126.108C82.7321 126.008 82.7336 125.908 82.7351 125.807C82.6395 120.107 78.0494 115.516 72.3972 115.516C66.745 115.516 62.1547 120.107 62.0591 125.807C62.0608 125.908 62.0621 126.008 62.0665 126.108H82.7277Z" fill="#484854"/>
<path d="M103.413 126.108C103.417 126.008 103.419 125.908 103.42 125.807C103.325 120.107 98.7344 115.516 93.0823 115.516C87.4301 115.516 82.8397 120.107 82.7441 125.807C82.7459 125.908 82.7471 126.008 82.7515 126.108H103.413Z" fill="#5D5E69"/>
<path d="M124.098 126.108C124.103 126.008 124.104 125.908 124.106 125.807C124.01 120.107 119.42 115.516 113.768 115.516C108.115 115.516 103.525 120.107 103.43 125.807C103.431 125.908 103.433 126.008 103.437 126.108H124.098Z" fill="#BC6C59"/>
</svg>
