<svg width="109" height="109" viewBox="0 0 109 109" fill="none" xmlns="http://www.w3.org/2000/svg">
<path d="M82.677 3.75804C82.674 2.76226 82.2771 1.80812 81.573 1.10399C80.8688 0.399865 79.9147 0.00297398 78.9189 0L27.8621 0C26.8655 0.000212846 25.9098 0.396288 25.2052 1.10111L1.10111 25.2052C0.396288 25.9098 0.000212846 26.8655 0 27.8621L0 105.225C0.00297398 106.221 0.399865 107.175 1.10399 107.879C1.80812 108.583 2.76226 108.98 3.75804 108.983H78.9189C79.9156 108.983 80.8715 108.587 81.5763 107.883C82.281 107.178 82.677 106.222 82.677 105.225V3.75804Z" fill="#F9EAB0"/>
<path d="M69.5242 39.4595H11.2745C10.7762 39.4595 10.2982 39.2615 9.94586 38.9091C9.59348 38.5567 9.39551 38.0788 9.39551 37.5804C9.39551 37.0821 9.59348 36.6042 9.94586 36.2518C10.2982 35.8994 10.7762 35.7014 11.2745 35.7014H69.5242C70.0226 35.7014 70.5005 35.8994 70.8529 36.2518C71.2053 36.6042 71.4032 37.0821 71.4032 37.5804C71.4032 38.0788 71.2053 38.5567 70.8529 38.9091C70.5005 39.2615 70.0226 39.4595 69.5242 39.4595ZM55.9389 48.8546H11.2745C10.7762 48.8546 10.2982 48.6566 9.94586 48.3042C9.59348 47.9518 9.39551 47.4739 9.39551 46.9755C9.39551 46.4772 9.59348 45.9993 9.94586 45.6469C10.2982 45.2945 10.7762 45.0965 11.2745 45.0965H55.9389C56.4372 45.0965 56.9152 45.2945 57.2675 45.6469C57.6199 45.9993 57.8179 46.4772 57.8179 46.9755C57.8179 47.4739 57.6199 47.9518 57.2675 48.3042C56.9152 48.6566 56.4372 48.8546 55.9389 48.8546ZM42.3348 58.2497H11.2745C10.7762 58.2497 10.2982 58.0517 9.94586 57.6993C9.59348 57.3469 9.39551 56.869 9.39551 56.3707C9.39551 55.8723 9.59348 55.3944 9.94586 55.042C10.2982 54.6896 10.7762 54.4916 11.2745 54.4916H42.3348C42.8331 54.4916 43.311 54.6896 43.6634 55.042C44.0158 55.3944 44.2138 55.8723 44.2138 56.3707C44.2138 56.869 44.0158 57.3469 43.6634 57.6993C43.311 58.0517 42.8331 58.2497 42.3348 58.2497ZM25.4048 75.1609H11.2745C10.7762 75.1609 10.2982 74.9629 9.94586 74.6105C9.59348 74.2581 9.39551 73.7802 9.39551 73.2819C9.39551 72.7835 9.59348 72.3056 9.94586 71.9532C10.2982 71.6008 10.7762 71.4028 11.2745 71.4028H25.4048C25.9031 71.4028 26.3811 71.6008 26.7334 71.9532C27.0858 72.3056 27.2838 72.7835 27.2838 73.2819C27.2838 73.7802 27.0858 74.2581 26.7334 74.6105C26.3811 74.9629 25.9031 75.1609 25.4048 75.1609ZM18.9973 84.556H11.2745C10.7762 84.556 10.2982 84.358 9.94586 84.0056C9.59348 83.6533 9.39551 83.1753 9.39551 82.677C9.39551 82.1786 9.59348 81.7007 9.94586 81.3483C10.2982 80.9959 10.7762 80.7979 11.2745 80.7979H18.9973C19.4957 80.7979 19.9736 80.9959 20.326 81.3483C20.6784 81.7007 20.8763 82.1786 20.8763 82.677C20.8763 83.1753 20.6784 83.6533 20.326 84.0056C19.9736 84.358 19.4957 84.556 18.9973 84.556ZM29.7641 93.9511H11.2745C10.7762 93.9511 10.2982 93.7531 9.94586 93.4007C9.59348 93.0484 9.39551 92.5704 9.39551 92.0721C9.39551 91.5737 9.59348 91.0958 9.94586 90.7434C10.2982 90.391 10.7762 90.1931 11.2745 90.1931H29.7641C30.2625 90.1931 30.7404 90.391 31.0928 90.7434C31.4452 91.0958 31.6431 91.5737 31.6431 92.0721C31.6431 92.5704 31.4452 93.0484 31.0928 93.4007C30.7404 93.7531 30.2625 93.9511 29.7641 93.9511Z" fill="#CBB292"/>
<path d="M73.2819 101.468H63.8868C63.3885 101.468 62.9105 101.27 62.5582 100.918C62.2058 100.566 62.0078 100.088 62.0078 99.5893C62.0078 99.091 62.2058 98.613 62.5582 98.2606C62.9105 97.9083 63.3885 97.7103 63.8868 97.7103H71.4029V90.1942C71.4029 89.6959 71.6009 89.2179 71.9533 88.8655C72.3057 88.5132 72.7836 88.3152 73.2819 88.3152C73.7803 88.3152 74.2582 88.5132 74.6106 88.8655C74.963 89.2179 75.161 89.6959 75.161 90.1942V99.5893C75.161 100.088 74.963 100.566 74.6106 100.918C74.2582 101.27 73.7803 101.468 73.2819 101.468Z" fill="white"/>
<path d="M73.2823 11.2746H58.2501C57.7518 11.2746 57.2738 11.0767 56.9214 10.7243C56.5691 10.3719 56.3711 9.89397 56.3711 9.39562C56.3711 8.89728 56.5691 8.41934 56.9214 8.06695C57.2738 7.71457 57.7518 7.5166 58.2501 7.5166H73.2823C73.7806 7.5166 74.2586 7.71457 74.611 8.06695C74.9633 8.41934 75.1613 8.89728 75.1613 9.39562C75.1613 9.89397 74.9633 10.3719 74.611 10.7243C74.2586 11.0767 73.7806 11.2746 73.2823 11.2746ZM73.2823 18.7907H63.8872C63.3888 18.7907 62.9109 18.5928 62.5585 18.2404C62.2061 17.888 62.0082 17.4101 62.0082 16.9117C62.0082 16.4134 62.2061 15.9354 62.5585 15.583C62.9109 15.2307 63.3888 15.0327 63.8872 15.0327H73.2823C73.7806 15.0327 74.2586 15.2307 74.611 15.583C74.9633 15.9354 75.1613 16.4134 75.1613 16.9117C75.1613 17.4101 74.9633 17.888 74.611 18.2404C74.2586 18.5928 73.7806 18.7907 73.2823 18.7907Z" fill="#CBB292"/>
<path d="M26.306 0.339111V20.6701C26.306 22.1652 25.7121 23.599 24.6549 24.6561C23.5978 25.7133 22.1639 26.3072 20.6689 26.3072H0.337891C0.525793 25.8938 0.788856 25.518 1.10829 25.1986L25.1973 1.10951C25.5168 0.790077 25.8926 0.527014 26.306 0.339111Z" fill="#F3D55B"/>
<path d="M107.988 42.4303L103.704 36.2483C102.853 35.021 101.55 34.1814 100.081 33.9136C98.6122 33.6459 97.0969 33.972 95.8681 34.8203L85.0449 42.2988L77.3221 47.6352L40.5121 73.0941C40.4118 73.1531 40.3228 73.2295 40.249 73.3195L50.9031 88.7087C51.0093 88.6637 51.1101 88.607 51.2037 88.5396L88.0138 63.0977L95.7365 57.7612L106.56 50.2639C107.786 49.4134 108.626 48.111 108.893 46.6424C109.161 45.1738 108.835 43.659 107.988 42.4303Z" fill="#BDC3C7"/>
<path d="M106.56 50.2658L95.7366 57.7631L85.0449 42.2988L95.8681 34.8203C97.097 33.972 98.6122 33.6459 100.081 33.9136C101.55 34.1814 102.853 35.021 103.704 36.2483L107.988 42.4303C108.836 43.6592 109.162 45.1744 108.894 46.6434C108.627 48.1125 107.787 49.4152 106.56 50.2658Z" fill="#FF5364"/>
<path d="M77.3271 47.6872L85.0537 42.3545L95.7322 57.8264L88.0056 63.159L77.3271 47.6872Z" fill="#BDC3C7"/>
<path d="M88.0138 63.0991C48.87 90.157 51.0929 88.6538 50.9031 88.7102L40.249 73.321C40.4012 73.1331 38.0074 74.8242 77.3221 47.6348L88.0138 63.0991Z" fill="#3B97D3"/>
<path d="M50.9026 88.7112C50.7147 88.8258 51.2202 88.6699 39.1775 91.6049L33.4277 83.262C40.3989 73.0345 40.0344 73.5362 40.2486 73.322L50.9026 88.7112Z" fill="#FDD7AD"/>
<path d="M39.1774 91.6047L30.2333 93.7637C29.8631 93.8542 29.4741 93.83 29.118 93.6942C28.7619 93.5585 28.4555 93.3177 28.2394 93.0038C28.0233 92.6899 27.9078 92.3177 27.9082 91.9366C27.9086 91.5555 28.0248 91.1835 28.2415 90.87L33.4276 83.26L39.1774 91.6047Z" fill="#464F5D"/>
</svg>
