<svg width="343" height="52" viewBox="0 0 343 52" fill="none" xmlns="http://www.w3.org/2000/svg">
<rect width="343" height="52" rx="26" fill="#8AC85A"/>
<path d="M145.061 27.858C145.457 27.858 145.781 27.828 146.033 27.768C146.297 27.696 146.507 27.606 146.663 27.498C146.819 27.378 146.927 27.24 146.987 27.084C147.047 26.928 147.077 26.754 147.077 26.562C147.077 26.154 146.885 25.818 146.501 25.554C146.117 25.278 145.457 24.984 144.521 24.672C144.113 24.528 143.705 24.366 143.297 24.186C142.889 23.994 142.523 23.76 142.199 23.484C141.875 23.196 141.611 22.854 141.407 22.458C141.203 22.05 141.101 21.558 141.101 20.982C141.101 20.406 141.209 19.89 141.425 19.434C141.641 18.966 141.947 18.57 142.343 18.246C142.739 17.922 143.219 17.676 143.783 17.508C144.347 17.328 144.983 17.238 145.691 17.238C146.531 17.238 147.257 17.328 147.869 17.508C148.481 17.688 148.985 17.886 149.381 18.102L148.571 20.316C148.223 20.136 147.833 19.98 147.401 19.848C146.981 19.704 146.471 19.632 145.871 19.632C145.199 19.632 144.713 19.728 144.413 19.92C144.125 20.1 143.981 20.382 143.981 20.766C143.981 20.994 144.035 21.186 144.143 21.342C144.251 21.498 144.401 21.642 144.593 21.774C144.797 21.894 145.025 22.008 145.277 22.116C145.541 22.212 145.829 22.314 146.141 22.422C146.789 22.662 147.353 22.902 147.833 23.142C148.313 23.37 148.709 23.64 149.021 23.952C149.345 24.264 149.585 24.63 149.741 25.05C149.897 25.47 149.975 25.98 149.975 26.58C149.975 27.744 149.567 28.65 148.751 29.298C147.935 29.934 146.705 30.252 145.061 30.252C144.509 30.252 144.011 30.216 143.567 30.144C143.123 30.084 142.727 30.006 142.379 29.91C142.043 29.814 141.749 29.712 141.497 29.604C141.257 29.496 141.053 29.394 140.885 29.298L141.677 27.066C142.049 27.27 142.505 27.456 143.045 27.624C143.597 27.78 144.269 27.858 145.061 27.858ZM160.218 29.676C159.762 29.808 159.174 29.928 158.454 30.036C157.734 30.156 156.978 30.216 156.186 30.216C155.382 30.216 154.71 30.108 154.17 29.892C153.642 29.676 153.222 29.376 152.91 28.992C152.598 28.596 152.376 28.128 152.244 27.588C152.112 27.048 152.046 26.454 152.046 25.806V20.532H154.728V25.482C154.728 26.346 154.842 26.97 155.07 27.354C155.298 27.738 155.724 27.93 156.348 27.93C156.54 27.93 156.744 27.924 156.96 27.912C157.176 27.888 157.368 27.864 157.536 27.84V20.532H160.218V29.676ZM168.981 25.194C168.981 23.466 168.345 22.602 167.073 22.602C166.797 22.602 166.521 22.638 166.245 22.71C165.981 22.782 165.765 22.872 165.597 22.98V27.858C165.729 27.882 165.897 27.906 166.101 27.93C166.305 27.942 166.527 27.948 166.767 27.948C167.499 27.948 168.051 27.696 168.423 27.192C168.795 26.688 168.981 26.022 168.981 25.194ZM171.717 25.266C171.717 26.022 171.603 26.706 171.375 27.318C171.159 27.93 170.841 28.452 170.421 28.884C170.001 29.316 169.485 29.652 168.873 29.892C168.261 30.12 167.565 30.234 166.785 30.234C166.461 30.234 166.119 30.216 165.759 30.18C165.411 30.156 165.063 30.12 164.715 30.072C164.379 30.024 164.055 29.97 163.743 29.91C163.431 29.838 163.155 29.766 162.915 29.694V16.464L165.597 16.032V20.748C165.897 20.616 166.209 20.514 166.533 20.442C166.857 20.37 167.205 20.334 167.577 20.334C168.249 20.334 168.843 20.454 169.359 20.694C169.875 20.922 170.307 21.252 170.655 21.684C171.003 22.116 171.267 22.638 171.447 23.25C171.627 23.85 171.717 24.522 171.717 25.266ZM179.16 24.978C179.16 24.114 179.046 23.502 178.818 23.142C178.602 22.782 178.224 22.602 177.684 22.602C177.516 22.602 177.342 22.614 177.162 22.638C176.982 22.65 176.808 22.668 176.64 22.692V30H173.958V20.856C174.186 20.796 174.45 20.736 174.75 20.676C175.062 20.604 175.386 20.544 175.722 20.496C176.07 20.436 176.424 20.394 176.784 20.37C177.144 20.334 177.498 20.316 177.846 20.316C178.53 20.316 179.082 20.406 179.502 20.586C179.934 20.754 180.288 20.958 180.564 21.198C180.948 20.922 181.386 20.706 181.878 20.55C182.382 20.394 182.844 20.316 183.264 20.316C184.02 20.316 184.638 20.424 185.118 20.64C185.61 20.844 186 21.138 186.288 21.522C186.576 21.906 186.774 22.362 186.882 22.89C186.99 23.418 187.044 24.006 187.044 24.654V30H184.362V24.978C184.362 24.114 184.248 23.502 184.02 23.142C183.804 22.782 183.426 22.602 182.886 22.602C182.742 22.602 182.538 22.638 182.274 22.71C182.022 22.782 181.812 22.872 181.644 22.98C181.728 23.256 181.782 23.55 181.806 23.862C181.83 24.162 181.842 24.486 181.842 24.834V30H179.16V24.978ZM192.342 30H189.66V20.532H192.342V30ZM192.594 17.796C192.594 18.288 192.432 18.678 192.108 18.966C191.796 19.242 191.424 19.38 190.992 19.38C190.56 19.38 190.182 19.242 189.858 18.966C189.546 18.678 189.39 18.288 189.39 17.796C189.39 17.304 189.546 16.92 189.858 16.644C190.182 16.356 190.56 16.212 190.992 16.212C191.424 16.212 191.796 16.356 192.108 16.644C192.432 16.92 192.594 17.304 192.594 17.796ZM194.953 18.174L197.635 17.742V20.532H200.857V22.764H197.635V26.094C197.635 26.658 197.731 27.108 197.923 27.444C198.127 27.78 198.529 27.948 199.129 27.948C199.417 27.948 199.711 27.924 200.011 27.876C200.323 27.816 200.605 27.738 200.857 27.642L201.235 29.73C200.911 29.862 200.551 29.976 200.155 30.072C199.759 30.168 199.273 30.216 198.697 30.216C197.965 30.216 197.359 30.12 196.879 29.928C196.399 29.724 196.015 29.448 195.727 29.1C195.439 28.74 195.235 28.308 195.115 27.804C195.007 27.3 194.953 26.742 194.953 26.13V18.174Z" fill="white"/>
</svg>
