<svg width="343" height="52" viewBox="0 0 343 52" fill="none" xmlns="http://www.w3.org/2000/svg">
<rect width="343" height="52" rx="26" fill="#8AC85A"/>
<path d="M154.999 30C154.195 28.572 153.325 27.162 152.389 25.77C151.453 24.378 150.457 23.064 149.401 21.828V30H146.629V17.526H148.915C149.311 17.922 149.749 18.408 150.229 18.984C150.709 19.56 151.195 20.178 151.687 20.838C152.191 21.486 152.689 22.164 153.181 22.872C153.673 23.568 154.135 24.24 154.567 24.888V17.526H157.357V30H154.999ZM159.784 25.338C159.784 24.498 159.91 23.766 160.162 23.142C160.426 22.506 160.768 21.978 161.188 21.558C161.608 21.138 162.088 20.82 162.628 20.604C163.18 20.388 163.744 20.28 164.32 20.28C165.664 20.28 166.726 20.694 167.506 21.522C168.286 22.338 168.676 23.544 168.676 25.14C168.676 25.296 168.67 25.47 168.658 25.662C168.646 25.842 168.634 26.004 168.622 26.148H162.538C162.598 26.7 162.856 27.138 163.312 27.462C163.768 27.786 164.38 27.948 165.148 27.948C165.64 27.948 166.12 27.906 166.588 27.822C167.068 27.726 167.458 27.612 167.758 27.48L168.118 29.658C167.974 29.73 167.782 29.802 167.542 29.874C167.302 29.946 167.032 30.006 166.732 30.054C166.444 30.114 166.132 30.162 165.796 30.198C165.46 30.234 165.124 30.252 164.788 30.252C163.936 30.252 163.192 30.126 162.556 29.874C161.932 29.622 161.41 29.28 160.99 28.848C160.582 28.404 160.276 27.882 160.072 27.282C159.88 26.682 159.784 26.034 159.784 25.338ZM166.084 24.312C166.072 24.084 166.03 23.862 165.958 23.646C165.898 23.43 165.796 23.238 165.652 23.07C165.52 22.902 165.346 22.764 165.13 22.656C164.926 22.548 164.668 22.494 164.356 22.494C164.056 22.494 163.798 22.548 163.582 22.656C163.366 22.752 163.186 22.884 163.042 23.052C162.898 23.22 162.784 23.418 162.7 23.646C162.628 23.862 162.574 24.084 162.538 24.312H166.084ZM174.688 23.412L176.56 20.532H179.332L176.092 25.086C176.812 25.986 177.466 26.862 178.054 27.714C178.642 28.566 179.11 29.328 179.458 30H176.578C176.482 29.82 176.362 29.598 176.218 29.334C176.074 29.058 175.912 28.776 175.732 28.488C175.552 28.188 175.36 27.894 175.156 27.606C174.964 27.306 174.772 27.036 174.58 26.796C174.4 27.024 174.214 27.276 174.022 27.552C173.842 27.828 173.668 28.11 173.5 28.398C173.332 28.674 173.164 28.95 172.996 29.226C172.84 29.502 172.702 29.76 172.582 30H169.846C169.99 29.7 170.188 29.346 170.44 28.938C170.692 28.53 170.962 28.11 171.25 27.678C171.55 27.234 171.862 26.796 172.186 26.364C172.51 25.92 172.828 25.506 173.14 25.122C172.6 24.366 172.06 23.604 171.52 22.836C170.98 22.056 170.446 21.288 169.918 20.532H172.816L174.688 23.412ZM180.983 18.174L183.665 17.742V20.532H186.887V22.764H183.665V26.094C183.665 26.658 183.761 27.108 183.953 27.444C184.157 27.78 184.559 27.948 185.159 27.948C185.447 27.948 185.741 27.924 186.041 27.876C186.353 27.816 186.635 27.738 186.887 27.642L187.265 29.73C186.941 29.862 186.581 29.976 186.185 30.072C185.789 30.168 185.303 30.216 184.727 30.216C183.995 30.216 183.389 30.12 182.909 29.928C182.429 29.724 182.045 29.448 181.757 29.1C181.469 28.74 181.265 28.308 181.145 27.804C181.037 27.3 180.983 26.742 180.983 26.13V18.174Z" fill="#F1FEED"/>
<path d="M198 30L204 24L198 18" stroke="#F1FEED" stroke-width="2" stroke-linecap="round" stroke-linejoin="round"/>
</svg>
