<svg width="27" height="23" viewBox="0 0 27 23" fill="none" xmlns="http://www.w3.org/2000/svg">
<path d="M26.0672 21.6054L24.7949 16.777L25.9326 13.5111C26.1151 12.9873 26.133 12.4201 25.9838 11.8858L24.1136 5.18607C23.9104 4.46302 23.1623 4.03904 22.4376 4.23625L19.768 4.96276L18.4507 4.90958L16.6585 2.08954C16.3868 1.66189 15.8197 1.53556 15.3923 1.8073C14.9646 2.07904 14.8383 2.64602 15.11 3.07362L17.1597 6.29893C17.2392 6.42397 17.3478 6.52791 17.4762 6.60185C17.6046 6.67579 17.749 6.71754 17.897 6.72352L19.548 6.79015L19.8589 7.89629L21.4722 5.90126L20.0342 9.08007C16.4643 9.66235 16.9465 9.58328 16.8825 9.59521C16.3978 9.68514 16.0638 10.1484 16.1446 10.644C16.2269 11.1488 16.7036 11.4833 17.1977 11.4018L20.815 10.8118C21.2501 10.7408 21.4801 10.3769 21.5032 10.2845L23.0911 6.7742L22.3673 10.4544C22.2905 10.8451 21.8255 11.5393 20.9238 11.6863L21.0905 12.2794L19.5529 16.6663C19.504 16.8059 19.4837 16.9539 19.4933 17.1015L19.8077 21.9571C19.847 22.5637 20.3705 23.0238 20.9774 22.9845C21.5841 22.9452 22.0441 22.4215 22.0048 21.8148L21.7048 17.183L23.0823 13.2527L23.7396 13.0738L22.6043 16.3771C22.5335 16.5829 22.5254 16.805 22.5808 17.0154L23.9381 22.1665C24.0931 22.7546 24.6953 23.1054 25.2831 22.9505C25.8711 22.7955 26.2221 22.1933 26.0672 21.6054Z" fill="black"/>
<path d="M20.1703 4.04962C21.2886 4.04962 22.1951 3.14308 22.1951 2.02481C22.1951 0.906539 21.2886 0 20.1703 0C19.052 0 18.1455 0.906539 18.1455 2.02481C18.1455 3.14308 19.052 4.04962 20.1703 4.04962Z" fill="black"/>
<path d="M14.4576 0.442202C14.0398 0.155625 13.4688 0.261976 13.1822 0.679785L10.8673 4.05498L7.99252 4.66826L6.40571 4.23643C5.6817 4.03938 4.93428 4.46244 4.73035 5.18427L5.99474 5.24876L2.20397 5.93724C2.05515 5.96427 1.91532 6.02768 1.79693 6.12181C1.67854 6.21595 1.58525 6.33789 1.52538 6.4768L0.0751098 9.84272C-0.125153 10.3072 0.0886714 10.8474 0.554557 11.0482C1.03992 11.2574 1.58564 11.0048 1.76006 10.5688L3.01578 7.65456L6.44859 7.03109L3.87551 8.22619L2.8926 11.7348C2.7224 12.3422 2.74141 12.9872 2.9471 13.5836L4.0484 16.7771L2.77616 21.6054C2.62122 22.1933 2.97224 22.7954 3.56018 22.9504C4.14715 23.1052 4.75003 22.755 4.90517 22.1664L6.2625 17.0153C6.31792 16.8049 6.30976 16.5828 6.23905 16.377L5.1037 13.0737L5.76103 13.2526L7.13855 17.1828L6.83851 21.8146C6.79752 22.4476 7.29915 22.9867 7.93807 22.9867C8.51357 22.9866 8.99776 22.5394 9.03554 21.957L9.35 17.1014C9.35958 16.9538 9.3393 16.8058 9.29035 16.6662L7.7528 12.2793L9.45176 6.23279L11.6079 5.77282C11.8377 5.72378 12.04 5.58837 12.1729 5.39452L14.695 1.71745C14.9818 1.29969 14.8754 0.728729 14.4576 0.442202Z" fill="black"/>
<path d="M8.67325 4.04962C9.79152 4.04962 10.6981 3.14308 10.6981 2.02481C10.6981 0.906539 9.79152 0 8.67325 0C7.55498 0 6.64844 0.906539 6.64844 2.02481C6.64844 3.14308 7.55498 4.04962 8.67325 4.04962Z" fill="black"/>
</svg>
