<svg width="28" height="28" viewBox="0 0 28 28" fill="none" xmlns="http://www.w3.org/2000/svg">
<path d="M27.5484 25.7419V27.0968C27.5484 27.3452 27.3452 27.5484 27.0968 27.5484H0.903273C0.654886 27.5484 0.45166 27.3452 0.45166 27.0968V25.7419H27.5484Z" fill="#B27946"/>
<path d="M16.8407 19.4194H22.1291V21.6775C22.1291 21.9259 22.3323 22.1291 22.5807 22.1291H27.0968C27.3452 22.1291 27.5484 21.9259 27.5484 21.6775V25.742H0.45166V21.6775C0.45166 21.9259 0.654886 22.1291 0.903273 22.1291H5.4194C5.66779 22.1291 5.87101 21.9259 5.87101 21.6775V19.4194H11.1594H16.8407Z" fill="#CF9E76"/>
<path d="M5.87101 13.5483V17.6128C5.87101 16.118 4.65618 14.9031 3.16134 14.9031C1.6665 14.9031 0.45166 16.118 0.45166 17.6128V13.5483C0.45166 13.2999 0.654886 13.0967 0.903273 13.0967H5.4194C5.66779 13.0967 5.87101 13.2999 5.87101 13.5483ZM5.87101 19.4193V21.6773C5.87101 21.9257 5.66779 22.1289 5.4194 22.1289H0.903273C0.654886 22.1289 0.45166 21.9257 0.45166 21.6773V17.6128C0.45166 19.1076 1.6665 20.3225 3.16134 20.3225C4.65618 20.3225 5.87101 19.1076 5.87101 17.6128V19.4193ZM22.1291 17.6128C22.1291 19.1076 23.3439 20.3225 24.8388 20.3225C26.3336 20.3225 27.5484 19.1076 27.5484 17.6128V21.6773C27.5484 21.9257 27.3452 22.1289 27.0968 22.1289H22.5807C22.3323 22.1289 22.1291 21.9257 22.1291 21.6773V19.4193V17.6128ZM27.5484 13.5483V17.6128C27.5484 16.118 26.3336 14.9031 24.8388 14.9031C23.3439 14.9031 22.1291 16.118 22.1291 17.6128V13.5483C22.1291 13.2999 22.3323 13.0967 22.5807 13.0967H27.0968C27.3452 13.0967 27.5484 13.2999 27.5484 13.5483Z" fill="#969FAA"/>
<path d="M5.87102 17.613C5.87102 19.1078 4.65618 20.3227 3.16134 20.3227C1.6665 20.3227 0.45166 19.1078 0.45166 17.613C0.45166 16.1182 1.6665 14.9033 3.16134 14.9033C4.65618 14.9033 5.87102 16.1182 5.87102 17.613Z" fill="#CCD1D9"/>
<path d="M3.16104 18.5162C3.65988 18.5162 4.06426 18.1118 4.06426 17.6129C4.06426 17.1141 3.65988 16.7097 3.16104 16.7097C2.6622 16.7097 2.25781 17.1141 2.25781 17.6129C2.25781 18.1118 2.6622 18.5162 3.16104 18.5162Z" fill="#E6E9ED"/>
<path d="M24.8386 14.9033C26.3334 14.9033 27.5483 16.1182 27.5483 17.613C27.5483 19.1078 26.3334 20.3227 24.8386 20.3227C23.3437 20.3227 22.1289 19.1078 22.1289 17.613C22.1289 16.1182 23.3437 14.9033 24.8386 14.9033Z" fill="#CCD1D9"/>
<path d="M24.8388 18.5162C25.3376 18.5162 25.742 18.1118 25.742 17.6129C25.742 17.1141 25.3376 16.7097 24.8388 16.7097C24.3399 16.7097 23.9355 17.1141 23.9355 17.6129C23.9355 18.1118 24.3399 18.5162 24.8388 18.5162Z" fill="#E6E9ED"/>
<path d="M2.25793 3.16138C3.256 3.16138 4.06438 3.96976 4.06438 4.96783C4.06438 5.02654 4.05987 5.08525 4.05535 5.14396C4.01261 5.59074 3.80466 6.0055 3.47221 6.30704C3.13977 6.60858 2.70676 6.7752 2.25793 6.77428C1.85486 6.77456 1.46327 6.63999 1.14552 6.39199C0.827766 6.14399 0.602109 5.79682 0.504471 5.40575C0.406833 5.01468 0.442827 4.60219 0.606722 4.23394C0.770618 3.86569 1.05299 3.56285 1.4089 3.37364C1.6618 3.23815 1.95083 3.16138 2.25793 3.16138Z" fill="#00A7DF"/>
<path d="M6.69284 4.9722C6.74703 5.1122 6.77413 5.26123 6.77413 5.41929C6.77413 6.16897 6.16897 6.77413 5.41929 6.77413C4.66961 6.77413 4.06445 6.16897 4.06445 5.41929C4.06445 5.32445 4.07349 5.23413 4.09155 5.14381C4.21349 4.55671 4.71478 4.10961 5.32897 4.06897C5.36058 4.06445 5.38768 4.06445 5.41929 4.06445C5.7309 4.06445 6.01994 4.17284 6.24574 4.34445C6.45349 4.50252 6.61155 4.71929 6.69284 4.9722ZM23.9083 5.14381C23.9264 5.23413 23.9354 5.32445 23.9354 5.41929C23.9354 6.16897 23.3303 6.77413 22.5806 6.77413C21.8309 6.77413 21.2257 6.16897 21.2257 5.41929C21.2257 5.26123 21.2528 5.10768 21.307 4.96768C21.3928 4.71929 21.5509 4.50252 21.7541 4.34445C21.9799 4.17284 22.269 4.06445 22.5806 4.06445C22.6122 4.06445 22.6393 4.06445 22.6709 4.06897C23.2851 4.10961 23.7864 4.55671 23.9083 5.14381Z" fill="#00A7DF"/>
<path d="M26.591 3.37364C26.8665 3.52039 27.0993 3.73604 27.2666 3.99956C27.4339 4.26308 27.5301 4.56546 27.5457 4.87722C27.5613 5.18898 27.4959 5.49946 27.3557 5.77838C27.2156 6.0573 27.0055 6.29514 26.7461 6.46869C26.4867 6.64225 26.1866 6.7456 25.8754 6.76866C25.5641 6.79171 25.2521 6.73369 24.9699 6.60026C24.6877 6.46682 24.4449 6.26252 24.2652 6.00729C24.0855 5.75206 23.9751 5.45461 23.9446 5.14396C23.9401 5.08525 23.9355 5.02654 23.9355 4.96783C23.9355 4.65596 24.0162 4.34938 24.1697 4.07796C24.3233 3.80653 24.5446 3.5795 24.812 3.41898C25.0794 3.25845 25.3838 3.16991 25.6955 3.16196C26.0073 3.15402 26.3158 3.22694 26.591 3.37364Z" fill="#00A7DF"/>
<path d="M24.8389 18.9677C25.5859 18.9677 26.1937 18.3599 26.1937 17.6129C26.1937 16.8659 25.5859 16.2581 24.8389 16.2581C24.0919 16.2581 23.4841 16.8659 23.4841 17.6129C23.4841 18.3599 24.0919 18.9677 24.8389 18.9677ZM24.8389 17.1613C24.9283 17.1612 25.0158 17.1876 25.0902 17.2373C25.1646 17.2869 25.2226 17.3575 25.2569 17.4401C25.2912 17.5228 25.3002 17.6137 25.2828 17.7014C25.2653 17.7892 25.2223 17.8698 25.159 17.933C25.0958 17.9963 25.0152 18.0393 24.9274 18.0567C24.8397 18.0742 24.7488 18.0652 24.6661 18.0309C24.5835 17.9966 24.5129 17.9386 24.4633 17.8642C24.4136 17.7898 24.3872 17.7023 24.3873 17.6129C24.3873 17.3636 24.5901 17.1613 24.8389 17.1613ZM3.16148 16.2581C2.41451 16.2581 1.80664 16.8659 1.80664 17.6129C1.80664 18.3599 2.41451 18.9677 3.16148 18.9677C3.90845 18.9677 4.51632 18.3599 4.51632 17.6129C4.51632 16.8659 3.90845 16.2581 3.16148 16.2581ZM3.16148 18.0645C3.0452 18.0593 2.9354 18.0095 2.85496 17.9253C2.77451 17.8412 2.72962 17.7293 2.72962 17.6129C2.72962 17.4965 2.77451 17.3846 2.85496 17.3005C2.9354 17.2163 3.0452 17.1665 3.16148 17.1613C3.27776 17.1665 3.38755 17.2163 3.468 17.3005C3.54845 17.3846 3.59334 17.4965 3.59334 17.6129C3.59334 17.7293 3.54845 17.8412 3.468 17.9253C3.38755 18.0095 3.27776 18.0593 3.16148 18.0645Z" fill="black"/>
<path d="M27.0968 12.6452H22.5806C22.0825 12.6452 21.6774 13.0503 21.6774 13.5485V18.9678H17.5235L22.0925 8.30704L21.2624 7.95117L16.5412 18.9678H11.4588L6.73761 7.95117L5.90755 8.30704L10.4765 18.9678H6.32258V13.5485C6.32258 13.0503 5.91748 12.6452 5.41935 12.6452H0.903226C0.405097 12.6452 0 13.0503 0 13.5485V27.0968C0 27.595 0.405097 28.0001 0.903226 28.0001H27.0968C27.5949 28.0001 28 27.595 28 27.0968V13.5485C28 13.0503 27.5949 12.6452 27.0968 12.6452ZM10.8635 19.871L11.3269 20.9522L12.157 20.5968L11.8458 19.871H16.1537L15.843 20.5963L16.6731 20.9518L17.1365 19.871H21.6774V21.6775C21.6774 22.1756 22.0825 22.5807 22.5806 22.5807H27.0968V25.2904H0.903226V22.5807H5.41935C5.91748 22.5807 6.32258 22.1756 6.32258 21.6775V19.871H10.8635ZM0.903226 13.5485H5.41935V15.405C5.12587 15.1031 4.77482 14.8631 4.38697 14.6992C3.99912 14.5354 3.58234 14.4509 3.16129 14.4509C2.74024 14.4509 2.32346 14.5354 1.93561 14.6992C1.54776 14.8631 1.19671 15.1031 0.903226 15.405V13.5485ZM5.41935 17.613C5.41935 18.8581 4.40639 19.871 3.16129 19.871C1.91619 19.871 0.903226 18.8581 0.903226 17.613C0.903226 16.3679 1.91619 15.3549 3.16129 15.3549C4.40639 15.3549 5.41935 16.3679 5.41935 17.613ZM3.16129 20.7743C4.04555 20.7743 4.8449 20.4085 5.41935 19.8209V21.6775H0.903226V19.8209C1.19677 20.1227 1.54785 20.3625 1.9357 20.5263C2.32355 20.69 2.74029 20.7744 3.16129 20.7743ZM0.903226 27.0968V26.1936H27.0968V27.0968H0.903226ZM27.0968 21.6775H22.5806V19.8209C22.8741 20.1228 23.2252 20.3628 23.613 20.5267C24.0009 20.6906 24.4177 20.775 24.8387 20.775C25.2598 20.775 25.6765 20.6906 26.0644 20.5267C26.4522 20.3628 26.8033 20.1228 27.0968 19.8209V21.6775ZM22.5806 17.613C22.5806 16.3679 23.5936 15.3549 24.8387 15.3549C26.0838 15.3549 27.0968 16.3679 27.0968 17.613C27.0968 18.8581 26.0838 19.871 24.8387 19.871C23.5936 19.871 22.5806 18.8581 22.5806 17.613ZM24.8387 14.4517C23.9545 14.4517 23.1551 14.8175 22.5806 15.405V13.5485H27.0968V15.405C26.8032 15.1033 26.4522 14.8634 26.0643 14.6997C25.6765 14.5359 25.2597 14.4516 24.8387 14.4517Z" fill="black"/>
<path d="M14.0003 24.3872C17.2632 24.3872 20.7745 23.6809 20.7745 22.1291C20.7745 21.4151 20.0573 20.8434 18.6428 20.4311L18.3899 21.2982C19.5989 21.6509 19.8712 22.0257 19.8712 22.1291C19.8712 22.5342 17.8738 23.484 14.0003 23.484C10.1268 23.484 8.1293 22.5342 8.1293 22.1291C8.1293 21.9778 8.56917 21.5551 9.92898 21.2123L9.70859 20.3367C8.08414 20.7458 7.22607 21.3654 7.22607 22.1291C7.22607 23.6809 10.7374 24.3872 14.0003 24.3872Z" fill="black"/>
<path d="M2.25825 5.41934C2.50767 5.41934 2.70987 5.21715 2.70987 4.96773C2.70987 4.71831 2.50767 4.51611 2.25825 4.51611C2.00883 4.51611 1.80664 4.71831 1.80664 4.96773C1.80664 5.21715 2.00883 5.41934 2.25825 5.41934Z" fill="black"/>
<path d="M25.7421 5.41934C25.9916 5.41934 26.1938 5.21715 26.1938 4.96773C26.1938 4.71831 25.9916 4.51611 25.7421 4.51611C25.4927 4.51611 25.2905 4.71831 25.2905 4.96773C25.2905 5.21715 25.4927 5.41934 25.7421 5.41934Z" fill="black"/>
<path d="M28 0.903226V0H0V0.903226H2.36374L1.07303 3.05426C0.431742 3.45303 0 4.15845 0 4.96774C0 6.21284 1.01297 7.22581 2.25806 7.22581C2.93097 7.22581 3.52935 6.92368 3.94348 6.4549C4.10948 6.6925 4.33027 6.8866 4.58717 7.02079C4.84407 7.15498 5.12952 7.2253 5.41935 7.22581C6.41561 7.22581 7.22581 6.41561 7.22581 5.41935H20.7742C20.7742 6.41561 21.5844 7.22581 22.5806 7.22581C22.8705 7.2253 23.1559 7.15498 23.4128 7.02079C23.6697 6.8866 23.8905 6.6925 24.0565 6.4549C24.4706 6.92368 25.069 7.22581 25.7419 7.22581C26.987 7.22581 28 6.21284 28 4.96774C28 4.15845 27.5683 3.45303 26.927 3.05426L25.6363 0.903226H28ZM23.7025 4.01484C23.5965 3.92922 23.4812 3.8559 23.3588 3.79626L24.8387 1.32955L25.671 2.7169C25.255 2.73021 24.8508 2.85854 24.5033 3.08766C24.1558 3.31678 23.8786 3.63771 23.7025 4.01484ZM21.9204 3.74206L20.2169 0.903226H24.0412L22.4045 3.63052C22.2388 3.64511 22.0758 3.68265 21.9204 3.74206ZM6.08006 3.74206C5.92453 3.68254 5.76141 3.64514 5.59548 3.63097L3.95884 0.903226H7.7831L6.08006 3.74206ZM2.32897 2.7169L3.16129 1.32955L4.64123 3.79626C4.51877 3.8559 4.40348 3.92922 4.29755 4.01484C4.1214 3.63771 3.84419 3.31678 3.49669 3.08766C3.14919 2.85854 2.74499 2.73021 2.32897 2.7169ZM14 1.32955L15.9121 4.51613H12.0879L14 1.32955ZM11.2903 4.08981L9.37819 0.903226H13.2025L11.2903 4.08981ZM14.7975 0.903226H18.6218L16.7097 4.08981L14.7975 0.903226ZM2.25806 6.32258C1.5111 6.32258 0.903226 5.71471 0.903226 4.96774C0.903226 4.22077 1.5111 3.6129 2.25806 3.6129C3.00503 3.6129 3.6129 4.22077 3.6129 4.96774C3.6129 5.71471 3.00503 6.32258 2.25806 6.32258ZM5.41935 6.32258C4.92123 6.32258 4.51613 5.91748 4.51613 5.41935C4.51613 4.92123 4.92123 4.51613 5.41935 4.51613C5.91748 4.51613 6.32258 4.92123 6.32258 5.41935C6.32258 5.91748 5.91748 6.32258 5.41935 6.32258ZM6.97471 4.51613C6.92633 4.43341 6.87135 4.35472 6.81032 4.28084L8.58064 1.32955L10.4928 4.51613H6.97471ZM17.5072 4.51613L19.4194 1.32955L21.1901 4.28084C21.1289 4.35477 21.074 4.43362 21.0257 4.51658H17.5072V4.51613ZM22.5806 6.32258C22.0825 6.32258 21.6774 5.91748 21.6774 5.41935C21.6774 4.92123 22.0825 4.51613 22.5806 4.51613C23.0788 4.51613 23.4839 4.92123 23.4839 5.41935C23.4839 5.91748 23.0788 6.32258 22.5806 6.32258ZM25.7419 6.32258C24.995 6.32258 24.3871 5.71471 24.3871 4.96774C24.3871 4.22077 24.995 3.6129 25.7419 3.6129C26.4889 3.6129 27.0968 4.22077 27.0968 4.96774C27.0968 5.71471 26.4889 6.32258 25.7419 6.32258ZM2.73135 7.82465L3.58852 7.53923L4.94245 11.6055L4.08529 11.891L2.73135 7.82465ZM23.0535 11.5897L24.4074 7.52342L25.2646 7.80884L23.9106 11.8752L23.0535 11.5897Z" fill="black"/>
<path d="M19.9865 6.92456L14.0003 13.6148L8.01421 6.92456L7.34131 7.52701L13.3943 14.2922L12.3091 15.5052L12.982 16.1077L14.0003 14.9696L15.0187 16.1077L15.6916 15.5052L14.6064 14.2922L20.6594 7.52701L19.9865 6.92456Z" fill="black"/>
</svg>
