<svg width="29" height="32" viewBox="0 0 29 32" fill="none" xmlns="http://www.w3.org/2000/svg">
<path fill-rule="evenodd" clip-rule="evenodd" d="M12.6527 17.6836C9.16833 17.6836 6.33398 14.9323 6.33398 11.5427V10.0974C6.33398 9.86263 6.5305 9.67188 6.7648 9.67188C7.00667 9.67188 7.20318 9.86263 7.20318 10.0974V11.5427C7.20318 14.4627 9.65206 16.8325 12.6527 16.8325C15.6609 16.8325 18.1022 14.4627 18.1022 11.5427V10.0974C18.1022 9.86263 18.2987 9.67188 18.5406 9.67188C18.7824 9.67188 18.9789 9.86263 18.9789 10.0974V11.5427C18.9789 14.9323 16.137 17.6836 12.6527 17.6836Z" fill="url(#paint0_linear_2077_591)"/>
<path fill-rule="evenodd" clip-rule="evenodd" d="M15.6453 6.87652C13.4156 8.18245 11.5941 7.83763 10.2336 7.58818C9.40972 7.43411 8.75215 7.31672 8.30622 7.61019C7.83005 7.92567 7.46725 8.76939 7.19515 10.1707C7.11957 10.5962 6.49224 10.6549 6.34863 10.2147C5.19977 6.98657 6.78701 3.68506 8.87309 1.84354C10.8911 0.060726 13.2947 -0.467517 15.2976 0.427561C15.4488 0.493591 15.547 0.640325 15.5546 0.794396C15.5621 0.955804 15.4714 1.10254 15.3278 1.18324C15.2523 1.22726 15.1011 1.32264 14.9499 1.44736C16.2651 1.5941 17.3686 2.23239 18.1849 3.32556C19.5227 5.13772 19.8401 8.04306 18.9482 10.2441C18.8651 10.4642 18.6232 10.5742 18.3889 10.4935C18.1395 10.4128 16.0988 9.64979 15.6453 6.87652ZM16.0761 19.6497C15.8871 19.6497 15.7057 19.525 15.6604 19.3342L14.9348 16.7224C14.8743 16.5023 15.0104 16.2675 15.2447 16.2088C15.479 16.1428 15.7133 16.2822 15.7813 16.5023L16.4994 19.1141C16.5598 19.3416 16.4238 19.5764 16.1895 19.635C16.1517 19.6424 16.1139 19.6497 16.0761 19.6497ZM9.22832 19.6497C9.19053 19.6497 9.15274 19.6424 9.11495 19.635C8.88064 19.5764 8.74459 19.3416 8.80506 19.1141L9.53065 16.5096C9.59112 16.2822 9.82543 16.1501 10.0597 16.2088C10.294 16.2675 10.4301 16.5023 10.3696 16.7297L9.65159 19.3342C9.59868 19.525 9.42484 19.6497 9.22832 19.6497Z" fill="url(#paint1_linear_2077_591)"/>
<path fill-rule="evenodd" clip-rule="evenodd" d="M18.8125 29.5615H5.57043V23.5748C5.57043 23.4501 5.45706 23.34 5.32101 23.34C5.19252 23.34 5.07915 23.4501 5.07915 23.5748V29.5615H0.43082C0.188956 29.5615 0 29.3708 0 29.136V26.5095C0 22.2615 3.14423 18.7986 7.0065 18.7986H9.22863C9.35712 18.7986 9.47805 18.8573 9.56119 18.9453L12.6525 22.3789L15.7514 18.9453C15.8345 18.8573 15.9555 18.7986 16.0764 18.7986H18.2985C20.6945 18.7986 22.9317 20.1852 24.2166 22.3789C23.9521 22.3422 23.68 22.3202 23.4079 22.3202C20.5736 22.3202 18.2607 24.5579 18.2607 27.3092C18.2607 28.1162 18.4648 28.8792 18.8125 29.5615Z" fill="url(#paint2_linear_2077_591)"/>
<path fill-rule="evenodd" clip-rule="evenodd" d="M23.4086 31.8066C20.8539 31.8066 18.7754 29.789 18.7754 27.3092C18.7754 24.8293 20.8539 22.8191 23.4086 22.8191C25.9633 22.8191 28.0343 24.8293 28.0343 27.3092C28.0343 29.789 25.9633 31.8066 23.4086 31.8066ZM23.6505 29.6642C24.2778 29.5542 24.754 29.0186 24.754 28.3803C24.754 27.5072 24.2324 27.2578 23.4615 27.0817C22.9249 26.957 22.547 26.869 22.547 26.2453C22.547 25.7831 22.9324 25.4089 23.4086 25.4089C23.8772 25.4089 24.2627 25.7831 24.2627 26.2453C24.2627 26.3774 24.3761 26.4801 24.5045 26.4801C24.6406 26.4801 24.754 26.3774 24.754 26.2453C24.754 25.607 24.2778 25.0715 23.6505 24.9614V24.3745C23.6505 24.2497 23.5446 24.1397 23.4086 24.1397C23.2726 24.1397 23.1592 24.2497 23.1592 24.3745V24.9614C22.5394 25.0715 22.0632 25.607 22.0632 26.2453C22.0632 27.1111 22.5847 27.3678 23.3481 27.5439C23.8923 27.6687 24.2627 27.7494 24.2627 28.3803C24.2627 28.8352 23.8848 29.2094 23.4162 29.2094H23.3935C22.9324 29.2094 22.547 28.8352 22.547 28.3803C22.547 28.2483 22.4411 28.1455 22.3051 28.1455C22.169 28.1455 22.0632 28.2483 22.0632 28.3803C22.0632 29.0186 22.5394 29.5542 23.1592 29.6642V30.2438C23.1592 30.3759 23.2726 30.4786 23.4086 30.4786C23.5446 30.4786 23.6505 30.3759 23.6505 30.2438V29.6642Z" fill="url(#paint3_linear_2077_591)"/>
<defs>
<linearGradient id="paint0_linear_2077_591" x1="17.317" y1="7.75817" x2="10.7963" y2="20.547" gradientUnits="userSpaceOnUse">
<stop stop-color="#45A3D9"/>
<stop offset="1" stop-color="#45D9D0"/>
</linearGradient>
<linearGradient id="paint1_linear_2077_591" x1="17.6787" y1="-4.69362" x2="-1.83463" y2="11.9513" gradientUnits="userSpaceOnUse">
<stop stop-color="#45A3D9"/>
<stop offset="1" stop-color="#45D9D0"/>
</linearGradient>
<linearGradient id="paint2_linear_2077_591" x1="21.0338" y1="16.2277" x2="14.1695" y2="35.4197" gradientUnits="userSpaceOnUse">
<stop stop-color="#45A3D9"/>
<stop offset="1" stop-color="#45D9D0"/>
</linearGradient>
<linearGradient id="paint3_linear_2077_591" x1="26.8174" y1="20.6723" x2="18.0481" y2="31.8983" gradientUnits="userSpaceOnUse">
<stop stop-color="#45A3D9"/>
<stop offset="1" stop-color="#45D9D0"/>
</linearGradient>
</defs>
</svg>
