<svg width="23" height="20" viewBox="0 0 23 20" fill="none" xmlns="http://www.w3.org/2000/svg">
<path d="M18.6648 16.3886H4.09714C3.34418 16.3886 2.73143 17.0013 2.73143 17.7543C2.73143 18.5072 3.34418 19.12 4.09714 19.12H18.6648C19.4177 19.12 20.0305 18.5072 20.0305 17.7543C20.0305 17.0013 19.4177 16.3886 18.6648 16.3886ZM20.941 2.73143C19.9367 2.73143 19.12 3.54814 19.12 4.55238C19.12 5.22706 19.4933 5.81064 20.0405 6.12566C18.9871 8.62036 17.3436 10.1509 15.8077 10.0125C14.0996 9.8732 12.7066 7.85375 11.9381 4.47498C12.9232 4.22549 13.6571 3.33778 13.6571 2.27619C13.6571 1.02064 12.6365 0 11.3809 0C10.1254 0 9.10472 1.02064 9.10472 2.27619C9.10472 3.33782 9.83857 4.22553 10.8237 4.47498C10.0552 7.85375 8.66219 9.8732 6.95416 10.0125C5.42458 10.1509 3.77385 8.62036 2.72138 6.12566C3.26856 5.81064 3.64186 5.22701 3.64186 4.55238C3.64186 3.54814 2.82514 2.73143 1.82091 2.73143C0.816717 2.73143 0 3.54814 0 4.55238C0 5.48655 0.710154 6.24952 1.61698 6.35328L3.37058 15.4781H19.3913L21.1449 6.35328C22.0517 6.24952 22.7619 5.48655 22.7619 4.55238C22.7619 3.54814 21.9452 2.73143 20.941 2.73143Z" fill="#D2DFF3"/>
</svg>
