<svg width="55" height="20" viewBox="0 0 55 20" fill="none" xmlns="http://www.w3.org/2000/svg">
<rect width="55" height="20" rx="9" fill="black"/>
<g filter="url(#filter0_d_2080_248)">
<path d="M18.4037 14.4217L20.224 7.83632L17.2414 9.52629C17.1679 9.56801 17.0869 9.59464 17.0029 9.60461C16.919 9.61458 16.8339 9.6077 16.7527 9.58436C16.6715 9.56103 16.5957 9.52172 16.5299 9.46873C16.464 9.41574 16.4094 9.35014 16.3693 9.27577L14.187 5.24438L12.0047 9.27526C11.9644 9.34947 11.9097 9.41492 11.8438 9.46779C11.778 9.52067 11.7023 9.5599 11.6211 9.58322C11.5399 9.60653 11.4549 9.61346 11.371 9.6036C11.2871 9.59374 11.2061 9.56729 11.1325 9.52578L8.1499 7.83581L9.97026 14.4217H18.4037Z" fill="#FFD731"/>
<path d="M20.2242 7.83374L18.4018 14.4201H16.3535C16.8243 13.6401 17.1214 12.7678 17.2247 11.8626C17.3099 11.1033 17.2565 10.3348 17.0671 9.59455C17.1287 9.58429 17.1852 9.55862 17.2416 9.52782L20.2242 7.83374Z" fill="#FFC933"/>
<path d="M19.8593 14.2122C19.8602 14.4127 19.7937 14.6078 19.6703 14.7659C19.5469 14.924 19.3739 15.036 19.1791 15.0838C17.5194 15.474 15.8505 15.6614 14.1872 15.6614C12.5239 15.6614 10.8545 15.474 9.19534 15.0838C9.00057 15.036 8.82755 14.924 8.70417 14.7659C8.58078 14.6078 8.5142 14.4127 8.51515 14.2122C8.51515 13.649 9.0321 13.2198 9.58242 13.3384C11.1143 13.669 12.6533 13.8287 14.1872 13.8287C15.7211 13.8287 17.2602 13.6695 18.792 13.3384C19.3424 13.2198 19.8593 13.649 19.8593 14.2122Z" fill="#FFD731"/>
<path d="M19.8595 14.2148C19.8595 14.6255 19.5772 14.99 19.1768 15.0824C18.6429 15.2056 18.109 15.3134 17.5751 15.3955C17.842 15.2107 18.0063 14.9027 18.0063 14.569C18.0063 14.1019 17.688 13.7169 17.2671 13.609C17.7753 13.5372 18.2835 13.4499 18.7918 13.337C19.3411 13.2189 19.8595 13.6501 19.8595 14.2148Z" fill="#FFC933"/>
<path d="M8.14992 8.98563C8.785 8.98563 9.29984 8.47079 9.29984 7.83571C9.29984 7.20063 8.785 6.68579 8.14992 6.68579C7.51484 6.68579 7 7.20063 7 7.83571C7 8.47079 7.51484 8.98563 8.14992 8.98563Z" fill="#FFD731"/>
<path d="M20.2241 8.98563C20.8592 8.98563 21.3741 8.47079 21.3741 7.83571C21.3741 7.20063 20.8592 6.68579 20.2241 6.68579C19.5891 6.68579 19.0742 7.20063 19.0742 7.83571C19.0742 8.47079 19.5891 8.98563 20.2241 8.98563Z" fill="#FFC933"/>
<path d="M14.187 6.29984C14.8221 6.29984 15.3369 5.785 15.3369 5.14992C15.3369 4.51484 14.8221 4 14.187 4C13.5519 4 13.0371 4.51484 13.0371 5.14992C13.0371 5.785 13.5519 6.29984 14.187 6.29984Z" fill="#FFD731"/>
<path d="M14.187 12.552C14.7836 12.552 15.2671 11.9678 15.2671 11.2471C15.2671 10.5264 14.7836 9.94214 14.187 9.94214C13.5905 9.94214 13.1069 10.5264 13.1069 11.2471C13.1069 11.9678 13.5905 12.552 14.187 12.552Z" fill="#E96565"/>
<path d="M15.2653 11.2475C15.2653 11.9662 14.7827 12.5515 14.1872 12.5515C14.064 12.5515 13.9511 12.5258 13.8433 12.4847C14.2693 12.3102 14.5774 11.8225 14.5774 11.2475C14.5774 10.6726 14.2693 10.1849 13.8433 10.0103C13.9511 9.96927 14.064 9.9436 14.1872 9.9436C14.7827 9.9436 15.2653 10.5288 15.2653 11.2475Z" fill="#E05353"/>
<path d="M10.2883 11.1889L9.88584 9.73357C9.87843 9.70589 9.86557 9.67996 9.84803 9.6573C9.83048 9.63464 9.80859 9.61571 9.78364 9.60161C9.75869 9.58751 9.73118 9.57852 9.70271 9.57518C9.67425 9.57183 9.6454 9.5742 9.61787 9.58213C9.59028 9.58973 9.56447 9.60269 9.5419 9.62028C9.51933 9.63786 9.50044 9.65973 9.48633 9.68462C9.47222 9.7095 9.46315 9.73693 9.45965 9.76533C9.45614 9.79372 9.45827 9.82253 9.46591 9.85011L9.86838 11.3055C9.88396 11.3611 9.92095 11.4084 9.97127 11.4369C10.0216 11.4653 10.0811 11.4727 10.1369 11.4574C10.1925 11.4419 10.2397 11.4048 10.2681 11.3545C10.2965 11.3042 10.3038 11.2446 10.2883 11.1889ZM10.5393 12.096C10.5319 12.0683 10.5191 12.0423 10.5015 12.0196C10.4839 11.9969 10.462 11.9779 10.437 11.9637C10.412 11.9496 10.3844 11.9405 10.3559 11.9372C10.3274 11.9338 10.2985 11.9362 10.2709 11.9441C10.2433 11.9517 10.2175 11.9646 10.1949 11.9822C10.1723 11.9998 10.1534 12.0217 10.1393 12.0466C10.1252 12.0715 10.1161 12.0989 10.1126 12.1273C10.1091 12.1557 10.1113 12.1845 10.1189 12.2121L10.1564 12.3481C10.175 12.4 10.2125 12.443 10.2615 12.4684C10.3105 12.4938 10.3672 12.4998 10.4204 12.4851C10.4736 12.4704 10.5193 12.4362 10.5483 12.3893C10.5773 12.3424 10.5875 12.2862 10.5768 12.2321L10.5393 12.096ZM13.1374 9.17812C13.1626 9.19188 13.1903 9.20051 13.2188 9.20352C13.2474 9.20653 13.2762 9.20385 13.3037 9.19564C13.3312 9.18743 13.3568 9.17385 13.379 9.15569C13.4012 9.13752 13.4196 9.11514 13.4331 9.08982L13.7807 8.44813C13.8082 8.39721 13.8143 8.33745 13.7978 8.282C13.7812 8.22654 13.7433 8.17994 13.6924 8.15244C13.6415 8.12493 13.5817 8.11879 13.5262 8.13534C13.4708 8.1519 13.4242 8.18981 13.3967 8.24073L13.0497 8.88243C13.0222 8.93331 13.0161 8.99298 13.0325 9.04839C13.049 9.1038 13.0867 9.15044 13.1374 9.17812Z" fill="#FFE576"/>
</g>
<path d="M31.846 7.392C32.6727 7.392 33.3073 7.53867 33.75 7.832C34.1927 8.12 34.414 8.59467 34.414 9.256C34.414 9.92267 34.19 10.4053 33.742 10.704C33.294 10.9973 32.654 11.144 31.822 11.144H31.43V13H30.182V7.536C30.454 7.48267 30.742 7.44533 31.046 7.424C31.35 7.40267 31.6167 7.392 31.846 7.392ZM31.926 8.456C31.8353 8.456 31.7447 8.45867 31.654 8.464C31.5687 8.46933 31.494 8.47467 31.43 8.48V10.08H31.822C32.254 10.08 32.5793 10.0213 32.798 9.904C33.0167 9.78667 33.126 9.568 33.126 9.248C33.126 9.09333 33.0967 8.96533 33.038 8.864C32.9847 8.76267 32.9047 8.68267 32.798 8.624C32.6967 8.56 32.5713 8.51733 32.422 8.496C32.2727 8.46933 32.1073 8.456 31.926 8.456ZM36.9544 7.392C37.7864 7.392 38.4238 7.54133 38.8664 7.84C39.3091 8.13333 39.5304 8.592 39.5304 9.216C39.5304 9.60533 39.4398 9.92267 39.2584 10.168C39.0824 10.408 38.8264 10.5973 38.4904 10.736C38.6024 10.8747 38.7198 11.0347 38.8424 11.216C38.9651 11.392 39.0851 11.5787 39.2024 11.776C39.3251 11.968 39.4424 12.1707 39.5544 12.384C39.6664 12.592 39.7704 12.7973 39.8664 13H38.4664C38.3651 12.8187 38.2611 12.6347 38.1544 12.448C38.0531 12.2613 37.9464 12.08 37.8344 11.904C37.7278 11.728 37.6211 11.5627 37.5144 11.408C37.4078 11.248 37.3011 11.104 37.1944 10.976H36.5784V13H35.3304V7.536C35.6024 7.48267 35.8824 7.44533 36.1704 7.424C36.4638 7.40267 36.7251 7.392 36.9544 7.392ZM37.0264 8.456C36.9358 8.456 36.8531 8.45867 36.7784 8.464C36.7091 8.46933 36.6424 8.47467 36.5784 8.48V9.984H36.9304C37.3998 9.984 37.7358 9.92533 37.9384 9.808C38.1411 9.69067 38.2424 9.49067 38.2424 9.208C38.2424 8.936 38.1384 8.744 37.9304 8.632C37.7278 8.51467 37.4264 8.456 37.0264 8.456ZM41.5737 10.224C41.5737 10.496 41.6057 10.7413 41.6697 10.96C41.7391 11.1787 41.8351 11.368 41.9577 11.528C42.0857 11.6827 42.2404 11.8027 42.4217 11.888C42.6031 11.9733 42.8111 12.016 43.0457 12.016C43.2751 12.016 43.4804 11.9733 43.6617 11.888C43.8484 11.8027 44.0031 11.6827 44.1257 11.528C44.2537 11.368 44.3497 11.1787 44.4137 10.96C44.4831 10.7413 44.5177 10.496 44.5177 10.224C44.5177 9.952 44.4831 9.70667 44.4137 9.488C44.3497 9.264 44.2537 9.07467 44.1257 8.92C44.0031 8.76 43.8484 8.63733 43.6617 8.552C43.4804 8.46667 43.2751 8.424 43.0457 8.424C42.8111 8.424 42.6031 8.46933 42.4217 8.56C42.2404 8.64533 42.0857 8.768 41.9577 8.928C41.8351 9.08267 41.7391 9.272 41.6697 9.496C41.6057 9.71467 41.5737 9.95733 41.5737 10.224ZM45.8057 10.224C45.8057 10.6987 45.7337 11.1173 45.5897 11.48C45.4511 11.8373 45.2591 12.1387 45.0137 12.384C44.7684 12.624 44.4751 12.8053 44.1337 12.928C43.7977 13.0507 43.4351 13.112 43.0457 13.112C42.6671 13.112 42.3097 13.0507 41.9737 12.928C41.6377 12.8053 41.3444 12.624 41.0937 12.384C40.8431 12.1387 40.6457 11.8373 40.5017 11.48C40.3577 11.1173 40.2857 10.6987 40.2857 10.224C40.2857 9.74933 40.3604 9.33333 40.5097 8.976C40.6591 8.61333 40.8591 8.30933 41.1097 8.064C41.3657 7.81867 41.6591 7.63467 41.9897 7.512C42.3257 7.38933 42.6777 7.328 43.0457 7.328C43.4244 7.328 43.7817 7.38933 44.1177 7.512C44.4537 7.63467 44.7471 7.81867 44.9977 8.064C45.2484 8.30933 45.4457 8.61333 45.5897 8.976C45.7337 9.33333 45.8057 9.74933 45.8057 10.224Z" fill="white"/>
<defs>
<filter id="filter0_d_2080_248" x="3" y="0" width="22.374" height="19.6614" filterUnits="userSpaceOnUse" color-interpolation-filters="sRGB">
<feFlood flood-opacity="0" result="BackgroundImageFix"/>
<feColorMatrix in="SourceAlpha" type="matrix" values="0 0 0 0 0 0 0 0 0 0 0 0 0 0 0 0 0 0 127 0" result="hardAlpha"/>
<feOffset/>
<feGaussianBlur stdDeviation="2"/>
<feComposite in2="hardAlpha" operator="out"/>
<feColorMatrix type="matrix" values="0 0 0 0 0 0 0 0 0 0 0 0 0 0 0 0 0 0 0.25 0"/>
<feBlend mode="normal" in2="BackgroundImageFix" result="effect1_dropShadow_2080_248"/>
<feBlend mode="normal" in="SourceGraphic" in2="effect1_dropShadow_2080_248" result="shape"/>
</filter>
</defs>
</svg>
