<svg width="375" height="812" viewBox="0 0 375 812" fill="none" xmlns="http://www.w3.org/2000/svg">
<g clip-path="url(#clip0_8037_165)">
<rect width="375" height="812" fill="#F1FEED"/>
<g filter="url(#filter0_f_8037_165)">
<path d="M312.757 57.3438L378.289 62.0656C398.479 63.5204 414.286 44.9723 409.647 25.2686L398.188 -23.408C395.339 -35.5083 385.323 -44.5982 373.004 -46.2631L311.03 -54.6387C308.997 -54.9135 306.941 -54.979 304.894 -54.8341L-15.4699 -32.1602C-32.2314 -30.9739 -44.7501 -16.2533 -43.2288 0.481128L-40.8677 26.4523C-39.5107 41.3784 -27.346 53.0131 -12.3743 53.7042L52.5941 56.7033C56.8171 56.8983 61.0337 56.1984 64.9674 54.6497L174.784 11.4147C181.982 8.58101 189.996 8.637 197.153 11.571L303.534 55.1796C306.474 56.3849 309.587 57.1154 312.757 57.3438Z" fill="#F1FEED"/>
</g>
<g filter="url(#filter1_dd_8037_165)">
<path d="M4.1151 790.691C113.151 665.138 161.611 652.583 302.954 736.285C416.029 803.246 433.528 814.406 428.144 811.616H-8L4.1151 790.691Z" fill="#8AC85A"/>
</g>
<g filter="url(#filter2_i_8037_165)">
<path d="M32.7355 488V463.052H49.4395V467.768H38.3515V472.988H48.2155V477.704H38.3515V488H32.7355ZM51.7958 478.676C51.7958 476.996 52.0478 475.532 52.5518 474.284C53.0798 473.012 53.7638 471.956 54.6038 471.116C55.4438 470.276 56.4038 469.64 57.4838 469.208C58.5878 468.776 59.7158 468.56 60.8678 468.56C63.5558 468.56 65.6798 469.388 67.2398 471.044C68.7998 472.676 69.5798 475.088 69.5798 478.28C69.5798 478.592 69.5678 478.94 69.5438 479.324C69.5198 479.684 69.4958 480.008 69.4718 480.296H57.3038C57.4238 481.4 57.9398 482.276 58.8518 482.924C59.7638 483.572 60.9878 483.896 62.5238 483.896C63.5078 483.896 64.4678 483.812 65.4038 483.644C66.3638 483.452 67.1438 483.224 67.7438 482.96L68.4638 487.316C68.1758 487.46 67.7918 487.604 67.3118 487.748C66.8318 487.892 66.2918 488.012 65.6918 488.108C65.1158 488.228 64.4918 488.324 63.8198 488.396C63.1478 488.468 62.4758 488.504 61.8038 488.504C60.0998 488.504 58.6118 488.252 57.3398 487.748C56.0918 487.244 55.0478 486.56 54.2078 485.696C53.3918 484.808 52.7798 483.764 52.3718 482.564C51.9878 481.364 51.7958 480.068 51.7958 478.676ZM64.3958 476.624C64.3718 476.168 64.2878 475.724 64.1438 475.292C64.0238 474.86 63.8198 474.476 63.5318 474.14C63.2678 473.804 62.9198 473.528 62.4878 473.312C62.0798 473.096 61.5638 472.988 60.9398 472.988C60.3398 472.988 59.8238 473.096 59.3918 473.312C58.9598 473.504 58.5998 473.768 58.3118 474.104C58.0238 474.44 57.7958 474.836 57.6278 475.292C57.4838 475.724 57.3758 476.168 57.3038 476.624H64.3958ZM79.1552 484.148C80.1392 484.148 80.8352 484.052 81.2432 483.86C81.6512 483.668 81.8552 483.296 81.8552 482.744C81.8552 482.312 81.5912 481.94 81.0632 481.628C80.5352 481.292 79.7312 480.92 78.6512 480.512C77.8112 480.2 77.0432 479.876 76.3472 479.54C75.6752 479.204 75.0992 478.808 74.6192 478.352C74.1392 477.872 73.7672 477.308 73.5032 476.66C73.2392 476.012 73.1072 475.232 73.1072 474.32C73.1072 472.544 73.7672 471.14 75.0872 470.108C76.4072 469.076 78.2192 468.56 80.5232 468.56C81.6752 468.56 82.7792 468.668 83.8352 468.884C84.8912 469.076 85.7312 469.292 86.3552 469.532L85.4192 473.708C84.7952 473.492 84.1112 473.3 83.3672 473.132C82.6472 472.964 81.8312 472.88 80.9192 472.88C79.2392 472.88 78.3992 473.348 78.3992 474.284C78.3992 474.5 78.4352 474.692 78.5072 474.86C78.5792 475.028 78.7232 475.196 78.9392 475.364C79.1552 475.508 79.4432 475.676 79.8032 475.868C80.1872 476.036 80.6672 476.228 81.2432 476.444C82.4192 476.876 83.3912 477.308 84.1592 477.74C84.9272 478.148 85.5272 478.604 85.9592 479.108C86.4152 479.588 86.7272 480.128 86.8952 480.728C87.0872 481.328 87.1832 482.024 87.1832 482.816C87.1832 484.688 86.4752 486.104 85.0592 487.064C83.6672 488.024 81.6872 488.504 79.1192 488.504C77.4392 488.504 76.0352 488.36 74.9072 488.072C73.8032 487.784 73.0352 487.544 72.6032 487.352L73.5032 482.996C74.4152 483.356 75.3512 483.644 76.3112 483.86C77.2712 484.052 78.2192 484.148 79.1552 484.148ZM91.0119 464.348L96.3759 463.484V469.064H102.82V473.528H96.3759V480.188C96.3759 481.316 96.5679 482.216 96.9519 482.888C97.3599 483.56 98.1639 483.896 99.3639 483.896C99.9399 483.896 100.528 483.848 101.128 483.752C101.752 483.632 102.316 483.476 102.82 483.284L103.576 487.46C102.928 487.724 102.208 487.952 101.416 488.144C100.624 488.336 99.6519 488.432 98.4999 488.432C97.0359 488.432 95.8239 488.24 94.8639 487.856C93.9039 487.448 93.1359 486.896 92.5599 486.2C91.9839 485.48 91.5759 484.616 91.3359 483.608C91.1199 482.6 91.0119 481.484 91.0119 480.26V464.348ZM112.552 488H107.188V469.064H112.552V488ZM113.056 463.592C113.056 464.576 112.732 465.356 112.084 465.932C111.46 466.484 110.716 466.76 109.852 466.76C108.988 466.76 108.232 466.484 107.584 465.932C106.96 465.356 106.648 464.576 106.648 463.592C106.648 462.608 106.96 461.84 107.584 461.288C108.232 460.712 108.988 460.424 109.852 460.424C110.716 460.424 111.46 460.712 112.084 461.288C112.732 461.84 113.056 462.608 113.056 463.592ZM122.18 488C120.956 485.6 119.708 482.792 118.436 479.576C117.188 476.36 116 472.856 114.872 469.064H120.56C120.8 470 121.076 471.02 121.388 472.124C121.724 473.204 122.06 474.308 122.396 475.436C122.756 476.54 123.104 477.62 123.44 478.676C123.8 479.732 124.148 480.692 124.484 481.556C124.796 480.692 125.132 479.732 125.492 478.676C125.852 477.62 126.2 476.54 126.536 475.436C126.896 474.308 127.232 473.204 127.544 472.124C127.88 471.02 128.168 470 128.408 469.064H133.952C132.824 472.856 131.624 476.36 130.352 479.576C129.104 482.792 127.868 485.6 126.644 488H122.18ZM143.709 484.256C144.237 484.256 144.741 484.244 145.221 484.22C145.701 484.196 146.085 484.16 146.373 484.112V480.044C146.157 479.996 145.833 479.948 145.401 479.9C144.969 479.852 144.573 479.828 144.213 479.828C143.709 479.828 143.229 479.864 142.773 479.936C142.341 479.984 141.957 480.092 141.621 480.26C141.285 480.428 141.021 480.656 140.829 480.944C140.637 481.232 140.541 481.592 140.541 482.024C140.541 482.864 140.817 483.452 141.369 483.788C141.945 484.1 142.725 484.256 143.709 484.256ZM143.277 468.56C144.861 468.56 146.181 468.74 147.237 469.1C148.293 469.46 149.133 469.976 149.757 470.648C150.405 471.32 150.861 472.136 151.125 473.096C151.389 474.056 151.521 475.124 151.521 476.3V487.46C150.753 487.628 149.685 487.82 148.317 488.036C146.949 488.276 145.293 488.396 143.349 488.396C142.125 488.396 141.009 488.288 140.001 488.072C139.017 487.856 138.165 487.508 137.445 487.028C136.725 486.524 136.173 485.876 135.789 485.084C135.405 484.292 135.213 483.32 135.213 482.168C135.213 481.064 135.429 480.128 135.861 479.36C136.317 478.592 136.917 477.98 137.661 477.524C138.405 477.068 139.257 476.744 140.217 476.552C141.177 476.336 142.173 476.228 143.205 476.228C143.901 476.228 144.513 476.264 145.041 476.336C145.593 476.384 146.037 476.456 146.373 476.552V476.048C146.373 475.136 146.097 474.404 145.545 473.852C144.993 473.3 144.033 473.024 142.665 473.024C141.753 473.024 140.853 473.096 139.965 473.24C139.077 473.36 138.309 473.54 137.661 473.78L136.977 469.46C137.289 469.364 137.673 469.268 138.129 469.172C138.609 469.052 139.125 468.956 139.677 468.884C140.229 468.788 140.805 468.716 141.405 468.668C142.029 468.596 142.653 468.56 143.277 468.56ZM163.932 488.36C162.372 488.336 161.1 488.168 160.116 487.856C159.156 487.544 158.388 487.112 157.812 486.56C157.26 485.984 156.876 485.3 156.66 484.508C156.468 483.692 156.372 482.78 156.372 481.772V460.928L161.736 460.064V480.692C161.736 481.172 161.772 481.604 161.844 481.988C161.916 482.372 162.048 482.696 162.24 482.96C162.456 483.224 162.756 483.44 163.14 483.608C163.524 483.776 164.04 483.884 164.688 483.932L163.932 488.36ZM175.43 462.764C179.174 462.764 182.042 463.436 184.034 464.78C186.026 466.1 187.022 468.164 187.022 470.972C187.022 472.724 186.614 474.152 185.798 475.256C185.006 476.336 183.854 477.188 182.342 477.812C182.846 478.436 183.374 479.156 183.926 479.972C184.478 480.764 185.018 481.604 185.546 482.492C186.098 483.356 186.626 484.268 187.13 485.228C187.634 486.164 188.102 487.088 188.534 488H182.234C181.778 487.184 181.31 486.356 180.83 485.516C180.374 484.676 179.894 483.86 179.39 483.068C178.91 482.276 178.43 481.532 177.95 480.836C177.47 480.116 176.99 479.468 176.51 478.892H173.738V488H168.122V463.412C169.346 463.172 170.606 463.004 171.902 462.908C173.222 462.812 174.398 462.764 175.43 462.764ZM175.754 467.552C175.346 467.552 174.974 467.564 174.638 467.588C174.326 467.612 174.026 467.636 173.738 467.66V474.428H175.322C177.434 474.428 178.946 474.164 179.858 473.636C180.77 473.108 181.226 472.208 181.226 470.936C181.226 469.712 180.758 468.848 179.822 468.344C178.91 467.816 177.554 467.552 175.754 467.552ZM189.96 478.676C189.96 476.996 190.212 475.532 190.716 474.284C191.244 473.012 191.928 471.956 192.768 471.116C193.608 470.276 194.568 469.64 195.648 469.208C196.752 468.776 197.88 468.56 199.032 468.56C201.72 468.56 203.844 469.388 205.404 471.044C206.964 472.676 207.744 475.088 207.744 478.28C207.744 478.592 207.732 478.94 207.708 479.324C207.684 479.684 207.66 480.008 207.636 480.296H195.468C195.588 481.4 196.104 482.276 197.016 482.924C197.928 483.572 199.152 483.896 200.688 483.896C201.672 483.896 202.632 483.812 203.568 483.644C204.528 483.452 205.308 483.224 205.908 482.96L206.628 487.316C206.34 487.46 205.956 487.604 205.476 487.748C204.996 487.892 204.456 488.012 203.856 488.108C203.28 488.228 202.656 488.324 201.984 488.396C201.312 488.468 200.64 488.504 199.968 488.504C198.264 488.504 196.776 488.252 195.504 487.748C194.256 487.244 193.212 486.56 192.372 485.696C191.556 484.808 190.944 483.764 190.536 482.564C190.152 481.364 189.96 480.068 189.96 478.676ZM202.56 476.624C202.536 476.168 202.452 475.724 202.308 475.292C202.188 474.86 201.984 474.476 201.696 474.14C201.432 473.804 201.084 473.528 200.652 473.312C200.244 473.096 199.728 472.988 199.104 472.988C198.504 472.988 197.988 473.096 197.556 473.312C197.124 473.504 196.764 473.768 196.476 474.104C196.188 474.44 195.96 474.836 195.792 475.292C195.648 475.724 195.54 476.168 195.468 476.624H202.56ZM217.319 484.148C218.303 484.148 218.999 484.052 219.407 483.86C219.815 483.668 220.019 483.296 220.019 482.744C220.019 482.312 219.755 481.94 219.227 481.628C218.699 481.292 217.895 480.92 216.815 480.512C215.975 480.2 215.207 479.876 214.511 479.54C213.839 479.204 213.263 478.808 212.783 478.352C212.303 477.872 211.931 477.308 211.667 476.66C211.403 476.012 211.271 475.232 211.271 474.32C211.271 472.544 211.931 471.14 213.251 470.108C214.571 469.076 216.383 468.56 218.687 468.56C219.839 468.56 220.943 468.668 221.999 468.884C223.055 469.076 223.895 469.292 224.519 469.532L223.583 473.708C222.959 473.492 222.275 473.3 221.531 473.132C220.811 472.964 219.995 472.88 219.083 472.88C217.403 472.88 216.563 473.348 216.563 474.284C216.563 474.5 216.599 474.692 216.671 474.86C216.743 475.028 216.887 475.196 217.103 475.364C217.319 475.508 217.607 475.676 217.967 475.868C218.351 476.036 218.831 476.228 219.407 476.444C220.583 476.876 221.555 477.308 222.323 477.74C223.091 478.148 223.691 478.604 224.123 479.108C224.579 479.588 224.891 480.128 225.059 480.728C225.251 481.328 225.347 482.024 225.347 482.816C225.347 484.688 224.639 486.104 223.223 487.064C221.831 488.024 219.851 488.504 217.283 488.504C215.603 488.504 214.199 488.36 213.071 488.072C211.967 487.784 211.199 487.544 210.767 487.352L211.667 482.996C212.579 483.356 213.515 483.644 214.475 483.86C215.435 484.052 216.383 484.148 217.319 484.148ZM247.068 478.496C247.068 479.984 246.852 481.352 246.42 482.6C245.988 483.824 245.364 484.88 244.548 485.768C243.732 486.632 242.748 487.304 241.596 487.784C240.468 488.264 239.196 488.504 237.78 488.504C236.388 488.504 235.116 488.264 233.964 487.784C232.836 487.304 231.864 486.632 231.048 485.768C230.232 484.88 229.596 483.824 229.14 482.6C228.684 481.352 228.456 479.984 228.456 478.496C228.456 477.008 228.684 475.652 229.14 474.428C229.62 473.204 230.268 472.16 231.084 471.296C231.924 470.432 232.908 469.76 234.036 469.28C235.188 468.8 236.436 468.56 237.78 468.56C239.148 468.56 240.396 468.8 241.524 469.28C242.676 469.76 243.66 470.432 244.476 471.296C245.292 472.16 245.928 473.204 246.384 474.428C246.84 475.652 247.068 477.008 247.068 478.496ZM241.596 478.496C241.596 476.84 241.26 475.544 240.588 474.608C239.94 473.648 239.004 473.168 237.78 473.168C236.556 473.168 235.608 473.648 234.936 474.608C234.264 475.544 233.928 476.84 233.928 478.496C233.928 480.152 234.264 481.472 234.936 482.456C235.608 483.416 236.556 483.896 237.78 483.896C239.004 483.896 239.94 483.416 240.588 482.456C241.26 481.472 241.596 480.152 241.596 478.496ZM267.387 487.352C266.475 487.616 265.299 487.856 263.859 488.072C262.419 488.312 260.907 488.432 259.323 488.432C257.715 488.432 256.371 488.216 255.291 487.784C254.235 487.352 253.395 486.752 252.771 485.984C252.147 485.192 251.703 484.256 251.439 483.176C251.175 482.096 251.043 480.908 251.043 479.612V469.064H256.407V478.964C256.407 480.692 256.635 481.94 257.091 482.708C257.547 483.476 258.399 483.86 259.647 483.86C260.031 483.86 260.439 483.848 260.871 483.824C261.303 483.776 261.687 483.728 262.023 483.68V469.064H267.387V487.352ZM283.834 473.816C283.354 473.696 282.79 473.576 282.142 473.456C281.494 473.312 280.798 473.24 280.054 473.24C279.718 473.24 279.31 473.276 278.83 473.348C278.374 473.396 278.026 473.456 277.786 473.528V488H272.422V470.072C273.382 469.736 274.51 469.424 275.806 469.136C277.126 468.824 278.59 468.668 280.198 468.668C280.486 468.668 280.834 468.692 281.242 468.74C281.65 468.764 282.058 468.812 282.466 468.884C282.874 468.932 283.282 469.004 283.69 469.1C284.098 469.172 284.446 469.268 284.734 469.388L283.834 473.816ZM286.358 478.532C286.358 477.164 286.574 475.88 287.006 474.68C287.462 473.456 288.11 472.4 288.95 471.512C289.79 470.6 290.81 469.88 292.01 469.352C293.21 468.824 294.578 468.56 296.114 468.56C297.122 468.56 298.046 468.656 298.886 468.848C299.726 469.016 300.542 469.268 301.334 469.604L300.218 473.888C299.714 473.696 299.162 473.528 298.562 473.384C297.962 473.24 297.29 473.168 296.546 473.168C294.962 473.168 293.774 473.66 292.982 474.644C292.214 475.628 291.83 476.924 291.83 478.532C291.83 480.236 292.19 481.556 292.91 482.492C293.654 483.428 294.938 483.896 296.762 483.896C297.41 483.896 298.106 483.836 298.85 483.716C299.594 483.596 300.278 483.404 300.902 483.14L301.658 487.532C301.034 487.796 300.254 488.024 299.318 488.216C298.382 488.408 297.35 488.504 296.222 488.504C294.494 488.504 293.006 488.252 291.758 487.748C290.51 487.22 289.478 486.512 288.662 485.624C287.87 484.736 287.282 483.692 286.898 482.492C286.538 481.268 286.358 479.948 286.358 478.532ZM303.444 478.676C303.444 476.996 303.696 475.532 304.2 474.284C304.728 473.012 305.412 471.956 306.252 471.116C307.092 470.276 308.052 469.64 309.132 469.208C310.236 468.776 311.364 468.56 312.516 468.56C315.204 468.56 317.328 469.388 318.888 471.044C320.448 472.676 321.228 475.088 321.228 478.28C321.228 478.592 321.216 478.94 321.192 479.324C321.168 479.684 321.144 480.008 321.12 480.296H308.952C309.072 481.4 309.588 482.276 310.5 482.924C311.412 483.572 312.636 483.896 314.172 483.896C315.156 483.896 316.116 483.812 317.052 483.644C318.012 483.452 318.792 483.224 319.392 482.96L320.112 487.316C319.824 487.46 319.44 487.604 318.96 487.748C318.48 487.892 317.94 488.012 317.34 488.108C316.764 488.228 316.14 488.324 315.468 488.396C314.796 488.468 314.124 488.504 313.452 488.504C311.748 488.504 310.26 488.252 308.988 487.748C307.74 487.244 306.696 486.56 305.856 485.696C305.04 484.808 304.428 483.764 304.02 482.564C303.636 481.364 303.444 480.068 303.444 478.676ZM316.044 476.624C316.02 476.168 315.936 475.724 315.792 475.292C315.672 474.86 315.468 474.476 315.18 474.14C314.916 473.804 314.568 473.528 314.136 473.312C313.728 473.096 313.212 472.988 312.588 472.988C311.988 472.988 311.472 473.096 311.04 473.312C310.608 473.504 310.248 473.768 309.96 474.104C309.672 474.44 309.444 474.836 309.276 475.292C309.132 475.724 309.024 476.168 308.952 476.624H316.044ZM107.676 516.508C107.676 517.732 107.82 518.836 108.108 519.82C108.42 520.804 108.852 521.656 109.404 522.376C109.98 523.072 110.676 523.612 111.492 523.996C112.308 524.38 113.244 524.572 114.3 524.572C115.332 524.572 116.256 524.38 117.072 523.996C117.912 523.612 118.608 523.072 119.16 522.376C119.736 521.656 120.168 520.804 120.456 519.82C120.768 518.836 120.924 517.732 120.924 516.508C120.924 515.284 120.768 514.18 120.456 513.196C120.168 512.188 119.736 511.336 119.16 510.64C118.608 509.92 117.912 509.368 117.072 508.984C116.256 508.6 115.332 508.408 114.3 508.408C113.244 508.408 112.308 508.612 111.492 509.02C110.676 509.404 109.98 509.956 109.404 510.676C108.852 511.372 108.42 512.224 108.108 513.232C107.82 514.216 107.676 515.308 107.676 516.508ZM126.72 516.508C126.72 518.644 126.396 520.528 125.748 522.16C125.124 523.768 124.26 525.124 123.156 526.228C122.052 527.308 120.732 528.124 119.196 528.676C117.684 529.228 116.052 529.504 114.3 529.504C112.596 529.504 110.988 529.228 109.476 528.676C107.964 528.124 106.644 527.308 105.516 526.228C104.388 525.124 103.5 523.768 102.852 522.16C102.204 520.528 101.88 518.644 101.88 516.508C101.88 514.372 102.216 512.5 102.888 510.892C103.56 509.26 104.46 507.892 105.588 506.788C106.74 505.684 108.06 504.856 109.548 504.304C111.06 503.752 112.644 503.476 114.3 503.476C116.004 503.476 117.612 503.752 119.124 504.304C120.636 504.856 121.956 505.684 123.084 506.788C124.212 507.892 125.1 509.26 125.748 510.892C126.396 512.5 126.72 514.372 126.72 516.508ZM142.453 514.816C141.973 514.696 141.409 514.576 140.761 514.456C140.113 514.312 139.417 514.24 138.673 514.24C138.337 514.24 137.929 514.276 137.449 514.348C136.993 514.396 136.645 514.456 136.405 514.528V529H131.041V511.072C132.001 510.736 133.129 510.424 134.425 510.136C135.745 509.824 137.209 509.668 138.817 509.668C139.105 509.668 139.453 509.692 139.861 509.74C140.269 509.764 140.677 509.812 141.085 509.884C141.493 509.932 141.901 510.004 142.309 510.1C142.717 510.172 143.065 510.268 143.353 510.388L142.453 514.816ZM150.449 518.92C150.449 521.92 151.661 523.42 154.085 523.42C154.637 523.42 155.153 523.348 155.633 523.204C156.113 523.06 156.521 522.892 156.857 522.7V514.132C156.593 514.084 156.281 514.048 155.921 514.024C155.561 513.976 155.141 513.952 154.661 513.952C153.245 513.952 152.189 514.42 151.493 515.356C150.797 516.292 150.449 517.48 150.449 518.92ZM162.221 526.624C162.221 529.72 161.429 532.012 159.845 533.5C158.285 535.012 155.861 535.768 152.573 535.768C151.421 535.768 150.269 535.66 149.117 535.444C147.965 535.252 146.897 534.988 145.913 534.652L146.849 530.152C147.689 530.488 148.565 530.752 149.477 530.944C150.413 531.136 151.469 531.232 152.645 531.232C154.181 531.232 155.261 530.896 155.885 530.224C156.533 529.552 156.857 528.688 156.857 527.632V526.948C156.281 527.212 155.681 527.416 155.057 527.56C154.457 527.68 153.797 527.74 153.077 527.74C150.461 527.74 148.457 526.972 147.065 525.436C145.673 523.876 144.977 521.704 144.977 518.92C144.977 517.528 145.193 516.268 145.625 515.14C146.057 513.988 146.681 513.004 147.497 512.188C148.337 511.372 149.357 510.748 150.557 510.316C151.757 509.86 153.113 509.632 154.625 509.632C155.273 509.632 155.933 509.668 156.605 509.74C157.301 509.788 157.985 509.86 158.657 509.956C159.329 510.052 159.965 510.172 160.565 510.316C161.189 510.436 161.741 510.568 162.221 510.712V526.624ZM174.488 525.256C175.016 525.256 175.52 525.244 176 525.22C176.48 525.196 176.864 525.16 177.152 525.112V521.044C176.936 520.996 176.612 520.948 176.18 520.9C175.748 520.852 175.352 520.828 174.992 520.828C174.488 520.828 174.008 520.864 173.552 520.936C173.12 520.984 172.736 521.092 172.4 521.26C172.064 521.428 171.8 521.656 171.608 521.944C171.416 522.232 171.32 522.592 171.32 523.024C171.32 523.864 171.596 524.452 172.148 524.788C172.724 525.1 173.504 525.256 174.488 525.256ZM174.056 509.56C175.64 509.56 176.96 509.74 178.016 510.1C179.072 510.46 179.912 510.976 180.536 511.648C181.184 512.32 181.64 513.136 181.904 514.096C182.168 515.056 182.3 516.124 182.3 517.3V528.46C181.532 528.628 180.464 528.82 179.096 529.036C177.728 529.276 176.072 529.396 174.128 529.396C172.904 529.396 171.788 529.288 170.78 529.072C169.796 528.856 168.944 528.508 168.224 528.028C167.504 527.524 166.952 526.876 166.568 526.084C166.184 525.292 165.992 524.32 165.992 523.168C165.992 522.064 166.208 521.128 166.64 520.36C167.096 519.592 167.696 518.98 168.44 518.524C169.184 518.068 170.036 517.744 170.996 517.552C171.956 517.336 172.952 517.228 173.984 517.228C174.68 517.228 175.292 517.264 175.82 517.336C176.372 517.384 176.816 517.456 177.152 517.552V517.048C177.152 516.136 176.876 515.404 176.324 514.852C175.772 514.3 174.812 514.024 173.444 514.024C172.532 514.024 171.632 514.096 170.744 514.24C169.856 514.36 169.088 514.54 168.44 514.78L167.756 510.46C168.068 510.364 168.452 510.268 168.908 510.172C169.388 510.052 169.904 509.956 170.456 509.884C171.008 509.788 171.584 509.716 172.184 509.668C172.808 509.596 173.432 509.56 174.056 509.56ZM187.151 510.712C188.063 510.448 189.239 510.208 190.679 509.992C192.119 509.752 193.631 509.632 195.215 509.632C196.823 509.632 198.155 509.848 199.211 510.28C200.291 510.688 201.143 511.276 201.767 512.044C202.391 512.812 202.835 513.724 203.099 514.78C203.363 515.836 203.495 517.012 203.495 518.308V529H198.131V518.956C198.131 517.228 197.903 516.004 197.447 515.284C196.991 514.564 196.139 514.204 194.891 514.204C194.507 514.204 194.099 514.228 193.667 514.276C193.235 514.3 192.851 514.336 192.515 514.384V529H187.151V510.712ZM213.714 529H208.35V510.064H213.714V529ZM214.218 504.592C214.218 505.576 213.894 506.356 213.246 506.932C212.622 507.484 211.878 507.76 211.014 507.76C210.15 507.76 209.394 507.484 208.746 506.932C208.122 506.356 207.81 505.576 207.81 504.592C207.81 503.608 208.122 502.84 208.746 502.288C209.394 501.712 210.15 501.424 211.014 501.424C211.878 501.424 212.622 501.712 213.246 502.288C213.894 502.84 214.218 503.608 214.218 504.592ZM232.976 513.664C232.544 514.144 231.956 514.792 231.212 515.608C230.492 516.424 229.712 517.324 228.872 518.308C228.032 519.292 227.18 520.324 226.316 521.404C225.476 522.484 224.708 523.528 224.012 524.536H233.156V529H217.496V525.832C218 524.968 218.6 524.044 219.296 523.06C220.016 522.052 220.76 521.044 221.528 520.036C222.32 519.028 223.1 518.056 223.868 517.12C224.636 516.16 225.344 515.296 225.992 514.528H217.928V510.064H232.976V513.664ZM235.329 519.676C235.329 517.996 235.581 516.532 236.085 515.284C236.613 514.012 237.297 512.956 238.137 512.116C238.977 511.276 239.937 510.64 241.017 510.208C242.121 509.776 243.249 509.56 244.401 509.56C247.089 509.56 249.213 510.388 250.773 512.044C252.333 513.676 253.113 516.088 253.113 519.28C253.113 519.592 253.101 519.94 253.077 520.324C253.053 520.684 253.029 521.008 253.005 521.296H240.837C240.957 522.4 241.473 523.276 242.385 523.924C243.297 524.572 244.521 524.896 246.057 524.896C247.041 524.896 248.001 524.812 248.937 524.644C249.897 524.452 250.677 524.224 251.277 523.96L251.997 528.316C251.709 528.46 251.325 528.604 250.845 528.748C250.365 528.892 249.825 529.012 249.225 529.108C248.649 529.228 248.025 529.324 247.353 529.396C246.681 529.468 246.009 529.504 245.337 529.504C243.633 529.504 242.145 529.252 240.873 528.748C239.625 528.244 238.581 527.56 237.741 526.696C236.925 525.808 236.313 524.764 235.905 523.564C235.521 522.364 235.329 521.068 235.329 519.676ZM247.929 517.624C247.905 517.168 247.821 516.724 247.677 516.292C247.557 515.86 247.353 515.476 247.065 515.14C246.801 514.804 246.453 514.528 246.021 514.312C245.613 514.096 245.097 513.988 244.473 513.988C243.873 513.988 243.357 514.096 242.925 514.312C242.493 514.504 242.133 514.768 241.845 515.104C241.557 515.44 241.329 515.836 241.161 516.292C241.017 516.724 240.909 517.168 240.837 517.624H247.929ZM268.664 514.816C268.184 514.696 267.62 514.576 266.972 514.456C266.324 514.312 265.628 514.24 264.884 514.24C264.548 514.24 264.14 514.276 263.66 514.348C263.204 514.396 262.856 514.456 262.616 514.528V529H257.252V511.072C258.212 510.736 259.34 510.424 260.636 510.136C261.956 509.824 263.42 509.668 265.028 509.668C265.316 509.668 265.664 509.692 266.072 509.74C266.48 509.764 266.888 509.812 267.296 509.884C267.704 509.932 268.112 510.004 268.52 510.1C268.928 510.172 269.276 510.268 269.564 510.388L268.664 514.816Z" fill="#8AC85A"/>
</g>
</g>
<defs>
<filter id="filter0_f_8037_165" x="-163.354" y="-174.909" width="693.815" height="357.055" filterUnits="userSpaceOnUse" color-interpolation-filters="sRGB">
<feFlood flood-opacity="0" result="BackgroundImageFix"/>
<feBlend mode="normal" in="SourceGraphic" in2="BackgroundImageFix" result="shape"/>
<feGaussianBlur stdDeviation="60" result="effect1_foregroundBlur_8037_165"/>
</filter>
<filter id="filter1_dd_8037_165" x="-12" y="683" width="445" height="137" filterUnits="userSpaceOnUse" color-interpolation-filters="sRGB">
<feFlood flood-opacity="0" result="BackgroundImageFix"/>
<feColorMatrix in="SourceAlpha" type="matrix" values="0 0 0 0 0 0 0 0 0 0 0 0 0 0 0 0 0 0 127 0" result="hardAlpha"/>
<feOffset dy="4"/>
<feGaussianBlur stdDeviation="2"/>
<feComposite in2="hardAlpha" operator="out"/>
<feColorMatrix type="matrix" values="0 0 0 0 0 0 0 0 0 0 0 0 0 0 0 0 0 0 0.25 0"/>
<feBlend mode="normal" in2="BackgroundImageFix" result="effect1_dropShadow_8037_165"/>
<feColorMatrix in="SourceAlpha" type="matrix" values="0 0 0 0 0 0 0 0 0 0 0 0 0 0 0 0 0 0 127 0" result="hardAlpha"/>
<feOffset dy="4"/>
<feGaussianBlur stdDeviation="2"/>
<feComposite in2="hardAlpha" operator="out"/>
<feColorMatrix type="matrix" values="0 0 0 0 0 0 0 0 0 0 0 0 0 0 0 0 0 0 0.25 0"/>
<feBlend mode="normal" in2="effect1_dropShadow_8037_165" result="effect2_dropShadow_8037_165"/>
<feBlend mode="normal" in="SourceGraphic" in2="effect2_dropShadow_8037_165" result="shape"/>
</filter>
<filter id="filter2_i_8037_165" x="32.7354" y="460.064" width="288.493" height="79.7031" filterUnits="userSpaceOnUse" color-interpolation-filters="sRGB">
<feFlood flood-opacity="0" result="BackgroundImageFix"/>
<feBlend mode="normal" in="SourceGraphic" in2="BackgroundImageFix" result="shape"/>
<feColorMatrix in="SourceAlpha" type="matrix" values="0 0 0 0 0 0 0 0 0 0 0 0 0 0 0 0 0 0 127 0" result="hardAlpha"/>
<feOffset dy="4"/>
<feGaussianBlur stdDeviation="2"/>
<feComposite in2="hardAlpha" operator="arithmetic" k2="-1" k3="1"/>
<feColorMatrix type="matrix" values="0 0 0 0 0 0 0 0 0 0 0 0 0 0 0 0 0 0 0.25 0"/>
<feBlend mode="normal" in2="shape" result="effect1_innerShadow_8037_165"/>
</filter>
<clipPath id="clip0_8037_165">
<rect width="375" height="812" fill="white"/>
</clipPath>
</defs>
</svg>
