<svg width="375" height="812" viewBox="0 0 375 812" fill="none" xmlns="http://www.w3.org/2000/svg">
<g clip-path="url(#clip0_79_348)">
<rect width="375" height="812" fill="#F1FEED"/>
<g filter="url(#filter0_f_79_348)">
<path d="M312.757 57.344L378.289 62.0659C398.479 63.5206 414.286 44.9726 409.647 25.2688L398.188 -23.4078C395.339 -35.508 385.323 -44.598 373.004 -46.2629L311.03 -54.6385C308.997 -54.9133 306.941 -54.9787 304.894 -54.8339L-15.4699 -32.1599C-32.2314 -30.9736 -44.7501 -16.253 -43.2288 0.481365L-40.8677 26.4525C-39.5107 41.3787 -27.346 53.0133 -12.3743 53.7044L52.5941 56.7035C56.8171 56.8985 61.0337 56.1987 64.9674 54.65L174.784 11.4149C181.982 8.58125 189.996 8.63723 197.153 11.5712L303.534 55.1798C306.474 56.3851 309.587 57.1156 312.757 57.344Z" fill="#F1FEED"/>
</g>
<g filter="url(#filter1_dd_79_348)">
<path d="M4.1151 790.691C113.151 665.138 161.611 652.583 302.954 736.285C416.029 803.246 433.528 814.406 428.144 811.616H-8L4.1151 790.691Z" fill="#8AC85A"/>
</g>
<g filter="url(#filter2_i_79_348)">
<path d="M111.538 488V463.052H128.242V467.768H117.154V472.988H127.018V477.704H117.154V488H111.538ZM130.599 478.676C130.599 476.996 130.851 475.532 131.355 474.284C131.883 473.012 132.567 471.956 133.407 471.116C134.247 470.276 135.207 469.64 136.287 469.208C137.391 468.776 138.519 468.56 139.671 468.56C142.359 468.56 144.483 469.388 146.043 471.044C147.603 472.676 148.383 475.088 148.383 478.28C148.383 478.592 148.371 478.94 148.347 479.324C148.323 479.684 148.299 480.008 148.275 480.296H136.107C136.227 481.4 136.743 482.276 137.655 482.924C138.567 483.572 139.791 483.896 141.327 483.896C142.311 483.896 143.271 483.812 144.207 483.644C145.167 483.452 145.947 483.224 146.547 482.96L147.267 487.316C146.979 487.46 146.595 487.604 146.115 487.748C145.635 487.892 145.095 488.012 144.495 488.108C143.919 488.228 143.295 488.324 142.623 488.396C141.951 488.468 141.279 488.504 140.607 488.504C138.903 488.504 137.415 488.252 136.143 487.748C134.895 487.244 133.851 486.56 133.011 485.696C132.195 484.808 131.583 483.764 131.175 482.564C130.791 481.364 130.599 480.068 130.599 478.676ZM143.199 476.624C143.175 476.168 143.091 475.724 142.947 475.292C142.827 474.86 142.623 474.476 142.335 474.14C142.071 473.804 141.723 473.528 141.291 473.312C140.883 473.096 140.367 472.988 139.743 472.988C139.143 472.988 138.627 473.096 138.195 473.312C137.763 473.504 137.403 473.768 137.115 474.104C136.827 474.44 136.599 474.836 136.431 475.292C136.287 475.724 136.179 476.168 136.107 476.624H143.199ZM157.958 484.148C158.942 484.148 159.638 484.052 160.046 483.86C160.454 483.668 160.658 483.296 160.658 482.744C160.658 482.312 160.394 481.94 159.866 481.628C159.338 481.292 158.534 480.92 157.454 480.512C156.614 480.2 155.846 479.876 155.15 479.54C154.478 479.204 153.902 478.808 153.422 478.352C152.942 477.872 152.57 477.308 152.306 476.66C152.042 476.012 151.91 475.232 151.91 474.32C151.91 472.544 152.57 471.14 153.89 470.108C155.21 469.076 157.022 468.56 159.326 468.56C160.478 468.56 161.582 468.668 162.638 468.884C163.694 469.076 164.534 469.292 165.158 469.532L164.222 473.708C163.598 473.492 162.914 473.3 162.17 473.132C161.45 472.964 160.634 472.88 159.722 472.88C158.042 472.88 157.202 473.348 157.202 474.284C157.202 474.5 157.238 474.692 157.31 474.86C157.382 475.028 157.526 475.196 157.742 475.364C157.958 475.508 158.246 475.676 158.606 475.868C158.99 476.036 159.47 476.228 160.046 476.444C161.222 476.876 162.194 477.308 162.962 477.74C163.73 478.148 164.33 478.604 164.762 479.108C165.218 479.588 165.53 480.128 165.698 480.728C165.89 481.328 165.986 482.024 165.986 482.816C165.986 484.688 165.278 486.104 163.862 487.064C162.47 488.024 160.49 488.504 157.922 488.504C156.242 488.504 154.838 488.36 153.71 488.072C152.606 487.784 151.838 487.544 151.406 487.352L152.306 482.996C153.218 483.356 154.154 483.644 155.114 483.86C156.074 484.052 157.022 484.148 157.958 484.148ZM169.815 464.348L175.179 463.484V469.064H181.623V473.528H175.179V480.188C175.179 481.316 175.371 482.216 175.755 482.888C176.163 483.56 176.967 483.896 178.167 483.896C178.743 483.896 179.331 483.848 179.931 483.752C180.555 483.632 181.119 483.476 181.623 483.284L182.379 487.46C181.731 487.724 181.011 487.952 180.219 488.144C179.427 488.336 178.455 488.432 177.303 488.432C175.839 488.432 174.627 488.24 173.667 487.856C172.707 487.448 171.939 486.896 171.363 486.2C170.787 485.48 170.379 484.616 170.139 483.608C169.923 482.6 169.815 481.484 169.815 480.26V464.348ZM191.355 488H185.991V469.064H191.355V488ZM191.859 463.592C191.859 464.576 191.535 465.356 190.887 465.932C190.263 466.484 189.519 466.76 188.655 466.76C187.791 466.76 187.035 466.484 186.387 465.932C185.763 465.356 185.451 464.576 185.451 463.592C185.451 462.608 185.763 461.84 186.387 461.288C187.035 460.712 187.791 460.424 188.655 460.424C189.519 460.424 190.263 460.712 190.887 461.288C191.535 461.84 191.859 462.608 191.859 463.592ZM200.982 488C199.758 485.6 198.51 482.792 197.238 479.576C195.99 476.36 194.802 472.856 193.674 469.064H199.362C199.602 470 199.878 471.02 200.19 472.124C200.526 473.204 200.862 474.308 201.198 475.436C201.558 476.54 201.906 477.62 202.242 478.676C202.602 479.732 202.95 480.692 203.286 481.556C203.598 480.692 203.934 479.732 204.294 478.676C204.654 477.62 205.002 476.54 205.338 475.436C205.698 474.308 206.034 473.204 206.346 472.124C206.682 471.02 206.97 470 207.21 469.064H212.754C211.626 472.856 210.426 476.36 209.154 479.576C207.906 482.792 206.67 485.6 205.446 488H200.982ZM222.512 484.256C223.04 484.256 223.544 484.244 224.024 484.22C224.504 484.196 224.888 484.16 225.176 484.112V480.044C224.96 479.996 224.636 479.948 224.204 479.9C223.772 479.852 223.376 479.828 223.016 479.828C222.512 479.828 222.032 479.864 221.576 479.936C221.144 479.984 220.76 480.092 220.424 480.26C220.088 480.428 219.824 480.656 219.632 480.944C219.44 481.232 219.344 481.592 219.344 482.024C219.344 482.864 219.62 483.452 220.172 483.788C220.748 484.1 221.528 484.256 222.512 484.256ZM222.08 468.56C223.664 468.56 224.984 468.74 226.04 469.1C227.096 469.46 227.936 469.976 228.56 470.648C229.208 471.32 229.664 472.136 229.928 473.096C230.192 474.056 230.324 475.124 230.324 476.3V487.46C229.556 487.628 228.488 487.82 227.12 488.036C225.752 488.276 224.096 488.396 222.152 488.396C220.928 488.396 219.812 488.288 218.804 488.072C217.82 487.856 216.968 487.508 216.248 487.028C215.528 486.524 214.976 485.876 214.592 485.084C214.208 484.292 214.016 483.32 214.016 482.168C214.016 481.064 214.232 480.128 214.664 479.36C215.12 478.592 215.72 477.98 216.464 477.524C217.208 477.068 218.06 476.744 219.02 476.552C219.98 476.336 220.976 476.228 222.008 476.228C222.704 476.228 223.316 476.264 223.844 476.336C224.396 476.384 224.84 476.456 225.176 476.552V476.048C225.176 475.136 224.9 474.404 224.348 473.852C223.796 473.3 222.836 473.024 221.468 473.024C220.556 473.024 219.656 473.096 218.768 473.24C217.88 473.36 217.112 473.54 216.464 473.78L215.78 469.46C216.092 469.364 216.476 469.268 216.932 469.172C217.412 469.052 217.928 468.956 218.48 468.884C219.032 468.788 219.608 468.716 220.208 468.668C220.832 468.596 221.456 468.56 222.08 468.56ZM242.734 488.36C241.174 488.336 239.902 488.168 238.918 487.856C237.958 487.544 237.19 487.112 236.614 486.56C236.062 485.984 235.678 485.3 235.462 484.508C235.27 483.692 235.174 482.78 235.174 481.772V460.928L240.538 460.064V480.692C240.538 481.172 240.574 481.604 240.646 481.988C240.718 482.372 240.85 482.696 241.042 482.96C241.258 483.224 241.558 483.44 241.942 483.608C242.326 483.776 242.842 483.884 243.49 483.932L242.734 488.36ZM107.676 516.508C107.676 517.732 107.82 518.836 108.108 519.82C108.42 520.804 108.852 521.656 109.404 522.376C109.98 523.072 110.676 523.612 111.492 523.996C112.308 524.38 113.244 524.572 114.3 524.572C115.332 524.572 116.256 524.38 117.072 523.996C117.912 523.612 118.608 523.072 119.16 522.376C119.736 521.656 120.168 520.804 120.456 519.82C120.768 518.836 120.924 517.732 120.924 516.508C120.924 515.284 120.768 514.18 120.456 513.196C120.168 512.188 119.736 511.336 119.16 510.64C118.608 509.92 117.912 509.368 117.072 508.984C116.256 508.6 115.332 508.408 114.3 508.408C113.244 508.408 112.308 508.612 111.492 509.02C110.676 509.404 109.98 509.956 109.404 510.676C108.852 511.372 108.42 512.224 108.108 513.232C107.82 514.216 107.676 515.308 107.676 516.508ZM126.72 516.508C126.72 518.644 126.396 520.528 125.748 522.16C125.124 523.768 124.26 525.124 123.156 526.228C122.052 527.308 120.732 528.124 119.196 528.676C117.684 529.228 116.052 529.504 114.3 529.504C112.596 529.504 110.988 529.228 109.476 528.676C107.964 528.124 106.644 527.308 105.516 526.228C104.388 525.124 103.5 523.768 102.852 522.16C102.204 520.528 101.88 518.644 101.88 516.508C101.88 514.372 102.216 512.5 102.888 510.892C103.56 509.26 104.46 507.892 105.588 506.788C106.74 505.684 108.06 504.856 109.548 504.304C111.06 503.752 112.644 503.476 114.3 503.476C116.004 503.476 117.612 503.752 119.124 504.304C120.636 504.856 121.956 505.684 123.084 506.788C124.212 507.892 125.1 509.26 125.748 510.892C126.396 512.5 126.72 514.372 126.72 516.508ZM142.453 514.816C141.973 514.696 141.409 514.576 140.761 514.456C140.113 514.312 139.417 514.24 138.673 514.24C138.337 514.24 137.929 514.276 137.449 514.348C136.993 514.396 136.645 514.456 136.405 514.528V529H131.041V511.072C132.001 510.736 133.129 510.424 134.425 510.136C135.745 509.824 137.209 509.668 138.817 509.668C139.105 509.668 139.453 509.692 139.861 509.74C140.269 509.764 140.677 509.812 141.085 509.884C141.493 509.932 141.901 510.004 142.309 510.1C142.717 510.172 143.065 510.268 143.353 510.388L142.453 514.816ZM150.449 518.92C150.449 521.92 151.661 523.42 154.085 523.42C154.637 523.42 155.153 523.348 155.633 523.204C156.113 523.06 156.521 522.892 156.857 522.7V514.132C156.593 514.084 156.281 514.048 155.921 514.024C155.561 513.976 155.141 513.952 154.661 513.952C153.245 513.952 152.189 514.42 151.493 515.356C150.797 516.292 150.449 517.48 150.449 518.92ZM162.221 526.624C162.221 529.72 161.429 532.012 159.845 533.5C158.285 535.012 155.861 535.768 152.573 535.768C151.421 535.768 150.269 535.66 149.117 535.444C147.965 535.252 146.897 534.988 145.913 534.652L146.849 530.152C147.689 530.488 148.565 530.752 149.477 530.944C150.413 531.136 151.469 531.232 152.645 531.232C154.181 531.232 155.261 530.896 155.885 530.224C156.533 529.552 156.857 528.688 156.857 527.632V526.948C156.281 527.212 155.681 527.416 155.057 527.56C154.457 527.68 153.797 527.74 153.077 527.74C150.461 527.74 148.457 526.972 147.065 525.436C145.673 523.876 144.977 521.704 144.977 518.92C144.977 517.528 145.193 516.268 145.625 515.14C146.057 513.988 146.681 513.004 147.497 512.188C148.337 511.372 149.357 510.748 150.557 510.316C151.757 509.86 153.113 509.632 154.625 509.632C155.273 509.632 155.933 509.668 156.605 509.74C157.301 509.788 157.985 509.86 158.657 509.956C159.329 510.052 159.965 510.172 160.565 510.316C161.189 510.436 161.741 510.568 162.221 510.712V526.624ZM174.488 525.256C175.016 525.256 175.52 525.244 176 525.22C176.48 525.196 176.864 525.16 177.152 525.112V521.044C176.936 520.996 176.612 520.948 176.18 520.9C175.748 520.852 175.352 520.828 174.992 520.828C174.488 520.828 174.008 520.864 173.552 520.936C173.12 520.984 172.736 521.092 172.4 521.26C172.064 521.428 171.8 521.656 171.608 521.944C171.416 522.232 171.32 522.592 171.32 523.024C171.32 523.864 171.596 524.452 172.148 524.788C172.724 525.1 173.504 525.256 174.488 525.256ZM174.056 509.56C175.64 509.56 176.96 509.74 178.016 510.1C179.072 510.46 179.912 510.976 180.536 511.648C181.184 512.32 181.64 513.136 181.904 514.096C182.168 515.056 182.3 516.124 182.3 517.3V528.46C181.532 528.628 180.464 528.82 179.096 529.036C177.728 529.276 176.072 529.396 174.128 529.396C172.904 529.396 171.788 529.288 170.78 529.072C169.796 528.856 168.944 528.508 168.224 528.028C167.504 527.524 166.952 526.876 166.568 526.084C166.184 525.292 165.992 524.32 165.992 523.168C165.992 522.064 166.208 521.128 166.64 520.36C167.096 519.592 167.696 518.98 168.44 518.524C169.184 518.068 170.036 517.744 170.996 517.552C171.956 517.336 172.952 517.228 173.984 517.228C174.68 517.228 175.292 517.264 175.82 517.336C176.372 517.384 176.816 517.456 177.152 517.552V517.048C177.152 516.136 176.876 515.404 176.324 514.852C175.772 514.3 174.812 514.024 173.444 514.024C172.532 514.024 171.632 514.096 170.744 514.24C169.856 514.36 169.088 514.54 168.44 514.78L167.756 510.46C168.068 510.364 168.452 510.268 168.908 510.172C169.388 510.052 169.904 509.956 170.456 509.884C171.008 509.788 171.584 509.716 172.184 509.668C172.808 509.596 173.432 509.56 174.056 509.56ZM187.151 510.712C188.063 510.448 189.239 510.208 190.679 509.992C192.119 509.752 193.631 509.632 195.215 509.632C196.823 509.632 198.155 509.848 199.211 510.28C200.291 510.688 201.143 511.276 201.767 512.044C202.391 512.812 202.835 513.724 203.099 514.78C203.363 515.836 203.495 517.012 203.495 518.308V529H198.131V518.956C198.131 517.228 197.903 516.004 197.447 515.284C196.991 514.564 196.139 514.204 194.891 514.204C194.507 514.204 194.099 514.228 193.667 514.276C193.235 514.3 192.851 514.336 192.515 514.384V529H187.151V510.712ZM213.714 529H208.35V510.064H213.714V529ZM214.218 504.592C214.218 505.576 213.894 506.356 213.246 506.932C212.622 507.484 211.878 507.76 211.014 507.76C210.15 507.76 209.394 507.484 208.746 506.932C208.122 506.356 207.81 505.576 207.81 504.592C207.81 503.608 208.122 502.84 208.746 502.288C209.394 501.712 210.15 501.424 211.014 501.424C211.878 501.424 212.622 501.712 213.246 502.288C213.894 502.84 214.218 503.608 214.218 504.592ZM224.192 525.148C225.176 525.148 225.872 525.052 226.28 524.86C226.688 524.668 226.892 524.296 226.892 523.744C226.892 523.312 226.628 522.94 226.1 522.628C225.572 522.292 224.768 521.92 223.688 521.512C222.848 521.2 222.08 520.876 221.384 520.54C220.712 520.204 220.136 519.808 219.656 519.352C219.176 518.872 218.804 518.308 218.54 517.66C218.276 517.012 218.144 516.232 218.144 515.32C218.144 513.544 218.804 512.14 220.124 511.108C221.444 510.076 223.256 509.56 225.56 509.56C226.712 509.56 227.816 509.668 228.872 509.884C229.928 510.076 230.768 510.292 231.392 510.532L230.456 514.708C229.832 514.492 229.148 514.3 228.404 514.132C227.684 513.964 226.868 513.88 225.956 513.88C224.276 513.88 223.436 514.348 223.436 515.284C223.436 515.5 223.472 515.692 223.544 515.86C223.616 516.028 223.76 516.196 223.976 516.364C224.192 516.508 224.48 516.676 224.84 516.868C225.224 517.036 225.704 517.228 226.28 517.444C227.456 517.876 228.428 518.308 229.196 518.74C229.964 519.148 230.564 519.604 230.996 520.108C231.452 520.588 231.764 521.128 231.932 521.728C232.124 522.328 232.22 523.024 232.22 523.816C232.22 525.688 231.512 527.104 230.096 528.064C228.704 529.024 226.724 529.504 224.156 529.504C222.476 529.504 221.072 529.36 219.944 529.072C218.84 528.784 218.072 528.544 217.64 528.352L218.54 523.996C219.452 524.356 220.388 524.644 221.348 524.86C222.308 525.052 223.256 525.148 224.192 525.148ZM235.329 519.676C235.329 517.996 235.581 516.532 236.085 515.284C236.613 514.012 237.297 512.956 238.137 512.116C238.977 511.276 239.937 510.64 241.017 510.208C242.121 509.776 243.249 509.56 244.401 509.56C247.089 509.56 249.213 510.388 250.773 512.044C252.333 513.676 253.113 516.088 253.113 519.28C253.113 519.592 253.101 519.94 253.077 520.324C253.053 520.684 253.029 521.008 253.005 521.296H240.837C240.957 522.4 241.473 523.276 242.385 523.924C243.297 524.572 244.521 524.896 246.057 524.896C247.041 524.896 248.001 524.812 248.937 524.644C249.897 524.452 250.677 524.224 251.277 523.96L251.997 528.316C251.709 528.46 251.325 528.604 250.845 528.748C250.365 528.892 249.825 529.012 249.225 529.108C248.649 529.228 248.025 529.324 247.353 529.396C246.681 529.468 246.009 529.504 245.337 529.504C243.633 529.504 242.145 529.252 240.873 528.748C239.625 528.244 238.581 527.56 237.741 526.696C236.925 525.808 236.313 524.764 235.905 523.564C235.521 522.364 235.329 521.068 235.329 519.676ZM247.929 517.624C247.905 517.168 247.821 516.724 247.677 516.292C247.557 515.86 247.353 515.476 247.065 515.14C246.801 514.804 246.453 514.528 246.021 514.312C245.613 514.096 245.097 513.988 244.473 513.988C243.873 513.988 243.357 514.096 242.925 514.312C242.493 514.504 242.133 514.768 241.845 515.104C241.557 515.44 241.329 515.836 241.161 516.292C241.017 516.724 240.909 517.168 240.837 517.624H247.929ZM268.664 514.816C268.184 514.696 267.62 514.576 266.972 514.456C266.324 514.312 265.628 514.24 264.884 514.24C264.548 514.24 264.14 514.276 263.66 514.348C263.204 514.396 262.856 514.456 262.616 514.528V529H257.252V511.072C258.212 510.736 259.34 510.424 260.636 510.136C261.956 509.824 263.42 509.668 265.028 509.668C265.316 509.668 265.664 509.692 266.072 509.74C266.48 509.764 266.888 509.812 267.296 509.884C267.704 509.932 268.112 510.004 268.52 510.1C268.928 510.172 269.276 510.268 269.564 510.388L268.664 514.816Z" fill="#8AC85A"/>
</g>
</g>
<defs>
<filter id="filter0_f_79_348" x="-163.354" y="-174.909" width="693.815" height="357.055" filterUnits="userSpaceOnUse" color-interpolation-filters="sRGB">
<feFlood flood-opacity="0" result="BackgroundImageFix"/>
<feBlend mode="normal" in="SourceGraphic" in2="BackgroundImageFix" result="shape"/>
<feGaussianBlur stdDeviation="60" result="effect1_foregroundBlur_79_348"/>
</filter>
<filter id="filter1_dd_79_348" x="-12" y="683" width="445" height="137" filterUnits="userSpaceOnUse" color-interpolation-filters="sRGB">
<feFlood flood-opacity="0" result="BackgroundImageFix"/>
<feColorMatrix in="SourceAlpha" type="matrix" values="0 0 0 0 0 0 0 0 0 0 0 0 0 0 0 0 0 0 127 0" result="hardAlpha"/>
<feOffset dy="4"/>
<feGaussianBlur stdDeviation="2"/>
<feComposite in2="hardAlpha" operator="out"/>
<feColorMatrix type="matrix" values="0 0 0 0 0 0 0 0 0 0 0 0 0 0 0 0 0 0 0.25 0"/>
<feBlend mode="normal" in2="BackgroundImageFix" result="effect1_dropShadow_79_348"/>
<feColorMatrix in="SourceAlpha" type="matrix" values="0 0 0 0 0 0 0 0 0 0 0 0 0 0 0 0 0 0 127 0" result="hardAlpha"/>
<feOffset dy="4"/>
<feGaussianBlur stdDeviation="2"/>
<feComposite in2="hardAlpha" operator="out"/>
<feColorMatrix type="matrix" values="0 0 0 0 0 0 0 0 0 0 0 0 0 0 0 0 0 0 0.25 0"/>
<feBlend mode="normal" in2="effect1_dropShadow_79_348" result="effect2_dropShadow_79_348"/>
<feBlend mode="normal" in="SourceGraphic" in2="effect2_dropShadow_79_348" result="shape"/>
</filter>
<filter id="filter2_i_79_348" x="101.88" y="460.064" width="167.685" height="79.704" filterUnits="userSpaceOnUse" color-interpolation-filters="sRGB">
<feFlood flood-opacity="0" result="BackgroundImageFix"/>
<feBlend mode="normal" in="SourceGraphic" in2="BackgroundImageFix" result="shape"/>
<feColorMatrix in="SourceAlpha" type="matrix" values="0 0 0 0 0 0 0 0 0 0 0 0 0 0 0 0 0 0 127 0" result="hardAlpha"/>
<feOffset dy="4"/>
<feGaussianBlur stdDeviation="2"/>
<feComposite in2="hardAlpha" operator="arithmetic" k2="-1" k3="1"/>
<feColorMatrix type="matrix" values="0 0 0 0 0 0 0 0 0 0 0 0 0 0 0 0 0 0 0.25 0"/>
<feBlend mode="normal" in2="shape" result="effect1_innerShadow_79_348"/>
</filter>
<clipPath id="clip0_79_348">
<rect width="375" height="812" fill="white"/>
</clipPath>
</defs>
</svg>
