<svg width="24" height="24" viewBox="0 0 24 24" fill="none" xmlns="http://www.w3.org/2000/svg">
<path d="M13.2999 5.25C13.1499 5.1 12.9999 5.05 12.7499 5.05H9.5499C9.1499 5 6.1499 4.5 5.9999 1.5C5.9499 0.9 5.4999 0.5 4.9499 0.5C4.3999 0.55 3.9499 1 3.9999 1.55C4.1999 4.85 6.6499 6.3 8.4999 6.8V19.5C8.4999 20.05 8.9499 20.5 9.4999 20.5C10.0499 20.5 10.4999 20.05 10.4999 19.5V14.5H11.4999V19.5C11.4999 20.05 11.9499 20.5 12.4999 20.5C13.0499 20.5 13.4999 20.05 13.4999 19.5V8.9C13.9499 10.05 14.3499 11.45 14.4999 12.5C14.5999 13.05 15.0999 13.4 15.6499 13.3C16.1999 13.2 16.5499 12.7 16.4499 12.15C16.3499 11.25 15.4499 6.65 13.2999 5.25Z" fill="url(#paint0_linear_41_956)"/>
<path d="M11 4C12.1046 4 13 3.10457 13 2C13 0.895431 12.1046 0 11 0C9.89543 0 9 0.895431 9 2C9 3.10457 9.89543 4 11 4Z" fill="url(#paint1_linear_41_956)"/>
<path d="M14 19.5C14 20.3 13.35 21 12.5 21C11.65 21 11 20.3 11 19.5C11 20.3 10.35 21 9.5 21C8.65 21 8 20.3 8 19.5V16L6.25 24H15.75L14 16V19.5ZM6 16.1C6 16.4 6.2 16.6 6.5 16.6C6.8 16.6 7 16.4 7 16.1V12.8C7 12.5 6.8 12.3 6.5 12.3C6.2 12.3 6 12.5 6 12.8V13.15C5.75 13.15 5.5 13.2 5.25 13.15C4.8 13.1 4.4 13.05 4.1 12.95C4.05 12.95 4.05 12.95 4 12.9V12.75C4 12.45 3.8 12.25 3.5 12.25C3.2 12.25 3 12.45 3 12.75V13.05C2.7 13.1 2.35 13.15 2 13.1C1.65 13.05 1.25 13 1 12.9V12.75C1 12.45 0.8 12.25 0.5 12.25C0.2 12.25 0 12.45 0 12.75V20.15C0 20.45 0.2 20.65 0.5 20.65C0.8 20.65 1 20.45 1 20.15V13.4C1.3 13.45 1.65 13.45 2 13.45C2.35 13.4 2.75 13.3 3 13.25V17.65C3 17.95 3.2 18.15 3.5 18.15C3.8 18.15 4 17.95 4 17.65V13.45C4.35 13.5 4.8 13.55 5.25 13.5C5.5 13.5 5.75 13.45 6 13.4V16.1ZM0 21.5C0 21.8 0.2 22 0.5 22C0.8 22 1 21.8 1 21.5V21H0V21.5Z" fill="url(#paint2_linear_41_956)"/>
<path d="M3 19C3 19.3 3.2 19.5 3.5 19.5C3.8 19.5 4 19.3 4 19V18.5H3V19ZM7 17.5V17H6V17.5C6 17.8 6.2 18 6.5 18C6.8 18 7 17.8 7 17.5ZM23.5 12.3C23.2 12.3 23 12.5 23 12.8V12.95C22.75 13.05 22.4 13.15 22 13.15C21.65 13.2 21.25 13.15 21 13.1V12.8C21 12.5 20.8 12.3 20.5 12.3C20.2 12.3 20 12.5 20 12.8V12.95C19.95 12.95 19.95 12.95 19.9 13C19.6 13.1 19.15 13.2 18.75 13.2H18V12.85C18 12.55 17.8 12.35 17.5 12.35C17.2 12.35 17 12.55 17 12.85V16.1C17 16.4 17.2 16.6 17.5 16.6C17.8 16.6 18 16.4 18 16.1V13.35C18.25 13.4 18.5 13.45 18.75 13.45C19.2 13.5 19.65 13.45 20 13.4V17.6C20 17.9 20.2 18.1 20.5 18.1C20.8 18.1 21 17.9 21 17.6V13.2C21.25 13.3 21.65 13.4 22 13.4C22.35 13.45 22.7 13.4 23 13.35V20.15C23 20.45 23.2 20.65 23.5 20.65C23.8 20.65 24 20.45 24 20.15V12.8C24 12.5 23.8 12.3 23.5 12.3ZM23 21.5C23 21.8 23.2 22 23.5 22C23.8 22 24 21.8 24 21.5V21H23V21.5Z" fill="url(#paint3_linear_41_956)"/>
<path d="M20 19C20 19.3 20.2 19.5 20.5 19.5C20.8 19.5 21 19.3 21 19V18.5H20V19ZM17 17.5C17 17.8 17.2 18 17.5 18C17.8 18 18 17.8 18 17.5V17H17V17.5Z" fill="url(#paint4_linear_41_956)"/>
<defs>
<linearGradient id="paint0_linear_41_956" x1="14.8279" y1="-4.27729" x2="-4.64762" y2="10.8129" gradientUnits="userSpaceOnUse">
<stop stop-color="#45A3D9"/>
<stop offset="1" stop-color="#45D9D0"/>
</linearGradient>
<linearGradient id="paint1_linear_41_956" x1="12.4743" y1="-0.955458" x2="8.54482" y2="3.9274" gradientUnits="userSpaceOnUse">
<stop stop-color="#45A3D9"/>
<stop offset="1" stop-color="#45D9D0"/>
</linearGradient>
<linearGradient id="paint2_linear_41_956" x1="13.68" y1="9.44334" x2="3.25091" y2="26.8145" gradientUnits="userSpaceOnUse">
<stop stop-color="#45A3D9"/>
<stop offset="1" stop-color="#45D9D0"/>
</linearGradient>
<linearGradient id="paint3_linear_41_956" x1="21.24" y1="9.98306" x2="14.8684" y2="27.124" gradientUnits="userSpaceOnUse">
<stop stop-color="#45A3D9"/>
<stop offset="1" stop-color="#45D9D0"/>
</linearGradient>
<linearGradient id="paint4_linear_41_956" x1="20.4743" y1="16.4028" x2="18.4559" y2="20.4158" gradientUnits="userSpaceOnUse">
<stop stop-color="#45A3D9"/>
<stop offset="1" stop-color="#45D9D0"/>
</linearGradient>
</defs>
</svg>
