<svg width="122" height="122" viewBox="0 0 122 122" fill="none" xmlns="http://www.w3.org/2000/svg">
<path d="M104.29 55.0964H112.161V120.031H104.29V55.0964ZM88.548 64.935H96.4189V120.031H88.548V64.935ZM72.8062 94.4509H80.6771V120.031H72.8062V94.4509ZM57.0645 86.58H64.9353V120.031H57.0645V86.58Z" fill="#B4DD7F"/>
<path d="M120.031 45.2577C120.031 47.4311 118.268 49.1932 116.095 49.1932C113.922 49.1932 112.16 47.4311 112.16 45.2577C112.16 43.0844 113.922 41.3223 116.095 41.3223C118.268 41.3223 120.031 43.0844 120.031 45.2577ZM92.4824 45.2577C92.4824 47.4311 90.7203 49.1932 88.547 49.1932C86.3736 49.1932 84.6115 47.4311 84.6115 45.2577C84.6115 43.0844 86.3736 41.3223 88.547 41.3223C90.7203 41.3223 92.4824 43.0844 92.4824 45.2577ZM70.8375 72.8058C73.002 72.8058 74.7729 74.5768 74.7729 76.7412C74.7729 78.9057 73.002 80.6767 70.8375 80.6767C68.673 80.6767 66.902 78.9057 66.902 76.7412C66.902 75.5606 67.4333 74.4784 68.2799 73.7503C68.991 73.138 69.8991 72.8026 70.8375 72.8058ZM62.9666 62.9672C62.9666 64.1478 62.4353 65.2301 61.5887 65.9581C60.8776 66.5705 59.9695 66.9058 59.0311 66.9026C57.9494 66.9026 56.9655 66.4693 56.2564 65.7419C55.5291 65.0328 55.0957 64.049 55.0957 62.9672C55.0957 60.8027 56.8667 59.0318 59.0311 59.0318C61.1956 59.0318 62.9666 60.8027 62.9666 62.9672Z" fill="#FF826E"/>
<path d="M42.4829 86.3827C43.441 88.0038 44.1633 89.753 44.6282 91.5777L49.1931 92.4829V100.354L44.6282 101.259C44.1633 103.084 43.441 104.833 42.4829 106.454L45.0606 110.33L39.492 115.899L35.6161 113.321C33.995 114.279 32.2458 115.001 30.421 115.466L29.5159 120.031H21.645L20.7398 115.466C18.9152 115.001 17.166 114.279 15.5451 113.321L11.6689 115.899L6.10023 110.33L8.67795 106.454C7.71987 104.833 6.99752 103.084 6.53264 101.259L1.96777 100.354V92.4829L6.53264 91.5777C6.99754 89.7531 7.71989 88.0039 8.67795 86.3829L6.10023 82.5068L11.6689 76.9381L15.5448 79.5158C17.1659 78.5577 18.9151 77.8352 20.7398 77.3703L21.645 72.8057H29.5159L30.421 77.3703C32.2457 77.8353 33.9948 78.5577 35.6158 79.5158L39.492 76.9381L42.2869 79.7323L45.0606 82.5068L42.4829 86.3827ZM37.3868 96.4181C37.3868 89.9049 32.0936 84.6117 25.5804 84.6117C19.0673 84.6117 13.7741 89.9049 13.7741 96.4181C13.7741 102.931 19.0673 108.224 25.5804 108.224C32.0936 108.224 37.3868 102.931 37.3868 96.4181Z" fill="#FFC729"/>
<path d="M25.5807 84.6123C32.0939 84.6123 37.3871 89.9055 37.3871 96.4186C37.3871 102.932 32.0939 108.225 25.5807 108.225C19.0676 108.225 13.7744 102.932 13.7744 96.4186C13.7744 89.9055 19.0676 84.6123 25.5807 84.6123ZM29.5162 96.4186C29.5162 94.2541 27.7452 92.4832 25.5807 92.4832C23.4162 92.4832 21.6453 94.2541 21.6453 96.4186C21.6453 98.5831 23.4162 100.354 25.5807 100.354C27.7452 100.354 29.5162 98.5831 29.5162 96.4186Z" fill="#FCD770"/>
<path d="M41.3222 64.9348H31.4836L29.5159 47.2253L33.4321 35.4583C33.4513 35.4391 33.4513 35.4189 33.4513 35.4189L47.5205 39.6301C50.8457 40.6332 53.1285 43.7031 53.1285 47.1859V64.9348H41.3222ZM21.6642 35.4583L25.5804 47.2253L23.6127 64.9348H1.96777V47.1859C1.96777 43.7031 4.25058 40.6334 7.57578 39.6301L21.645 35.4189C21.645 35.4189 21.645 35.4391 21.6642 35.4583Z" fill="#E6E9ED"/>
<path d="M29.5158 47.2255L31.4835 64.935H23.6126L25.5803 47.2255H29.5158ZM33.432 35.4585L29.5158 47.2255H25.5803L21.6641 35.4585C21.9004 35.8919 23.849 39.3546 27.548 39.3546C31.2471 39.3546 33.1954 35.8919 33.432 35.4585Z" fill="#FF826E"/>
<path d="M43.2897 7.87094L42.3058 9.83866C41.5712 11.3077 40.5072 12.5872 39.1968 13.5773C38.941 13.7741 38.6461 13.9709 38.3704 14.148C36.7177 15.1712 34.7694 15.7418 32.7429 15.7418C30.637 15.7418 28.5713 15.1124 26.8196 13.951L23.6124 11.8061L23.1992 12.0226C20.8771 13.1639 18.3586 13.7739 15.7607 13.7739C15.8203 10.5468 17.1588 7.63457 19.283 5.50943C21.4679 3.32526 24.4782 1.96753 27.8236 1.96753C30.2046 1.96753 32.5461 2.67591 34.5328 3.99428C36.4218 5.25362 38.4884 6.27684 40.6532 6.98522L43.2897 7.87094Z" fill="#B27946"/>
<path d="M27.4892 31.4837C29.6731 31.4837 31.6993 30.9131 33.4509 29.8899V35.4192C33.4509 35.4192 33.4509 35.4394 33.4317 35.4585C33.1953 35.8919 31.2468 39.3546 27.5477 39.3546C23.8486 39.3546 21.9003 35.8919 21.6637 35.4585C21.6445 35.4394 21.6445 35.4192 21.6445 35.4192V30.0665C23.345 30.9993 25.2538 31.4868 27.1933 31.4837H27.4892Z" fill="#F0D0B4"/>
<path d="M39.3545 13.7741V19.6773C39.3545 24.0259 36.9927 27.8433 33.4513 29.8898C31.6998 30.913 29.6733 31.4836 27.4896 31.4836H27.1937C25.1867 31.4836 23.2976 30.9725 21.645 30.0664C18.1228 28.0986 15.7227 24.341 15.7227 20.0116L15.7418 14.0498C15.7418 13.951 15.7418 13.872 15.761 13.7741C18.3592 13.7741 20.8771 13.1641 23.1995 12.0226L23.6127 11.8062L26.8201 13.951C28.5714 15.1124 30.6372 15.7416 32.7432 15.7416C34.7695 15.7416 36.718 15.171 38.3706 14.1477C38.6464 13.9711 38.9413 13.7739 39.1971 13.5771L39.3545 13.7741Z" fill="#F0D0B4"/>
<path d="M120.031 3.93525V23.6125C120.031 24.6942 119.145 25.5802 118.064 25.5802H108.225L100.354 31.4833V25.5802H90.5155V11.8061C90.5155 10.7241 89.6295 9.83841 88.5477 9.83841H84.6123V3.93525C84.6123 2.85325 85.4983 1.96753 86.58 1.96753H118.064C119.145 1.96753 120.031 2.85325 120.031 3.93525Z" fill="#FCD770"/>
<path d="M55.0957 31.4838V11.8066C55.0957 10.7246 55.9817 9.83887 57.0634 9.83887H88.547C89.6287 9.83887 90.5147 10.7246 90.5147 11.8066V31.4838C90.5147 32.5656 89.6287 33.4515 88.547 33.4515H72.8052L64.9343 39.3547V33.4515H57.0634C55.9817 33.4515 55.0957 32.5656 55.0957 31.4838Z" fill="#B4DD7F"/>
<path d="M25.5807 82.6445C22.7118 82.6445 19.9552 83.5285 17.605 85.2001L19.8878 88.4065C21.5665 87.2111 23.5343 86.58 25.5807 86.58C31.0055 86.58 35.4193 90.9938 35.4193 96.4186C35.4193 98.465 34.7882 100.433 33.5928 102.111L36.7989 104.394C38.4707 102.044 39.3547 99.2875 39.3547 96.4186C39.3547 88.8254 33.1739 82.6445 25.5807 82.6445ZM25.5807 106.257C20.1559 106.257 15.7421 101.843 15.7421 96.4186C15.7421 94.3722 16.3732 92.4044 17.5686 90.7257L14.3625 88.4432C12.6906 90.7929 11.8066 93.5491 11.8066 96.4183C11.8066 104.012 17.9875 110.192 25.5807 110.192C28.4496 110.192 31.2062 109.308 33.5564 107.637L31.2736 104.43C29.5948 105.626 27.6271 106.257 25.5807 106.257V106.257Z" fill="black"/>
<path d="M116.096 39.3544C113.534 39.3544 111.369 41.0049 110.555 43.2899H94.0866C93.2717 41.0049 91.107 39.3544 88.5455 39.3544C85.2914 39.3544 82.6423 42.0035 82.6423 45.2576C82.6423 46.739 83.2113 48.0796 84.1162 49.118L71.841 70.9408C71.5154 70.883 71.1818 70.838 70.838 70.838C70.0902 70.838 69.3794 70.9917 68.7185 71.2473L64.1278 65.8909C64.6283 65.0251 64.9348 64.0356 64.9348 62.9671C64.9348 59.713 62.2858 57.0639 59.0316 57.0639C57.5145 57.0639 56.1435 57.6557 55.0962 58.5983V47.1781C55.0962 42.7999 52.2782 39.0123 48.0852 37.7527L35.419 33.9548V30.9466C38.9825 28.4513 41.3221 24.3351 41.3221 19.6772V14.3781C42.4506 13.3325 43.3812 12.0918 44.0691 10.7157L46.0666 6.72346L41.2693 5.12371C39.2728 4.45883 37.3736 3.53118 35.6219 2.36521C33.3146 0.820839 30.6001 -0.00245739 27.8236 5.50969e-06C20.0769 5.50969e-06 13.7701 6.30065 13.7667 14.0478L13.7627 20.0115C13.7608 23.6011 15.1559 26.9755 17.6945 29.5139C18.3024 30.1208 18.9662 30.6689 19.6772 31.151V33.9548L7.01099 37.7547C2.81802 39.0123 0 42.7999 0 47.1801V66.9025H52.3138L42.2782 76.9379L39.7465 74.4055L35.5294 77.2176C34.4364 76.6505 33.2969 76.1777 32.1235 75.8043L31.1271 70.838H20.0314L19.0352 75.8043C17.8612 76.1761 16.7216 76.649 15.6291 77.2176L11.412 74.4055L3.56723 82.2503L6.3796 86.4673C5.81243 87.5605 5.33953 88.7 4.96604 89.8735L0 90.8716V101.967L4.96628 102.963C5.33825 104.137 5.8112 105.277 6.37984 106.369L3.56748 110.586L11.4123 118.431L15.6294 115.619C16.7225 116.186 17.862 116.659 19.0355 117.032L20.0336 121.998H31.1291L32.1253 117.032C33.2993 116.66 34.439 116.188 35.5314 115.619L39.7485 118.431L47.5933 110.586L44.7812 106.369C45.3482 105.276 45.8211 104.137 46.1945 102.963L51.1608 101.965V90.8696L46.1945 89.8735C45.8226 88.6994 45.3497 87.5598 44.7812 86.4673L47.5933 82.2503L45.0606 79.7205L56.5029 68.2782C57.2725 68.6484 58.1228 68.8703 59.0316 68.8703C59.7794 68.8703 60.4902 68.7165 61.1511 68.461L65.7418 73.8174C65.2413 74.6831 64.9348 75.6727 64.9348 76.7411C64.9348 79.9953 67.5838 82.6443 70.838 82.6443C74.0921 82.6443 76.7411 79.9953 76.7411 76.7411C76.7411 75.2594 76.1725 73.9192 75.2673 72.8807L87.5415 51.0587C87.8701 51.1155 88.2036 51.1608 88.5475 51.1608C91.1089 51.1608 93.2737 49.5101 94.0883 47.2253H110.556C111.371 49.5101 113.536 51.1608 116.098 51.1608C119.352 51.1608 122.001 48.5117 122.001 45.2576C122.001 42.0035 119.35 39.3544 116.096 39.3544ZM27.3415 49.193H27.7527L29.2834 62.9671H25.8108L27.3415 49.193ZM28.0966 45.2576H26.9976L25.5996 41.0663C26.2022 41.2262 26.8476 41.3222 27.5481 41.3222C28.2486 41.3222 28.8943 41.2262 29.4937 41.0663L28.0966 45.2576ZM27.8238 3.93545C29.8289 3.93545 31.7691 4.5233 33.4397 5.63507C35.4803 6.99798 37.6946 8.08087 40.0232 8.85475L40.5151 9.02004C39.0182 11.9544 36.0484 13.7741 32.7527 13.7741C31.0312 13.7751 29.348 13.2656 27.9161 12.3098L23.7568 9.53583L22.3194 10.2536C20.9587 10.9326 19.5013 11.3974 17.9987 11.6315C19.0854 7.21761 23.0794 3.93545 27.8238 3.93545ZM17.6999 15.637C19.6909 15.4237 21.6351 14.8937 23.4589 14.067L25.7321 15.5841C29.17 17.8748 33.7049 18.2782 37.3867 16.842V19.6772C37.3867 25.102 32.9478 29.5158 27.4915 29.5158H27.1954C24.657 29.5158 22.2724 28.528 20.4786 26.7332C18.6855 24.9387 17.6979 22.5518 17.6999 20.0154V15.637ZM27.1937 33.4513H27.4896C28.8778 33.4513 30.2163 33.2407 31.4816 32.8612V34.8761C30.9955 35.6293 29.6398 37.3867 27.5481 37.3867C25.4564 37.3867 24.1007 35.6293 23.6127 34.8761V32.9576C24.7655 33.2764 25.9656 33.4513 27.1937 33.4513ZM3.93544 47.1801C3.93544 44.5514 5.62547 42.2799 8.14268 41.5248L20.3834 37.8526L23.577 47.4356L21.8515 62.9671H15.7418V47.2253H11.8063V62.9671H3.93544V47.1801ZM51.1608 62.9671H43.2899V47.2253H39.3544V62.9671H33.2447L31.5192 47.4356L34.7128 37.8528L46.9535 41.5251C49.4314 42.2664 51.1608 44.5925 51.1608 47.1801V62.9671ZM47.2253 94.094V98.7405L43.0304 99.5785L42.7249 100.78C42.3072 102.422 41.6552 103.996 40.7889 105.452L40.1558 106.516L42.5279 110.08L39.244 113.364L35.6802 110.992L34.6157 111.625C33.16 112.492 31.5866 113.144 29.9443 113.561L28.7423 113.866L27.9045 118.063H23.2585L22.4205 113.868L21.2187 113.563C19.5766 113.145 18.0032 112.493 16.5471 111.627L15.4825 110.994L11.919 113.366L8.63485 110.082L11.0082 106.518L10.3741 105.454C9.50696 103.998 8.85488 102.425 8.43808 100.782L8.13235 99.5802L3.93544 98.7425V94.0962L8.13038 93.2582L8.43587 92.0564C8.85349 90.4143 9.50551 88.8409 10.3719 87.3848L11.005 86.3203L8.63288 82.7567L11.9168 79.4726L15.4803 81.8459L16.5451 81.2118C18.0008 80.3447 19.5742 79.6926 21.2165 79.2758L22.4185 78.9701L23.2563 74.7734H27.9025L28.7405 78.9684L29.9423 79.2738C31.5844 79.6914 33.1578 80.3433 34.6139 81.2096L35.6785 81.8429L39.242 79.4709L42.5261 82.7547L40.1528 86.3183L40.7869 87.3831C41.654 88.8387 42.3061 90.4121 42.7229 92.0544L43.0284 93.2562L47.2253 94.094ZM57.0639 62.9671C57.0639 61.8814 57.9459 60.9994 59.0316 60.9994C60.1173 60.9994 60.9994 61.8814 60.9994 62.9671C60.9994 64.0538 60.1173 64.9348 59.0316 64.9348C57.9459 64.9348 57.0639 64.0538 57.0639 62.9671ZM70.838 78.7089C69.7523 78.7089 68.8702 77.8278 68.8702 76.7411C68.8702 75.6555 69.7523 74.7734 70.838 74.7734C71.9237 74.7734 72.8057 75.6555 72.8057 76.7411C72.8057 77.8278 71.9237 78.7089 70.838 78.7089ZM88.5475 47.2253C87.4618 47.2253 86.5797 46.3443 86.5797 45.2576C86.5797 44.1719 87.4618 43.2899 88.5475 43.2899C89.6332 43.2899 90.5152 44.1719 90.5152 45.2576C90.5152 46.3443 89.6332 47.2253 88.5475 47.2253ZM116.096 47.2253C115.01 47.2253 114.128 46.3443 114.128 45.2576C114.128 44.1719 115.01 43.2899 116.096 43.2899C117.181 43.2899 118.063 44.1719 118.063 45.2576C118.063 46.3443 117.181 47.2253 116.096 47.2253Z" fill="black"/>
<path d="M114.127 53.1285H102.321V118.063H98.3856V62.9671H86.5793V118.063H82.6438V92.4829H70.8375V118.063H66.9021V84.612H55.0957V118.063H51.1603V121.999H121.998V118.063H114.127V53.1285ZM106.257 57.0639H110.192V118.063H106.257V57.0639ZM90.5147 66.9025H94.4502V118.063H90.5147V66.9025ZM74.773 96.4183H78.7084V118.063H74.773V96.4183ZM59.0312 88.5475H62.9666V118.063H59.0312V88.5475ZM43.2894 118.063H47.2249V121.999H43.2894V118.063ZM31.4831 96.4183C31.4831 93.1642 28.834 90.5152 25.5799 90.5152C22.3258 90.5152 19.6768 93.1642 19.6768 96.4183C19.6768 99.6725 22.3258 102.322 25.5799 102.322C28.834 102.322 31.4831 99.6725 31.4831 96.4183ZM23.6122 96.4183C23.6122 95.3327 24.4942 94.4506 25.5799 94.4506C26.6656 94.4506 27.5476 95.3327 27.5476 96.4183C27.5476 97.505 26.6656 98.3861 25.5799 98.3861C24.4942 98.3861 23.6122 97.505 23.6122 96.4183ZM118.063 0H86.5793C84.4089 0 82.6438 1.76505 82.6438 3.93544V7.87089H57.0635C54.8931 7.87089 53.128 9.63593 53.128 11.8063V31.4835C53.128 33.6539 54.8931 35.419 57.0635 35.419H62.9666V43.2899L73.4605 35.419H88.547C90.7174 35.419 92.4824 33.6539 92.4824 31.4835V27.5481H98.3856V35.419L108.879 27.5481H118.063C120.233 27.5481 121.998 25.7831 121.998 23.6127V3.93544C121.998 1.76505 120.233 0 118.063 0ZM88.547 31.4835H72.15L66.9021 35.419V31.4835H57.0635L57.0595 11.8063H88.547V31.4835ZM118.063 23.6127H107.569L102.321 27.5481V23.6127H92.4824V11.8063C92.4824 9.63593 90.7174 7.87089 88.547 7.87089H86.5793V3.93544H118.063V23.6127Z" fill="black"/>
<path d="M100.353 11.8064H104.289V15.7418H100.353V11.8064ZM108.224 11.8064H112.16V15.7418H108.224V11.8064ZM60.999 15.7418H84.6117V19.6773H60.999V15.7418ZM60.999 23.6127H84.6117V27.5482H60.999V23.6127Z" fill="black"/>
</svg>
