<svg width="28" height="28" viewBox="0 0 28 28" fill="none" xmlns="http://www.w3.org/2000/svg">
<path d="M18.7585 5.30524H23.5298C22.6667 4.44005 19.7052 1.48134 18.7585 0.53833V5.30524ZM27.1807 12.1961H0.820344C0.367295 12.1961 0 12.5634 0 13.0165V21.9856C0 22.4386 0.367295 22.8059 0.820344 22.8059H27.1807C27.6338 22.8059 28.0011 22.4386 28.0011 21.9856V13.0165C28.0011 12.5634 27.6338 12.1961 27.1807 12.1961ZM9.18785 15.2587H7.82061V20.5636C7.82061 21.0167 7.45332 21.384 7.00027 21.384C6.54722 21.384 6.17992 21.0167 6.17992 20.5636V15.2587H4.81268C4.35963 15.2587 3.99234 14.8914 3.99234 14.4384C3.99234 13.9854 4.35963 13.6181 4.81268 13.6181H9.18785C9.6409 13.6181 10.0082 13.9854 10.0082 14.4384C10.0082 14.8914 9.6409 15.2587 9.18785 15.2587ZM16.6953 21.3316C16.2714 21.4909 15.7982 21.2762 15.639 20.852L15.3458 20.0714H12.6575L12.3615 20.8538C12.2373 21.182 11.9253 21.3841 11.5941 21.3841C11.0249 21.3841 10.6229 20.8129 10.827 20.2733C13.2161 13.957 13.1121 14.2315 13.1187 14.2154C13.1906 14.0385 13.3138 13.8871 13.4724 13.7806C13.631 13.6742 13.8177 13.6175 14.0087 13.618C14.4241 13.618 14.7754 13.8806 14.9073 14.2375L17.1749 20.2751C17.3341 20.6993 17.1195 21.1723 16.6953 21.3316ZM23.1891 21.384C23.0584 21.3842 22.9295 21.3531 22.8132 21.2934C22.697 21.2336 22.5967 21.1469 22.5208 21.0404L21.0008 18.9124L19.4808 21.0404C19.4048 21.1468 19.3046 21.2336 19.1883 21.2933C19.0721 21.3531 18.9432 21.3842 18.8125 21.384C18.1527 21.384 17.756 20.6323 18.1457 20.0868L19.9927 17.501L18.1457 14.9152C17.8823 14.5466 17.9677 14.0342 18.3364 13.7709C18.705 13.5075 19.2174 13.5929 19.4808 13.9616L21.0008 16.0896L22.5208 13.9616C22.7842 13.593 23.2967 13.5076 23.6652 13.7709C24.0339 14.0342 24.1193 14.5465 23.8559 14.9152L22.0089 17.501L23.8559 20.0868C24.2456 20.6324 23.8488 21.384 23.1891 21.384ZM3.99234 26.3607C3.99234 27.2654 4.72835 28.0014 5.63303 28.0014H22.368C23.2727 28.0014 24.0087 27.2654 24.0087 26.3607V24.4466H3.99234V26.3607Z" fill="url(#paint0_linear_2095_11435)"/>
<path d="M24.0086 6.94582H17.938C17.485 6.94582 17.1177 6.57852 17.1177 6.12547V0.000347067C15.8664 -0.000363898 12.8649 0.000237688 5.63288 0.000237688C4.7282 0.000237688 3.99219 0.79094 3.99219 1.69561V10.5553H24.0086V6.94582ZM12.2503 8.69588H8.31266C7.85962 8.69588 7.49232 8.32859 7.49232 7.87554C7.49232 7.42249 7.85962 7.05519 8.31266 7.05519H12.2503C12.7034 7.05519 13.0707 7.42249 13.0707 7.87554C13.0707 8.32859 12.7034 8.69588 12.2503 8.69588ZM12.2503 5.19575H8.31266C7.85962 5.19575 7.49232 4.82845 7.49232 4.3754C7.49232 3.92236 7.85962 3.55506 8.31266 3.55506H12.2503C12.7034 3.55506 13.0707 3.92236 13.0707 4.3754C13.0707 4.82845 12.7034 5.19575 12.2503 5.19575ZM13.2779 18.4306H14.7294L14.0062 16.5051L13.2779 18.4306Z" fill="url(#paint1_linear_2095_11435)"/>
<defs>
<linearGradient id="paint0_linear_2095_11435" x1="24.3209" y1="-6.02163" x2="-2.54139" y2="28.012" gradientUnits="userSpaceOnUse">
<stop stop-color="#45A3D9"/>
<stop offset="1" stop-color="#45D9D0"/>
</linearGradient>
<linearGradient id="paint1_linear_2095_11435" x1="21.3778" y1="-4.40242" x2="3.646" y2="19.5274" gradientUnits="userSpaceOnUse">
<stop stop-color="#45A3D9"/>
<stop offset="1" stop-color="#45D9D0"/>
</linearGradient>
</defs>
</svg>
