<svg width="157" height="118" viewBox="0 0 157 118" fill="none" xmlns="http://www.w3.org/2000/svg">
<path d="M1 29C1 15.8007 1 9.20101 5.15411 5.10051C9.30821 1 15.9941 1 29.366 1H127.634C141.006 1 147.692 1 151.846 5.10051C156 9.20101 156 15.8007 156 29V89C156 102.199 156 108.799 151.846 112.9C147.692 117 141.006 117 127.634 117H29.366C15.9941 117 9.30821 117 5.15411 112.9C1 108.799 1 102.199 1 89V29Z" fill="#48CF51"/>
<path d="M12.2136 85.5756C8.81418 88.6982 5.41481 90.976 3.71513 92.1149C2.652 92.8273 2.01544 94.0132 2.01544 95.2816V101.371C2.96447 114.634 7.93287 115.167 16.1872 116.43C17.2906 116.598 18.4056 116.687 19.5218 116.68L138.778 115.999C155.34 117.999 156.067 105.453 155.981 94.9993L156 53.549C155.993 52.6718 153.94 52.9538 153.287 53.549C151.588 55.0987 148.188 58.1981 144.789 64.8723C141.39 71.5466 137.99 81.7956 134.591 83.1251C131.192 84.4545 127.792 76.8644 124.393 71.1314C120.993 65.3984 117.594 61.5226 114.195 60.6728C110.795 59.8229 107.396 61.999 103.997 66.1172C100.597 70.2354 97.1978 76.2957 93.7984 81.3695C90.3991 86.4434 86.9997 90.5307 83.6003 88.8124C80.201 87.0941 76.8016 79.5701 73.4022 76.8362C70.0028 74.1022 66.6035 76.1584 63.2041 79.8913C59.8047 83.6242 56.4054 89.0338 53.006 93.1348C49.6066 97.2358 46.2073 100.028 42.8079 97.9132C39.4085 95.7982 36.0091 88.7759 32.6098 84.0588C29.2104 79.3416 25.811 76.9298 22.4117 77.7076C19.0123 78.4854 15.6129 82.4529 12.2136 85.5756Z" fill="url(#paint0_linear_2002_603)"/>
<path d="M3.71513 92.1149L3.99345 92.5303L3.99345 92.5303L3.71513 92.1149ZM93.7984 81.3695L93.3831 81.0912L93.3831 81.0912L93.7984 81.3695ZM103.997 66.1172L103.611 65.7989L103.611 65.7989L103.997 66.1172ZM134.591 83.1251L134.409 82.6594L134.409 82.6594L134.591 83.1251ZM144.789 64.8723L145.235 65.0993L144.789 64.8723ZM153.287 53.549L152.951 53.1795L152.951 53.1795L153.287 53.549ZM156 53.549L156.5 53.5492L156.5 53.5449L156 53.549ZM155.981 94.9993L155.481 94.999L155.481 95.0034L155.981 94.9993ZM138.778 115.999L138.838 115.503L138.807 115.499L138.775 115.499L138.778 115.999ZM2.01544 101.371H1.51544V101.389L1.51672 101.407L2.01544 101.371ZM19.5218 116.68L19.5246 117.18L19.5218 116.68ZM29.366 1.5H127.634V0.5H29.366V1.5ZM155.5 29V89H156.5V29H155.5ZM127.634 116.5H29.366V117.5H127.634V116.5ZM1.5 89V29H0.5V89H1.5ZM29.366 116.5C22.6661 116.5 17.6909 116.499 13.8692 115.992C10.0612 115.486 7.47378 114.487 5.50536 112.544L4.80286 113.255C6.98854 115.413 9.82112 116.463 13.7376 116.983C17.6404 117.501 22.694 117.5 29.366 117.5V116.5ZM0.5 89C0.5 95.5854 0.498911 100.575 1.02384 104.429C1.55082 108.298 2.61628 111.097 4.80286 113.255L5.50536 112.544C3.53783 110.602 2.52624 108.05 2.01469 104.294C1.50109 100.524 1.5 95.614 1.5 89H0.5ZM155.5 89C155.5 95.614 155.499 100.524 154.985 104.294C154.474 108.05 153.462 110.602 151.495 112.544L152.197 113.255C154.384 111.097 155.449 108.298 155.976 104.429C156.501 100.575 156.5 95.5854 156.5 89H155.5ZM127.634 117.5C134.306 117.5 139.36 117.501 143.262 116.983C147.179 116.463 150.011 115.413 152.197 113.255L151.495 112.544C149.526 114.487 146.939 115.486 143.131 115.992C139.309 116.499 134.334 116.5 127.634 116.5V117.5ZM127.634 1.5C134.334 1.5 139.309 1.50104 143.131 2.00822C146.939 2.51358 149.526 3.51332 151.495 5.45635L152.197 4.74466C150.011 2.58719 147.179 1.53667 143.262 1.01691C139.36 0.498965 134.306 0.5 127.634 0.5V1.5ZM156.5 29C156.5 22.4147 156.501 17.4247 155.976 13.5707C155.449 9.70168 154.384 6.90303 152.197 4.74466L151.495 5.45635C153.462 7.39849 154.474 9.94992 154.985 13.7057C155.499 17.4765 155.5 22.386 155.5 29H156.5ZM29.366 0.5C22.694 0.5 17.6404 0.498965 13.7376 1.01691C9.82112 1.53667 6.98854 2.58719 4.80286 4.74466L5.50536 5.45635C7.47378 3.51332 10.0612 2.51358 13.8692 2.00822C17.6909 1.50104 22.6661 1.5 29.366 1.5V0.5ZM1.5 29C1.5 22.386 1.50109 17.4765 2.01469 13.7057C2.52624 9.94992 3.53783 7.39848 5.50536 5.45635L4.80286 4.74466C2.61628 6.90303 1.55082 9.70168 1.02384 13.5707C0.498911 17.4247 0.5 22.4147 0.5 29H1.5ZM3.99345 92.5303C5.69519 91.39 9.12215 89.0943 12.5518 85.9438L11.8753 85.2073C8.50622 88.3022 5.13443 90.562 3.4368 91.6995L3.99345 92.5303ZM12.5518 85.9438C13.4079 85.1573 14.2645 84.3173 15.111 83.4973C15.9605 82.6744 16.802 81.8696 17.6409 81.1394C19.3315 79.6679 20.9519 78.5545 22.5232 78.195L22.3001 77.2202C20.4721 77.6385 18.6931 78.8978 16.9843 80.3851C16.1235 81.1344 15.2653 81.9556 14.4152 82.7791C13.562 83.6055 12.7189 84.4325 11.8753 85.2073L12.5518 85.9438ZM22.5232 78.195C24.0605 77.8432 25.6234 78.2011 27.2399 79.2429C28.8658 80.2907 30.5225 82.0176 32.2041 84.3511L33.0154 83.7664C31.2976 81.3828 29.555 79.5452 27.7816 78.4023C25.9986 77.2532 24.1622 76.7941 22.3001 77.2202L22.5232 78.195ZM32.2041 84.3511C33.897 86.7002 35.567 89.5894 37.2899 92.2347C38.1435 93.5453 39.0052 94.7869 39.8728 95.8378C40.7372 96.885 41.6273 97.7676 42.5437 98.3377L43.072 97.4887C42.2887 97.0013 41.4792 96.213 40.6439 95.2012C39.8118 94.1932 38.9739 92.9879 38.1278 91.6889C36.4513 89.115 34.7219 86.1344 33.0154 83.7664L32.2041 84.3511ZM42.5437 98.3377C44.4338 99.5137 46.3326 99.3038 48.1502 98.2918C49.9359 97.2976 51.6848 95.5121 53.3909 93.4539L52.6211 92.8157C50.9278 94.8585 49.2774 96.5197 47.6637 97.4181C46.0819 98.2989 44.5813 98.4277 43.072 97.4887L42.5437 98.3377ZM53.3909 93.4539C55.1032 91.3882 56.8146 88.9941 58.5091 86.6696C60.2101 84.3362 61.8949 82.0716 63.5738 80.228L62.8344 79.5547C61.1139 81.444 59.3994 83.7506 57.701 86.0805C55.9962 88.4192 54.3082 90.7804 52.6211 92.8157L53.3909 93.4539ZM63.5738 80.228C65.2604 78.3759 66.8942 77.0025 68.4791 76.4067C69.2624 76.1123 70.0245 76.0114 70.7752 76.1292C71.5256 76.2469 72.2961 76.5882 73.0889 77.2258L73.7156 76.4465C72.8086 75.7171 71.8794 75.2902 70.9302 75.1413C69.9812 74.9923 69.0437 75.1262 68.1272 75.4707C66.3127 76.1527 64.5472 77.6739 62.8344 79.5547L63.5738 80.228ZM73.0889 77.2258C73.8904 77.8704 74.7109 78.8143 75.5539 79.922C76.3954 81.0278 77.2361 82.2649 78.0911 83.4911C78.9409 84.7098 79.8035 85.9155 80.6715 86.9264C81.5341 87.931 82.4357 88.784 83.3748 89.2586L83.8259 88.3662C83.0652 87.9817 82.2672 87.2498 81.4301 86.2749C80.5984 85.3063 79.7613 84.138 78.9114 82.9191C78.0668 81.7079 77.2077 80.4439 76.3496 79.3164C75.4929 78.1907 74.6137 77.1688 73.7156 76.4465L73.0889 77.2258ZM83.3748 89.2586C85.341 90.2526 87.2614 89.513 89.0228 88.0194C90.7812 86.5283 92.5144 84.1844 94.2138 81.6478L93.3831 81.0912C91.6831 83.6285 90.017 85.8652 88.376 87.2567C86.738 88.6457 85.259 89.0906 83.8259 88.3662L83.3748 89.2586ZM94.2138 81.6478C95.9173 79.1052 97.6271 76.3058 99.319 73.6539C101.018 70.9916 102.703 68.4692 104.382 66.4355L103.611 65.7989C101.89 67.8833 100.177 70.4502 98.476 73.116C96.7685 75.7923 95.079 78.56 93.3831 81.0912L94.2138 81.6478ZM104.382 66.4355C107.77 62.3315 110.985 60.3857 114.073 61.1578L114.316 60.1877C110.605 59.26 107.022 61.6665 103.611 65.7989L104.382 66.4355ZM114.073 61.1578C115.642 61.55 117.263 62.6562 118.931 64.415C120.595 66.1693 122.273 68.5366 123.963 71.3864L124.823 70.8764C123.113 67.9932 121.392 65.5562 119.656 63.7268C117.925 61.902 116.146 60.6453 114.316 60.1877L114.073 61.1578ZM123.963 71.3864C125.636 74.2078 127.37 77.5969 129.081 80.0618C129.94 81.2989 130.829 82.3586 131.748 83.0234C132.679 83.6961 133.709 84.0068 134.773 83.5907L134.409 82.6594C133.773 82.9081 133.103 82.7685 132.334 82.2129C131.554 81.6492 130.743 80.7023 129.903 79.4915C128.215 77.0604 126.549 73.7879 124.823 70.8764L123.963 71.3864ZM134.773 83.5907C135.774 83.1992 136.696 82.1953 137.554 80.9316C138.426 79.6477 139.288 78.0061 140.141 76.2183C140.995 74.4287 141.849 72.4715 142.697 70.5554C143.547 68.6347 144.392 66.7542 145.235 65.0993L144.343 64.6454C143.487 66.3276 142.632 68.231 141.782 70.1507C140.931 72.075 140.085 74.0146 139.239 75.7877C138.392 77.5626 137.555 79.1497 136.727 80.37C135.885 81.6104 135.107 82.3862 134.409 82.6594L134.773 83.5907ZM145.235 65.0993C148.596 58.4995 151.948 55.447 153.624 53.9185L152.951 53.1795C151.228 54.7504 147.781 57.8967 144.343 64.6454L145.235 65.0993ZM155.5 53.5488L155.481 94.999L156.481 94.9995L156.5 53.5492L155.5 53.5488ZM138.775 115.499L19.5189 116.18L19.5246 117.18L138.781 116.499L138.775 115.499ZM2.51544 101.371V95.2816H1.51544V101.371H2.51544ZM16.2628 115.935C14.1882 115.618 12.3614 115.352 10.752 114.926C9.14955 114.501 7.79908 113.926 6.67761 113.013C4.44977 111.198 2.98587 107.928 2.51417 101.336L1.51672 101.407C1.99405 108.078 3.48886 111.705 6.04605 113.788C7.3171 114.824 8.81572 115.447 10.496 115.892C12.1694 116.336 14.059 116.61 16.1116 116.924L16.2628 115.935ZM155.481 95.0034C155.524 100.25 155.353 105.87 153.181 109.934C152.106 111.945 150.544 113.567 148.263 114.574C145.973 115.586 142.919 115.996 138.838 115.503L138.718 116.496C142.917 117.003 146.165 116.594 148.667 115.489C151.178 114.38 152.897 112.587 154.063 110.405C156.374 106.082 156.524 100.202 156.481 94.9952L155.481 95.0034ZM153.624 53.9185C153.716 53.8346 153.895 53.7332 154.146 53.648C154.39 53.5654 154.664 53.5108 154.915 53.4959C155.177 53.4805 155.365 53.5107 155.467 53.5545C155.514 53.5744 155.52 53.5876 155.513 53.5787C155.501 53.5637 155.5 53.5482 155.5 53.5531L156.5 53.5449C156.496 53.0731 156.193 52.778 155.863 52.6359C155.557 52.5045 155.191 52.4779 154.856 52.4977C154.512 52.5181 154.15 52.5908 153.825 52.701C153.508 52.8086 153.185 52.9658 152.951 53.1795L153.624 53.9185ZM3.4368 91.6995C2.23664 92.5037 1.51544 93.8447 1.51544 95.2816H2.51544C2.51544 94.1818 3.06736 93.1508 3.99345 92.5303L3.4368 91.6995ZM19.5189 116.18C18.4309 116.187 17.3422 116.101 16.2628 115.935L16.1116 116.924C17.2389 117.096 18.3802 117.187 19.5246 117.18L19.5189 116.18Z" fill="#06D4B4" fill-opacity="0.3"/>
<path d="M135.875 21.8644H128.375" stroke="white" stroke-width="0.75" stroke-linecap="round" stroke-linejoin="round"/>
<path d="M132.85 18.8518C132.85 18.8518 135.875 20.4823 135.875 21.8633C135.875 23.2453 132.85 24.8763 132.85 24.8763" stroke="white" stroke-width="0.75" stroke-linecap="round" stroke-linejoin="round"/>
<defs>
<linearGradient id="paint0_linear_2002_603" x1="78.5014" y1="51.9993" x2="78.5014" y2="116.999" gradientUnits="userSpaceOnUse">
<stop stop-color="white" stop-opacity="0.2"/>
<stop offset="1" stop-color="white" stop-opacity="0"/>
</linearGradient>
</defs>
</svg>
