<svg width="157" height="152" viewBox="0 0 157 152" fill="none" xmlns="http://www.w3.org/2000/svg">
<rect x="1" width="155" height="152" rx="14" fill="#1D86CA"/>
<path d="M135.875 20.8645H128.375" stroke="white" stroke-width="0.75" stroke-linecap="round" stroke-linejoin="round"/>
<path d="M132.85 17.852C132.85 17.852 135.875 19.4825 135.875 20.8635C135.875 22.2455 132.85 23.8765 132.85 23.8765" stroke="white" stroke-width="0.75" stroke-linecap="round" stroke-linejoin="round"/>
<path d="M1 139.416L2.72222 133.858C4.44444 128.3 7.88889 117.184 11.3333 113.434C14.7778 109.683 18.2222 113.297 21.6667 116.541C25.1111 119.786 28.5556 122.66 32 124.129C35.4444 125.598 38.8889 125.661 42.3333 124.706C45.7778 123.75 49.2222 121.774 52.6667 121.05C56.1111 120.325 59.5556 120.852 63 122.867C66.4444 124.882 69.8889 128.385 73.3333 125.067C76.7778 121.75 80.2222 111.611 83.6667 105.841C87.1111 100.071 90.5556 98.6698 94 98.0794C97.4444 97.489 100.889 97.7096 104.333 97.7823C107.778 97.8549 111.222 97.7796 114.667 98.9284C118.111 100.077 121.556 102.45 125 103.701C128.444 104.951 131.889 105.079 135.333 106.194C138.778 107.308 142.222 109.409 145.667 104.208C149.111 99.0066 152.556 86.5029 154.278 80.2511L156 73.9993" stroke="#1D86CA" stroke-opacity="0.3"/>
<path d="M2.72222 133.858L1 139.416V151.999H156V73.9993L154.278 80.2511L154.278 80.2512C152.555 86.5031 149.111 99.0066 145.667 104.208C142.222 109.409 138.778 107.308 135.333 106.194C131.889 105.079 128.444 104.951 125 103.701C121.556 102.45 118.111 100.077 114.667 98.9284C111.222 97.7796 107.778 97.8549 104.333 97.7823C100.889 97.7096 100.944 114.409 97.5 114.999C94.0556 115.59 87.1111 100.071 83.6667 105.841C80.2222 111.611 76.7778 121.75 73.3333 125.067C69.8889 128.385 66.4444 124.882 63 122.867C59.5556 120.852 56.1111 120.325 52.6667 121.05C49.2222 121.774 45.7778 123.75 42.3333 124.706C38.8889 125.661 35.4444 125.598 32 124.129C28.5556 122.66 25.1111 119.786 21.6667 116.541C18.2222 113.297 14.7778 109.683 11.3333 113.434C7.88889 117.184 4.44444 128.3 2.72222 133.858Z" fill="url(#paint0_linear_4021_687)" fill-opacity="0.2"/>
<defs>
<linearGradient id="paint0_linear_4021_687" x1="78.5" y1="73.9993" x2="78.5" y2="151.999" gradientUnits="userSpaceOnUse">
<stop stop-color="white"/>
<stop offset="1" stop-color="white" stop-opacity="0"/>
</linearGradient>
</defs>
</svg>
