<svg width="156" height="153" viewBox="0 0 156 153" fill="none" xmlns="http://www.w3.org/2000/svg">
<rect x="1" width="155" height="152" rx="14" fill="#66D265"/>
<path d="M2.71111 135.064L1 140.456V152.662H155V77L153.289 83.0644C151.578 89.1288 148.156 101.258 144.733 106.303C141.311 111.349 137.889 109.311 134.467 108.229C131.044 107.148 127.622 107.024 124.2 105.811C120.778 104.598 117.356 102.296 113.933 101.182C110.511 100.068 107.089 100.141 103.667 100.07C100.244 99.9996 96.8222 99.7856 93.4 100.358C89.9778 100.931 86.5556 102.29 83.1333 107.887C79.7111 113.484 76.2889 123.319 72.8667 126.537C69.4444 129.756 66.0222 126.357 62.6 124.403C59.1778 122.448 55.7556 121.937 52.3333 122.64C48.9111 123.343 45.4889 125.259 42.0667 126.186C38.6444 127.114 35.2222 127.052 31.8 125.627C28.3778 124.202 24.9556 121.414 21.5333 118.267C18.1111 115.12 14.6889 111.614 11.2667 115.252C7.84445 118.891 4.42222 129.673 2.71111 135.064Z" fill="url(#paint0_linear_2002_604)" fill-opacity="0.2"/>
<path d="M1 140.456L2.71111 135.064C4.42222 129.673 7.84444 118.891 11.2667 115.252C14.6889 111.614 18.1111 115.12 21.5333 118.267C24.9556 121.414 28.3778 124.202 31.8 125.627C35.2222 127.052 38.6444 127.114 42.0667 126.186C45.4889 125.259 48.9111 123.343 52.3333 122.64C55.7556 121.937 59.1778 122.448 62.6 124.403C66.0222 126.357 69.4444 129.756 72.8667 126.537C76.2889 123.319 79.7111 113.484 83.1333 107.887C86.5556 102.29 89.9778 100.931 93.4 100.358C96.8222 99.7856 100.244 99.9996 103.667 100.07C107.089 100.141 110.511 100.068 113.933 101.182C117.356 102.296 120.778 104.598 124.2 105.811C127.622 107.024 131.044 107.148 134.467 108.229C137.889 109.311 141.311 111.349 144.733 106.303C148.156 101.258 151.578 89.1288 153.289 83.0644L155 77" stroke="#66D265"/>
<path d="M141.875 18.8641H134.375" stroke="white" stroke-width="0.75" stroke-linecap="round" stroke-linejoin="round"/>
<path d="M138.85 15.8515C138.85 15.8515 141.875 17.482 141.875 18.863C141.875 20.245 138.85 21.876 138.85 21.876" stroke="white" stroke-width="0.75" stroke-linecap="round" stroke-linejoin="round"/>
<defs>
<linearGradient id="paint0_linear_2002_604" x1="78" y1="77" x2="78" y2="152.662" gradientUnits="userSpaceOnUse">
<stop stop-color="white"/>
<stop offset="1" stop-color="white" stop-opacity="0"/>
</linearGradient>
</defs>
</svg>
