<svg width="155" height="116" viewBox="0 0 155 116" fill="none" xmlns="http://www.w3.org/2000/svg">
<path d="M0 28C0 14.8007 0 8.20101 4.15411 4.10051C8.30821 0 14.9941 0 28.366 0H126.634C140.006 0 146.692 0 150.846 4.10051C155 8.20101 155 14.8007 155 28V88C155 101.199 155 107.799 150.846 111.9C146.692 116 140.006 116 126.634 116H28.366C14.9941 116 8.30821 116 4.15411 111.9C0 107.799 0 101.199 0 88V28Z" fill="#239F85" fill-opacity="0.868"/>
<path d="M11.2136 84.5756C7.81418 87.6982 4.41481 89.976 2.71513 91.1149C1.652 91.8273 1.01544 93.0132 1.01544 94.2816V100.371C1.96447 113.634 6.93287 114.167 15.1872 115.43C16.2906 115.598 17.4056 115.687 18.5218 115.68L137.778 114.999C154.34 116.999 155.067 104.453 154.981 93.9993L155 52.549C154.993 51.6718 152.94 51.9538 152.287 52.549C150.588 54.0987 147.188 57.1981 143.789 63.8723C140.39 70.5466 136.99 80.7956 133.591 82.1251C130.192 83.4545 126.792 75.8644 123.393 70.1314C119.993 64.3984 116.594 60.5226 113.195 59.6728C109.795 58.8229 106.396 60.999 102.997 65.1172C99.5972 69.2354 96.1978 75.2957 92.7984 80.3695C89.3991 85.4434 85.9997 89.5307 82.6003 87.8124C79.201 86.0941 75.8016 78.5701 72.4022 75.8362C69.0028 73.1022 65.6035 75.1584 62.2041 78.8913C58.8047 82.6242 55.4054 88.0338 52.006 92.1348C48.6066 96.2358 45.2073 99.0282 41.8079 96.9132C38.4085 94.7982 35.0091 87.7759 31.6098 83.0588C28.2104 78.3416 24.811 75.9298 21.4117 76.7076C18.0123 77.4854 14.6129 81.4529 11.2136 84.5756Z" fill="url(#paint0_linear_4028_710)"/>
<path d="M134.875 20.8643H127.375" stroke="white" stroke-width="0.75" stroke-linecap="round" stroke-linejoin="round"/>
<path d="M131.85 17.8517C131.85 17.8517 134.875 19.4822 134.875 20.8632C134.875 22.2452 131.85 23.8762 131.85 23.8762" stroke="white" stroke-width="0.75" stroke-linecap="round" stroke-linejoin="round"/>
<defs>
<linearGradient id="paint0_linear_4028_710" x1="77.5014" y1="50.9993" x2="77.5014" y2="115.999" gradientUnits="userSpaceOnUse">
<stop stop-color="white" stop-opacity="0.2"/>
<stop offset="1" stop-color="white" stop-opacity="0"/>
</linearGradient>
</defs>
</svg>
