<svg width="155" height="152" viewBox="0 0 155 152" fill="none" xmlns="http://www.w3.org/2000/svg">
<rect width="155" height="152" rx="14" fill="#A2D382"/>
<path d="M140.875 18.8641H133.375" stroke="white" stroke-width="0.75" stroke-linecap="round" stroke-linejoin="round"/>
<path d="M137.85 15.8515C137.85 15.8515 140.875 17.482 140.875 18.863C140.875 20.245 137.85 21.876 137.85 21.876" stroke="white" stroke-width="0.75" stroke-linecap="round" stroke-linejoin="round"/>
<path d="M1.72222 133.859L0 139.417V152H155V74L153.278 80.2518L153.278 80.252C151.555 86.5038 148.111 99.0073 144.667 104.209C141.222 109.41 137.778 107.309 134.333 106.194C130.889 105.08 127.444 104.952 124 103.701C120.556 102.451 117.111 100.078 113.667 98.9292C110.222 97.7804 106.778 97.8557 103.333 97.783C99.8889 97.7104 99.9444 114.41 96.5 115C93.0556 115.59 86.1111 100.072 82.6667 105.842C79.2222 111.612 75.7778 121.75 72.3333 125.068C68.8889 128.386 65.4444 124.883 62 122.868C58.5556 120.853 55.1111 120.326 51.6667 121.051C48.2222 121.775 44.7778 123.75 41.3333 124.706C37.8889 125.662 34.4444 125.598 31 124.129C27.5556 122.66 24.1111 119.786 20.6667 116.542C17.2222 113.298 13.7778 109.684 10.3333 113.434C6.88889 117.185 3.44444 128.301 1.72222 133.859Z" fill="url(#paint0_linear_2202_123)" fill-opacity="0.2"/>
<defs>
<linearGradient id="paint0_linear_2202_123" x1="77.5" y1="74" x2="77.5" y2="152" gradientUnits="userSpaceOnUse">
<stop stop-color="white"/>
<stop offset="1" stop-color="white" stop-opacity="0"/>
</linearGradient>
</defs>
</svg>
