<svg width="156" height="153" viewBox="0 0 156 153" fill="none" xmlns="http://www.w3.org/2000/svg">
<rect x="1.5" y="0.5" width="154" height="151" rx="13.5" fill="#6CB474" stroke="#6CB474"/>
<path d="M2.71111 134.064L1 139.456V151.662H155V76L153.289 82.0644C151.578 88.1288 148.156 100.258 144.733 105.303C141.311 110.349 137.889 108.311 134.467 107.229C131.044 106.148 127.622 106.024 124.2 104.811C120.778 103.598 117.356 101.296 113.933 100.182C110.511 99.0675 107.089 99.1406 103.667 99.0701C100.244 98.9996 96.8222 98.7856 93.4 99.3583C89.9778 99.931 86.5556 101.29 83.1333 106.887C79.7111 112.484 76.2889 122.319 72.8667 125.537C69.4444 128.756 66.0222 125.357 62.6 123.403C59.1778 121.448 55.7556 120.937 52.3333 121.64C48.9111 122.343 45.4889 124.259 42.0667 125.186C38.6444 126.114 35.2222 126.052 31.8 124.627C28.3778 123.202 24.9556 120.414 21.5333 117.267C18.1111 114.12 14.6889 110.614 11.2667 114.252C7.84445 117.891 4.42222 128.673 2.71111 134.064Z" fill="url(#paint0_linear_2202_2)" fill-opacity="0.2" stroke="#6CB474"/>
<path d="M1 140.456L2.71111 135.064C4.42222 129.673 7.84444 118.891 11.2667 115.252C14.6889 111.614 18.1111 115.12 21.5333 118.267C24.9556 121.414 28.3778 124.202 31.8 125.627C35.2222 127.052 38.6444 127.114 42.0667 126.186C45.4889 125.259 48.9111 123.343 52.3333 122.64C55.7556 121.937 59.1778 122.448 62.6 124.403C66.0222 126.357 69.4444 129.756 72.8667 126.537C76.2889 123.319 79.7111 113.484 83.1333 107.887C86.5556 102.29 89.9778 100.931 93.4 100.358C96.8222 99.7856 100.244 99.9996 103.667 100.07C107.089 100.141 110.511 100.068 113.933 101.182C117.356 102.296 120.778 104.598 124.2 105.811C127.622 107.024 131.044 107.148 134.467 108.229C137.889 109.311 141.311 111.349 144.733 106.303C148.156 101.258 151.578 89.1288 153.289 83.0644L155 77" stroke="#6CB474"/>
<rect x="132.25" y="13.25" width="11.5" height="11.5" stroke="#6CB474" stroke-width="0.5"/>
<path d="M141.875 18.8641H134.375" stroke="white" stroke-width="0.75" stroke-linecap="round" stroke-linejoin="round"/>
<path d="M138.85 15.8515C138.85 15.8515 141.875 17.482 141.875 18.863C141.875 20.245 138.85 21.876 138.85 21.876" stroke="white" stroke-width="0.75" stroke-linecap="round" stroke-linejoin="round"/>
<defs>
<linearGradient id="paint0_linear_2202_2" x1="78" y1="76" x2="78" y2="151.662" gradientUnits="userSpaceOnUse">
<stop stop-color="white"/>
<stop offset="1" stop-color="white" stop-opacity="0"/>
</linearGradient>
</defs>
</svg>
