<svg width="46" height="46" viewBox="0 0 46 46" fill="none" xmlns="http://www.w3.org/2000/svg">
<path d="M45.2578 42.2903V44.5161C45.2578 44.9242 44.924 45.258 44.5159 45.258H1.48363C1.07557 45.258 0.741699 44.9242 0.741699 44.5161V42.2903H45.2578Z" fill="#B27946"/>
<path d="M27.6665 31.9033H36.3546V35.613C36.3546 36.0211 36.6885 36.3549 37.0965 36.3549H44.5159C44.924 36.3549 45.2578 36.0211 45.2578 35.613V42.2904H0.741699V35.613C0.741699 36.0211 1.07557 36.3549 1.48363 36.3549H8.90299C9.31105 36.3549 9.64493 36.0211 9.64493 35.613V31.9033H18.333H27.6665Z" fill="#CF9E76"/>
<path d="M9.64493 22.258V28.9355C9.64493 26.4797 7.64912 24.4839 5.19331 24.4839C2.73751 24.4839 0.741699 26.4797 0.741699 28.9355V22.258C0.741699 21.85 1.07557 21.5161 1.48363 21.5161H8.90299C9.31105 21.5161 9.64493 21.85 9.64493 22.258ZM9.64493 31.9032V35.6129C9.64493 36.021 9.31105 36.3548 8.90299 36.3548H1.48363C1.07557 36.3548 0.741699 36.021 0.741699 35.6129V28.9355C0.741699 31.3913 2.73751 33.3871 5.19331 33.3871C7.64912 33.3871 9.64493 31.3913 9.64493 28.9355V31.9032ZM36.3546 28.9355C36.3546 31.3913 38.3504 33.3871 40.8062 33.3871C43.262 33.3871 45.2578 31.3913 45.2578 28.9355V35.6129C45.2578 36.021 44.924 36.3548 44.5159 36.3548H37.0965C36.6885 36.3548 36.3546 36.021 36.3546 35.6129V31.9032V28.9355ZM45.2578 22.258V28.9355C45.2578 26.4797 43.262 24.4839 40.8062 24.4839C38.3504 24.4839 36.3546 26.4797 36.3546 28.9355V22.258C36.3546 21.85 36.6885 21.5161 37.0965 21.5161H44.5159C44.924 21.5161 45.2578 21.85 45.2578 22.258Z" fill="#969FAA"/>
<path d="M9.64493 28.9355C9.64493 31.3913 7.64912 33.3871 5.19331 33.3871C2.73751 33.3871 0.741699 31.3913 0.741699 28.9355C0.741699 26.4797 2.73751 24.4839 5.19331 24.4839C7.64912 24.4839 9.64493 26.4797 9.64493 28.9355Z" fill="#CCD1D9"/>
<path d="M5.19334 30.4194C6.01286 30.4194 6.67721 29.7551 6.67721 28.9355C6.67721 28.116 6.01286 27.4517 5.19334 27.4517C4.37382 27.4517 3.70947 28.116 3.70947 28.9355C3.70947 29.7551 4.37382 30.4194 5.19334 30.4194Z" fill="#E6E9ED"/>
<path d="M40.8066 24.4839C43.2624 24.4839 45.2582 26.4797 45.2582 28.9355C45.2582 31.3913 43.2624 33.3871 40.8066 33.3871C38.3508 33.3871 36.355 31.3913 36.355 28.9355C36.355 26.4797 38.3508 24.4839 40.8066 24.4839Z" fill="#CCD1D9"/>
<path d="M40.8066 30.4194C41.6261 30.4194 42.2905 29.7551 42.2905 28.9355C42.2905 28.116 41.6261 27.4517 40.8066 27.4517C39.9871 27.4517 39.3228 28.116 39.3228 28.9355C39.3228 29.7551 39.9871 30.4194 40.8066 30.4194Z" fill="#E6E9ED"/>
<path d="M3.70977 5.1936C5.34945 5.1936 6.67751 6.52167 6.67751 8.16135C6.67751 8.2578 6.67009 8.35425 6.66267 8.4507C6.59245 9.18471 6.25083 9.86609 5.70467 10.3615C5.15851 10.8569 4.44713 11.1306 3.70977 11.1291C3.04758 11.1295 2.40426 10.9085 1.88224 10.501C1.36021 10.0936 0.989492 9.52327 0.829087 8.88079C0.668682 8.23832 0.727815 7.56065 0.997072 6.95567C1.26633 6.35069 1.73023 5.85317 2.31493 5.54231C2.73042 5.31973 3.20526 5.1936 3.70977 5.1936Z" fill="#00A7DF"/>
<path d="M10.9953 8.16878C11.0843 8.39878 11.1289 8.64362 11.1289 8.9033C11.1289 10.1349 10.1347 11.1291 8.90305 11.1291C7.67144 11.1291 6.67725 10.1349 6.67725 8.9033C6.67725 8.74749 6.69209 8.5991 6.72176 8.45072C6.92209 7.4862 7.74563 6.75168 8.75467 6.68491C8.8066 6.67749 8.85112 6.67749 8.90305 6.67749C9.41499 6.67749 9.88983 6.85555 10.2608 7.13749C10.6021 7.39717 10.8618 7.7533 10.9953 8.16878ZM39.2779 8.45072C39.3076 8.5991 39.3224 8.74749 39.3224 8.9033C39.3224 10.1349 38.3282 11.1291 37.0966 11.1291C35.865 11.1291 34.8708 10.1349 34.8708 8.9033C34.8708 8.64362 34.9153 8.39136 35.0043 8.16136C35.1453 7.7533 35.405 7.39717 35.7389 7.13749C36.1098 6.85555 36.5847 6.67749 37.0966 6.67749C37.1485 6.67749 37.1931 6.67749 37.245 6.68491C38.254 6.75168 39.0776 7.4862 39.2779 8.45072Z" fill="#00A7DF"/>
<path d="M43.6853 5.54231C44.1379 5.78341 44.5203 6.1377 44.7952 6.57062C45.0701 7.00354 45.228 7.50032 45.2537 8.01249C45.2794 8.52466 45.1718 9.03473 44.9416 9.49296C44.7114 9.95119 44.3663 10.3419 43.9401 10.6271C43.5139 10.9122 43.021 11.082 42.5096 11.1198C41.9982 11.1577 41.4857 11.0624 41.0221 10.8432C40.5585 10.624 40.1596 10.2883 39.8644 9.86904C39.5692 9.44973 39.3877 8.96106 39.3376 8.4507C39.3302 8.35425 39.3228 8.2578 39.3228 8.16135C39.3226 7.64899 39.4552 7.14533 39.7075 6.69941C39.9598 6.2535 40.3233 5.88052 40.7626 5.6168C41.2019 5.35309 41.702 5.20762 42.2142 5.19457C42.7263 5.18151 43.2332 5.30132 43.6853 5.54231Z" fill="#00A7DF"/>
<path d="M40.8065 31.1613C42.0336 31.1613 43.0323 30.1627 43.0323 28.9355C43.0323 27.7084 42.0336 26.7097 40.8065 26.7097C39.5793 26.7097 38.5807 27.7084 38.5807 28.9355C38.5807 30.1627 39.5793 31.1613 40.8065 31.1613ZM40.8065 28.1936C40.9534 28.1934 41.0971 28.2369 41.2194 28.3184C41.3416 28.4 41.4369 28.516 41.4932 28.6517C41.5495 28.7875 41.5643 28.9368 41.5357 29.081C41.507 29.2251 41.4363 29.3575 41.3324 29.4614C41.2285 29.5653 41.0961 29.6361 40.9519 29.6647C40.8078 29.6933 40.6584 29.6786 40.5227 29.6223C40.3869 29.566 40.271 29.4707 40.1894 29.3484C40.1079 29.2262 40.0644 29.0825 40.0645 28.9355C40.0645 28.526 40.3977 28.1936 40.8065 28.1936ZM5.19358 26.7097C3.96642 26.7097 2.96777 27.7084 2.96777 28.9355C2.96777 30.1627 3.96642 31.1613 5.19358 31.1613C6.42074 31.1613 7.41939 30.1627 7.41939 28.9355C7.41939 27.7084 6.42074 26.7097 5.19358 26.7097ZM5.19358 29.6775C5.00255 29.6689 4.82217 29.587 4.69001 29.4488C4.55785 29.3106 4.48409 29.1267 4.48409 28.9355C4.48409 28.7443 4.55785 28.5604 4.69001 28.4222C4.82217 28.284 5.00255 28.2021 5.19358 28.1936C5.38461 28.2021 5.56499 28.284 5.69715 28.4222C5.82931 28.5604 5.90307 28.7443 5.90307 28.9355C5.90307 29.1267 5.82931 29.3106 5.69715 29.4488C5.56499 29.587 5.38461 29.6689 5.19358 29.6775Z" fill="black"/>
<path d="M44.5161 20.7742H37.0968C36.2784 20.7742 35.6129 21.4397 35.6129 22.258V31.1613H28.7886L36.2947 13.6471L34.9311 13.0625L27.1749 31.1613H18.8251L11.0689 13.0625L9.70526 13.6471L17.2114 31.1613H10.3871V22.258C10.3871 21.4397 9.72158 20.7742 8.90323 20.7742H1.48387C0.665516 20.7742 0 21.4397 0 22.258V44.5161C0 45.3345 0.665516 46 1.48387 46H44.5161C45.3345 46 46 45.3345 46 44.5161V22.258C46 21.4397 45.3345 20.7742 44.5161 20.7742ZM17.8473 32.6451L18.6085 34.4213L19.9722 33.8374L19.461 32.6451H26.5383L26.0278 33.8367L27.3915 34.4206L28.1527 32.6451H35.6129V35.6129C35.6129 36.4312 36.2784 37.0968 37.0968 37.0968H44.5161V41.5484H1.48387V37.0968H8.90323C9.72158 37.0968 10.3871 36.4312 10.3871 35.6129V32.6451H17.8473ZM1.48387 22.258H8.90323V25.3081C8.42108 24.8121 7.84435 24.4179 7.20717 24.1486C6.56998 23.8794 5.88528 23.7407 5.19355 23.7407C4.50182 23.7407 3.81711 23.8794 3.17993 24.1486C2.54274 24.4179 1.96602 24.8121 1.48387 25.3081V22.258ZM8.90323 28.9355C8.90323 30.981 7.23906 32.6451 5.19355 32.6451C3.14803 32.6451 1.48387 30.981 1.48387 28.9355C1.48387 26.89 3.14803 25.2258 5.19355 25.2258C7.23906 25.2258 8.90323 26.89 8.90323 28.9355ZM5.19355 34.129C6.64626 34.129 7.95948 33.528 8.90323 32.5628V35.6129H1.48387V32.5628C1.96613 33.0586 2.5429 33.4526 3.18007 33.7216C3.81725 33.9907 4.50191 34.1292 5.19355 34.129ZM1.48387 44.5161V43.0322H44.5161V44.5161H1.48387ZM44.5161 35.6129H37.0968V32.5628C37.5789 33.0588 38.1556 33.4531 38.7928 33.7223C39.43 33.9915 40.1147 34.1303 40.8065 34.1303C41.4982 34.1303 42.1829 33.9915 42.8201 33.7223C43.4573 33.4531 44.034 33.0588 44.5161 32.5628V35.6129ZM37.0968 28.9355C37.0968 26.89 38.7609 25.2258 40.8065 25.2258C42.852 25.2258 44.5161 26.89 44.5161 28.9355C44.5161 30.981 42.852 32.6451 40.8065 32.6451C38.7609 32.6451 37.0968 30.981 37.0968 28.9355ZM40.8065 23.7419C39.3537 23.7419 38.0405 24.3429 37.0968 25.3081V22.258H44.5161V25.3081C44.0339 24.8124 43.4571 24.4183 42.8199 24.1493C42.1827 23.8803 41.4981 23.7418 40.8065 23.7419Z" fill="black"/>
<path d="M23.0001 40.0646C28.3606 40.0646 34.1292 38.9042 34.1292 36.3549C34.1292 35.1819 32.951 34.2426 30.6272 33.5652L30.2117 34.9897C32.1979 35.5692 32.6453 36.185 32.6453 36.3549C32.6453 37.0204 29.3637 38.5807 23.0001 38.5807C16.6365 38.5807 13.355 37.0204 13.355 36.3549C13.355 36.1064 14.0776 35.4119 16.3116 34.8488L15.9495 33.4102C13.2808 34.0823 11.8711 35.1003 11.8711 36.3549C11.8711 38.9042 17.6396 40.0646 23.0001 40.0646Z" fill="black"/>
<path d="M3.70971 8.9033C4.11947 8.9033 4.45164 8.57113 4.45164 8.16137C4.45164 7.75161 4.11947 7.41943 3.70971 7.41943C3.29995 7.41943 2.96777 7.75161 2.96777 8.16137C2.96777 8.57113 3.29995 8.9033 3.70971 8.9033Z" fill="black"/>
<path d="M42.2903 8.9033C42.7 8.9033 43.0322 8.57113 43.0322 8.16137C43.0322 7.75161 42.7 7.41943 42.2903 7.41943C41.8805 7.41943 41.5483 7.75161 41.5483 8.16137C41.5483 8.57113 41.8805 8.9033 42.2903 8.9033Z" fill="black"/>
<path d="M46 1.48387V0H0V1.48387H3.88329L1.76284 5.01771C0.70929 5.67284 0 6.83174 0 8.16129C0 10.2068 1.66416 11.871 3.70968 11.871C4.81516 11.871 5.79823 11.3746 6.47858 10.6045C6.75128 10.9948 7.11401 11.3137 7.53606 11.5342C7.95812 11.7546 8.42707 11.8701 8.90323 11.871C10.5399 11.871 11.871 10.5399 11.871 8.90323H34.129C34.129 10.5399 35.4601 11.871 37.0968 11.871C37.5729 11.8701 38.0419 11.7546 38.4639 11.5342C38.886 11.3137 39.2487 10.9948 39.5214 10.6045C40.2018 11.3746 41.1848 11.871 42.2903 11.871C44.3358 11.871 46 10.2068 46 8.16129C46 6.83174 45.2907 5.67284 44.2372 5.01771L42.1167 1.48387H46ZM38.9397 6.59581C38.7657 6.45515 38.5763 6.33469 38.3751 6.23671L40.8065 2.18426L42.1738 4.46348C41.4904 4.48534 40.8263 4.69618 40.2554 5.07259C39.6845 5.44899 39.2291 5.97624 38.9397 6.59581ZM36.0121 6.14768L33.2135 1.48387H39.4962L36.8074 5.96442C36.5351 5.98839 36.2674 6.05007 36.0121 6.14768ZM9.98868 6.14768C9.73316 6.04988 9.46518 5.98845 9.19258 5.96516L6.50381 1.48387H12.7865L9.98868 6.14768ZM3.82616 4.46348L5.19355 2.18426L7.62487 6.23671C7.4237 6.33469 7.23429 6.45515 7.06026 6.59581C6.77087 5.97624 6.31546 5.44899 5.74456 5.07259C5.17367 4.69618 4.50963 4.48534 3.82616 4.46348ZM23 2.18426L26.1414 7.41935H19.8586L23 2.18426ZM18.5484 6.71897L15.407 1.48387H21.6897L18.5484 6.71897ZM24.3103 1.48387H30.593L27.4516 6.71897L24.3103 1.48387ZM3.70968 10.3871C2.48252 10.3871 1.48387 9.38845 1.48387 8.16129C1.48387 6.93413 2.48252 5.93548 3.70968 5.93548C4.93684 5.93548 5.93548 6.93413 5.93548 8.16129C5.93548 9.38845 4.93684 10.3871 3.70968 10.3871ZM8.90323 10.3871C8.08487 10.3871 7.41935 9.72158 7.41935 8.90323C7.41935 8.08487 8.08487 7.41935 8.90323 7.41935C9.72158 7.41935 10.3871 8.08487 10.3871 8.90323C10.3871 9.72158 9.72158 10.3871 8.90323 10.3871ZM11.4585 7.41935C11.379 7.28346 11.2887 7.15419 11.1884 7.03281L14.0968 2.18426L17.2381 7.41935H11.4585ZM28.7619 7.41935L31.9032 2.18426L34.8124 7.03281C34.7118 7.15426 34.6215 7.2838 34.5423 7.4201H28.7619V7.41935ZM37.0968 10.3871C36.2784 10.3871 35.6129 9.72158 35.6129 8.90323C35.6129 8.08487 36.2784 7.41935 37.0968 7.41935C37.9151 7.41935 38.5806 8.08487 38.5806 8.90323C38.5806 9.72158 37.9151 10.3871 37.0968 10.3871ZM42.2903 10.3871C41.0632 10.3871 40.0645 9.38845 40.0645 8.16129C40.0645 6.93413 41.0632 5.93548 42.2903 5.93548C43.5175 5.93548 44.5161 6.93413 44.5161 8.16129C44.5161 9.38845 43.5175 10.3871 42.2903 10.3871ZM4.48723 12.8548L5.89542 12.3859L8.11974 19.0663L6.71155 19.5352L4.48723 12.8548ZM37.8736 19.0403L40.0979 12.3599L41.5061 12.8288L39.2818 19.5092L37.8736 19.0403Z" fill="black"/>
<path d="M32.8343 11.376L22.9999 22.367L13.1655 11.376L12.0601 12.3657L22.0042 23.4799L20.2213 25.4728L21.3268 26.4625L22.9999 24.5928L24.673 26.4625L25.7784 25.4728L23.9956 23.4799L33.9397 12.3657L32.8343 11.376Z" fill="black"/>
</svg>
