<svg width="51" height="74" viewBox="0 0 51 74" fill="none" xmlns="http://www.w3.org/2000/svg">
<path d="M46.3627 67.3623H49.6163V72.6862H1.10938V67.3623H46.3627Z" fill="#607882"/>
<path d="M47.5456 67.3623V69.137C47.5456 69.9539 46.8835 70.6159 46.0671 70.6159H1.10938V72.6862H49.6163V67.3623H47.5456Z" fill="#495959"/>
<path d="M46.3624 67.3623V9.24319C46.3624 9.24319 40.225 3.77124 25.3624 3.77124C10.4998 3.7711 4.36279 9.24319 4.36279 9.24319V67.3624L46.3624 67.3623Z" fill="#00A6DF"/>
<path d="M25.3627 3.77075C10.4998 3.77075 4.36279 9.2427 4.36279 9.2427V14.123H9.3911V12.0413C12.4703 10.617 17.8689 8.79892 25.3629 8.79892C32.856 8.79892 38.2553 10.6168 41.3343 12.0413V14.1227C41.3343 15.4295 42.394 16.4885 43.7007 16.4885V67.3618H46.3627V9.24284C46.3627 9.24284 40.2253 3.7709 25.3627 3.7709V3.77075Z" fill="#00A7DF"/>
<path d="M47.6347 6.72842C47.2222 6.5043 38.85 1.10889 25.3632 1.10889C11.8764 1.10889 3.50353 6.50444 3.0906 6.72842C2.6702 6.95724 2.31928 7.29518 2.07476 7.70664C1.83025 8.11811 1.70119 8.58789 1.70117 9.06652V14.1229H7.02495V10.5737C9.7793 9.11322 16.0473 6.43281 25.3628 6.43281C34.678 6.43281 40.946 9.11322 43.7008 10.5737V14.1229H49.0247V9.06652C49.0247 8.09205 48.4914 7.19454 47.6345 6.72842H47.6347Z" fill="#DFEDFF"/>
<path d="M47.6347 6.72842C47.2222 6.5043 38.8501 1.10889 25.3633 1.10889C24.9134 1.10889 24.4702 1.11508 24.0322 1.1269C36.7367 1.46302 44.5744 6.51165 44.9735 6.72842C45.3939 6.95723 45.7449 7.29515 45.9894 7.70662C46.234 8.11808 46.363 8.58787 46.3631 9.06652V14.1229H49.025V9.06652C49.025 8.09205 48.4917 7.19454 47.6349 6.72842H47.6347Z" fill="#C0DBFF"/>
<path d="M13.236 29.5027H11.4615C10.6446 29.5027 9.98242 28.8407 9.98242 28.0244V25.0662C9.98242 24.2493 10.6446 23.5872 11.4615 23.5872H13.236C14.053 23.5872 14.7151 24.2493 14.7151 25.0662V28.0244C14.7145 28.8412 14.0524 29.5027 13.236 29.5027Z" fill="#607882"/>
<path d="M13.2362 23.5881H11.4616C11.4554 23.5881 11.4492 23.5887 11.4429 23.5887C12.2509 23.5988 12.9034 24.2565 12.9034 25.0666V28.0248C12.9034 28.8348 12.2509 29.4925 11.443 29.5026C11.4492 29.5026 11.4554 29.5031 11.4616 29.5031H13.2362C14.0531 29.5031 14.7152 28.8411 14.7152 28.0242V25.0666C14.7147 24.2503 14.0525 23.5881 13.2362 23.5881Z" fill="#495959"/>
<path d="M13.236 57.6019H11.4615C10.6446 57.6019 9.98242 56.9399 9.98242 56.1229V53.1648C9.98242 52.3484 10.6446 51.6863 11.4615 51.6863H13.236C14.053 51.6863 14.7151 52.3484 14.7151 53.1648V56.1229C14.7145 56.9399 14.0524 57.6019 13.236 57.6019Z" fill="#607882"/>
<path d="M13.2362 51.6863H11.4616C11.4554 51.6863 11.4492 51.6869 11.4429 51.6869C12.2509 51.6969 12.9034 52.3546 12.9034 53.1648V56.1229C12.9034 56.9329 12.2509 57.5906 11.443 57.6008C11.4492 57.6008 11.4554 57.6014 11.4616 57.6014H13.2362C14.0531 57.6014 14.7152 56.9393 14.7152 56.1229V53.1648C14.7147 52.3484 14.0525 51.6863 13.2362 51.6863Z" fill="#495959"/>
<path d="M1.70083 15.2324H3.2537V41.0385C3.2537 41.3327 3.37055 41.6148 3.57855 41.8228C3.78654 42.0307 4.06864 42.1476 4.36279 42.1476C4.65694 42.1476 4.93904 42.0307 5.14704 41.8228C5.35503 41.6148 5.47188 41.3327 5.47188 41.0385V15.2324H7.02475C7.17043 15.2324 7.31468 15.2037 7.44926 15.148C7.58385 15.0922 7.70614 15.0105 7.80914 14.9075C7.91215 14.8045 7.99386 14.6822 8.04959 14.5476C8.10533 14.4131 8.13401 14.2688 8.13399 14.1231V11.2512C11.168 9.74068 17.02 7.5421 25.3627 7.5421C33.7049 7.5421 39.5568 9.74068 42.5915 11.2512V14.1231C42.5914 14.2688 42.6201 14.413 42.6758 14.5476C42.7316 14.6822 42.8133 14.8045 42.9163 14.9075C43.0193 15.0105 43.1415 15.0922 43.2761 15.1479C43.4107 15.2037 43.5549 15.2324 43.7006 15.2324H45.2534V18.8553C45.2534 19.1494 45.3703 19.4315 45.5783 19.6395C45.7863 19.8475 46.0684 19.9643 46.3625 19.9643C46.6567 19.9643 46.9388 19.8475 47.1468 19.6395C47.3548 19.4315 47.4716 19.1494 47.4716 18.8553V15.2324H49.0245C49.1701 15.2324 49.3144 15.2037 49.4489 15.1479C49.5835 15.0922 49.7058 15.0105 49.8088 14.9075C49.9118 14.8045 49.9935 14.6822 50.0492 14.5476C50.1049 14.413 50.1336 14.2688 50.1336 14.1231V9.06672C50.1336 7.68451 49.3792 6.41557 48.1709 5.7579C48.1529 5.74781 48.1242 5.73095 48.0847 5.70731C45.8356 4.36833 37.5496 0 25.3629 0C21.3964 0 17.4812 0.458914 13.7272 1.3642C13.1319 1.50776 12.7654 2.10677 12.9091 2.70246C13.0528 3.29816 13.6516 3.66468 14.2473 3.52055C17.8314 2.65634 21.5715 2.21833 25.3627 2.21833C36.9835 2.21833 44.8245 6.3474 46.951 7.61316C47.0264 7.65871 47.0783 7.68854 47.1047 7.7031C47.35 7.83639 47.5548 8.03343 47.6975 8.27344C47.8402 8.51344 47.9155 8.78751 47.9154 9.06672V13.0136H44.8099V10.5735C44.8099 10.372 44.755 10.1744 44.6511 10.0019C44.5473 9.82926 44.3984 9.68821 44.2204 9.59381C41.2121 7.99929 34.7628 5.32378 25.3627 5.32378C15.962 5.32378 9.51275 7.99929 6.50516 9.59367C6.3272 9.68818 6.17831 9.82935 6.07446 10.002C5.97061 10.1747 5.91572 10.3724 5.91566 10.5739V13.014H2.81007V9.06672C2.80995 8.78752 2.88522 8.51347 3.02791 8.27348C3.17061 8.0335 3.37545 7.83649 3.62081 7.70324C3.64675 7.68854 3.69864 7.65856 3.77459 7.61359C5.77773 6.42119 7.91044 5.53781 9.34729 5.00683C9.62309 4.9047 9.84707 4.69726 9.97003 4.4301C10.093 4.16293 10.1049 3.85788 10.0031 3.58195C9.90098 3.30598 9.69346 3.08186 9.42616 2.95886C9.15885 2.83585 8.85364 2.82404 8.57763 2.92601C7.05459 3.48899 4.7874 4.42872 2.63999 5.70731C2.60064 5.73095 2.57196 5.74767 2.56014 5.75459C1.96434 6.07846 1.46696 6.5571 1.12045 7.14003C0.773937 7.72296 0.591132 8.38858 0.591309 9.06672V14.1231C0.591309 14.2688 0.620014 14.4131 0.675785 14.5477C0.731557 14.6823 0.813301 14.8046 0.916349 14.9076C1.0194 15.0106 1.14173 15.0923 1.27636 15.1481C1.41099 15.2038 1.55513 15.2324 1.70083 15.2324ZM36.2322 38.3767C36.2323 38.231 36.2036 38.0868 36.1479 37.9522C36.0921 37.8176 36.0104 37.6953 35.9074 37.5923C35.8044 37.4893 35.6821 37.4076 35.5475 37.3519C35.4129 37.2961 35.2687 37.2674 35.123 37.2675H33.0529C32.9072 37.2675 32.763 37.2962 32.6284 37.3519C32.4938 37.4076 32.3715 37.4893 32.2686 37.5924C32.1656 37.6954 32.0839 37.8176 32.0281 37.9522C31.9724 38.0868 31.9437 38.231 31.9438 38.3767C31.9438 38.9645 32.4009 39.4436 32.9786 39.4819V43.1865C32.4009 43.2247 31.9438 43.7045 31.9438 44.2923C31.9438 44.5864 32.0606 44.8685 32.2686 45.0765C32.4766 45.2845 32.7587 45.4014 33.0529 45.4014H35.123C35.2687 45.4014 35.4129 45.3727 35.5475 45.317C35.6821 45.2613 35.8043 45.1796 35.9074 45.0766C36.0104 44.9736 36.0921 44.8513 36.1478 44.7167C36.2036 44.5822 36.2322 44.4379 36.2322 44.2923C36.2322 43.7045 35.7751 43.2247 35.1968 43.1865V39.4819C35.7751 39.4436 36.2322 38.9639 36.2322 38.3767ZM30.0947 53.2391H20.63C20.0175 53.2391 19.5214 53.7356 19.5214 54.3482C19.5214 54.9607 20.0175 55.4574 20.63 55.4574H30.0947C30.3889 55.4574 30.671 55.3406 30.879 55.1325C31.087 54.9245 31.2039 54.6424 31.2039 54.3482C31.2039 54.0541 31.087 53.772 30.879 53.5639C30.671 53.3559 30.3889 53.2391 30.0947 53.2391ZM30.0947 56.7883H20.63C20.0175 56.7883 19.5214 57.2848 19.5214 57.8974C19.5214 58.51 20.0175 59.0066 20.63 59.0066H30.0947C30.3889 59.0066 30.671 58.8898 30.879 58.6818C31.087 58.4738 31.2039 58.1916 31.2039 57.8975C31.2039 57.6033 31.087 57.3212 30.879 57.1132C30.671 56.9052 30.3889 56.7883 30.0947 56.7883ZM30.0947 60.3375H20.63C20.0175 60.3375 19.5214 60.8341 19.5214 61.4466C19.5214 62.0592 20.0175 62.5559 20.63 62.5559H30.0947C30.3889 62.5559 30.671 62.439 30.879 62.231C31.087 62.023 31.2039 61.7409 31.2039 61.4467C31.2039 61.1525 31.087 60.8704 30.879 60.6624C30.671 60.4544 30.3889 60.3375 30.0947 60.3375Z" fill="black"/>
<path d="M49.616 66.253H47.4715V24.0314C47.4715 23.7373 47.3547 23.4552 47.1467 23.2472C46.9387 23.0392 46.6566 22.9223 46.3624 22.9223C46.0683 22.9223 45.7862 23.0392 45.5782 23.2472C45.3702 23.4552 45.2533 23.7373 45.2533 24.0314V66.253H39.4858V18.264C39.4858 16.0209 37.6611 14.1968 35.4191 14.1968H15.306C13.0636 14.1968 11.2394 16.0215 11.2394 18.264V22.4894C9.9158 22.6025 8.87301 23.7145 8.87301 25.0664V28.0244C8.87301 29.3761 9.9158 30.4877 11.2394 30.6008V50.5882C9.9158 50.7013 8.87301 51.8127 8.87301 53.1646V56.1227C8.87301 57.4745 9.9158 58.5863 11.2394 58.6996V66.253H5.47194V46.2141C5.47194 45.92 5.35509 45.6379 5.1471 45.4299C4.9391 45.2219 4.657 45.105 4.36285 45.105C4.06871 45.105 3.7866 45.2219 3.57861 45.4299C3.37061 45.6379 3.25376 45.92 3.25376 46.2141V66.2527H1.10895C0.963274 66.2527 0.819033 66.2814 0.68446 66.3372C0.549888 66.393 0.42762 66.4747 0.324641 66.5777C0.221662 66.6808 0.139989 66.8031 0.0842866 66.9377C0.0285841 67.0723 -5.67092e-05 67.2165 8.42987e-08 67.3622V72.6861C3.83071e-05 72.9803 0.116905 73.2623 0.324896 73.4703C0.532887 73.6782 0.814966 73.7951 1.10909 73.7951H49.6155C49.7611 73.7951 49.9054 73.7664 50.0399 73.7107C50.1745 73.655 50.2968 73.5733 50.3998 73.4703C50.5028 73.3673 50.5845 73.245 50.6403 73.1104C50.696 72.9759 50.7247 72.8316 50.7247 72.686V67.3621C50.7248 67.2164 50.6961 67.0722 50.6404 66.9377C50.5847 66.8031 50.5031 66.6808 50.4001 66.5778C50.2972 66.4749 50.1749 66.3931 50.0404 66.3374C49.9059 66.2817 49.7617 66.253 49.616 66.253ZM11.0913 28.0243V25.0663C11.0915 24.9683 11.1306 24.8744 11.2 24.8051C11.2693 24.7359 11.3633 24.697 11.4613 24.697H13.2359C13.3338 24.6972 13.4277 24.7361 13.497 24.8053C13.5663 24.8745 13.6054 24.9684 13.6057 25.0663V28.0244C13.6056 28.1225 13.5665 28.2165 13.4972 28.2858C13.4279 28.3551 13.3339 28.3941 13.2359 28.3943H11.4613C11.3632 28.3943 11.2692 28.3553 11.1998 28.2859C11.1304 28.2166 11.0914 28.1225 11.0913 28.0244V28.0243ZM11.0913 56.1227V53.1651C11.0914 53.067 11.1304 52.973 11.1998 52.9036C11.2692 52.8343 11.3632 52.7953 11.4613 52.7953H13.2359C13.3339 52.7954 13.4279 52.8345 13.4972 52.9038C13.5665 52.9731 13.6056 53.0671 13.6057 53.1651V56.1227C13.6056 56.2207 13.5665 56.3147 13.4972 56.3841C13.4279 56.4534 13.3339 56.4924 13.2359 56.4925H11.4613C11.3632 56.4925 11.2692 56.4535 11.1998 56.3842C11.1304 56.3148 11.0914 56.2208 11.0913 56.1227ZM13.4577 58.6996C14.7808 58.5863 15.824 57.4751 15.824 56.1226V53.1651C15.824 51.8127 14.7808 50.7013 13.4577 50.5882V30.6012C14.7808 30.4881 15.824 29.3761 15.824 28.0243V25.0663C15.824 23.7145 14.7808 22.6031 13.4577 22.4899V18.264C13.4577 17.2444 14.287 16.4151 15.306 16.4151H35.4185C36.4383 16.4151 37.2675 17.2444 37.2675 18.264V66.253H13.4577V58.6996ZM48.5064 71.5768H2.21832V68.4713H48.5064V71.5768Z" fill="black"/>
<path d="M27.9546 48.8755L31.7279 67.9937H35.5013V56.5757C35.5013 54.5887 36.0244 52.6366 37.0179 50.9157L38.1958 48.8755H27.9546Z" fill="#C2F0FC"/>
<path d="M33.2443 50.9157L34.4222 48.8755H12.0532L13.2311 50.9157C14.2247 52.6366 14.7477 54.5887 14.7478 56.5757V67.9937H31.7278V56.5757C31.7277 54.5887 32.2508 52.6366 33.2443 50.9157Z" fill="#E6F8FC"/>
<path d="M38.3317 39.4424H34.5583L25.125 56.4224C33.4608 56.4224 40.2183 49.6648 40.2183 41.329C40.2183 40.2871 39.3736 39.4424 38.3317 39.4424Z" fill="#B9DFF0"/>
<path d="M36.4451 41.3289C36.4451 40.287 35.6003 39.4423 34.5584 39.4423H11.9184C10.8765 39.4423 10.0317 40.287 10.0317 41.3289C10.0317 49.6647 16.7893 56.4223 25.1251 56.4223C31.377 56.4223 36.4451 49.6647 36.4451 41.3289ZM38.3317 35.6689H34.5584V39.4423H38.3317C39.3737 39.4423 40.2184 38.5976 40.2184 37.5556C40.2184 36.5137 39.3737 35.6689 38.3317 35.6689Z" fill="#C2F0FC"/>
<path d="M34.5584 35.6689H11.9184C10.8765 35.6689 10.0317 36.5137 10.0317 37.5556C10.0317 38.5976 10.8765 39.4423 11.9184 39.4423H34.5584C35.6004 39.4423 36.4451 38.5976 36.4451 37.5556C36.4451 36.5137 35.6004 35.6689 34.5584 35.6689Z" fill="#E6F8FC"/>
<path d="M38.3317 39.4423C39.3737 39.4423 40.2184 40.287 40.2184 41.3289C40.2184 49.6647 33.4609 56.4223 25.1251 56.4223C16.7893 56.4223 10.0317 49.6647 10.0317 41.3289C10.0317 40.287 10.8765 39.4423 11.9184 39.4423M38.3317 39.4423H11.9184M38.3317 39.4423C39.3737 39.4423 40.2184 38.5976 40.2184 37.5556C40.2184 36.5137 39.3737 35.6689 38.3317 35.6689H19.4651M11.9184 39.4423C10.8765 39.4423 10.0317 38.5976 10.0317 37.5556C10.0317 36.5137 10.8765 35.6689 11.9184 35.6689H15.6917" stroke="black" stroke-miterlimit="10" stroke-linecap="round" stroke-linejoin="round"/>
<path d="M38.1956 48.8755L37.0177 50.9157C36.0242 52.6366 35.5011 54.5887 35.5011 56.5757V67.9937H14.7478V56.5757C14.7477 54.5887 14.2247 52.6366 13.2311 50.9157L12.0532 48.8755" stroke="black" stroke-miterlimit="10" stroke-linecap="round" stroke-linejoin="round"/>
</svg>
