<svg width="156" height="152" viewBox="0 0 156 152" fill="none" xmlns="http://www.w3.org/2000/svg">
<rect width="155" height="152" rx="14" fill="#514EFF"/>
<path d="M136.875 20.8628H129.375" stroke="white" stroke-width="0.75" stroke-linecap="round" stroke-linejoin="round"/>
<path d="M133.85 17.8503C133.85 17.8503 136.875 19.4808 136.875 20.8618C136.875 22.2438 133.85 23.8748 133.85 23.8748" stroke="white" stroke-width="0.75" stroke-linecap="round" stroke-linejoin="round"/>
<path d="M1 139.999L2.71111 134.392C4.42222 128.784 7.84443 117.57 11.2667 113.785C14.6889 110.001 18.1111 113.648 21.5333 116.921C24.9555 120.194 28.3777 123.094 31.8 124.576C35.2222 126.058 38.6444 126.122 42.0666 125.158C45.4888 124.193 48.911 122.2 52.3333 121.469C55.7555 120.739 59.1777 121.27 62.5999 123.303C66.0221 125.336 69.4443 128.87 72.8666 125.523C76.2888 122.175 79.711 111.946 83.1332 106.125C86.5554 100.304 89.9776 98.8898 93.3999 98.2942C96.8221 97.6985 100.244 97.9211 103.667 97.9944C107.089 98.0677 110.511 97.9917 113.933 99.1508C117.355 100.31 120.778 102.704 124.2 103.965C127.622 105.227 131.044 105.356 134.466 106.481C137.889 107.605 141.311 109.725 144.733 104.477C148.155 99.2296 151.578 86.6144 153.289 80.3069L155 73.9993" stroke="#3A36FF" stroke-opacity="0.3"/>
<path d="M10.3333 113.433C7.74206 116.255 5.15085 123.244 3.29287 128.9C2.22471 132.152 1.98798 135.615 2.4997 138.999C3.36187 144.747 8.29946 148.999 14.1116 148.999H144.275C148.318 148.999 151.648 145.822 151.836 141.783L154.697 80.4762C154.738 79.6143 153.507 79.4185 153.277 80.2504C151.555 86.5022 148.111 99.0058 144.666 104.207C141.222 109.409 137.777 107.308 134.333 106.193C130.889 105.078 127.444 104.95 124 103.7C120.555 102.449 117.111 100.076 113.666 98.9277C110.222 97.7789 106.778 97.8542 103.333 97.7815C99.8887 97.7089 99.9442 114.408 96.4998 114.999C93.0554 115.589 86.1109 100.07 82.6665 105.84C79.222 111.61 75.7776 121.749 72.3332 125.067C68.8887 128.384 65.4443 124.881 61.9999 122.866C58.5554 120.851 55.111 120.325 51.6665 121.049C48.2221 121.773 44.7777 123.749 41.3332 124.705C37.8888 125.661 34.4443 125.597 30.9999 124.128C27.5555 122.659 24.111 119.785 20.6666 116.541C17.2221 113.296 13.7777 109.682 10.3333 113.433Z" fill="url(#paint0_linear_2011_2266)" fill-opacity="0.2" stroke="#3A36FF" stroke-opacity="0.3"/>
<defs>
<linearGradient id="paint0_linear_2011_2266" x1="77.4999" y1="73.9985" x2="77.4999" y2="151.999" gradientUnits="userSpaceOnUse">
<stop stop-color="white"/>
<stop offset="1" stop-color="white" stop-opacity="0"/>
</linearGradient>
</defs>
</svg>
