<svg width="60" height="58" viewBox="0 0 60 58" fill="none" xmlns="http://www.w3.org/2000/svg">
<path fill-rule="evenodd" clip-rule="evenodd" d="M59.0627 1.15547V51.0681C59.0627 54.2587 56.9639 56.8448 54.3751 56.8448H6.16748C9.05568 56.8448 11.3975 53.9594 11.3975 50.3995V10.4935H17.2206V17.1443H53.2396V7.20116H18.975V1.15527L59.0627 1.15547ZM31.7508 34.0167V23.0213H17.2206V34.0167H31.7508Z" fill="#ECEFF8"/>
<path fill-rule="evenodd" clip-rule="evenodd" d="M53.2401 7.20142V17.1446H17.2212V10.4937H18.9756V7.20142H53.2401Z" fill="#1672BF"/>
<path fill-rule="evenodd" clip-rule="evenodd" d="M17.2212 23.021H31.7512V34.0164H17.2212V23.021Z" fill="#A8CDEA"/>
<path fill-rule="evenodd" clip-rule="evenodd" d="M18.9749 7.20121V10.4935H11.3975L18.9749 1.15552V7.20121ZM11.3975 12.1134V50.3994C11.3975 53.9593 9.05572 56.8448 6.16751 56.8448C4.72333 56.8448 3.41554 56.1237 2.46909 54.9572C1.52263 53.7908 0.9375 52.1791 0.9375 50.3994V16.869H4.45315V50.3994C4.45315 51.5643 5.22236 52.5123 6.16768 52.5123C7.113 52.5123 7.88221 51.5643 7.88221 50.3994V12.1134H11.3975Z" fill="#CDD0D9"/>
<path fill-rule="evenodd" clip-rule="evenodd" d="M7.88218 14.49V50.3995C7.88218 51.5645 7.11297 52.5122 6.16765 52.5122C5.22234 52.5122 4.45312 51.5643 4.45312 50.3995V14.49H7.88218Z" fill="#ADAEB5"/>
<path fill-rule="evenodd" clip-rule="evenodd" d="M54.3752 58H6.16749C5.91884 58 5.68039 57.8783 5.50457 57.6616C5.32875 57.4449 5.22998 57.1511 5.22998 56.8447C5.22998 56.5382 5.32875 56.2444 5.50457 56.0277C5.68039 55.811 5.91884 55.6893 6.16749 55.6893H54.3752C56.4429 55.6893 58.1252 53.6161 58.1252 51.0679V2.31069H18.975C18.7264 2.31069 18.4879 2.18896 18.3121 1.97229C18.1363 1.75563 18.0375 1.46176 18.0375 1.15534C18.0375 0.848927 18.1363 0.555061 18.3121 0.338392C18.4879 0.121723 18.7264 1.82638e-08 18.975 0H59.0627C59.3113 0 59.5498 0.121723 59.7256 0.338392C59.9014 0.555061 60.0002 0.848927 60.0002 1.15534V51.0679C60.0002 54.8904 57.4769 58 54.3752 58Z" fill="#333333"/>
<path fill-rule="evenodd" clip-rule="evenodd" d="M6.16768 57.9996C4.51989 57.9996 2.97105 57.2091 1.80633 55.7738C0.641606 54.3384 0 52.4295 0 50.3988V16.8686C0 16.5622 0.0987727 16.2684 0.274589 16.0517C0.450406 15.835 0.688864 15.7133 0.937506 15.7133H4.45316C4.7018 15.7133 4.94026 15.835 5.11607 16.0517C5.29189 16.2684 5.39066 16.5622 5.39066 16.8686C5.39066 17.175 5.29189 17.4689 5.11607 17.6856C4.94026 17.9023 4.7018 18.024 4.45316 18.024H1.87501V50.399C1.87501 51.8123 2.32147 53.141 3.13202 54.1399C3.94257 55.1388 5.0207 55.6891 6.16752 55.6891C8.5344 55.6891 10.4602 53.3161 10.4602 50.399V10.493C10.4602 10.1866 10.559 9.89271 10.7348 9.67604C10.9106 9.45937 11.1491 9.33765 11.3977 9.33765C11.6463 9.33765 11.8848 9.45937 12.0606 9.67604C12.2364 9.89271 12.3352 10.1866 12.3352 10.493V50.399C12.3354 54.59 9.56859 57.9996 6.16768 57.9996Z" fill="#333333"/>
<path fill-rule="evenodd" clip-rule="evenodd" d="M4.45313 51.5551C4.20449 51.5551 3.96603 51.4334 3.79021 51.2167C3.6144 51.0001 3.51562 50.7062 3.51562 50.3998V14.4903C3.51562 14.1839 3.6144 13.89 3.79021 13.6734C3.96603 13.4567 4.20449 13.335 4.45313 13.335H7.88203C8.13067 13.335 8.36913 13.4567 8.54494 13.6734C8.72076 13.89 8.81953 14.1839 8.81953 14.4903C8.81953 14.7967 8.72076 15.0906 8.54494 15.3073C8.36913 15.5239 8.13067 15.6456 7.88203 15.6456H5.3908V50.3998C5.3908 50.5515 5.36655 50.7018 5.31942 50.842C5.2723 50.9822 5.20323 51.1095 5.11615 51.2168C5.02908 51.3241 4.92571 51.4092 4.81195 51.4673C4.69819 51.5253 4.57626 51.5552 4.45313 51.5551Z" fill="#333333"/>
<path fill-rule="evenodd" clip-rule="evenodd" d="M6.16766 53.6679C4.70541 53.6679 3.51562 52.2018 3.51562 50.3996C3.51563 50.0932 3.6144 49.7993 3.79021 49.5827C3.96603 49.366 4.20449 49.2443 4.45313 49.2443C4.70177 49.2443 4.94023 49.366 5.11605 49.5827C5.29186 49.7993 5.39064 50.0932 5.39064 50.3996C5.39064 50.9275 5.73927 51.3572 6.16766 51.3572C6.59605 51.3572 6.94452 50.9275 6.94452 50.3996V12.1137C6.94452 11.8072 7.04329 11.5134 7.21911 11.2967C7.39493 11.08 7.63338 10.9583 7.88203 10.9583H11.3977C11.6463 10.9583 11.8848 11.08 12.0606 11.2967C12.2364 11.5134 12.3352 11.8072 12.3352 12.1137C12.3352 12.4201 12.2364 12.7139 12.0606 12.9306C11.8848 13.1473 11.6463 13.269 11.3977 13.269H8.81953V50.3998C8.8197 52.2018 7.62991 53.6679 6.16766 53.6679ZM53.2399 18.2997H17.221C16.9723 18.2997 16.7339 18.178 16.558 17.9614C16.3822 17.7447 16.2834 17.4508 16.2834 17.1444V10.4936C16.2834 10.1871 16.3822 9.89328 16.558 9.67661C16.7339 9.45995 16.9723 9.33822 17.221 9.33822C17.4696 9.33822 17.7081 9.45995 17.8839 9.67661C18.0597 9.89328 18.1585 10.1871 18.1585 10.4936V15.9891H52.3024V8.35658H18.9752C18.7266 8.35658 18.4881 8.23486 18.3123 8.01819C18.1365 7.80152 18.0377 7.50766 18.0377 7.20124C18.0377 6.89482 18.1365 6.60096 18.3123 6.38429C18.4881 6.16762 18.7266 6.0459 18.9752 6.0459H53.2399C53.4885 6.0459 53.727 6.16762 53.9028 6.38429C54.0786 6.60096 54.1774 6.89482 54.1774 7.20124V17.1444C54.1774 17.2961 54.1532 17.4464 54.1061 17.5866C54.059 17.7268 53.9899 17.8541 53.9029 17.9614C53.8158 18.0687 53.7125 18.1538 53.5987 18.2119C53.4849 18.2699 53.363 18.2998 53.2399 18.2997ZM53.2399 24.5859H37.5378C37.2892 24.5859 37.0507 24.4642 36.8749 24.2475C36.6991 24.0309 36.6003 23.737 36.6003 23.4306C36.6003 23.1242 36.6991 22.8303 36.8749 22.6136C37.0507 22.397 37.2892 22.2753 37.5378 22.2753H53.2399C53.4885 22.2753 53.727 22.397 53.9028 22.6136C54.0786 22.8303 54.1774 23.1242 54.1774 23.4306C54.1774 23.737 54.0786 24.0309 53.9028 24.2475C53.727 24.4642 53.4885 24.5859 53.2399 24.5859ZM53.2399 30.002H50.7344C50.4857 30.002 50.2473 29.8803 50.0714 29.6636C49.8956 29.4469 49.7969 29.1531 49.7969 28.8467C49.7969 28.5402 49.8956 28.2464 50.0714 28.0297C50.2473 27.813 50.4857 27.6913 50.7344 27.6913H53.2399C53.4885 27.6913 53.727 27.813 53.9028 28.0297C54.0786 28.2464 54.1774 28.5402 54.1774 28.8467C54.1774 29.1531 54.0786 29.4469 53.9028 29.6636C53.727 29.8803 53.4885 30.002 53.2399 30.002ZM47.9218 30.002H37.5378C37.2892 30.002 37.0507 29.8803 36.8749 29.6636C36.6991 29.4469 36.6003 29.1531 36.6003 28.8467C36.6003 28.5402 36.6991 28.2464 36.8749 28.0297C37.0507 27.813 37.2892 27.6913 37.5378 27.6913H47.9218C48.1705 27.6913 48.4089 27.813 48.5848 28.0297C48.7606 28.2464 48.8593 28.5402 48.8593 28.8467C48.8593 29.1531 48.7606 29.4469 48.5848 29.6636C48.4089 29.8803 48.1705 30.002 47.9218 30.002ZM53.2399 35.4179H37.5378C37.2892 35.4179 37.0507 35.2962 36.8749 35.0795C36.6991 34.8628 36.6003 34.5689 36.6003 34.2625C36.6003 33.9561 36.6991 33.6623 36.8749 33.4456C37.0507 33.2289 37.2892 33.1072 37.5378 33.1072H53.2399C53.4885 33.1072 53.727 33.2289 53.9028 33.4456C54.0786 33.6623 54.1774 33.9561 54.1774 34.2625C54.1774 34.5689 54.0786 34.8628 53.9028 35.0795C53.727 35.2962 53.4885 35.4179 53.2399 35.4179ZM53.2399 40.8339H46.906C46.6574 40.8339 46.4189 40.7122 46.2431 40.4955C46.0673 40.2789 45.9685 39.985 45.9685 39.6786C45.9685 39.3722 46.0673 39.0783 46.2431 38.8616C46.4189 38.645 46.6574 38.5233 46.906 38.5233H53.2399C53.4885 38.5233 53.727 38.645 53.9028 38.8616C54.0786 39.0783 54.1774 39.3722 54.1774 39.6786C54.1774 39.985 54.0786 40.2789 53.9028 40.4955C53.727 40.7122 53.4885 40.8339 53.2399 40.8339ZM44.0151 40.8339H37.5378C37.2892 40.8339 37.0507 40.7122 36.8749 40.4955C36.6991 40.2789 36.6003 39.985 36.6003 39.6786C36.6003 39.3722 36.6991 39.0783 36.8749 38.8616C37.0507 38.645 37.2892 38.5233 37.5378 38.5233H44.0151C44.2637 38.5233 44.5022 38.645 44.678 38.8616C44.8538 39.0783 44.9526 39.3722 44.9526 39.6786C44.9526 39.985 44.8538 40.2789 44.678 40.4955C44.5022 40.7122 44.2637 40.8339 44.0151 40.8339ZM53.2399 46.2498H37.5378C37.2892 46.2498 37.0507 46.1281 36.8749 45.9114C36.6991 45.6948 36.6003 45.4009 36.6003 45.0945C36.6003 44.7881 36.6991 44.4942 36.8749 44.2775C37.0507 44.0608 37.2892 43.9391 37.5378 43.9391H53.2399C53.4885 43.9391 53.727 44.0608 53.9028 44.2775C54.0786 44.4942 54.1774 44.7881 54.1774 45.0945C54.1774 45.4009 54.0786 45.6948 53.9028 45.9114C53.727 46.1281 53.4885 46.2498 53.2399 46.2498ZM53.2399 51.6659H46.0856C45.8369 51.6659 45.5985 51.5442 45.4226 51.3275C45.2468 51.1108 45.1481 50.817 45.1481 50.5105C45.1481 50.2041 45.2468 49.9103 45.4226 49.6936C45.5985 49.4769 45.8369 49.3552 46.0856 49.3552H53.2399C53.4885 49.3552 53.727 49.4769 53.9028 49.6936C54.0786 49.9103 54.1774 50.2041 54.1774 50.5105C54.1774 50.817 54.0786 51.1108 53.9028 51.3275C53.727 51.5442 53.4885 51.6659 53.2399 51.6659ZM43.2338 51.6659H37.5378C37.2892 51.6659 37.0507 51.5442 36.8749 51.3275C36.6991 51.1108 36.6003 50.817 36.6003 50.5105C36.6003 50.2041 36.6991 49.9103 36.8749 49.6936C37.0507 49.4769 37.2892 49.3552 37.5378 49.3552H43.2337C43.4823 49.3552 43.7208 49.4769 43.8966 49.6935C44.0724 49.9102 44.1712 50.204 44.1712 50.5104C44.1713 50.8169 44.0725 51.1107 43.8967 51.3274C43.7209 51.5441 43.4825 51.6659 43.2338 51.6659ZM31.751 35.1722H17.221C16.9723 35.1722 16.7339 35.0504 16.558 34.8338C16.3822 34.6171 16.2834 34.3232 16.2834 34.0168V23.021C16.2834 22.7146 16.3822 22.4207 16.558 22.2041C16.7339 21.9874 16.9723 21.8657 17.221 21.8657H31.751C31.9996 21.8657 32.2381 21.9874 32.4139 22.2041C32.5897 22.4207 32.6885 22.7146 32.6885 23.021V34.0168C32.6885 34.3232 32.5897 34.6171 32.4139 34.8338C32.2381 35.0504 31.9996 35.1722 31.751 35.1722ZM18.1585 32.8615H30.8135V24.1764H18.1585V32.8615ZM31.751 40.6701H17.221C16.9723 40.6701 16.7339 40.5483 16.558 40.3317C16.3822 40.115 16.2834 39.8211 16.2834 39.5147C16.2834 39.2083 16.3822 38.9144 16.558 38.6978C16.7339 38.4811 16.9723 38.3594 17.221 38.3594H31.751C31.9996 38.3594 32.2381 38.4811 32.4139 38.6978C32.5897 38.9144 32.6885 39.2083 32.6885 39.5147C32.6885 39.8211 32.5897 40.115 32.4139 40.3317C32.2381 40.5483 31.9996 40.6701 31.751 40.6701ZM31.751 46.168H26.8278C26.5791 46.168 26.3407 46.0463 26.1649 45.8296C25.9891 45.6129 25.8903 45.319 25.8903 45.0126C25.8903 44.7062 25.9891 44.4124 26.1649 44.1957C26.3407 43.979 26.5791 43.8573 26.8278 43.8573H31.751C31.9996 43.8573 32.2381 43.979 32.4139 44.1957C32.5897 44.4124 32.6885 44.7062 32.6885 45.0126C32.6885 45.319 32.5897 45.6129 32.4139 45.8296C32.2381 46.0463 31.9996 46.168 31.751 46.168ZM24.0932 46.168H17.221C16.9723 46.168 16.7339 46.0463 16.558 45.8296C16.3822 45.6129 16.2834 45.319 16.2834 45.0126C16.2834 44.7062 16.3822 44.4124 16.558 44.1957C16.7339 43.979 16.9723 43.8573 17.221 43.8573H24.0932C24.3419 43.8573 24.5803 43.979 24.7561 44.1957C24.932 44.4124 25.0307 44.7062 25.0307 45.0126C25.0307 45.319 24.932 45.6129 24.7561 45.8296C24.5803 46.0463 24.3419 46.168 24.0932 46.168ZM31.751 51.6659H17.221C16.9723 51.6659 16.7339 51.5442 16.558 51.3275C16.3822 51.1108 16.2834 50.817 16.2834 50.5105C16.2834 50.2041 16.3822 49.9103 16.558 49.6936C16.7339 49.4769 16.9723 49.3552 17.221 49.3552H31.751C31.9996 49.3552 32.2381 49.4769 32.4139 49.6936C32.5897 49.9103 32.6885 50.2041 32.6885 50.5105C32.6885 50.817 32.5897 51.1108 32.4139 51.3275C32.2381 51.5442 31.9996 51.6659 31.751 51.6659Z" fill="#333333"/>
<path fill-rule="evenodd" clip-rule="evenodd" d="M18.9753 11.6487H11.398C11.1493 11.6487 10.9109 11.527 10.735 11.3103C10.5592 11.0936 10.4604 10.7998 10.4604 10.4934C10.4604 10.1869 10.5592 9.89308 10.735 9.67641C10.9109 9.45974 11.1493 9.33802 11.398 9.33802H18.0378V1.15534C18.0378 0.848927 18.1366 0.555061 18.3124 0.338392C18.4882 0.121723 18.7267 0 18.9753 0C19.224 0 19.4624 0.121723 19.6382 0.338392C19.814 0.555061 19.9128 0.848927 19.9128 1.15534V10.4934C19.9128 10.7998 19.814 11.0936 19.6382 11.3103C19.4624 11.527 19.224 11.6487 18.9753 11.6487Z" fill="#333333"/>
<path fill-rule="evenodd" clip-rule="evenodd" d="M11.398 11.6488C11.2126 11.6488 11.0313 11.581 10.8771 11.4541C10.7229 11.3271 10.6028 11.1467 10.5318 10.9356C10.4609 10.7244 10.4423 10.4921 10.4785 10.268C10.5146 10.0439 10.6039 9.83804 10.735 9.67646L18.3124 0.338642C18.4882 0.12197 18.7267 0.000244141 18.9753 0.000244141C19.224 0.000244141 19.4624 0.12197 19.6383 0.338642C19.8141 0.555314 19.9129 0.849185 19.9129 1.15561C19.9129 1.46203 19.8141 1.7559 19.6383 1.97257L12.0609 11.3106C11.9739 11.418 11.8706 11.5031 11.7568 11.5611C11.643 11.6192 11.5211 11.649 11.398 11.6488Z" fill="#333333"/>
</svg>
