<svg width="44" height="49" viewBox="0 0 44 49" fill="none" xmlns="http://www.w3.org/2000/svg">
<path d="M30.8068 47.5984H3.81845C2.26182 47.5984 1 46.3366 1 44.78V7.54321H33.6254V44.78C33.6253 46.3366 32.3635 47.5984 30.8068 47.5984Z" fill="#EEF5FF"/>
<path d="M30.8069 45.9076H3.81845C2.26182 45.9076 1 44.6456 1 43.0891V44.7802C1 46.3367 2.26182 47.5986 3.81845 47.5986H30.8069C32.3635 47.5986 33.6254 46.3367 33.6254 44.7802V43.0891C33.6254 44.6456 32.3635 45.9076 30.8069 45.9076Z" fill="#DFE9FB"/>
<path d="M33.6253 7.54323H1V3.81845C1 2.26182 2.26182 1 3.81845 1H30.8069C32.3636 1 33.6254 2.26182 33.6254 3.81845V7.54323H33.6253Z" fill="#FF7E92"/>
<path d="M1 5.85229H33.6254V7.54337H1V5.85229Z" fill="#FF5F7A"/>
<path d="M9.94597 18.5454H7.65044C6.87217 18.5454 6.24121 17.9144 6.24121 17.1362V14.8406C6.24121 14.0624 6.87217 13.4314 7.65044 13.4314H9.94597C10.7242 13.4314 11.3552 14.0624 11.3552 14.8406V17.1362C11.3551 17.9144 10.7242 18.5454 9.94597 18.5454Z" fill="#BBF39B"/>
<path d="M9.94607 16.8543H7.65044C6.87217 16.8543 6.24121 16.2233 6.24121 15.4451V17.1361C6.24121 17.9144 6.87217 18.5454 7.65044 18.5454H9.94607C10.7243 18.5454 11.3553 17.9144 11.3553 17.1361V15.4451C11.3553 16.2233 10.7243 16.8543 9.94607 16.8543Z" fill="#9AE59C"/>
<path d="M9.94597 26.4839H7.65044C6.87217 26.4839 6.24121 25.8529 6.24121 25.0746V22.7791C6.24121 22.0008 6.87217 21.3699 7.65044 21.3699H9.94597C10.7242 21.3699 11.3552 22.0008 11.3552 22.7791V25.0746C11.3551 25.853 10.7242 26.4839 9.94597 26.4839ZM9.94597 34.4226H7.65044C6.87217 34.4226 6.24121 33.7916 6.24121 33.0134V30.7178C6.24121 29.9396 6.87217 29.3086 7.65044 29.3086H9.94597C10.7242 29.3086 11.3552 29.9396 11.3552 30.7178V33.0134C11.3551 33.7916 10.7242 34.4226 9.94597 34.4226ZM9.94597 42.3612H7.65044C6.87217 42.3612 6.24121 41.7303 6.24121 40.952V38.6565C6.24121 37.8782 6.87217 37.2473 7.65044 37.2473H9.94597C10.7242 37.2473 11.3552 37.8782 11.3552 38.6565V40.952C11.3551 41.7304 10.7242 42.3612 9.94597 42.3612Z" fill="#BBF39B"/>
<path d="M9.94607 24.7925H7.65044C6.87217 24.7925 6.24121 24.1616 6.24121 23.3833V25.0744C6.24121 25.8526 6.87217 26.4836 7.65044 26.4836H9.94607C10.7243 26.4836 11.3553 25.8526 11.3553 25.0744V23.3833C11.3553 24.1617 10.7243 24.7925 9.94607 24.7925ZM9.94607 32.7313H7.65044C6.87217 32.7313 6.24121 32.1003 6.24121 31.322V33.0131C6.24121 33.7914 6.87217 34.4223 7.65044 34.4223H9.94607C10.7243 34.4223 11.3553 33.7914 11.3553 33.0131V31.322C11.3553 32.1003 10.7243 32.7313 9.94607 32.7313ZM9.94607 40.6699H7.65044C6.87217 40.6699 6.24121 40.0389 6.24121 39.2607V40.9518C6.24121 41.73 6.87217 42.361 7.65044 42.361H9.94607C10.7243 42.361 11.3553 41.73 11.3553 40.9518V39.2607C11.3553 40.039 10.7243 40.6699 9.94607 40.6699Z" fill="#9AE59C"/>
<path d="M37.3833 9.90845H43.3748V41.5795H37.3833V9.90845Z" fill="#FFE17D"/>
<path d="M37.3833 6.42798H43.3748V9.9083H37.3833V6.42798Z" fill="#6C5E69"/>
<path d="M37.3833 8.21704H43.3748V9.90811H37.3833V8.21704Z" fill="#574D56"/>
<path d="M43.3748 6.42796H37.3833V2.40923C37.3833 1.63096 38.0143 1 38.7925 1H41.9655C42.7438 1 43.3748 1.63096 43.3748 2.40923V6.42796Z" fill="#FF7E92"/>
<path d="M37.3833 4.73682H43.3748V6.42789H37.3833V4.73682Z" fill="#FF5F7A"/>
<path d="M40.379 47.5985L37.3833 41.5793H43.3747L40.379 47.5985Z" fill="#FFDCD0"/>
<path d="M41.3845 45.5789H39.3745L40.3796 47.5982L41.3845 45.5789Z" fill="#6C5E69"/>
<path d="M19.9327 47.5984H3.81845C2.26182 47.5984 1 46.3366 1 44.78V7.54323M1 7.54323H7.40897M1 7.54323V3.81845C1 2.26182 2.26182 1 3.81845 1H24.332M33.6253 7.54323V44.78C33.6253 46.3366 32.3635 47.5984 30.8068 47.5984H22.7511M33.6253 7.54323V3.81845C33.6253 2.26182 32.3635 1 30.8068 1H27.1504M33.6253 7.54323H10.2273M9.94558 18.5452H7.65004C6.87178 18.5452 6.24082 17.9143 6.24082 17.136V14.8405C6.24082 14.0622 6.87178 13.4313 7.65004 13.4313H9.94558C10.7239 13.4313 11.3548 14.0622 11.3548 14.8405V17.136C11.3547 17.9143 10.7239 18.5452 9.94558 18.5452Z" stroke="black" stroke-miterlimit="10" stroke-linecap="round" stroke-linejoin="round"/>
<path d="M7.91528 15.5942L9.0824 16.7292L11.8722 13.8685M15.3955 15.9883H28.3849M15.3955 23.9269H28.3849M15.3955 31.8656H28.3849M15.3955 39.8043H28.3849M37.3839 9.9083H43.3754M37.3839 9.9083V41.5793H43.3754V9.9083M37.3839 9.9083V6.42798H43.3754V9.9083M9.94597 26.4839H7.65044C6.87217 26.4839 6.24121 25.8529 6.24121 25.0747V22.7791C6.24121 22.0009 6.87217 21.3699 7.65044 21.3699H9.94597C10.7242 21.3699 11.3552 22.0009 11.3552 22.7791V25.0747C11.3551 25.853 10.7242 26.4839 9.94597 26.4839ZM9.94597 34.4226H7.65044C6.87217 34.4226 6.24121 33.7917 6.24121 33.0134V30.7179C6.24121 29.9396 6.87217 29.3086 7.65044 29.3086H9.94597C10.7242 29.3086 11.3552 29.9396 11.3552 30.7179V33.0134C11.3551 33.7917 10.7242 34.4226 9.94597 34.4226ZM9.94597 42.3613H7.65044C6.87217 42.3613 6.24121 41.7303 6.24121 40.9521V38.6565C6.24121 37.8782 6.87217 37.2473 7.65044 37.2473H9.94597C10.7242 37.2473 11.3552 37.8782 11.3552 38.6565V40.9521C11.3551 41.7304 10.7242 42.3613 9.94597 42.3613Z" stroke="black" stroke-miterlimit="10" stroke-linecap="round" stroke-linejoin="round"/>
<path d="M43.3748 6.42796H37.3833V2.40923C37.3833 1.63096 38.0143 1 38.7925 1H41.9655C42.7438 1 43.3748 1.63096 43.3748 2.40923V6.42796ZM40.3791 47.5984L37.3834 41.5792H43.3748L40.3791 47.5984Z" stroke="black" stroke-miterlimit="10" stroke-linecap="round" stroke-linejoin="round"/>
<path d="M41.3845 45.5789H39.3745L40.3796 47.5982L41.3845 45.5789Z" stroke="black" stroke-miterlimit="10" stroke-linecap="round" stroke-linejoin="round"/>
</svg>
