<svg width="155" height="152" viewBox="0 0 155 152" fill="none" xmlns="http://www.w3.org/2000/svg">
<rect width="155" height="152" rx="14" fill="#6BB473"/>
<path d="M136.875 20.863H129.375" stroke="white" stroke-width="0.75" stroke-linecap="round" stroke-linejoin="round"/>
<path d="M133.85 17.8503C133.85 17.8503 136.875 19.4808 136.875 20.8618C136.875 22.2438 133.85 23.8748 133.85 23.8748" stroke="white" stroke-width="0.75" stroke-linecap="round" stroke-linejoin="round"/>
<path d="M10.3333 115.433C7.74206 118.255 5.15085 125.244 3.29287 130.9C2.22471 134.152 1.98798 137.615 2.4997 140.999C3.36044 146.738 8.30897 150.97 14.1113 150.931L144.7 150.049C148.786 150.022 152.13 146.789 152.296 142.705L154.737 82.4779C154.773 81.5945 153.512 81.398 153.277 82.2504C151.555 88.5022 148.111 101.006 144.666 106.207C141.222 111.409 137.777 109.308 134.333 108.193C130.889 107.078 127.444 106.95 124 105.7C120.555 104.449 117.111 102.076 113.666 100.928C110.222 99.7789 106.778 99.8542 103.333 99.7815C99.8887 99.7089 99.9442 116.408 96.4998 116.999C93.0554 117.589 86.1109 102.07 82.6665 107.84C79.2221 113.61 75.7776 123.749 72.3332 127.067C68.8887 130.384 65.4443 126.881 61.9999 124.866C58.5554 122.851 55.111 122.325 51.6665 123.049C48.2221 123.773 44.7777 125.749 41.3332 126.705C37.8888 127.661 34.4443 127.597 30.9999 126.128C27.5555 124.659 24.111 121.785 20.6666 118.541C17.2221 115.296 13.7777 111.682 10.3333 115.433Z" fill="url(#paint0_linear_2001_983)" fill-opacity="0.2"/>
<defs>
<linearGradient id="paint0_linear_2001_983" x1="77.4999" y1="75.9985" x2="77.4999" y2="153.999" gradientUnits="userSpaceOnUse">
<stop stop-color="white"/>
<stop offset="1" stop-color="white" stop-opacity="0"/>
</linearGradient>
</defs>
</svg>
