<svg width="155" height="152" viewBox="0 0 155 152" fill="none" xmlns="http://www.w3.org/2000/svg">
<path d="M0 14C0 6.26801 6.26801 0 14 0L141 0C148.732 0 155 6.26801 155 14V138C155 145.732 148.732 152 141 152H14C6.26801 152 0 145.732 0 138L0 14Z" fill="#37C03F"/>
<path d="M134.875 20.8646H127.375" stroke="white" stroke-width="0.75" stroke-linecap="round" stroke-linejoin="round"/>
<path d="M131.85 17.8519C131.85 17.8519 134.875 19.4824 134.875 20.8634C134.875 22.2454 131.85 23.8764 131.85 23.8764" stroke="white" stroke-width="0.75" stroke-linecap="round" stroke-linejoin="round"/>
<path d="M1.72222 133.858L0 139.416V151.999H155V73.9993L153.278 80.2511L153.278 80.2512C151.555 86.5031 148.111 99.0066 144.667 104.208C141.222 109.409 137.778 107.308 134.333 106.194C130.889 105.079 127.444 104.951 124 103.701C120.556 102.45 117.111 100.077 113.667 98.9284C110.222 97.7796 106.778 97.8549 103.333 97.7823C99.8889 97.7096 99.9444 114.409 96.5 114.999C93.0556 115.59 86.1111 100.071 82.6667 105.841C79.2222 111.611 75.7778 121.75 72.3333 125.067C68.8889 128.385 65.4444 124.882 62 122.867C58.5556 120.852 55.1111 120.325 51.6667 121.05C48.2222 121.774 44.7778 123.75 41.3333 124.706C37.8889 125.661 34.4444 125.598 31 124.129C27.5556 122.66 24.1111 119.786 20.6667 116.541C17.2222 113.297 13.7778 109.683 10.3333 113.434C6.88889 117.184 3.44444 128.3 1.72222 133.858Z" fill="url(#paint0_linear_2202_34)" fill-opacity="0.2"/>
<defs>
<linearGradient id="paint0_linear_2202_34" x1="77.5" y1="73.9993" x2="77.5" y2="151.999" gradientUnits="userSpaceOnUse">
<stop stop-color="white"/>
<stop offset="1" stop-color="white" stop-opacity="0"/>
</linearGradient>
</defs>
</svg>
