<svg width="58" height="61" viewBox="0 0 58 61" fill="none" xmlns="http://www.w3.org/2000/svg">
<path d="M40.3132 34.766V58.2623L37.3409 59.2529C36.871 59.4094 36.6174 59.917 36.7736 60.3869C36.9303 60.8568 37.4381 61.1103 37.9077 60.954L41.4928 59.7588C41.6713 59.6993 41.8265 59.5852 41.9365 59.4325C42.0465 59.2799 42.1057 59.0965 42.1057 58.9084V34.7659L40.3132 34.766Z" fill="#85453D"/>
<path d="M17.007 34.766V58.2623L19.9796 59.2529C20.449 59.4094 20.7031 59.917 20.5464 60.3869C20.3897 60.8568 19.8823 61.1103 19.4128 60.954L15.8273 59.7588C15.6488 59.6993 15.4936 59.5852 15.3836 59.4325C15.2736 59.2799 15.2144 59.0965 15.2144 58.9084V34.7659L17.007 34.766Z" fill="#E18F4E"/>
<path d="M25.0746 30.2837H12.5249C12.2872 30.2837 12.0591 30.1893 11.891 30.0212C11.7229 29.853 11.6284 29.625 11.6284 29.3872C11.6284 29.1495 11.7229 28.9214 11.891 28.7533C12.0591 28.5852 12.2872 28.4907 12.5249 28.4907H25.0746C25.5688 28.4907 25.971 28.0886 25.971 27.5942C25.971 27.1 25.5688 26.6982 25.0745 26.6982H23.282C23.0442 26.6982 22.8162 26.6037 22.6481 26.4356C22.4799 26.2675 22.3855 26.0395 22.3855 25.8017C22.3855 25.564 22.4799 25.336 22.6481 25.1678C22.8162 24.9997 23.0442 24.9053 23.282 24.9053H25.0745C26.5574 24.9053 27.7635 26.1117 27.7635 27.5942C27.7635 29.0772 26.5574 30.2837 25.0746 30.2837Z" fill="#FFA754"/>
<path d="M32.2442 28.4907C31.7499 28.4907 31.3476 28.0886 31.3476 27.5942C31.3476 27.1 31.7498 26.6982 32.2442 26.6982H34.0367C34.2744 26.6982 34.5025 26.6037 34.6706 26.4356C34.8387 26.2675 34.9331 26.0395 34.9331 25.8017C34.9331 25.564 34.8387 25.336 34.6706 25.1678C34.5025 24.9997 34.2744 24.9053 34.0367 24.9053H32.2442C30.7612 24.9053 29.5547 26.1117 29.5547 27.5942C29.5547 29.0772 30.7612 30.2837 32.2442 30.2837H44.7953V28.4907H32.2442Z" fill="#85453D"/>
<path d="M54.356 19.9203C55.0619 19.5842 55.5514 18.8664 55.5514 18.0328C55.5514 17.1988 55.0619 16.4809 54.356 16.1453C54.356 14.99 53.4195 14.0535 52.2643 14.0535C51.1094 14.0535 50.1729 14.99 50.1729 16.1453V19.9203C50.1729 21.0755 51.1094 22.0121 52.2643 22.0121C53.4195 22.0121 54.356 21.0755 54.356 19.9203Z" fill="#40211D"/>
<path d="M44.7949 12.6545V23.4117C47.7656 23.4117 50.1735 21.0034 50.1735 18.0331C50.1735 15.0628 47.7656 12.6545 44.7949 12.6545Z" fill="#60312C"/>
<path d="M46.588 18.0331C46.588 15.0624 45.7852 12.6545 44.795 12.6545C41.8248 12.6545 39.417 15.0624 39.417 18.0331C39.417 21.0034 41.8248 23.4112 44.795 23.4112C45.7852 23.4112 46.588 21.0034 46.588 18.0331Z" fill="#85453D"/>
<path d="M8.04287 38.3511V48.8685C8.04287 49.4686 7.5245 50.1883 6.95526 50.3778L0.767603 52.4404C0.589084 52.4998 0.43381 52.6139 0.323812 52.7666C0.213813 52.9192 0.154674 53.1026 0.154785 53.2908V56.8763C0.154785 57.371 0.556152 57.7724 1.05125 57.7724C1.54634 57.7724 1.94771 57.371 1.94771 56.8763V53.9369L7.52214 52.0787C8.81955 51.646 9.83579 50.236 9.83579 48.8685V38.3511H8.04287Z" fill="#FFA754"/>
<path d="M12.5249 32.9727V43.7296C15.4955 43.7296 17.9034 41.3214 17.9034 38.351L12.5249 32.9727Z" fill="#FF4128"/>
<path d="M14.318 38.3512L12.525 32.9727L7.14648 38.3512C7.14648 41.3215 9.55479 43.7293 12.525 43.7293C13.5152 43.7293 14.318 41.3215 14.318 38.3512Z" fill="#FF6337"/>
<path d="M15.5128 26.9971H11.9268L14.3174 38.3513H17.903V29.3873C17.903 28.067 16.8327 26.9971 15.5128 26.9971Z" fill="#E18F4E"/>
<path d="M11.9269 26.9971H9.53674C8.21645 26.9971 7.14648 28.067 7.14648 29.3873V38.3513H14.3176V29.3873C14.3176 28.067 13.2472 26.9971 11.9269 26.9971Z" fill="#FFA754"/>
<path d="M56.5524 52.4404L50.3652 50.3781C49.7956 50.1884 49.2772 49.469 49.2772 48.8689V38.3511H47.4844V48.8689C47.4844 50.2364 48.501 51.6464 49.798 52.0791L55.3729 53.9369V56.8763C55.3729 57.3714 55.7738 57.7728 56.2689 57.7728C56.5067 57.7728 56.7347 57.6783 56.9028 57.5102C57.0709 57.3421 57.1654 57.1141 57.1654 56.8763V53.2908C57.1655 53.1026 57.1063 52.9192 56.9963 52.7666C56.8863 52.6139 56.7309 52.4998 56.5524 52.4404Z" fill="#60312C"/>
<path d="M47.784 26.9971H44.1973L46.5887 40.1438H50.1754V29.3873C50.175 28.067 49.1046 26.9971 47.784 26.9971Z" fill="#FFB4A9"/>
<path d="M44.1975 26.9971H41.8061C40.4858 26.9971 39.415 28.067 39.415 29.3873V40.1438H46.5885V29.3873C46.5885 28.067 45.5182 26.9971 44.1975 26.9971Z" fill="#FFD9D4"/>
<path d="M50.175 38.3511H46.5884V43.7291H50.1751C51.6613 43.7291 52.8654 42.5254 52.8654 41.0401C52.8654 39.5547 51.6613 38.3511 50.1751 38.3511H50.175Z" fill="#2DADE3"/>
<path d="M49.2783 41.0402C49.2783 39.5552 48.0737 38.3511 46.5885 38.3511H39.4144C37.9287 38.3511 36.7246 39.5548 36.7246 41.0401C36.7246 42.5253 37.9287 43.7291 39.4144 43.7291H46.5883C48.0736 43.7291 49.278 42.5254 49.278 41.0401L49.2783 41.0402Z" fill="#49C9FF"/>
<path d="M11.6285 30.5827C11.6285 31.0774 11.2275 31.4788 10.7324 31.4788C10.2373 31.4788 9.83594 31.0774 9.83594 30.5827C9.83594 30.0876 10.2373 29.6863 10.7324 29.6863C11.2275 29.6863 11.6285 30.0876 11.6285 30.5827ZM15.214 30.5827C15.214 31.0774 14.813 31.4788 14.3179 31.4788C13.8228 31.4788 13.4215 31.0774 13.4215 30.5827C13.4215 30.0876 13.8228 29.6863 14.3179 29.6863C14.813 29.6863 15.214 30.0876 15.214 30.5827Z" fill="#C27749"/>
<path d="M16.6191 14.5473C16.6203 14.546 12.5249 14.5465 12.5249 14.5465V23.4111C15.4951 23.4111 17.9034 21.0029 17.9034 18.033C17.9051 16.7551 17.4495 15.5187 16.6191 14.5473Z" fill="#E18F4E"/>
<path d="M14.185 16.0022L8.43078 14.5474C7.60034 15.5187 7.1448 16.7552 7.14649 18.0331C7.14649 21.0029 9.55479 23.4112 12.5246 23.4112C13.5144 23.4112 14.3176 21.003 14.3176 18.0331C14.3176 17.3145 14.2707 16.6288 14.185 16.0022Z" fill="#FFA754"/>
<path d="M12.5249 12.6545L14.1852 16.0027C15.0753 15.7359 15.9153 15.25 16.6191 14.5473C15.6329 13.3893 14.1648 12.6545 12.5249 12.6545Z" fill="#40211D"/>
<path d="M12.5244 12.6545C10.8844 12.6545 9.41637 13.3893 8.43018 14.5473C9.98878 16.1055 12.2124 16.5914 14.1844 16.0026C13.918 14.0386 13.2751 12.6545 12.5244 12.6545Z" fill="#60312C"/>
<path d="M34.9983 3.32837C36.6203 4.95035 37.6242 7.1915 37.6242 9.66677C37.6242 14.6169 33.6109 18.6304 28.6602 18.6304L34.9983 3.32837Z" fill="#FF4128"/>
<path d="M34.9982 3.32834L28.6602 8.03881V0.702637C31.1353 0.702637 33.3766 1.70657 34.9985 3.32834H34.9982Z" fill="#2DADE3"/>
<path d="M28.6598 0.702637C23.7096 0.702637 19.6958 4.716 19.6958 9.66664C19.6958 12.1418 20.7 14.3825 22.322 16.0045L32.0134 2.66015C31.0946 1.43543 29.9281 0.702637 28.6598 0.702637Z" fill="#49C9FF"/>
<path d="M22.3218 16.0045C23.9437 17.6264 26.1845 18.6308 28.6596 18.6308C31.5329 18.6308 33.8814 14.8741 34.0297 10.1458L22.3218 16.0045Z" fill="#FF6337"/>
<path d="M34.9983 3.32839C34.3182 2.64871 33.2595 2.44639 32.0142 2.6603L34.0302 10.1458C35.8383 7.38144 36.3155 4.64437 34.9983 3.32849V3.32839Z" fill="#FFE2A8"/>
<path d="M34.0382 9.66662C34.0382 9.82803 34.0357 9.98667 34.0298 10.1457C33.4357 11.0554 32.6959 11.9695 31.8294 12.8363C28.3288 16.337 24.0715 17.7554 22.3213 16.0045C20.5705 14.2548 21.9893 9.99754 25.49 6.49691C27.6306 4.35625 30.0544 2.99392 32.0132 2.66064C33.2482 4.30252 34.0382 6.8306 34.0382 9.66662Z" fill="#FFF0D3"/>
</svg>
