<svg width="17" height="18" viewBox="0 0 17 18" fill="none" xmlns="http://www.w3.org/2000/svg">
<path d="M10.0886 1.26568H5.04437C4.69528 1.26568 4.41602 0.98641 4.41602 0.637324C4.41602 0.288239 4.69528 0.000244141 5.04437 0.000244141H10.0886C10.4377 0.000244141 10.717 0.279512 10.717 0.628597C10.717 0.977682 10.4377 1.26568 10.0886 1.26568ZM14.522 11.3455H11.9563C10.8479 11.3455 10.1846 12.0088 10.1846 13.1171V15.6829C10.1846 16.7912 10.8479 17.4545 11.9563 17.4545H14.522C15.6304 17.4545 16.2936 16.7912 16.2936 15.6829V13.1171C16.2936 12.0088 15.6304 11.3455 14.522 11.3455ZM14.2777 15.2378L13.2479 15.8313C13.0384 15.9534 12.829 16.0145 12.637 16.0145C12.4886 16.0145 12.3577 15.9796 12.2355 15.9098C11.9563 15.744 11.7992 15.4211 11.7992 14.9934V13.8066C11.7992 13.3789 11.9563 13.056 12.2355 12.8902C12.5148 12.7244 12.8726 12.7593 13.2479 12.9688L14.2777 13.5622C14.6442 13.7804 14.8537 14.0771 14.8537 14.4C14.8537 14.7229 14.6529 15.0196 14.2777 15.2378Z" fill="url(#paint0_linear_41_963)"/>
<path d="M9.31185 15.681V13.1152C9.31185 11.5356 10.3766 10.4709 11.9562 10.4709H14.5219C14.7227 10.4709 14.9147 10.4884 15.0979 10.5233C15.1154 10.3138 15.1328 10.1044 15.1328 9.88618C15.1328 5.70589 11.738 2.31104 7.56642 2.31104C3.39485 2.31104 0 5.70589 0 9.88618C0 14.0578 3.39485 17.4526 7.56642 17.4526C8.30823 17.4526 9.01512 17.3304 9.69584 17.1384C9.43752 16.6966 9.30475 16.1927 9.31185 15.681ZM8.22095 9.59819C8.22095 9.956 7.92423 10.2527 7.56642 10.2527C7.20861 10.2527 6.91189 9.956 6.91189 9.59819V5.23462C6.91189 4.87681 7.20861 4.58009 7.56642 4.58009C7.92423 4.58009 8.22095 4.87681 8.22095 5.23462V9.59819Z" fill="url(#paint1_linear_41_963)"/>
<defs>
<linearGradient id="paint0_linear_41_963" x1="14.7326" y1="-4.16896" x2="-2.57609" y2="10.4674" gradientUnits="userSpaceOnUse">
<stop stop-color="#45A3D9"/>
<stop offset="1" stop-color="#45D9D0"/>
</linearGradient>
<linearGradient id="paint1_linear_41_963" x1="13.1439" y1="-1.30575" x2="-1.73246" y2="17.1694" gradientUnits="userSpaceOnUse">
<stop stop-color="#45A3D9"/>
<stop offset="1" stop-color="#45D9D0"/>
</linearGradient>
</defs>
</svg>
