<svg width="22" height="22" viewBox="0 0 22 22" fill="none" xmlns="http://www.w3.org/2000/svg">
<path d="M10.6667 0C8.55705 0 6.49475 0.625593 4.74062 1.79767C2.98648 2.96974 1.6193 4.63566 0.811961 6.58475C0.00462176 8.53384 -0.206615 10.6786 0.204963 12.7477C0.616541 14.8168 1.63245 16.7175 3.12422 18.2092C4.61599 19.701 6.51662 20.7169 8.58576 21.1285C10.6549 21.5401 12.7996 21.3288 14.7487 20.5215C16.6978 19.7142 18.3637 18.347 19.5358 16.5928C20.7079 14.8387 21.3335 12.7764 21.3335 10.6667C21.3301 7.83876 20.2052 5.12757 18.2056 3.1279C16.2059 1.12822 13.4947 0.00333623 10.6667 0ZM10.6667 19.3941C8.94063 19.3941 7.25329 18.8822 5.81809 17.9232C4.38289 16.9643 3.26429 15.6012 2.60374 14.0065C1.94319 12.4118 1.77036 10.657 2.1071 8.96411C2.44385 7.27118 3.27505 5.71612 4.49558 4.49558C5.71612 3.27504 7.27118 2.44384 8.96412 2.1071C10.6571 1.77035 12.4118 1.94318 14.0065 2.60373C15.6012 3.26428 16.9643 4.38289 17.9232 5.81809C18.8822 7.25329 19.3941 8.94063 19.3941 10.6667C19.3912 12.9805 18.4708 15.1987 16.8348 16.8348C15.1987 18.4708 12.9805 19.3912 10.6667 19.3941Z" fill="url(#paint0_linear_41_1699)"/>
<path d="M11.6367 10.2654V4.84861C11.6367 4.59143 11.5345 4.34478 11.3527 4.16293C11.1708 3.98107 10.9241 3.87891 10.667 3.87891C10.4098 3.87891 10.1631 3.98107 9.98129 4.16293C9.79943 4.34478 9.69727 4.59143 9.69727 4.84861V10.6668C9.69732 10.924 9.79952 11.1706 9.98139 11.3524L12.8905 14.2615C13.0734 14.4382 13.3183 14.5359 13.5726 14.5337C13.8268 14.5315 14.0701 14.4295 14.2498 14.2497C14.4296 14.0699 14.5316 13.8267 14.5338 13.5724C14.536 13.3182 14.4383 13.0732 14.2617 12.8904L11.6367 10.2654Z" fill="url(#paint1_linear_41_1699)"/>
<defs>
<linearGradient id="paint0_linear_41_1699" x1="18.5296" y1="-5.09581" x2="-2.42766" y2="20.9462" gradientUnits="userSpaceOnUse">
<stop stop-color="#45A3D9"/>
<stop offset="1" stop-color="#45D9D0"/>
</linearGradient>
<linearGradient id="paint1_linear_41_1699" x1="13.8982" y1="1.33385" x2="4.72803" y2="6.50649" gradientUnits="userSpaceOnUse">
<stop stop-color="#45A3D9"/>
<stop offset="1" stop-color="#45D9D0"/>
</linearGradient>
</defs>
</svg>
