<svg width="92" height="134" viewBox="0 0 92 134" fill="none" xmlns="http://www.w3.org/2000/svg">
<path d="M83.6379 121.521H89.5074V131.126H2.00098V121.521H83.6379Z" fill="#607882"/>
<path d="M85.7718 121.521V124.723C85.7718 126.197 84.5773 127.391 83.1046 127.391H2.00098V131.126H89.5074V121.521H85.7718Z" fill="#495959"/>
<path d="M83.6373 121.521V16.6746C83.6373 16.6746 72.5654 6.80322 45.7534 6.80322C18.9412 6.80296 7.87012 16.6746 7.87012 16.6746V121.522L83.6373 121.521Z" fill="#00A6DF"/>
<path d="M45.7539 6.80298C18.9412 6.80298 7.87012 16.6744 7.87012 16.6744V25.4784H16.9412V21.723C22.4961 19.1536 32.2351 15.8738 45.7542 15.8738C59.2717 15.8738 69.0121 19.1533 74.5667 21.723V25.4779C74.5667 27.8354 76.4783 29.7457 78.8356 29.7457V121.521H83.6378V16.6746C83.6378 16.6746 72.5659 6.80324 45.7539 6.80324V6.80298Z" fill="#00A7DF"/>
<path d="M85.9323 12.1381C85.1881 11.7338 70.0848 2.00049 45.7546 2.00049C21.4245 2.00049 6.31982 11.7341 5.57488 12.1381C4.81649 12.5509 4.18342 13.1605 3.74231 13.9028C3.30121 14.6451 3.06839 15.4926 3.06836 16.356V25.4778H12.6724V19.075C17.6413 16.4403 28.9487 11.6048 45.7538 11.6048C62.5584 11.6048 73.8659 16.4403 78.8355 19.075V25.4778H88.4398V16.356C88.4398 14.5981 87.4778 12.979 85.932 12.1381H85.9323Z" fill="#DFEDFF"/>
<path d="M85.9324 12.1381C85.1882 11.7338 70.0849 2.00049 45.7547 2.00049C44.9432 2.00049 44.1437 2.01167 43.3535 2.03299C66.2723 2.63934 80.4115 11.7471 81.1315 12.1381C81.89 12.5509 82.5231 13.1605 82.9642 13.9028C83.4054 14.6451 83.6382 15.4926 83.6383 16.356V25.4778H88.4405V16.356C88.4405 14.5981 87.4784 12.979 85.9327 12.1381H85.9324Z" fill="#C0DBFF"/>
<path d="M23.8773 53.2232H20.6761C19.2023 53.2232 18.0078 52.029 18.0078 50.5563V45.2198C18.0078 43.746 19.2023 42.5515 20.6761 42.5515H23.8773C25.3511 42.5515 26.5456 43.746 26.5456 45.2198V50.5563C26.5445 52.0298 25.35 53.2232 23.8773 53.2232Z" fill="#607882"/>
<path d="M23.8777 42.5527H20.6764C20.6652 42.5527 20.654 42.5538 20.6426 42.5538C22.1002 42.572 23.2773 43.7584 23.2773 45.2199V50.5564C23.2773 52.0177 22.1002 53.2041 20.6428 53.2223C20.654 53.2223 20.6652 53.2234 20.6764 53.2234H23.8777C25.3514 53.2234 26.5459 52.0292 26.5459 50.5554V45.2199C26.5449 43.7472 25.3504 42.5527 23.8777 42.5527Z" fill="#495959"/>
<path d="M23.8773 103.913H20.6761C19.2023 103.913 18.0078 102.719 18.0078 101.245V95.9089C18.0078 94.4362 19.2023 93.2417 20.6761 93.2417H23.8773C25.3511 93.2417 26.5456 94.4362 26.5456 95.9089V101.245C26.5445 102.719 25.35 103.913 23.8773 103.913Z" fill="#607882"/>
<path d="M23.8777 93.2417H20.6764C20.6652 93.2417 20.654 93.2427 20.6426 93.2427C22.1002 93.2609 23.2773 94.4474 23.2773 95.9089V101.245C23.2773 102.707 22.1002 103.893 20.6428 103.912C20.654 103.912 20.6652 103.913 20.6764 103.913H23.8777C25.3514 103.913 26.5459 102.718 26.5459 101.245V95.9089C26.5449 94.4362 25.3504 93.2417 23.8777 93.2417Z" fill="#495959"/>
<path d="M3.06798 27.4792H5.86936V74.0334C5.86936 74.564 6.08016 75.0729 6.45538 75.4481C6.8306 75.8234 7.33951 76.0342 7.87016 76.0342C8.4008 76.0342 8.90971 75.8234 9.28493 75.4481C9.66016 75.0729 9.87095 74.564 9.87095 74.0334V27.4792H12.6723C12.9351 27.4792 13.1953 27.4275 13.4381 27.3269C13.6809 27.2264 13.9015 27.079 14.0874 26.8931C14.2732 26.7073 14.4206 26.4867 14.5211 26.2439C14.6217 26.0011 14.6734 25.7409 14.6734 25.4781V20.2971C20.1467 17.5722 30.7037 13.6059 45.754 13.6059C60.8033 13.6059 71.36 17.5722 76.8346 20.2971V25.4781C76.8346 25.7409 76.8863 26.0011 76.9868 26.2439C77.0874 26.4866 77.2347 26.7072 77.4205 26.893C77.6063 27.0789 77.8269 27.2263 78.0697 27.3268C78.3124 27.4274 78.5726 27.4792 78.8354 27.4792H81.6368V34.0148C81.6368 34.5455 81.8476 35.0544 82.2228 35.4296C82.598 35.8048 83.1069 36.0156 83.6376 36.0156C84.1682 36.0156 84.6771 35.8048 85.0523 35.4296C85.4276 35.0544 85.6384 34.5455 85.6384 34.0148V27.4792H88.4397C88.7025 27.4792 88.9627 27.4274 89.2055 27.3268C89.4482 27.2263 89.6688 27.0789 89.8546 26.893C90.0404 26.7072 90.1878 26.4866 90.2883 26.2439C90.3888 26.0011 90.4406 25.7409 90.4405 25.4781V16.3563C90.4405 13.8628 89.0796 11.5737 86.8999 10.3872C86.8674 10.369 86.8157 10.3386 86.7445 10.296C82.687 7.88046 67.7391 0 45.7542 0C38.5987 0 31.5357 0.82788 24.7634 2.46102C23.6896 2.71999 23.0284 3.8006 23.2876 4.87523C23.5468 5.94987 24.6272 6.61108 25.7018 6.35107C32.1676 4.79203 38.9146 4.00185 45.754 4.00185C66.7178 4.00185 80.863 11.4507 84.6992 13.7341C84.8352 13.8163 84.9288 13.8701 84.9764 13.8964C85.419 14.1368 85.7885 14.4923 86.0459 14.9253C86.3033 15.3582 86.4391 15.8526 86.4389 16.3563V23.4765H80.8367V19.0745C80.8366 18.7111 80.7375 18.3547 80.5502 18.0433C80.3628 17.732 80.0943 17.4775 79.7733 17.3072C74.3463 14.4307 62.7118 9.60408 45.754 9.60408C28.7952 9.60408 17.1607 14.4307 11.735 17.307C11.4139 17.4775 11.1453 17.7321 10.958 18.0436C10.7707 18.3552 10.6716 18.7118 10.6715 19.0753V23.4773H5.06904V16.3563C5.06884 15.8527 5.20461 15.3583 5.46204 14.9253C5.71946 14.4924 6.08899 14.137 6.53161 13.8966C6.57841 13.8701 6.67202 13.816 6.80904 13.7349C10.4227 11.5838 14.2701 9.9902 16.8622 9.03231C17.3597 8.84806 17.7638 8.47385 17.9856 7.99188C18.2074 7.50991 18.2289 6.9596 18.0452 6.46183C17.861 5.96399 17.4867 5.55967 17.0045 5.33777C16.5222 5.11587 15.9716 5.09456 15.4737 5.27851C12.7262 6.29412 8.63615 7.9894 4.76223 10.296C4.69124 10.3386 4.6395 10.3688 4.61818 10.3813C3.54335 10.9655 2.64608 11.829 2.02097 12.8806C1.39587 13.9322 1.06609 15.133 1.06641 16.3563V25.4781C1.06641 25.741 1.11819 26.0012 1.2188 26.2441C1.31941 26.4869 1.46688 26.7075 1.65278 26.8933C1.83868 27.0792 2.05936 27.2265 2.30223 27.3271C2.5451 27.4276 2.80514 27.4793 3.06798 27.4792ZM65.3626 69.2314C65.3626 68.9687 65.3109 68.7084 65.2103 68.4656C65.1098 68.2228 64.9624 68.0022 64.7766 67.8164C64.5907 67.6306 64.3701 67.4832 64.1273 67.3826C63.8845 67.2821 63.6243 67.2304 63.3615 67.2304H59.627C59.3642 67.2304 59.104 67.2822 58.8612 67.3827C58.6185 67.4833 58.3979 67.6307 58.2121 67.8165C58.0263 68.0023 57.8789 68.2229 57.7784 68.4657C57.6779 68.7085 57.6261 68.9687 57.6262 69.2314C57.6262 70.2918 58.4509 71.1561 59.4931 71.2252V77.9083C58.4509 77.9772 57.6262 78.8428 57.6262 79.9031C57.6262 80.4338 57.837 80.9427 58.2122 81.3179C58.5874 81.6931 59.0963 81.9039 59.627 81.9039H63.3615C63.6243 81.904 63.8845 81.8522 64.1273 81.7517C64.3701 81.6512 64.5906 81.5038 64.7765 81.318C64.9623 81.1322 65.1097 80.9116 65.2103 80.6689C65.3108 80.4261 65.3626 80.1659 65.3626 79.9031C65.3626 78.8428 64.5378 77.9772 63.4947 77.9083V71.2252C64.5378 71.1561 65.3626 70.2907 65.3626 69.2314ZM54.2905 96.0432H37.2162C36.1112 96.0432 35.2162 96.9389 35.2162 98.044C35.2162 99.149 36.1112 100.045 37.2162 100.045H54.2905C54.8211 100.045 55.3301 99.8342 55.7053 99.459C56.0806 99.0837 56.2914 98.5748 56.2914 98.0441C56.2914 97.5134 56.0806 97.0045 55.7053 96.6292C55.3301 96.254 54.8211 96.0432 54.2905 96.0432ZM54.2905 102.446H37.2162C36.1112 102.446 35.2162 103.342 35.2162 104.447C35.2162 105.552 36.1112 106.448 37.2162 106.448H54.2905C54.8211 106.448 55.3301 106.237 55.7053 105.862C56.0806 105.487 56.2914 104.978 56.2914 104.447C56.2914 103.916 56.0806 103.407 55.7053 103.032C55.3301 102.657 54.8211 102.446 54.2905 102.446ZM54.2905 108.849H37.2162C36.1112 108.849 35.2162 109.745 35.2162 110.85C35.2162 111.955 36.1112 112.851 37.2162 112.851H54.2905C54.8211 112.851 55.3301 112.64 55.7053 112.265C56.0806 111.889 56.2914 111.38 56.2914 110.85C56.2914 110.319 56.0806 109.81 55.7053 109.435C55.3301 109.06 54.8211 108.849 54.2905 108.849Z" fill="black"/>
<path d="M89.5072 119.521H85.6385V43.353C85.6385 42.8224 85.4277 42.3135 85.0525 41.9382C84.6773 41.563 84.1684 41.3522 83.6377 41.3522C83.1071 41.3522 82.5981 41.563 82.2229 41.9382C81.8477 42.3135 81.6369 42.8224 81.6369 43.353V119.521H71.2322V32.9486C71.2322 28.902 67.9405 25.6113 63.896 25.6113H27.612C23.5668 25.6113 20.2758 28.9031 20.2758 32.9486V40.5712C17.8881 40.7753 16.0069 42.7813 16.0069 45.2202V50.5564C16.0069 52.9948 17.8881 55 20.2758 55.2041V91.2614C17.8881 91.4655 16.0069 93.4704 16.0069 95.9091V101.246C16.0069 103.684 17.8881 105.69 20.2758 105.894V119.521H9.87138V83.3705C9.87138 82.8399 9.66058 82.331 9.28535 81.9557C8.91013 81.5805 8.40122 81.3697 7.87058 81.3697C7.33993 81.3697 6.83102 81.5805 6.4558 81.9557C6.08058 82.331 5.86978 82.8399 5.86978 83.3705V119.52H2.00054C1.73774 119.52 1.47753 119.572 1.23476 119.673C0.991996 119.773 0.771426 119.921 0.585652 120.106C0.399878 120.292 0.25254 120.513 0.152053 120.756C0.0515656 120.999 -0.000102303 121.259 1.52075e-07 121.522V131.126C6.91058e-05 131.657 0.210897 132.165 0.586112 132.541C0.961326 132.916 1.4702 133.127 2.0008 133.127H89.5062C89.769 133.127 90.0292 133.075 90.2719 132.974C90.5147 132.874 90.7353 132.726 90.9211 132.541C91.1069 132.355 91.2543 132.134 91.3549 131.891C91.4555 131.649 91.5072 131.388 91.5072 131.126V121.521C91.5073 121.259 91.4557 120.999 91.3552 120.756C91.2548 120.513 91.1075 120.292 90.9217 120.107C90.736 119.921 90.5155 119.773 90.2728 119.673C90.0301 119.572 89.7699 119.521 89.5072 119.521ZM20.0087 50.5562V45.2199C20.0091 45.0431 20.0796 44.8737 20.2047 44.7488C20.3298 44.6239 20.4994 44.5538 20.6762 44.5538H23.8775C24.0542 44.554 24.2235 44.6243 24.3486 44.7491C24.4736 44.874 24.5441 45.0432 24.5447 45.2199V50.5564C24.5444 50.7333 24.474 50.9028 24.3489 51.0279C24.2239 51.1529 24.0543 51.2233 23.8775 51.2236H20.6762C20.4992 51.2235 20.3296 51.1532 20.2044 51.0281C20.0793 50.903 20.0089 50.7334 20.0087 50.5564V50.5562ZM20.0087 101.246V95.9101C20.0089 95.7332 20.0793 95.5635 20.2044 95.4384C20.3296 95.3133 20.4992 95.243 20.6762 95.2429H23.8775C24.0543 95.2432 24.2239 95.3136 24.3489 95.4387C24.474 95.5637 24.5444 95.7333 24.5447 95.9101V101.246C24.5444 101.422 24.474 101.592 24.3489 101.717C24.2239 101.842 24.0543 101.913 23.8775 101.913H20.6762C20.4992 101.913 20.3296 101.842 20.2044 101.717C20.0793 101.592 20.0089 101.423 20.0087 101.246ZM24.2776 105.894C26.6645 105.69 28.5465 103.685 28.5465 101.245V95.9101C28.5465 93.4704 26.6645 91.4655 24.2776 91.2614V55.2049C26.6645 55.0008 28.5465 52.9948 28.5465 50.5562V45.2199C28.5465 42.7813 26.6645 40.7763 24.2776 40.5722V32.9486C24.2776 31.1093 25.7737 29.6132 27.612 29.6132H63.895C65.7345 29.6132 67.2304 31.1093 67.2304 32.9486V119.521H24.2776V105.894ZM87.5054 129.125H4.00185V123.522H87.5054V129.125Z" fill="black"/>
</svg>
