<svg width="24" height="24" viewBox="0 0 24 24" fill="none" xmlns="http://www.w3.org/2000/svg">
<path d="M7.99968 1.19995V0.399968C7.99968 0.29389 7.95754 0.192156 7.88253 0.117148C7.80752 0.0421393 7.70579 2.74683e-09 7.59971 2.74683e-09L0.400014 2.74683e-09C0.347486 -6.15317e-06 0.295471 0.0103348 0.246939 0.0304323C0.198407 0.0505298 0.15431 0.0799902 0.117164 0.117131C0.080019 0.154272 0.0505534 0.198366 0.0304502 0.246896C0.010347 0.295425 -3.60712e-10 0.347439 0 0.399968L0 1.19995C0 1.30603 0.0421393 1.40776 0.117148 1.48277C0.192156 1.55778 0.29389 1.59992 0.399968 1.59992H7.59967C7.65219 1.59992 7.70421 1.58958 7.75274 1.56948C7.80127 1.54939 7.84537 1.51993 7.88252 1.48279C7.91966 1.44564 7.94913 1.40155 7.96923 1.35302C7.98933 1.30449 7.99968 1.25248 7.99968 1.19995ZM12.1355 17.5112C9.95963 16.6913 8.37167 14.8993 8.06371 12.7555C8.05283 12.6572 8.00594 12.5664 7.93208 12.5007C7.85821 12.4349 7.76262 12.3989 7.66374 12.3995H2.06391C2.00554 12.3987 1.9477 12.4107 1.89448 12.4347C1.84125 12.4587 1.79391 12.494 1.75579 12.5383C1.71767 12.5825 1.68969 12.6345 1.67382 12.6907C1.65794 12.7469 1.65456 12.8058 1.6639 12.8635C1.99988 14.7114 3.71581 15.5193 4.79975 16.3673C6.32369 17.5673 7.45164 19.5672 6.88368 23.535C6.87434 23.5926 6.87772 23.6516 6.89359 23.7078C6.90946 23.7639 6.93744 23.816 6.97556 23.8602C7.01367 23.9044 7.061 23.9397 7.11423 23.9637C7.16745 23.9877 7.22528 23.9997 7.28365 23.9989H10.9755C11.0485 23.9995 11.1203 23.98 11.1831 23.9426C11.2459 23.9053 11.2972 23.8514 11.3315 23.7869C12.1995 22.079 12.3995 19.9671 12.3995 17.8872C12.3994 17.805 12.3741 17.7248 12.3268 17.6575C12.2796 17.5903 12.2128 17.5392 12.1355 17.5112ZM7.1997 11.1995V5.19977H7.99968C8.22059 5.19977 8.39965 5.02071 8.39965 4.7998C8.39965 4.57889 8.22059 4.39983 7.99968 4.39983H7.1997V2.79987C7.1997 2.69379 7.15756 2.59206 7.08255 2.51705C7.00754 2.44204 6.90581 2.3999 6.79973 2.3999H1.19995C1.09387 2.3999 0.992138 2.44204 0.91713 2.51705C0.842121 2.59206 0.799982 2.69379 0.799982 2.79987V11.1995C0.799982 11.3056 0.842121 11.4073 0.91713 11.4823C0.992138 11.5573 1.09387 11.5995 1.19995 11.5995H6.79973C6.85226 11.5995 6.90427 11.5891 6.9528 11.569C7.00133 11.549 7.04542 11.5195 7.08256 11.4823C7.11971 11.4452 7.14917 11.4011 7.16926 11.3526C7.18936 11.3041 7.1997 11.252 7.1997 11.1995ZM17.9992 18.2952C17.9997 18.238 17.9879 18.1814 17.9647 18.1291C17.9414 18.0769 17.9072 18.0302 17.8643 17.9923C17.8215 17.9544 17.771 17.9261 17.7163 17.9094C17.6616 17.8926 17.604 17.8878 17.5472 17.8953C17.1679 17.9596 16.7841 17.9944 16.3993 17.9993H14.7994C14.4136 17.9986 14.0284 17.9678 13.6474 17.9073C13.5907 17.8998 13.533 17.9046 13.4783 17.9214C13.4236 17.9381 13.3732 17.9664 13.3303 18.0043C13.2875 18.0422 13.2533 18.0889 13.23 18.1411C13.2067 18.1934 13.1949 18.25 13.1954 18.3072C13.1874 20.0668 12.8678 21.811 12.2514 23.459C12.229 23.519 12.2213 23.5835 12.229 23.647C12.2367 23.7106 12.2595 23.7714 12.2956 23.8243C12.3316 23.8772 12.3799 23.9207 12.4362 23.9511C12.4926 23.9815 12.5554 23.9979 12.6194 23.999H18.5792C18.6442 23.9984 18.7081 23.982 18.7653 23.9512C18.8226 23.9203 18.8714 23.876 18.9077 23.822C18.9439 23.7681 18.9665 23.7061 18.9733 23.6414C18.9802 23.5768 18.9712 23.5114 18.9472 23.451C18.3292 21.8019 18.0082 20.0563 17.9992 18.2952ZM23.399 10.3996H8.59965C8.26831 10.3996 7.99968 10.6682 7.99968 10.9996C7.99968 11.3309 8.26831 11.5995 8.59965 11.5995H23.399C23.7304 11.5995 23.999 11.3309 23.999 10.9996C23.999 10.6682 23.7304 10.3996 23.399 10.3996Z" fill="url(#paint0_linear_36_54)"/>
<path d="M21.9956 12.4076C21.9679 12.4019 21.9397 12.3992 21.9115 12.3995H9.28795C9.22796 12.3983 9.16847 12.4106 9.11388 12.4355C9.05928 12.4604 9.01099 12.4972 8.97258 12.5433C8.93417 12.5894 8.90662 12.6436 8.89198 12.7018C8.87733 12.76 8.87597 12.8207 8.88798 12.8795C9.37598 15.3274 11.8359 17.1993 14.7998 17.1993H16.3997C19.3636 17.1993 21.8235 15.3274 22.3074 12.8795C22.3286 12.7755 22.3077 12.6674 22.2492 12.5789C22.1908 12.4904 22.0995 12.4288 21.9956 12.4076Z" fill="url(#paint1_linear_36_54)"/>
<defs>
<linearGradient id="paint0_linear_36_54" x1="20.8448" y1="-5.73251" x2="-2.73098" y2="23.5634" gradientUnits="userSpaceOnUse">
<stop stop-color="#45A3D9"/>
<stop offset="1" stop-color="#45D9D0"/>
</linearGradient>
<linearGradient id="paint1_linear_36_54" x1="20.5497" y1="11.2529" x2="17.9861" y2="20.1697" gradientUnits="userSpaceOnUse">
<stop stop-color="#45A3D9"/>
<stop offset="1" stop-color="#45D9D0"/>
</linearGradient>
</defs>
</svg>
