<svg width="22" height="22" viewBox="0 0 22 22" fill="none" xmlns="http://www.w3.org/2000/svg">
<path d="M21.6758 14.2384C21.2723 14.203 20.8724 14.0549 20.7132 13.6373C20.5364 13.246 20.7187 12.8546 20.9726 12.549C21.0865 12.3918 21.0668 12.1797 20.9333 12.0421L19.3892 10.4981C19.2517 10.3645 19.0395 10.3449 18.8824 10.4588L18.6545 10.6199C18.1563 11.0049 17.3218 10.6733 17.2401 10.0345L17.1929 9.75553C17.178 9.66428 17.131 9.58134 17.0605 9.52158C16.9899 9.46182 16.9004 9.42915 16.8079 9.42943H14.6231C14.4305 9.42943 14.2695 9.56694 14.238 9.75553L14.1909 10.0345C14.1111 10.6615 13.2853 11.0128 12.7765 10.6199L12.5486 10.4588C12.3914 10.3449 12.1793 10.3645 12.0418 10.4981L10.4973 12.0421C10.3637 12.1797 10.3441 12.3918 10.458 12.549L10.6191 12.7769C11.0042 13.275 10.6726 14.1091 10.0337 14.1913L9.75476 14.2384C9.66351 14.2533 9.58057 14.3003 9.52081 14.3709C9.46105 14.4414 9.42838 14.531 9.42866 14.6234V16.8079C9.42866 17.0004 9.56617 17.1615 9.75476 17.1929L10.0337 17.2401C10.3402 17.2912 10.5916 17.4915 10.7173 17.7941C10.8352 18.0809 10.7998 18.403 10.6191 18.6545C10.4517 18.8718 10.2537 19.1354 10.4973 19.3892L12.0414 20.9332C12.1789 21.0668 12.3911 21.0865 12.5482 20.9725C12.8586 20.7136 13.2452 20.5376 13.6522 20.7211C14.0557 20.8704 14.2019 21.2794 14.2376 21.6758C14.2691 21.8644 14.4301 22.0019 14.6227 22.0019H16.8075C17 22.0019 17.1611 21.8644 17.1926 21.6758L17.2397 21.3969C17.3195 20.7698 18.1453 20.4186 18.6541 20.8114C18.8714 20.9788 19.135 21.1768 19.3888 20.9332L20.9329 19.3892C21.0665 19.2517 21.0861 19.0395 20.9722 18.8824C20.7136 18.572 20.5376 18.1854 20.7207 17.7783C20.8704 17.3748 21.2794 17.2291 21.6754 17.1929C21.7668 17.1781 21.8498 17.1311 21.9096 17.0606C21.9695 16.99 22.0022 16.9004 22.0019 16.8079V14.6234C22.0019 14.4309 21.8644 14.2698 21.6758 14.2384ZM15.7153 19.4481C13.7171 19.4882 11.9408 17.7182 11.9828 15.7157C11.9652 12.4272 16.028 10.737 18.3516 13.0715C20.6971 15.3986 19.0089 19.4638 15.7153 19.4481ZM15.7153 12.769C13.5465 12.7175 12.0551 15.201 13.1104 17.0908C14.5555 19.7844 18.6411 18.7755 18.662 15.7157C18.7001 14.1457 17.2931 12.7297 15.7153 12.769ZM15.5071 15.3228H15.9235C17.1682 15.3444 17.3151 17.1144 16.1082 17.3501C16.1738 17.9756 15.2745 17.9952 15.3224 17.3658H14.8745C14.6584 17.3658 14.4816 17.1929 14.4816 16.9729C14.4816 16.7568 14.6584 16.58 14.8745 16.58H15.9235C16.0571 16.58 16.1632 16.4739 16.1632 16.3443C16.1542 16.0127 15.7173 16.1274 15.5071 16.1086C14.2624 16.0869 14.1154 14.317 15.3224 14.0812C15.2568 13.4554 16.1561 13.4361 16.1082 14.0655H16.5561C17.0719 14.0734 17.0731 14.8411 16.5561 14.8513H15.5071C15.1931 14.8529 15.1931 15.3212 15.5071 15.3228ZM11.9986 22.0019H2.63481C0.00245084 22.0098 -0.999418 18.5052 1.22827 17.1183C-0.527951 13.0833 1.24398 8.07396 5.11002 6.00343C5.44005 6.66742 6.12367 7.07209 6.85052 7.07209H11.1373C11.876 7.07209 12.5439 6.65563 12.8778 6.01522C14.0526 6.64777 15.0545 7.55928 15.8127 8.64365H14.6223C13.9005 8.64444 13.4585 9.22316 13.4161 9.90483C13.422 9.95787 13.2959 10.0388 13.2275 9.97948C12.7246 9.53001 11.9915 9.43572 11.487 9.94412L9.9351 11.496C9.53042 11.9086 9.48327 12.545 9.81723 13.0008L9.98224 13.2365C9.9901 13.2483 10.0137 13.2798 9.98224 13.3544C9.96181 13.4448 9.69465 13.4408 9.62471 13.4644C9.05502 13.5587 8.64249 14.0459 8.64249 14.6234V16.8079C8.64406 17.5312 9.22004 17.9701 9.90367 18.0141C9.92331 18.018 9.9626 18.0259 9.9901 18.0927C10.0019 18.1202 10.0097 18.1594 9.97831 18.2027C9.52963 18.7091 9.43416 19.4206 9.93903 19.9392C10.2871 20.2917 11.6795 21.6797 11.9978 22.0019H11.9986ZM4.14822 1.93309C3.93017 0.965014 4.7462 -0.0238901 5.7355 0.000469078H12.2496C13.2397 -0.0246759 14.0545 0.965406 13.8369 1.93349C13.666 2.94714 12.9497 4.02602 12.171 4.55799C12.6056 5.3037 11.9934 6.31028 11.1377 6.28671H6.84816C5.99166 6.3091 5.3815 5.30252 5.81486 4.55799C5.50841 4.33404 5.14695 4.00795 4.83657 3.56005C4.49868 3.0768 4.27081 2.53068 4.14901 1.93349L4.14822 1.93309Z" fill="url(#paint0_linear_2073_200)"/>
<defs>
<linearGradient id="paint0_linear_2073_200" x1="19.1102" y1="-5.25548" x2="-2.50372" y2="21.6026" gradientUnits="userSpaceOnUse">
<stop stop-color="#45A3D9"/>
<stop offset="1" stop-color="#45D9D0"/>
</linearGradient>
</defs>
</svg>
