<svg width="25" height="26" viewBox="0 0 25 26" fill="none" xmlns="http://www.w3.org/2000/svg">
<path d="M23.2676 0.936523H2.56169C1.65024 0.936523 0.908691 1.67807 0.908691 2.58957V21.5052C0.908691 21.7062 1.07157 21.869 1.27253 21.869C1.47349 21.869 1.63636 21.7062 1.63636 21.5052V18.2056L2.89097 16.9511V19.4192C2.89097 19.6202 3.05385 19.7831 3.25481 19.7831C3.45577 19.7831 3.61864 19.6202 3.61864 19.4192V3.64648H22.2234V19.4192C22.2234 19.6202 22.3862 19.7831 22.5872 19.7831C22.7882 19.7831 22.951 19.6202 22.951 19.4192V16.9069L24.2057 18.1615V21.5052C24.2057 21.7062 24.3685 21.869 24.5695 21.869C24.7704 21.869 24.9333 21.7062 24.9333 21.5052V2.60215C24.9333 1.68371 24.1861 0.936523 23.2676 0.936523ZM2.89093 15.9219L1.63631 17.1764V14.999L2.89093 13.7445V15.9219ZM2.89093 12.7153L1.63631 13.9699V11.7925L2.89093 10.5379V12.7153ZM2.89093 9.50873L1.63631 10.7633V8.58589L2.89093 7.33132V9.50873ZM3.25476 2.91881C3.20698 2.9188 3.15967 2.92821 3.11552 2.94649C3.07138 2.96477 3.03126 2.99157 2.99748 3.02536C2.96369 3.05914 2.93689 3.09926 2.91861 3.1434C2.90033 3.18755 2.89092 3.23486 2.89093 3.28264V6.30222L1.63631 7.55678V2.58957C1.63631 2.07932 2.05139 1.66419 2.56169 1.66419H7.47665L6.26898 2.91881H3.25476ZM7.27895 2.91881L8.48662 1.66419H10.6832L9.47554 2.91881H7.27895ZM10.4855 2.91881L11.6932 1.66419H14.1973L15.405 2.91881H10.4855ZM16.4149 2.91881L15.2072 1.66419H17.4038L18.6115 2.91881H16.4149ZM24.2056 17.1323L22.951 15.8777V13.7003L24.2056 14.9549V17.1323ZM24.2056 13.9257L22.951 12.6711V10.4937L24.2056 11.7483V13.9257ZM24.2056 10.7192L22.951 9.46457V7.28716L24.2056 8.54178V10.7192ZM24.2056 7.51267L22.951 6.25805V3.28264C22.951 3.08168 22.7881 2.91881 22.5872 2.91881H19.6215L18.4138 1.66419H23.2676C23.7848 1.66419 24.2056 2.08496 24.2056 2.60215V7.51267H24.2056Z" fill="#0D0D0E"/>
<path d="M5.1398 11.2614L3.25489 5.17203L3.24316 5.15705V3.28271H5.1442L16.1471 9.47455V16.2661H5.18358V11.2694" fill="#FEEC96"/>
<path d="M20.6977 3.28271H22.5988V5.15705L22.587 5.17203L20.7021 11.1207L20.6749 12.3703L12.3843 7.51925L20.6977 3.28271Z" fill="#8ADFF8"/>
<path d="M5.13965 21.505V16.0894H20.7022V21.505" fill="#F0EEF0"/>
<path d="M19.1934 16.0894H20.7019V21.505H19.1934V16.0894Z" fill="#DFDDE0"/>
<path d="M3.25474 5.17189L1.66376 3.58091C1.14203 3.05918 1.14203 2.21332 1.66376 1.69159C2.18549 1.16986 3.03134 1.16986 3.55308 1.69159L5.14406 3.28258L3.25474 5.17189Z" fill="#5D5E69"/>
<path d="M2.57386 2.69534L4.15264 4.27412L5.14419 3.28258L3.55321 1.69159C3.03147 1.16986 2.18562 1.16986 1.66389 1.69159C1.48464 1.87043 1.36019 2.09674 1.30518 2.3439C1.74514 2.23433 2.22993 2.35141 2.57386 2.69534Z" fill="#484854"/>
<path d="M20.6978 3.28258L22.2887 1.69159C22.8105 1.16986 23.6563 1.16986 24.1781 1.69159C24.6998 2.21332 24.6998 3.05918 24.1781 3.58091L22.5871 5.17189L20.6978 3.28258Z" fill="#5D5E69"/>
<path d="M23.1745 2.60164L21.5957 4.18047L22.5873 5.17202L24.1782 3.58104C24.7 3.05931 24.7 2.21345 24.1782 1.69172C23.9994 1.51247 23.7731 1.38802 23.5259 1.33301C23.6355 1.77297 23.5184 2.25771 23.1745 2.60164Z" fill="#484854"/>
<path d="M9.87404 16.0894H5.13965V8.23073C5.13965 7.96283 5.35683 7.74561 5.62478 7.74561H9.38896C9.65686 7.74561 9.87409 7.96279 9.87409 8.23073V16.0894H9.87404Z" fill="#BDBFCE"/>
<path d="M9.38896 7.74561H7.88037C8.14827 7.74561 8.3655 7.96279 8.3655 8.23073V16.0894H9.87409V8.23073C9.87404 7.96279 9.65686 7.74561 9.38896 7.74561Z" fill="#ABACBA"/>
<path d="M7.50684 11.4019C8.06344 11.4019 8.51466 10.9506 8.51466 10.394C8.51466 9.83744 8.06344 9.38623 7.50684 9.38623C6.95024 9.38623 6.49902 9.83744 6.49902 10.394C6.49902 10.9506 6.95024 11.4019 7.50684 11.4019Z" fill="#5D5E69"/>
<path d="M7.50684 14.7769C8.06344 14.7769 8.51466 14.3256 8.51466 13.769C8.51466 13.2124 8.06344 12.7612 7.50684 12.7612C6.95024 12.7612 6.49902 13.2124 6.49902 13.769C6.49902 14.3256 6.95024 14.7769 7.50684 14.7769Z" fill="#5D5E69"/>
<path d="M15.9678 16.0894V8.23073C15.9678 7.96283 16.185 7.74561 16.4529 7.74561H20.2171C20.485 7.74561 20.7022 7.96279 20.7022 8.23073V16.0894H15.9678Z" fill="#BDBFCE"/>
<path d="M20.217 7.74561H18.6982C18.9661 7.74561 19.1834 7.96279 19.1834 8.23073V16.0894H20.7022V8.23073C20.7022 7.96279 20.485 7.74561 20.217 7.74561Z" fill="#ABACBA"/>
<path d="M18.335 11.4019C18.8916 11.4019 19.3428 10.9506 19.3428 10.394C19.3428 9.83744 18.8916 9.38623 18.335 9.38623C17.7784 9.38623 17.3271 9.83744 17.3271 10.394C17.3271 10.9506 17.7784 11.4019 18.335 11.4019Z" fill="#5D5E69"/>
<path d="M18.335 14.7769C18.8916 14.7769 19.3428 14.3256 19.3428 13.769C19.3428 13.2124 18.8916 12.7612 18.335 12.7612C17.7784 12.7612 17.3271 13.2124 17.3271 13.769C17.3271 14.3256 17.7784 14.7769 18.335 14.7769Z" fill="#5D5E69"/>
<path d="M0.890137 21.3356C0.890137 22.4591 1.78967 23.37 2.89931 23.37C4.00895 23.37 4.90848 22.4591 4.90848 21.3356V21.4057C4.90848 20.2822 4.00895 19.3713 2.89931 19.3713C1.78967 19.3713 0.890137 20.2822 0.890137 21.4057" fill="#5D5E69"/>
<path d="M4.90869 21.3356C4.90869 22.4591 5.80823 23.37 6.91787 23.37C8.0275 23.37 8.92704 22.4591 8.92704 21.3356V21.4057C8.92704 20.2822 8.0275 19.3713 6.91787 19.3713C5.80823 19.3713 4.90869 20.2822 4.90869 21.4057" fill="#484854"/>
<path d="M8.92676 21.3356C8.92676 22.4591 9.8263 23.37 10.9359 23.37C12.0456 23.37 12.9451 22.4591 12.9451 21.3356V21.4057C12.9451 20.2822 12.0456 19.3713 10.9359 19.3713C9.8263 19.3713 8.92676 20.2822 8.92676 21.4057" fill="#F9B04D"/>
<path d="M12.9453 21.3356C12.9453 22.4591 13.8448 23.37 14.9545 23.37C16.0641 23.37 16.9637 22.4591 16.9637 21.3356V21.4057C16.9637 20.2822 16.0641 19.3713 14.9545 19.3713C13.8448 19.3713 12.9453 20.2822 12.9453 21.4057" fill="#484854"/>
<path d="M16.9634 21.3356C16.9634 22.4591 17.8629 23.37 18.9726 23.37C20.0822 23.37 20.9817 22.4591 20.9817 21.3356V21.4057C20.9817 20.2822 20.0822 19.3713 18.9726 19.3713C17.8629 19.3713 16.9634 20.2822 16.9634 21.4057" fill="#5D5E69"/>
<path d="M20.9819 21.3356C20.9819 22.4591 21.8815 23.37 22.9911 23.37C24.1007 23.37 25.0003 22.4591 25.0003 21.3356V21.4057C25.0003 20.2822 24.1007 19.3713 22.9911 19.3713C21.8815 19.3713 20.9819 20.2822 20.9819 21.4057" fill="#BC6C59"/>
<path d="M2.91943 23.3522C2.91943 24.4757 3.81897 25.3866 4.92861 25.3866C6.03824 25.3866 6.93778 24.4757 6.93778 23.3522V23.4223C6.93778 22.2988 6.03824 21.3879 4.92861 21.3879C3.81897 21.3879 2.91943 22.2988 2.91943 23.4223" fill="#F9B04D"/>
<path d="M6.93799 23.3522C6.93799 24.4757 7.83753 25.3866 8.94716 25.3866C10.0568 25.3866 10.9563 24.4757 10.9563 23.3522V23.4223C10.9563 22.2988 10.0568 21.3879 8.94716 21.3879C7.83753 21.3879 6.93799 22.2988 6.93799 23.4223" fill="#BC6C59"/>
<path d="M10.9561 23.3522C10.9561 24.4757 11.8556 25.3866 12.9652 25.3866C14.0749 25.3866 14.9744 24.4757 14.9744 23.3522V23.4223C14.9744 22.2988 14.0749 21.3879 12.9652 21.3879C11.8556 21.3879 10.9561 22.2988 10.9561 23.4223" fill="#5D5E69"/>
<path d="M14.9746 23.3522C14.9746 24.4757 15.8741 25.3866 16.9838 25.3866C18.0934 25.3866 18.993 24.4757 18.993 23.3522V23.4223C18.993 22.2988 18.0934 21.3879 16.9838 21.3879C15.8741 21.3879 14.9746 22.2988 14.9746 23.4223" fill="#BC6C59"/>
<path d="M18.9927 23.3522C18.9927 24.4757 19.8922 25.3866 21.0018 25.3866C22.1115 25.3866 23.011 24.4757 23.011 23.3522V23.4223C23.011 22.2988 22.1115 21.3879 21.0018 21.3879C19.8922 21.3879 18.9927 22.2988 18.9927 23.4223" fill="#F9B04D"/>
<path d="M4.90626 25.4346C4.90712 25.4153 4.9074 25.3957 4.90769 25.3763C4.88913 24.2689 3.99744 23.377 2.89943 23.377C1.80142 23.377 0.909678 24.269 0.891113 25.3763C0.891448 25.3957 0.891687 25.4153 0.892549 25.4346H4.90626Z" fill="#BC6C59"/>
<path d="M8.92437 25.4346C8.92523 25.4153 8.92552 25.3957 8.9258 25.3763C8.90724 24.2689 8.0155 23.377 6.91749 23.377C5.81948 23.377 4.92774 24.269 4.90918 25.3763C4.90951 25.3957 4.90975 25.4153 4.91062 25.4346H8.92437Z" fill="#5D5E69"/>
<path d="M12.9429 25.4346C12.9437 25.4153 12.944 25.3957 12.9443 25.3763C12.9257 24.2689 12.0341 23.377 10.936 23.377C9.83799 23.377 8.9463 24.269 8.92773 25.3763C8.92807 25.3957 8.92831 25.4153 8.92917 25.4346H12.9429ZM16.9612 25.4346C16.9621 25.4153 16.9624 25.3957 16.9627 25.3763C16.9441 24.2689 16.0524 23.377 14.9544 23.377C13.8564 23.377 12.9646 24.269 12.9461 25.3763C12.9464 25.3957 12.9467 25.4153 12.9475 25.4346H16.9612Z" fill="#484854"/>
<path d="M20.9795 25.4346C20.9804 25.4153 20.9806 25.3957 20.981 25.3763C20.9624 24.2689 20.0707 23.377 18.9727 23.377C17.8747 23.377 16.9829 24.269 16.9644 25.3763C16.9647 25.3957 16.9649 25.4153 16.9658 25.4346H20.9795Z" fill="#5D5E69"/>
<path d="M24.9976 25.4346C24.9984 25.4153 24.9987 25.3957 24.999 25.3763C24.9804 24.2689 24.0887 23.377 22.9907 23.377C21.8927 23.377 21.001 24.269 20.9824 25.3763C20.9828 25.3957 20.983 25.4152 20.9839 25.4346H24.9976Z" fill="#BC6C59"/>
</svg>
